<?xml version="1.0" encoding="utf-8"?>
<!-- Generator: Adobe Illustrator 16.0.0, SVG Export Plug-In . SVG Version: 6.00 Build 0)  -->
<!DOCTYPE svg PUBLIC "-//W3C//DTD SVG 1.1//EN" "http://www.w3.org/Graphics/SVG/1.1/DTD/svg11.dtd">
<svg version="1.1" id="Layer_1" xmlns="http://www.w3.org/2000/svg" xmlns:xlink="http://www.w3.org/1999/xlink" x="0px" y="0px"
	 width="1024px" height="770px" viewBox="0 0 1024 770" enable-background="new 0 0 1024 770" xml:space="preserve">
<path fill="#F2F2F2" d="M974.751,254.152c-25.517-42.76-61.973-81.109-108.356-113.982C771.615,72.995,645.755,36,512,36
	S252.385,72.995,157.604,140.17c-46.381,32.872-82.837,71.221-108.356,113.982C22.654,298.716,9.169,346.105,9.169,395.001
	c0,48.896,13.485,96.284,40.079,140.848c25.519,42.761,61.975,81.109,108.356,113.981C252.384,717.005,378.245,754,512,754
	s259.615-36.995,354.395-104.17c46.382-32.872,82.839-71.22,108.356-113.981c26.595-44.562,40.079-91.949,40.079-140.848
	C1014.83,346.104,1001.346,298.716,974.751,254.152z M512,736C244.664,736,27.169,583.028,27.169,395.001
	C27.169,206.973,244.664,54,512,54c267.337,0,484.831,152.973,484.831,341.001C996.831,583.028,779.336,736,512,736z"/>
<path fill="#F2F2F2" d="M882.203,282.322c-20.416-34.207-49.582-64.888-86.688-91.188C719.691,137.396,619.004,107.8,512,107.8
	s-207.692,29.596-283.517,83.334c-37.105,26.298-66.27,56.978-86.685,91.186c-21.275,35.651-32.063,73.561-32.063,112.678
	s10.788,77.029,32.063,112.679c20.415,34.208,49.58,64.891,86.685,91.188C304.308,652.602,404.996,682.2,512,682.2
	s207.691-29.597,283.516-83.334c37.107-26.297,66.273-56.979,86.688-91.188c21.272-35.65,32.062-73.562,32.062-112.679
	C914.265,355.884,903.477,317.973,882.203,282.322z M512,667.8c-213.869,0-387.865-122.378-387.865-272.8S298.131,122.2,512,122.2
	S899.865,244.578,899.865,395S725.869,667.8,512,667.8z"/>
<path fill="#F2F2F2" d="M808.16,304.857c-16.33-27.367-39.664-51.91-69.349-72.949C678.152,188.916,597.604,165.24,512,165.24
	s-166.154,23.676-226.813,66.668c-29.684,21.038-53.016,45.582-69.348,72.949c-17.02,28.521-25.651,58.85-25.651,90.143
	s8.631,61.622,25.651,90.143c16.332,27.367,39.664,51.91,69.348,72.947c60.659,42.992,141.209,66.67,226.813,66.67
	s166.152-23.678,226.812-66.67c29.684-21.037,53.018-45.58,69.348-72.947c17.02-28.521,25.65-58.85,25.65-90.143
	C833.811,363.706,825.181,333.378,808.16,304.857z M512,613.24c-171.096,0-310.292-97.902-310.292-218.24S340.904,176.76,512,176.76
	S822.292,274.662,822.292,395S683.096,613.24,512,613.24z"/>
<path fill="#F2F2F2" d="M748.929,322.887c-13.063-21.893-31.729-41.528-55.479-58.359c-48.527-34.394-112.967-53.335-181.449-53.335
	c-68.483,0-132.924,18.941-181.451,53.335c-23.748,16.831-42.413,36.465-55.479,58.359c-13.616,22.816-20.521,47.079-20.521,72.114
	c0,25.034,6.905,49.297,20.52,72.114c13.066,21.893,31.732,41.526,55.479,58.355c48.527,34.396,112.968,53.336,181.451,53.336
	c68.482,0,132.922-18.941,181.45-53.337c23.75-16.829,42.416-36.462,55.479-58.355c13.617-22.816,20.521-47.079,20.521-72.113
	C769.45,369.966,762.546,345.703,748.929,322.887z M512,569.592c-136.877,0-248.234-78.322-248.234-174.592
	c0-96.27,111.357-174.592,248.234-174.592S760.233,298.729,760.233,395C760.233,491.27,648.877,569.592,512,569.592z"/>
<path fill="#F2F2F2" d="M701.542,337.309c-10.452-17.516-25.384-33.223-44.383-46.688c-38.821-27.515-90.374-42.668-145.159-42.668
	c-54.786,0-106.339,15.153-145.161,42.668c-18.998,13.465-33.93,29.173-44.383,46.688c-10.895,18.253-16.417,37.663-16.417,57.691
	c0,20.027,5.523,39.438,16.417,57.69c10.453,17.516,25.385,33.224,44.383,46.687c38.822,27.516,90.374,42.669,145.161,42.669
	c54.785,0,106.338-15.153,145.159-42.669c18.999-13.463,33.931-29.171,44.383-46.687c10.894-18.253,16.417-37.663,16.417-57.69
	C717.959,374.972,712.436,355.562,701.542,337.309z M512,534.674c-109.502,0-198.588-62.658-198.588-139.674
	c0-77.017,89.086-139.674,198.588-139.674S710.586,317.983,710.586,395C710.586,472.016,621.502,534.674,512,534.674z"/>
<path fill="#F2F2F2" d="M663.633,348.847c-8.358-14.012-20.307-26.579-35.506-37.35C597.07,289.485,555.828,277.363,512,277.363
	c-43.83,0-85.072,12.122-116.129,34.134c-15.198,10.772-27.146,23.338-35.506,37.35c-8.714,14.602-13.133,30.13-13.133,46.153
	c0,16.021,4.419,31.548,13.133,46.152c8.359,14.012,20.308,26.579,35.506,37.35c31.057,22.012,72.299,34.135,116.129,34.135
	c43.828,0,85.07-12.123,116.127-34.135c15.199-10.771,27.146-23.338,35.506-37.35c8.715-14.604,13.135-30.131,13.135-46.152
	C676.768,378.977,672.348,363.451,663.633,348.847z M512,506.738c-87.601,0-158.871-50.126-158.871-111.738
	c0-61.613,71.271-111.739,158.871-111.739S670.869,333.387,670.869,395C670.869,456.612,599.601,506.738,512,506.738z"/>
<path fill="#F2F2F2" d="M512,352.336c-30.98,0-56.184,19.138-56.184,42.662c0,23.525,25.203,42.664,56.184,42.664
	c30.979,0,56.182-19.139,56.182-42.664C568.182,371.474,542.979,352.336,512,352.336z M512,427.662
	c-25.467,0-46.184-14.652-46.184-32.664c0-18.01,20.717-32.662,46.184-32.662c25.465,0,46.182,14.652,46.182,32.662
	C558.182,413.01,537.465,427.662,512,427.662z"/>
</svg>
