<?xml version="1.0" encoding="utf-8"?>
<!-- Generator: Adobe Illustrator 16.2.1, SVG Export Plug-In . SVG Version: 6.00 Build 0)  -->
<!DOCTYPE svg PUBLIC "-//W3C//DTD SVG 1.1//EN" "http://www.w3.org/Graphics/SVG/1.1/DTD/svg11.dtd">
<svg version="1.1" id="Layer_1" xmlns="http://www.w3.org/2000/svg" xmlns:xlink="http://www.w3.org/1999/xlink" x="0px" y="0px"
	 width="100px" height="100px" viewBox="0 0 100 100" enable-background="new 0 0 100 100" xml:space="preserve">
<path d="M86.832,38.185l-7.376-19.05c-1.38-3.647-4.395-6.75-10.102-6.776H58.951H41.169H30.584c-5.68,0.026-8.695,3.13-10.1,6.776
	l-7.379,19.05C10.176,38.562,4.991,42.005,5,48.526v24.257h7.199v7.743c-0.018,9.545,13.49,9.431,13.486,0v-7.743H50h24.254v7.743
	c0.029,9.431,13.537,9.545,13.547,0v-7.743H95V48.526C94.978,42.005,89.789,38.562,86.832,38.185z M19.155,58.145
	c-3.451,0.01-6.245-2.869-6.23-6.408c-0.015-3.564,2.779-6.444,6.23-6.415c3.439-0.029,6.233,2.851,6.229,6.415
	C25.388,55.275,22.593,58.154,19.155,58.145z M50,38.005h-0.06H20.787l5.564-15.001c0.671-2.129,1.713-3.653,4.175-3.689H49.94H50
	h19.477c2.424,0.037,3.469,1.559,4.172,3.689l5.566,15.001H50z M80.846,58.145c-3.474,0.01-6.27-2.869-6.288-6.408
	c0.019-3.564,2.814-6.444,6.288-6.415c3.416-0.029,6.207,2.851,6.23,6.415C87.055,55.275,84.262,58.154,80.846,58.145z"/>
</svg>
