<?xml version="1.0" encoding="utf-8"?>
<!-- Generator: Adobe Illustrator 16.2.1, SVG Export Plug-In . SVG Version: 6.00 Build 0)  -->
<!DOCTYPE svg PUBLIC "-//W3C//DTD SVG 1.1//EN" "http://www.w3.org/Graphics/SVG/1.1/DTD/svg11.dtd">
<svg version="1.1"
	 id="svg6584" xmlns:dc="http://purl.org/dc/elements/1.1/" xmlns:cc="http://creativecommons.org/ns#" xmlns:rdf="http://www.w3.org/1999/02/22-rdf-syntax-ns#" xmlns:svg="http://www.w3.org/2000/svg"
	 xmlns="http://www.w3.org/2000/svg" xmlns:xlink="http://www.w3.org/1999/xlink" x="0px" y="0px" width="100px" height="100px"
	 viewBox="0 0 100 100" enable-background="new 0 0 100 100" xml:space="preserve">
<path id="path8421-9-1-0-1" d="M39.583,8.333c-2.309,0-4.167,1.858-4.167,4.167h-8.333c-2.309,0-4.167,1.858-4.167,4.167v25.26
	l-8.333,3.907l8.333,16.667v8.334l13.281,3.905c0.456,0.149,0.863,0.259,1.302,0.259s0.919-0.142,1.302-0.259L50,70.833
	l11.197,3.905c0.43,0.143,0.863,0.26,1.303,0.26s0.893-0.135,1.303-0.26l13.281-3.905V62.5l8.332-16.667l-8.332-3.906v-25.26
	c0-2.309-1.859-4.167-4.168-4.167h-8.332c0-2.309-1.859-4.167-4.168-4.167H39.583L39.583,8.333z M31.25,20.833h37.5v17.188
	L54.166,31.25L50,29.167l-4.167,2.083L31.25,38.021V20.833z M22.917,79.166c-0.443,0-1.009,0.143-1.302,0.259l-7.031,2.345v8.463
	l8.333-2.733l13.281,3.91c0.456,0.149,0.863,0.258,1.302,0.258s0.919-0.137,1.302-0.258L50,87.498l11.197,3.91
	c0.43,0.142,0.863,0.258,1.303,0.258s0.893-0.129,1.303-0.258l13.281-3.91l8.332,2.734v-8.465l-7.031-2.344
	c-0.414-0.138-0.861-0.259-1.301-0.259s-0.879,0.121-1.303,0.259L62.5,83.33l-11.197-3.906c-0.439-0.146-0.863-0.259-1.303-0.259
	s-0.903,0.134-1.302,0.259L37.5,83.33l-13.281-3.906C23.681,79.221,23.36,79.166,22.917,79.166z"/>
</svg>
