<?xml version="1.0" encoding="utf-8"?>
<!-- Generator: Adobe Illustrator 15.0.2, SVG Export Plug-In . SVG Version: 6.00 Build 0)  -->
<!DOCTYPE svg PUBLIC "-//W3C//DTD SVG 1.1//EN" "http://www.w3.org/Graphics/SVG/1.1/DTD/svg11.dtd">
<svg version="1.1" id="Layer_1" xmlns="http://www.w3.org/2000/svg" xmlns:xlink="http://www.w3.org/1999/xlink" x="0px" y="0px"
	 width="100px" height="100px" viewBox="0 0 100 100" enable-background="new 0 0 100 100" xml:space="preserve">
<path d="M93.31,39.378c-0.96-0.283-4.236-1.355-6.441-1.412c-2.202-0.056-4.639,3.014-4.639,3.014
	c-2.153,1.865-4.234,4.406-6.058,6.568c0-0.58,0-0.904,0-0.904s0-5.666-4.848-5.666c-0.288,0-0.562-0.05-0.826-0.139l0.417-25.804
	c0.063-3.901-1.503-6.125-2.83-7.303c-1.47-1.308-3.212-1.891-4.699-2.136c-0.72-0.859-1.793-1.411-2.999-1.398
	c-1.053,0.011-25.915,0.339-38.441,2.1C9.475,8.045,6.219,18.662,6.241,24.033c0.004,1.11,0.488,2.094,1.242,2.792L7.238,41.958
	c-1.934,1.62-1.941,4.686-1.941,4.686s0,20.081,0,31.589s13.933,17.569,35,17.569h0.875c21.068,0,35-6.059,35-17.567
	c0-1.627,0-3.43,0-5.319c-1.079,0.89-2.243,1.458-3.479,1.458c-0.95,0-1.716-0.302-2.337-0.798c0.3,0.074,0.622,0.116,0.969,0.116
	c5.758,0,9.997-11.812,10.905-15.145c0.908-3.33,7.269-13.025,9.691-15.751c0,0,0.539-1.102,2.066-1.61
	C95.514,40.678,94.27,39.661,93.31,39.378z M50.728,27.651c-1.099,0-2.083,0-2.971,0c-0.001-0.523-0.424-0.946-0.947-0.947H43.64
	c1.022-1.883,2.152-4.288,2.152-4.604c0-0.527-0.427-0.954-0.954-0.954h-7.491c-0.527,0-0.955,0.425-0.955,0.954
	c0,0.315,1.131,2.72,2.153,4.604h-3.009c-0.523,0-0.947,0.424-0.948,0.947c-1.103,0-2.374,0-3.85,0
	c-12.244,0-15.007,9.064-18.319,12.239l0.209-12.995c0.802-0.703,1.323-1.72,1.336-2.866c0.01-0.904,0.352-8.864,9.053-10.085
	c12.04-1.691,37.212-2.021,37.466-2.025c1.036-0.013,1.967-0.438,2.652-1.112c0.561,0.152,1.113,0.397,1.544,0.786
	c0.746,0.673,1.113,1.804,1.089,3.358l-0.327,20.225C62.738,31.583,58.79,27.651,50.728,27.651z"/>
</svg>
