<?xml version="1.0" encoding="utf-8"?>
<!-- Generator: Adobe Illustrator 16.2.1, SVG Export Plug-In . SVG Version: 6.00 Build 0)  -->
<!DOCTYPE svg PUBLIC "-//W3C//DTD SVG 1.1//EN" "http://www.w3.org/Graphics/SVG/1.1/DTD/svg11.dtd">
<svg version="1.1" id="Your_Icon" xmlns="http://www.w3.org/2000/svg" xmlns:xlink="http://www.w3.org/1999/xlink" x="0px" y="0px"
	 width="100px" height="100px" viewBox="0 0 100 100" enable-background="new 0 0 100 100" xml:space="preserve">
<path d="M80.926,8.766H19.075c-5.694,0-10.309,4.615-10.309,10.309v61.851c0,5.693,4.615,10.309,10.309,10.309h61.851
	c5.693,0,10.309-4.615,10.309-10.309V19.075C91.234,13.381,86.619,8.766,80.926,8.766z M29.383,19.075
	c5.694,0,10.308,4.614,10.308,10.309c0,5.694-4.614,10.308-10.308,10.308c-5.694,0-10.309-4.614-10.309-10.308
	C19.075,23.689,23.689,19.075,29.383,19.075z M29.383,80.926c-5.694,0-10.309-4.615-10.309-10.309s4.614-10.309,10.309-10.309
	c5.694,0,10.308,4.615,10.308,10.309S35.077,80.926,29.383,80.926z M50,60.309c-5.694,0-10.309-4.615-10.309-10.308
	c0-5.694,4.615-10.309,10.309-10.309c5.693,0,10.308,4.615,10.308,10.309C60.309,55.693,55.693,60.309,50,60.309z M70.617,80.926
	c-5.693,0-10.309-4.615-10.309-10.309s4.615-10.309,10.309-10.309s10.309,4.615,10.309,10.309S76.311,80.926,70.617,80.926z
	 M70.617,39.691c-5.693,0-10.309-4.614-10.309-10.308c0-5.694,4.615-10.309,10.309-10.309s10.309,4.614,10.309,10.309
	C80.926,35.077,76.311,39.691,70.617,39.691z"/>
</svg>
