<?xml version="1.0" encoding="utf-8"?>
<!-- Generator: Adobe Illustrator 16.2.1, SVG Export Plug-In . SVG Version: 6.00 Build 0)  -->
<!DOCTYPE svg PUBLIC "-//W3C//DTD SVG 1.1//EN" "http://www.w3.org/Graphics/SVG/1.1/DTD/svg11.dtd">
<svg version="1.1" id="Your_Icon" xmlns="http://www.w3.org/2000/svg" xmlns:xlink="http://www.w3.org/1999/xlink" x="0px" y="0px"
	 width="100px" height="100px" viewBox="0 0 100 100" enable-background="new 0 0 100 100" xml:space="preserve">
<path d="M96.774,10.628c1.101,0.537,0.622,2.154,0.622,3.107c0,8.082,0,17.938,0,26.129c-6.615-1.776-6.811-1.219-12.971-3.449
	c0.355-5.157,0.177-16.391,0.277-21.292C90.618,12.96,90.878,12.812,96.774,10.628z M81.021,15.217
	c-16.295-0.683-21.895-0.897-35.651-4.472c-4.878-1.267-9.349-3.111-14.295-3.418C20.44,6.667,13.418,9.041,6.836,12.921
	c-1.34,0.791-3.789,1.843-4.195,3.107c-0.316,0.986,0,2.95,0,4.507c0,5.052-0.006,10.366,0,14.605
	c2.746,2.459,6.386,4.832,10.41,6.215c3.391,1.168,8.499,2.312,7.287,2.008c1.646,2.4,4.041,6.32,4.366,9.8
	c0.261,2.808-0.527,4.934-0.776,6.992c-1.516,12.52,1.265,20.822,2.951,31.41c1.779,1.899,6.286,2.428,8.701,0.776
	c1.302-5.427,3.35-12.46,3.263-18.334c-0.11-7.452,0.542-9.314-0.932-15.719c-0.223-0.97-0.785-1.847-0.932-2.796
	c-0.732-4.753,0.963-8.073,2.796-10.411c0.275-0.351,3.455-3.209,4.006-4.156c14.304-3.876,19.96-3.782,37.118-4.576
	C81.159,31.224,81.28,20.347,81.021,15.217z M39.622,59.069c0.877,0.415,1.55,1.038,2.175,1.708
	c-0.189,3.246,1.26,9.151-1.087,10.722C40.446,67.255,40.118,63.078,39.622,59.069z"/>
</svg>
