<?xml version="1.0" encoding="utf-8"?>
<!-- Generator: Adobe Illustrator 16.2.1, SVG Export Plug-In . SVG Version: 6.00 Build 0)  -->
<!DOCTYPE svg PUBLIC "-//W3C//DTD SVG 1.1//EN" "http://www.w3.org/Graphics/SVG/1.1/DTD/svg11.dtd">
<svg version="1.1" id="Layer_1" xmlns="http://www.w3.org/2000/svg" xmlns:xlink="http://www.w3.org/1999/xlink" x="0px" y="0px"
	 width="100px" height="100px" viewBox="0 0 100 100" enable-background="new 0 0 100 100" xml:space="preserve">
<path d="M97.312,66.661c0,12.864-6.921,25.537-21.141,25.537c-5.146,0-16.369-2.432-16.369-11.881
	c0-11.316,8.511-15.528,13.656-16.932c5.145-1.402,14.312-1.963,15.341-3.086s-3.181-28.904-5.145-29.934
	c-1.964-1.029-13.657,0.186-22.917,1.684c-9.262,1.497-21.516,4.491-22.358,6.174c-0.843,1.683,4.677,19.924,4.677,31.523
	c0,11.6-13.282,23.105-23.104,23.105c-7.671,0-17.555-4.344-17.259-13.047c0.609-17.822,30.238-18.352,30.238-18.352
	s-0.888-7.029-2.315-15.715c-1.363-8.292-5.612-23.137-4.864-25.007C26.501,18.86,39.784,9.881,57.65,8.103
	c17.866-1.778,25.725-0.75,27.221,0.466c1.497,1.217,7.951,21.609,10.01,33.958S97.312,61.704,97.312,66.661z"/>
</svg>
