<?xml version="1.0" encoding="utf-8"?>
<!-- Generator: Adobe Illustrator 16.2.1, SVG Export Plug-In . SVG Version: 6.00 Build 0)  -->
<!DOCTYPE svg PUBLIC "-//W3C//DTD SVG 1.1//EN" "http://www.w3.org/Graphics/SVG/1.1/DTD/svg11.dtd">
<svg version="1.1"
	 id="svg3116" xmlns:dc="http://purl.org/dc/elements/1.1/" xmlns:cc="http://creativecommons.org/ns#" xmlns:rdf="http://www.w3.org/1999/02/22-rdf-syntax-ns#" xmlns:svg="http://www.w3.org/2000/svg" xmlns:sodipodi="http://sodipodi.sourceforge.net/DTD/sodipodi-0.dtd" xmlns:inkscape="http://www.inkscape.org/namespaces/inkscape" inkscape:version="0.48.2 r9819" sodipodi:docname="noun_project_982.svg"
	 xmlns="http://www.w3.org/2000/svg" xmlns:xlink="http://www.w3.org/1999/xlink" x="0px" y="0px" width="100.004px" height="100px"
	 viewBox="0 0 100.004 100" enable-background="new 0 0 100.004 100" xml:space="preserve">
<path id="path3122" d="M51.71,18.999c-17.101,0-30.964,13.863-30.964,30.964c0,17.104,13.863,30.965,30.964,30.965
	c17.103,0,30.965-13.861,30.965-30.965C82.675,32.862,68.812,18.999,51.71,18.999z M63.242,38.431
	c0.719-0.583,1.774-0.474,2.355,0.243c0.583,0.718,0.475,1.773-0.244,2.356c-0.717,0.583-1.771,0.474-2.354-0.244
	C62.417,40.07,62.526,39.014,63.242,38.431z M64.366,62.641l-0.011-0.008c-6.402,6.43-16.764,7.088-23.957,1.242
	c-0.717-0.584-0.827-1.639-0.243-2.355c0.583-0.719,1.638-0.824,2.356-0.242c5.848,4.752,14.27,4.215,19.476-1.014l0.011,0.012
	c3.658-3.658,5.245-9.154,3.66-14.46c-0.262-0.887,0.24-1.818,1.129-2.083c0.887-0.264,1.818,0.24,2.082,1.126
	C70.814,51.381,68.865,58.143,64.366,62.641z M15.268,38.033l-1.667-18.51c-0.03-0.281-0.267-0.5-0.556-0.5
	c-0.31,0-0.561,0.251-0.561,0.561l0.14,17.301c0,0.425-0.345,0.771-0.771,0.771c-0.426,0-0.771-0.345-0.771-0.771l-0.28-17.303
	c0-0.31-0.251-0.561-0.561-0.561s-0.56,0.251-0.56,0.561v17.301c0,0.425-0.346,0.771-0.771,0.771c-0.426,0-0.771-0.345-0.771-0.771
	V19.582c0-0.31-0.251-0.561-0.56-0.561c-0.31,0-0.561,0.251-0.561,0.561L6.74,36.883c0,0.425-0.344,0.771-0.771,0.771
	c-0.425,0-0.771-0.345-0.771-0.771l0.14-17.301c0-0.31-0.25-0.561-0.56-0.561c-0.289,0-0.526,0.219-0.556,0.5L2.555,38.033
	C2.519,38.307,2.5,38.586,2.5,38.872c0,1.251,0.36,2.418,0.979,3.405l0.001,0.002l2.487,3.975c0.534,0.93,0.84,2.008,0.84,3.159
	L5.13,77.098c0,2.088,1.693,3.781,3.782,3.781c2.089,0,3.783-1.693,3.783-3.781l-1.682-27.685c0-1.15,0.308-2.229,0.843-3.159
	l2.487-3.977l0.001-0.003c0.62-0.986,0.979-2.154,0.979-3.405C15.323,38.586,15.304,38.307,15.268,38.033z M97.5,21.616
	l0.004,55.591c0,2.094-1.699,3.795-3.793,3.795s-3.792-1.701-3.792-3.795l2.101-22.512c0-0.99-0.379-1.895-1.004-2.57
	c-0.651-0.707-1.094-1.625-1.094-2.665V33.859c0,0-0.342-14.764,5.059-14.764C96.372,19.095,97.5,20.224,97.5,21.616z"/>
</svg>
