<?xml version="1.0" encoding="utf-8"?>
<!-- Generator: Adobe Illustrator 16.2.1, SVG Export Plug-In . SVG Version: 6.00 Build 0)  -->
<!DOCTYPE svg PUBLIC "-//W3C//DTD SVG 1.1//EN" "http://www.w3.org/Graphics/SVG/1.1/DTD/svg11.dtd">
<svg version="1.1"
	 id="Layer_1" xmlns:rdf="http://www.w3.org/1999/02/22-rdf-syntax-ns#" xmlns:svg="http://www.w3.org/2000/svg" xmlns:dc="http://purl.org/dc/elements/1.1/" xmlns:cc="http://creativecommons.org/ns#" xmlns:sodipodi="http://sodipodi.sourceforge.net/DTD/sodipodi-0.dtd" xmlns:inkscape="http://www.inkscape.org/namespaces/inkscape" sodipodi:docname="noun_project_1572.svg" inkscape:version="0.48.2 r9819"
	 xmlns="http://www.w3.org/2000/svg" xmlns:xlink="http://www.w3.org/1999/xlink" x="0px" y="0px" width="100px" height="100px"
	 viewBox="0 0 100 100" enable-background="new 0 0 100 100" xml:space="preserve">
<sodipodi:namedview  objecttolerance="10" id="namedview3177" bordercolor="#666666" inkscape:cx="40" inkscape:zoom="2.95" gridtolerance="10" pagecolor="#ffffff" borderopacity="1" inkscape:cy="40" showgrid="false" guidetolerance="10" inkscape:pageopacity="0" inkscape:pageshadow="2" inkscape:window-width="640" inkscape:window-height="480" inkscape:window-x="16" inkscape:window-y="65" inkscape:window-maximized="0" inkscape:current-layer="Layer_1">
	</sodipodi:namedview>
<path id="path3175" d="M16.834,79.305c4.431,0,8.031,3.729,8.031,8.32c0,4.604-3.601,8.327-8.031,8.327
	c-4.438,0-8.032-3.726-8.032-8.327C8.802,83.033,12.396,79.305,16.834,79.305z M31.663,58c0,0-2.793,6.024-0.988,9.403
	c0,0-9.742,0.174-8.052-5.734C22.622,61.669,23.229,58.529,31.663,58z M41.583,18.417c0,0,47.583-1.625,49.566,5.596
	c1.11,4.015-17.117,3.61-28.523,3.491l-0.224,18.333l-6.052,28.343c0,0-12.744,24.797-18.972,21.126c0,0-5.297-3.252,8.905-23.743
	l2.092-13.676c0,0-9.834,13.676-14.546,11.409c0,0-9.432-3.32,6.984-23.223l0.231-16.994c0,0-20.847,19.032-23.864,17.46
	c0,0-10.997-0.815,24.208-27.912 M59.163,10.386c0,3.362-2.9,6.088-6.48,6.088c-3.578,0-6.478-2.726-6.478-6.088
	c0-3.362,2.9-6.088,6.478-6.088C56.262,4.298,59.163,7.023,59.163,10.386z"/>
</svg>
