<?xml version="1.0" encoding="utf-8"?>
<!-- Generator: Adobe Illustrator 16.2.1, SVG Export Plug-In . SVG Version: 6.00 Build 0)  -->
<!DOCTYPE svg PUBLIC "-//W3C//DTD SVG 1.1//EN" "http://www.w3.org/Graphics/SVG/1.1/DTD/svg11.dtd">
<svg version="1.1" id="Layer_1" xmlns="http://www.w3.org/2000/svg" xmlns:xlink="http://www.w3.org/1999/xlink" x="0px" y="0px"
	 width="100px" height="100px" viewBox="0 0 100 100" enable-background="new 0 0 100 100" xml:space="preserve">
<path d="M86.768,77.749c8.023,25.052-46.229,11.485-50.521,7.476v6.365c0,1.799-1.521,3.321-3.18,3.321H10.369
	c-1.659,0-3.185-1.522-3.185-3.321V38.306c0-1.662,1.52-3.185,3.185-3.185h22.699c1.659,0,3.18,1.522,3.18,3.185v3.596
	c10.795-7.06,16.335-24.772,16.474-25.466c1.66-7.196,5.813-11.347,11.766-11.347c6.226,0,13.562,6.088,13.562,18.96
	c0,3.183-1.246,8.166-3.184,11.9h1.938c8.168,0,17.438,3.879,14.394,15.643c3.185,5.398,1.108,11.348-1.382,13.563
	C92.303,70.135,90.225,75.257,86.768,77.749z M77.631,63.216c7.891,0,8.168-8.302,0.969-8.581c-1.523-0.14-1.523-1.658,0-1.658
	c7.193,0,5.951-9.137-1.797-9.137h-8.168c-2.906,0-4.293-1.799-4.293-3.597c0-3.324,5.812-10.521,5.812-16.058
	c0-7.057-3.457-11.21-5.673-11.21c-2.35,0-3.598,1.938-3.875,4.29c-1.659,11.073-13.843,29.48-24.359,34.049v25.051
	c14.81,7.336,27.822,7.89,34.046,8.166c9.414,0.273,14.119-7.197,4.432-9.274c-2.075-0.276-1.938-2.075-0.418-2.075
	c9.828,0,10.519-7.336,3.324-8.166C75.834,64.74,75.834,63.216,77.631,63.216z"/>
</svg>
