<?xml version="1.0" encoding="utf-8"?>
<!-- Generator: Adobe Illustrator 16.2.1, SVG Export Plug-In . SVG Version: 6.00 Build 0)  -->
<!DOCTYPE svg PUBLIC "-//W3C//DTD SVG 1.1//EN" "http://www.w3.org/Graphics/SVG/1.1/DTD/svg11.dtd">
<svg version="1.1"
	 id="Layer_1" xmlns:dc="http://purl.org/dc/elements/1.1/" xmlns:cc="http://creativecommons.org/ns#" xmlns:rdf="http://www.w3.org/1999/02/22-rdf-syntax-ns#" xmlns:svg="http://www.w3.org/2000/svg" xmlns:sodipodi="http://sodipodi.sourceforge.net/DTD/sodipodi-0.dtd" xmlns:inkscape="http://www.inkscape.org/namespaces/inkscape" inkscape:version="0.48.2 r9819" sodipodi:docname="noun_project_526.svg"
	 xmlns="http://www.w3.org/2000/svg" xmlns:xlink="http://www.w3.org/1999/xlink" x="0px" y="0px" width="100px" height="99.993px"
	 viewBox="0 0 100 99.993" enable-background="new 0 0 100 99.993" xml:space="preserve">
<path id="path3010" d="M22.983,19.906c0.618-1.096,0.26-2.524-0.857-3.144l-3.904-2.286c-1.121-0.619-2.523-0.262-3.167,0.857
	L3.004,36.121c-0.619,1.095-0.261,2.5,0.857,3.144l3.929,2.262c1.094,0.643,2.5,0.262,3.144-0.833L22.983,19.906z M39.031,18.644
	c4.453,0,8.071-3.62,8.071-8.072S43.484,2.5,39.031,2.5c-4.454,0-8.072,3.62-8.072,8.072S34.579,18.644,39.031,18.644z
	 M56.651,77.569l-0.952,7.19l-25.93,6.311l0.237,4.453h63.242c2.237,0,4.049-1.808,4.049-4.047L97.226,6.238l-8.667-2.023
	L83.583,26.62l-8.311,3.501L67.89,50.789l7,15.805l-1.978,6.072L56.651,77.569z M13.411,43.169c-0.429,0.88-0.738,1.857-0.904,2.905
	c-0.071,0.524-0.12,1.048-0.12,1.571l0.381,23.997L4.481,89.499c-0.287,0.525-0.499,1.144-0.595,1.787
	c-0.453,2.95,1.571,5.69,4.523,6.144c2.286,0.355,4.478-0.811,5.524-2.738l9.12-19.525c0.19-0.454,0.357-0.93,0.428-1.453
	c0.023-0.238,0.047-0.498,0.047-0.736l-0.07-14.828l14,6.114l2.262,14.501c0.454,2.119,2.192,3.811,4.454,4.167
	c2.952,0.429,5.691-1.595,6.143-4.524c0.071-0.498,0.071-1,0.023-1.475l-2.763-17.498c-0.334-1.691-1.452-3.144-3.024-3.883
	L32.03,49.979l7.976-13.882l3.952,5.025c0.406,0.453,0.929,0.833,1.524,1.071l15.073,4.405c1.999,0.429,4.048-0.619,4.833-2.548
	c0.882-2.19-0.166-4.667-2.334-5.548c-0.07-0.023-0.142-0.047-0.214-0.071l-13.096-3.858l-9.854-11.834
	c-1.479-1.571-3.455-2.69-5.739-3.047c-4-0.596-7.787,1.309-9.788,4.547L13.411,43.169z"/>
</svg>
