<?xml version="1.0" encoding="UTF-8" standalone="no"?>
<!-- Generator: Adobe Illustrator 15.0.2, SVG Export Plug-In . SVG Version: 6.00 Build 0)  -->

<svg
   xmlns:dc="http://purl.org/dc/elements/1.1/"
   xmlns:cc="http://creativecommons.org/ns#"
   xmlns:rdf="http://www.w3.org/1999/02/22-rdf-syntax-ns#"
   xmlns:svg="http://www.w3.org/2000/svg"
   xmlns="http://www.w3.org/2000/svg"
   xmlns:sodipodi="http://sodipodi.sourceforge.net/DTD/sodipodi-0.dtd"
   xmlns:inkscape="http://www.inkscape.org/namespaces/inkscape"
   version="1.1"
   id="Layer_1"
   x="0px"
   y="0px"
   width="100px"
   height="100px"
   viewBox="0 0 100 100"
   enable-background="new 0 0 100 100"
   xml:space="preserve"
   inkscape:version="0.48.2 r9819"
   sodipodi:docname="noun_project_10408.svg"><metadata
   id="metadata3518"><rdf:RDF><cc:Work
       rdf:about=""><dc:format>image/svg+xml</dc:format><dc:type
         rdf:resource="http://purl.org/dc/dcmitype/StillImage" /></cc:Work></rdf:RDF></metadata><defs
   id="defs3516" /><sodipodi:namedview
   pagecolor="#ffffff"
   bordercolor="#666666"
   borderopacity="1"
   objecttolerance="10"
   gridtolerance="10"
   guidetolerance="10"
   inkscape:pageopacity="0"
   inkscape:pageshadow="2"
   inkscape:window-width="640"
   inkscape:window-height="480"
   id="namedview3514"
   showgrid="false"
   inkscape:zoom="2.36"
   inkscape:cx="50"
   inkscape:cy="50"
   inkscape:window-x="0"
   inkscape:window-y="22"
   inkscape:window-maximized="0"
   inkscape:current-layer="Layer_1" />

<path
   id="path3512"
   d="m 63.824,35.452 v 32.59 c 0,1.176 -0.01,1.864 -0.105,2.63 0,0 -0.047,1.031 -1.438,2.6 -1.246,1.402 -2.848,2.148 -4.906,2.148 -1.546,0 -2.887,-0.432 -4.023,-1.298 -1.141,-0.862 -1.709,-1.992 -1.709,-3.388 0,-0.59 0.109,-1.178 0.332,-1.766 0.807,-2.426 2.645,-3.822 5.512,-4.189 0.33,-0.074 1.268,-0.019 2.812,0.164 V 40.08 l -17.753,1.814 c -0.036,3.972 -0.036,9.006 0.002,15.107 0,9.483 0,14.538 0,15.164 0,1.14 -0.468,3.692 -1.599,5.151 -0.717,0.925 -1.563,1.525 -2.481,1.853 -0.515,0.218 -1.398,0.292 -2.646,0.218 -1.544,-0.035 -2.849,-0.475 -3.914,-1.316 -1.067,-0.84 -1.599,-1.918 -1.599,-3.233 0,-0.585 0.11,-1.188 0.332,-1.81 0.844,-2.414 2.681,-3.803 5.512,-4.17 0.403,-0.037 1.359,0.039 2.866,0.223 V 38.038 l 24.805,-2.586 z m 22.893,6.003 C 81.953,24.186 67.596,11.956 50.168,11.956 32.962,11.956 19.162,23.643 14.391,40.685 7.711,43.311 3.321,48.947 3.321,56.939 3.32,68.251 12,74.87 24,74.87 V 39.011 c -2,0 -3.768,0.188 -5.444,0.522 4.872,-14.421 16.841,-24.138 31.712,-24.138 15.128,0 27.68,10.225 32.57,24.933 C 81.297,40.035 80,39.867 78,39.867 v 34.145 c 11,0 19.482,-6.303 19.482,-17.072 0,-7.619 -4.396,-12.987 -10.765,-15.485 z" />
</svg>