<?xml version="1.0" encoding="utf-8"?>
<!-- Generator: Adobe Illustrator 16.2.1, SVG Export Plug-In . SVG Version: 6.00 Build 0)  -->
<!DOCTYPE svg PUBLIC "-//W3C//DTD SVG 1.1//EN" "http://www.w3.org/Graphics/SVG/1.1/DTD/svg11.dtd">
<svg version="1.1" id="Layer_1" xmlns="http://www.w3.org/2000/svg" xmlns:xlink="http://www.w3.org/1999/xlink" x="0px" y="0px"
	 width="100px" height="100px" viewBox="0 0 100 100" enable-background="new 0 0 100 100" xml:space="preserve">
<path d="M91.319,73.044c-3.562-2.695-9.958-4.651-14.646-12.025c-1.102-1.996-2.592-3.99-4.433-5.832
	c-1.788-1.786-3.718-3.242-5.653-4.328l9.832-9.834c2.936,1.17,5.949,1.456,8.57,0.786c2.342-0.547,4.59-1.776,6.596-3.779
	c4.414-4.417,5.77-10.732,4.07-16.316l-8.768,8.77l-8.557-2.296l-2.293-8.55l8.768-8.769c-5.583-1.702-11.898-0.346-16.316,4.071
	c-1.979,1.98-3.199,4.199-3.754,6.509c-0.701,2.642-0.426,5.684,0.762,8.654l-12.42,12.421L37.042,26.491
	c0.416-0.419,0.416-1.097-0.004-1.517c-2.523-2.842-3.613-6.104-0.397-9.32c2.908-2.908,8.307-3.774,12.035-2.877
	c0.362,0.112,0.748-0.084,0.863-0.451c0.116-0.362-0.084-0.748-0.447-0.862h-0.004c-7.032-2.772-15.02-2.415-21.813,1.068
	l-0.347,0.346c-0.308-0.27-0.778-0.265-1.071,0.031l-9.758,9.759c-0.296,0.296-0.304,0.763-0.035,1.07l-0.301,0.305
	c-0.369,0.717-0.705,1.448-1.001,2.195c-0.478,1.391-1.271,2.7-2.379,3.809c-0.655,0.658-1.379,1.201-2.15,1.636
	c-0.596-0.573-1.543-0.566-2.134,0.021l-4.02,4.021c-0.593,0.597-0.593,1.563,0,2.16l5.704,5.7c0.597,0.596,1.563,0.596,2.16,0
	l4.017-4.018c0.597-0.597,0.597-1.564,0-2.16l-0.062-0.062c0.431-0.77,0.975-1.494,1.629-2.148
	c1.056-1.055,5.754-5.549,10.756-1.467c0.423,0.42,1.101,0.42,1.524,0v-0.004l16.036,16.036L21.869,73.737
	c-3.02,3.017-3.02,7.906,0,10.918c3.015,3.02,7.902,3.02,10.917,0l21.389-21.388c1.09,1.937,2.544,3.866,4.333,5.653
	c1.84,1.841,3.834,3.331,5.833,4.434C71.715,78.042,73.668,84.434,76.365,88l0.746,0.743c2.096,2.093,5.398,2.19,7.371,0.211
	l7.795-7.795c1.98-1.972,1.881-5.278-0.211-7.37L91.319,73.044z M27.905,82.138c-1.292,0.483-2.74-0.171-3.224-1.477
	c-0.491-1.295,0.172-2.735,1.471-3.227c1.3-0.49,2.74,0.17,3.224,1.471C29.868,80.206,29.204,81.647,27.905,82.138z M53.39,48.165
	c-0.542,0.542-1.421,0.542-1.964,0L34.989,31.728c-0.543-0.544-0.543-1.421,0-1.964c0.543-0.543,1.425-0.543,1.968,0L53.39,46.201
	C53.936,46.743,53.936,47.622,53.39,48.165z M58.296,49.543l-3.003,3c-0.32,0.321-0.836,0.321-1.152,0
	c-0.32-0.319-0.32-0.831,0-1.151l2.999-3.004c0.321-0.319,0.837-0.319,1.156,0C58.611,48.707,58.611,49.224,58.296,49.543z
	 M88.207,80.487l-2.472,2.477c-0.081,0.076-0.205,0.076-0.281,0c-0.05-0.051-0.065-0.119-0.05-0.182L85.4,82.778
	c0.37-1.352-0.215-3.139-1.604-4.531l-0.652-0.65c-3.017-2.453-8.118-4.645-12.504-10.789c-1.059-1.647-2.416-3.33-4.023-4.939
	c-2.475-2.477-5.135-4.355-7.549-5.473c-0.071-0.039-0.142-0.092-0.204-0.15c-0.354-0.352-0.354-0.921,0-1.271
	c0-0.008,0.013-0.008,0.017-0.018l1.945-1.945h0.004c0.367-0.357,0.909-0.418,1.34-0.186c2.505,1.091,5.299,3.027,7.896,5.625
	c1.604,1.604,2.962,3.294,4.023,4.941c4.383,6.147,9.484,8.336,12.504,10.789l0.734,0.559
	C90.037,76.666,90.127,78.573,88.207,80.487z"/>
</svg>
