<?xml version="1.0" encoding="utf-8"?>
<!-- Generator: Adobe Illustrator 16.2.1, SVG Export Plug-In . SVG Version: 6.00 Build 0)  -->
<!DOCTYPE svg PUBLIC "-//W3C//DTD SVG 1.1//EN" "http://www.w3.org/Graphics/SVG/1.1/DTD/svg11.dtd">
<svg version="1.1"
	 id="svg3273" xmlns:rdf="http://www.w3.org/1999/02/22-rdf-syntax-ns#" xmlns:svg="http://www.w3.org/2000/svg" xmlns:dc="http://purl.org/dc/elements/1.1/" xmlns:cc="http://creativecommons.org/ns#" xmlns:sodipodi="http://sodipodi.sourceforge.net/DTD/sodipodi-0.dtd" xmlns:inkscape="http://www.inkscape.org/namespaces/inkscape" sodipodi:docname="noun_project_4867.svg" inkscape:version="0.48.2 r9819"
	 xmlns="http://www.w3.org/2000/svg" xmlns:xlink="http://www.w3.org/1999/xlink" x="0px" y="0px" width="100px" height="100px"
	 viewBox="0 0 100 100" enable-background="new 0 0 100 100" xml:space="preserve">
<sodipodi:namedview  objecttolerance="10" id="namedview3281" bordercolor="#666666" inkscape:cx="45" inkscape:zoom="3.5777778" gridtolerance="10" pagecolor="#ffffff" borderopacity="1" inkscape:cy="25.5" showgrid="false" guidetolerance="10" inkscape:pageopacity="0" inkscape:pageshadow="2" inkscape:window-width="640" inkscape:window-height="480" inkscape:window-x="0" inkscape:window-y="22" inkscape:window-maximized="0" inkscape:current-layer="svg3273">
	</sodipodi:namedview>
<g id="Layer_1">
	<path id="circle3278" stroke="#000000" stroke-width="0.33" stroke-miterlimit="10" d="M87.622,29.463
		c0,3.018-2.446,5.463-5.464,5.463s-5.463-2.446-5.463-5.463c0-3.017,2.445-5.463,5.463-5.463S87.622,26.446,87.622,29.463z
		 M20.045,65.126c0,0,4.096-3.283,15.279-2.233c3.194,0.3,3.679,0.174,5.735-0.705c3.553-1.515,12.92,0.7,12.92,0.7
		s1.801-3.985,5.595-5.596c2.884-1.227,10.441,0.932,10.441,0.932s3.733-18.515,8.576-21.815c0.848-0.578,4.103,0,4.103,0
		s6.151,6.153,4.474,11.373c-0.57,1.774-2.424,5.968-2.424,5.968l7.271,14.916c0,0,6.471,1.427,5.221,1.985
		c-0.141,0.068-2.795,0.312-2.795,0.312h-5.035l-7.83-12.8c0,0-2.61,6.559-11.934,9.54c-9.323,2.985-49.503,0.286-49.503,0.286
		s-6.487,1.544-8.716,1.85c-1.34,0.183-5.362,0.51-5.362,0.51s-2.631,0.676-2.797,0c-0.647-2.654,9.695-5.037,9.695-5.037
		s0.477-1.719,1.865-2.237C16.139,62.583,20.045,65.126,20.045,65.126z"/>
</g>
<g id="Layer_2">
</g>
</svg>
