<?xml version="1.0" encoding="utf-8"?>
<!-- Generator: Adobe Illustrator 16.2.1, SVG Export Plug-In . SVG Version: 6.00 Build 0)  -->
<!DOCTYPE svg PUBLIC "-//W3C//DTD SVG 1.1//EN" "http://www.w3.org/Graphics/SVG/1.1/DTD/svg11.dtd">
<svg version="1.1" id="Layer_1" xmlns="http://www.w3.org/2000/svg" xmlns:xlink="http://www.w3.org/1999/xlink" x="0px" y="0px"
	 width="100px" height="100px" viewBox="0 0 100 100" enable-background="new 0 0 100 100" xml:space="preserve">
<path d="M89.703,53.898c0.719,0.574,2.02,0.865,2.602,1.156c0.715,0.289,1.146,1.158,2.598,1.158c1.441,0,2.596-1.307,2.596-2.461
	c0-1.297-0.725-2.022-1.161-2.309c-0.43-0.291-1.154-0.436-1.73-0.727c-0.576-0.283-3.899-2.45-6.788-5.197
	c-2.744-2.593-4.906-6.784-5.919-9.236c-1.006-2.312-3.026-6.21-4.618-7.944c-1.155-1.152-3.611-1.729-4.476-2.021
	c-0.862-0.146-0.433-1.01-0.142-1.156c0.288-0.287,1.008-0.719,1.729-1.584c0.578-0.872,1.007-3.321,1.007-4.763
	c0-1.447-0.427-8.663-7.065-8.663c-6.5,0-6.934,7.506-6.934,8.513c0,0.864,0.293,3.175,0.865,4.476
	c0.58,1.302,2.457,1.883,3.469,2.166c0.865,0.146,0.429,1.155-0.144,1.155c-0.727,0-2.313-0.291-3.183-0.291
	c-0.865,0-0.574-0.142-1.584,0.291c-1.012,0.582-6.787,5.051-8.378,6.353c-0.717,0.723-3.89,4.044-4.182,4.481
	c-0.436,0.429-0.436,0.719-0.436,0.865c0,0.142,0,0.574,0.292,1.155c0.145,0.574,3.323,9.528,3.463,10.243
	c0.149,0.582,0.437,0.873-0.14,1.156c-0.574,0.289-2.456,1.304-3.751,1.881c-1.454,0.438-2.027,0-2.319-0.868
	c-0.283-0.724-3.176-5.196-3.75-6.354c-0.582-1.014-4.763-6.642-5.199-6.926c-0.286-0.29-0.865-1.304,0.292-1.882
	c1.155-0.574,3.611-3.753,3.611-6.638c0-2.744-2.169-6.497-6.351-6.497c-4.332,0-6.353,3.611-6.353,6.638
	c0,3.033,1.439,4.622,2.453,5.778c0.865,1.296-0.724,1.587-1.588,1.587c-1.156,0-3.47,0-6.21,0.724
	c-2.602,0.864-4.913,2.593-5.778,3.749c-0.864,1.015-3.608,4.473-4.473,6.501c-0.865,2.021-1.301,6.205-1.301,6.93
	c0,0.719,0.145,1.873,0.145,3.316c0,1.301-0.865,0.869-0.865,2.316c0,1.44,0.865,2.453,2.744,2.453c1.875,0,3.458-1.589,3.458-3.178
	c0-1.592-1.297-1.732-1.297-3.753c0-1.444,1.447-4.187,2.603-5.632c1.156-1.443,3.464-3.464,5.628-4.333
	c-0.145,4.473-1.438,8.949-3.029,12.563c-1.584,3.752-4.332,6.352-7.221,7.648L2.5,71.221L4.803,82.05c0,0,0.149,1.155,1.014,1.011
	c0.868-0.146,1.013-0.289,1.013-1.011c0-0.579,0.291-4.042,0.433-4.767c0.142-0.579,0.574-1.155,1.297-1.295
	c0.583-0.148,7.798-2.744,9.096-3.033c1.301-0.433,2.893-0.869,4.332-2.023c1.587-1.156,5.345-5.774,6.642-7.504
	c2.744,4.619,6.784,17.18,7.794,25.988l9.099-2.17c0.715,0.148,2.599,1.588,3.463,1.588c0.869,0,1.3-0.287,1.01-1.588
	c-0.283-0.865-1.152-5.92-1.439-6.785c-0.149-0.721,0.141-1.301,0.865-1.729c0.719-0.582,2.887-2.17,3.896-3.034
	c1.009-0.864,4.768-4.04,5.631-4.912c0.724-0.72,4.765-4.474,5.338-5.196c0.581-0.721,1.738-1.156,2.461-1.156
	c0.865,0,1.439,0.145,3.176,0.145c1.729,0,2.453-0.428,4.186-0.428c1.593,0,1.593,1.875,1.593,3.176c0,2.74,0.864,5.918,1.292,7.357
	c0.436,1.305,1.883,4.049,2.747,5.197c0.716,1.163,2.161,3.898,2.453,4.768c0.286,1.01,0.574,2.89,0.574,3.754
	c0.149,1.014,1.446,1.445,1.879,1.445s1.304-0.145,2.169-0.432c0.72-0.15,7.071-1.881,7.508-1.881
	c0.428-0.139,1.155-0.139,1.155-1.008c0.144-0.578-0.438-0.725-1.445-0.869c-1.013-0.287-3.898-0.574-5.053-0.723
	c-1.007,0-1.59-0.865-1.733-1.586c-0.289-0.725-5.198-19.78-5.342-20.064c0-0.289-0.293-0.729,0.144-0.729
	c0.433,0,2.024-0.576,3.03-1.152c0,0-2.744-5.053-3.467-6.641c-0.861-1.591-1.727-4.051-2.021-4.916
	c-0.433-0.864-2.452-7.795-3.026-9.96c0.574,2.166,3.604,6.21,5.771,8.522C84.36,50.715,88.98,53.463,89.703,53.898z M59.964,50.141
	c-0.874,2.166-4.189,9.674-4.189,9.674s3.034,2.308,3.034,2.164c-2.314,1.157-5.639,3.327-6.935,4.766
	c-1.445,1.301-3.178,3.608-4.047,5.055c-0.864,1.3-3.321,4.621-4.477,5.195c-1.006,0.582-1.297,1.301-0.865,2.311
	c0.437,0.865,1.014,3.322,1.157,3.758c0.432,0.865-0.865,2.162-1.446,0.574c-0.574-1.438-0.715-1.589-0.864-2.453
	c-0.142-0.868-0.865-6.352-1.156-7.506c-0.287-1.014-1.297-6.789-1.729-8.23c-0.433-1.441-1.733-6.062-2.023-7.653
	c-0.287-1.442-0.429-4.187-0.429-4.909c0-0.719,0-2.17,0.142-2.17c0.141,0,3.898,5.346,4.905,6.211
	c1.156,0.724,2.893,1.156,4.332,0.724c1.305-0.573,7.516-2.595,8.957-2.884c1.304-0.147,2.744-1.881,3.032-3.036
	c0.293-1.011-0.144-2.305-0.434-3.173c-0.293-0.724-2.166-5.628-2.312-6.643c-0.144-1.156-1.012-2.021,0.141-2.744
	c0.873-0.715,7.076-3.892,7.076-3.892C61.835,40.755,60.828,47.976,59.964,50.141z"/>
</svg>
