<?xml version="1.0" encoding="utf-8"?>
<!-- Generator: Adobe Illustrator 16.2.1, SVG Export Plug-In . SVG Version: 6.00 Build 0)  -->
<!DOCTYPE svg PUBLIC "-//W3C//DTD SVG 1.1//EN" "http://www.w3.org/Graphics/SVG/1.1/DTD/svg11.dtd">
<svg version="1.1" id="Layer_1" xmlns="http://www.w3.org/2000/svg" xmlns:xlink="http://www.w3.org/1999/xlink" x="0px" y="0px"
	 width="100px" height="100px" viewBox="0 0 100 100" enable-background="new 0 0 100 100" xml:space="preserve">
<path d="M49.993,21.116c5.146-0.002,9.312-4.17,9.312-9.306c0-5.142-4.166-9.307-9.312-9.31c-5.141,0.003-9.298,4.168-9.298,9.31
	C40.695,16.946,44.853,21.113,49.993,21.116z M81.066,49.502c-0.096-0.44-0.281-0.837-0.514-1.196l0.013-0.007l-0.03-0.028
	c-0.307-0.464-0.713-0.844-1.179-1.124l-7.171-6.821L64.928,26.83l0,0l-0.338-0.628l-0.014,0.011
	c-0.867-1.32-2.385-2.103-4.003-2.002H39.427c-1.619-0.1-3.136,0.683-4.001,2.002l-0.015-0.011l-0.338,0.628l0,0l-7.257,13.498
	l-7.17,6.821c-0.467,0.278-0.874,0.658-1.179,1.124l-0.03,0.028l0.011,0.007c-0.232,0.359-0.417,0.756-0.513,1.196
	c-0.437,1.98,0.812,3.941,2.792,4.377c0.077,0.017,0.148,0.015,0.225,0.026c-0.459,0.895-0.743,1.891-0.743,2.963
	c0,2.793,1.761,5.16,4.227,6.096l-0.012,0.023l10.884,4.71l-2.224,1.12c-0.23,0.094-0.446,0.213-0.658,0.336l-0.027,0.015l0,0
	c-1.609,0.93-2.708,2.647-2.708,4.641c0,2.969,2.408,5.374,5.377,5.374c0.659,0,1.286-0.137,1.871-0.355l0.008,0.02l0.158-0.067
	c0.038-0.019,0.079-0.035,0.119-0.054L50,73.631l11.78,5.096c0.038,0.019,0.079,0.035,0.118,0.054l0.157,0.067l0.009-0.02
	c0.583,0.219,1.21,0.355,1.869,0.355c2.969,0,5.378-2.405,5.378-5.374c0-1.993-1.098-3.711-2.709-4.641l0,0l-0.025-0.015
	c-0.215-0.123-0.428-0.242-0.659-0.336l-2.224-1.12l10.883-4.71l-0.011-0.021c2.466-0.936,4.228-3.302,4.228-6.096
	c0-1.074-0.287-2.07-0.744-2.963c0.077-0.014,0.148-0.012,0.223-0.026C80.254,53.443,81.504,51.482,81.066,49.502z M27.959,50.356
	l6.379-5.593l3.126-5.058l1.06,15.307l-7.564-3.812l-0.005,0.012C30.064,50.704,29.05,50.394,27.959,50.356z M69.04,51.201
	l-6.507,3.276l1.092-13.007l2.035,3.293l6.38,5.593c-1.089,0.037-2.104,0.347-2.995,0.854L69.04,51.201z M50,85.654
	c16.614,0,30.082,2.652,30.082,5.924c0,3.271-13.468,5.922-30.082,5.922c-16.613,0-30.081-2.651-30.081-5.922
	C19.919,88.307,33.387,85.654,50,85.654z"/>
</svg>
