<?xml version="1.0" encoding="utf-8"?>
<!-- Generator: Adobe Illustrator 16.2.1, SVG Export Plug-In . SVG Version: 6.00 Build 0)  -->
<!DOCTYPE svg PUBLIC "-//W3C//DTD SVG 1.1//EN" "http://www.w3.org/Graphics/SVG/1.1/DTD/svg11.dtd">
<svg version="1.1"
	 id="Layer_1" xmlns:dc="http://purl.org/dc/elements/1.1/" xmlns:cc="http://creativecommons.org/ns#" xmlns:rdf="http://www.w3.org/1999/02/22-rdf-syntax-ns#" xmlns:svg="http://www.w3.org/2000/svg" xmlns:sodipodi="http://sodipodi.sourceforge.net/DTD/sodipodi-0.dtd" xmlns:inkscape="http://www.inkscape.org/namespaces/inkscape" inkscape:version="0.48.2 r9819" sodipodi:docname="noun_project_5.svg"
	 xmlns="http://www.w3.org/2000/svg" xmlns:xlink="http://www.w3.org/1999/xlink" x="0px" y="0px" width="100px" height="100px"
	 viewBox="0 0 100 100" enable-background="new 0 0 100 100" xml:space="preserve">
<sodipodi:namedview  guidetolerance="10" showgrid="false" inkscape:cy="50" id="namedview7" pagecolor="#ffffff" inkscape:zoom="2.36" inkscape:cx="22.9165" objecttolerance="10" gridtolerance="10" bordercolor="#666666" borderopacity="1" inkscape:window-maximized="0" inkscape:window-width="640" inkscape:pageopacity="0" inkscape:window-y="22" inkscape:current-layer="Layer_1" inkscape:pageshadow="2" inkscape:window-x="0" inkscape:window-height="480">
	</sodipodi:namedview>
<path id="circle5" d="M57.761,10.256c0,4.284-3.471,7.756-7.756,7.756c-4.284,0-7.756-3.472-7.756-7.756
	c0-4.283,3.473-7.756,7.757-7.756C54.29,2.5,57.761,5.973,57.761,10.256z M56.513,19.645c5.413,0,7.609,4.461,8.428,6.919
	l6.649,21.857c1.326,4.702-4.652,6.648-6.08,2.067L59.525,30.42h-1.74l10.371,35.697h-9.555v27.832c0,4.746-7.139,4.722-7.139,0
	V65.936h-2.91l0.005,27.973c0,4.785-7.168,4.785-7.168,0l-0.002-27.793h-9.584l10.289-35.698h-1.609L34.5,50.557
	c-1.425,4.391-7.458,2.59-6.076-2.116l6.643-21.877c0.711-2.494,2.893-6.92,8.355-6.92L56.513,19.645L56.513,19.645z"/>
</svg>
