<?xml version="1.0" encoding="utf-8"?>
<!-- Generator: Adobe Illustrator 16.2.1, SVG Export Plug-In . SVG Version: 6.00 Build 0)  -->
<!DOCTYPE svg PUBLIC "-//W3C//DTD SVG 1.1//EN" "http://www.w3.org/Graphics/SVG/1.1/DTD/svg11.dtd">
<svg version="1.1" id="Layer_1" xmlns="http://www.w3.org/2000/svg" xmlns:xlink="http://www.w3.org/1999/xlink" x="0px" y="0px"
	 width="100px" height="100px" viewBox="0 0 100 100" enable-background="new 0 0 100 100" xml:space="preserve">
<path id="Palette_1_" d="M82.975,79.372c-0.16-3.802-5.875-15.107-5.74-19.493c0.153-4.975,3.162-11.103,9.426,0.875
	c3.754,7.178,9.516,2.711,10.215-0.781c2.111-10.565-1.024-23.235-11.012-35.651C68.588,2.852,38.225-3.045,18.061,11.153
	C-2.102,25.353-2.507,57.33,15.893,75.863c16.677,16.792,39.676,24.173,58.906,16.08C76.787,91.102,83.367,88.527,82.975,79.372z
	 M28.959,17.113c3.639-2.562,8.664-1.69,11.228,1.949c2.564,3.64,1.69,8.666-1.948,11.229c-3.642,2.564-8.666,1.691-11.23-1.949
	C24.445,24.704,25.317,19.68,28.959,17.113z M13.249,49.864c-2.562-3.639-1.688-8.666,1.95-11.228
	c3.636-2.562,8.666-1.693,11.228,1.946c2.564,3.64,1.688,8.667-1.949,11.23C20.84,54.375,15.812,53.507,13.249,49.864z
	 M52.363,28.888c-2.564-3.639-1.69-8.667,1.949-11.229c3.641-2.562,8.664-1.69,11.23,1.95c2.562,3.638,1.689,8.664-1.949,11.228
	C59.953,33.4,54.928,32.529,52.363,28.888z M25.104,70.432c-2.562-3.642-1.691-8.67,1.948-11.232
	c3.639-2.562,8.667-1.69,11.229,1.948c2.562,3.641,1.691,8.669-1.949,11.231C32.695,74.943,27.667,74.068,25.104,70.432z"/>
</svg>
