<?xml version="1.0" encoding="utf-8"?>
<!-- Generator: Adobe Illustrator 16.2.1, SVG Export Plug-In . SVG Version: 6.00 Build 0)  -->
<!DOCTYPE svg PUBLIC "-//W3C//DTD SVG 1.1//EN" "http://www.w3.org/Graphics/SVG/1.1/DTD/svg11.dtd">
<svg version="1.1" id="Layer_1" xmlns="http://www.w3.org/2000/svg" xmlns:xlink="http://www.w3.org/1999/xlink" x="0px" y="0px"
	 width="100px" height="100px" viewBox="0 0 100 100" enable-background="new 0 0 100 100" xml:space="preserve">
<path d="M25.894,39.671h-0.027l-0.002,3.727c0.856-0.574,5.368-3.42,5.945-3.694h6.571c2.267,0,4.107-1.837,4.107-4.106v-8.534
	c0-2.266-1.841-4.103-4.107-4.103H26.401c-2.268,0-4.108,1.837-4.108,4.103v8.534C22.292,37.694,23.867,39.419,25.894,39.671z
	 M57.663,29.795h5.99c0.576,0.274,5.651,3.839,6.511,4.41l0.02-4.446h-0.031c2.029-0.247,3.599-1.976,3.599-4.068v-8.533
	c-0.001-2.269-1.838-4.107-4.108-4.107H57.663c-2.271,0-4.106,1.838-4.106,4.107v8.532C53.557,27.955,55.396,29.795,57.663,29.795z
	 M81.666,26.253c3.644,0,6.598,2.954,6.598,6.598c0,3.645-2.954,6.598-6.598,6.598c-3.643,0-6.597-2.954-6.597-6.598
	C75.069,29.207,78.023,26.253,81.666,26.253z M17.675,39.449c2.551,0,4.618,2.067,4.618,4.618s-2.067,4.618-4.618,4.618
	s-4.619-2.067-4.619-4.618S15.125,39.449,17.675,39.449z M93.498,46.731l-2.266,21.746h-5.592c1.84,0,3.414-1.084,4.156-2.639
	c0.265-0.557,0.424-1.172,0.445-1.825V47.365c0-3.279-2.658-5.938-5.938-5.938c-2.502,0-4.63,1.55-5.506,3.74l-2.651,4.836h-8.995
	c-1.459,0-2.639,1.181-2.639,2.638s1.18,2.639,2.639,2.639h7.917h3.298h1.417l4.685-8.55h3.012L81.35,57.92h-2.982v1.32
	c0,1.814-1.644,2.332-1.644,2.332l-5.612,1.572V57.92h-5.277H34.167h-5.278v6.551l-5.06-1.107c-2.498-0.508-2.609-1.486-2.858-2.457
	v-0.258l-2.269,0.594c-0.397,0.1-0.878,0.199-1.366,0.199c-0.515,0-1.033-0.109-1.461-0.443c-0.523-0.408-0.787-1.049-0.787-1.91
	v-5.134h1.979c0,0,0.005,5.191,0.007,5.226c0.001,0.007,0.008,0.009,0.009,0.016c0,0.012-0.011,0.016-0.011,0.024
	c0,0.188,0.152,0.341,0.341,0.341l8.874-2.387l2.444-0.65l-0.001-0.007c0.849-0.221,1.478-0.987,1.478-1.907
	c0-1.092-0.888-1.979-1.979-1.979c-0.176,0-0.34,0.028-0.502,0.072l-0.001-0.007l-6.753,1.777v-0.516
	c0-1.019-0.394-1.938-1.027-2.639c-0.725-0.806-1.764-1.321-2.932-1.321s-2.207,0.515-2.932,1.321
	c-0.631,0.701-1.027,1.62-1.027,2.639v11.216c0,1.822,1.477,3.299,3.299,3.299c0.126,0,0.247-0.021,0.37-0.039l-0.001,0.021
	l0.151,0.018h-0.52H8.769L6.501,46.731H2.5l2.638,25.117v0.586v14.514h3.958V72.436h13.196v14.514h3.958V72.436v-2.918l1.078,0.121
	l1.56,2.497v14.813h5.278v-6.957c0.389,0.227,0.836,0.361,1.32,0.361c1.457,0,2.638-1.182,2.638-2.639
	c0-0.516-0.154-0.988-0.407-1.395l0.005-0.004l-3.556-5.689v-7.424h31.667v1.408c-0.831,0.172-1.554,0.635-2.028,1.305l-0.006-0.006
	L52.586,81.744l0.006,0.003c-0.382,0.537-0.613,1.191-0.613,1.903c0,1.822,1.479,3.299,3.301,3.299c1.111,0,2.087-0.553,2.686-1.395
	l0.006,0.004l7.863-11.104v12.495h5.277V70.448l2.639-0.401v2.39v14.513h3.959V72.436h13.195v14.514h3.957V72.436V71.85L97.5,46.731
	H93.498z"/>
</svg>
