<?xml version="1.0" encoding="utf-8"?>
<!-- Generator: Adobe Illustrator 16.2.1, SVG Export Plug-In . SVG Version: 6.00 Build 0)  -->
<!DOCTYPE svg PUBLIC "-//W3C//DTD SVG 1.1//EN" "http://www.w3.org/Graphics/SVG/1.1/DTD/svg11.dtd">
<svg version="1.1"
	 id="svg6584" xmlns:dc="http://purl.org/dc/elements/1.1/" xmlns:cc="http://creativecommons.org/ns#" xmlns:rdf="http://www.w3.org/1999/02/22-rdf-syntax-ns#" xmlns:svg="http://www.w3.org/2000/svg"
	 xmlns="http://www.w3.org/2000/svg" xmlns:xlink="http://www.w3.org/1999/xlink" x="0px" y="0px" width="100px" height="100px"
	 viewBox="0 0 100 100" enable-background="new 0 0 100 100" xml:space="preserve">
<path id="path11507" d="M36.449,3.926c-17.963,0-32.524,14.561-32.524,32.522c0,17.961,14.562,32.523,32.523,32.523h27.103
	l24.394,24.394c1.714,1.714,2.744,2.709,4.913,2.709c0.676,0,1.524,0,2.371-0.847c0.847-0.848,0.847-1.693,0.847-2.371
	c0-2.168-1.181-3.385-2.709-4.913L68.973,63.552V36.447C68.973,18.486,54.41,3.925,36.449,3.926L36.449,3.926z M63.551,47.289V63.55
	H47.289L63.551,47.289z M12.057,68.974c-4.491,0-8.131,3.641-8.131,8.131s3.641,8.13,8.131,8.13c4.491,0,8.132-3.64,8.132-8.13
	C20.188,72.614,16.547,68.974,12.057,68.974z"/>
</svg>
