<?xml version="1.0" encoding="utf-8"?>
<!-- Generator: Adobe Illustrator 16.2.1, SVG Export Plug-In . SVG Version: 6.00 Build 0)  -->
<!DOCTYPE svg PUBLIC "-//W3C//DTD SVG 1.1//EN" "http://www.w3.org/Graphics/SVG/1.1/DTD/svg11.dtd">
<svg version="1.1"
	 id="Layer_1" xmlns:dc="http://purl.org/dc/elements/1.1/" xmlns:cc="http://creativecommons.org/ns#" xmlns:rdf="http://www.w3.org/1999/02/22-rdf-syntax-ns#" xmlns:svg="http://www.w3.org/2000/svg" xmlns:sodipodi="http://sodipodi.sourceforge.net/DTD/sodipodi-0.dtd" xmlns:inkscape="http://www.inkscape.org/namespaces/inkscape" inkscape:version="0.48.2 r9819" sodipodi:docname="noun_project_85.svg"
	 xmlns="http://www.w3.org/2000/svg" xmlns:xlink="http://www.w3.org/1999/xlink" x="0px" y="0px" width="100px" height="100px"
	 viewBox="0 0 100 100" enable-background="new 0 0 100 100" xml:space="preserve">
<path id="path2993" d="M87.975,72.171c-7.426-4.068-10.658,0.866-14.633,0.849v-19.73l6.137-14.21
	c0.938-2.17,0.006-4.168-2.221-5.143l-3.73-1.51V20.152h-7.219v-6.468H56.254V5h-6.279h-6.232v8.684H33.69v6.468h-7.222v12.274
	l-3.729,1.51c-2.232,0.975-3.167,2.973-2.219,5.143l6.139,14.21v19.731c-3.981,0.017-7.377-4.842-14.635-0.801
	c0,0-2.085,1.174-5.24,1.229v8.496c2.466-0.195,3.646-0.59,5.523-1.607c1.97-1.129,5.589-2.203,9.866,0
	c4.309,2.174,7.947,2.174,11.566,0.281c3.659-1.916,6.833-2.01,10.244-0.281c4.288,2.174,7.653,2.197,11.989,0.05
	c3.482-1.784,6.623-1.683,10.244,0.233c3.658,1.893,7.295,1.893,11.613-0.281c4.27-2.202,7.873-1.098,9.865,0
	c1.758,0.92,2.984,1.412,5.523,1.607v-8.547C89.99,73.316,87.975,72.171,87.975,72.171z M68.199,30.159l-18.224-7.504l-18.176,7.504
	v-4.957h7.176v-6.373h11h11.046v6.373h7.178V30.159z M56.064,93.37c4.418-1.931,6.48-1.67,10.102,0.234
	c3.66,1.904,7.299,1.904,11.613-0.285c4.271-2.189,7.766-0.941,9.725,0.236c1.602,0.979,3.223,1.373,5.666,1.371v-8.734
	c-3.67-0.016-5.24-1.273-5.24-1.273c-3.777-2.319-7.246-1.855-11.99,0.613c-2.727,1.418-7.031,1.045-10.102-0.518
	c-4.178-2.215-6.555-1.678-10.953,0.281c-3.414,1.514-6.49,1.51-9.865,0c-4.42-1.966-6.688-2.496-10.903-0.281
	c-3.032,1.562-7.401,1.936-10.104,0.518c-4.771-2.468-8.174-2.933-11.943-0.613c0,0-1.641,1.252-5.241,1.273v8.734
	c2.272,0.002,4.042-0.439,5.572-1.371c1.931-1.188,5.539-2.424,9.817-0.236c4.309,2.191,7.947,2.191,11.567,0.285
	c3.658-1.902,5.677-2.246,10.101-0.332C48.176,95.462,52.42,95.261,56.064,93.37L56.064,93.37z"/>
</svg>
