<?xml version="1.0" encoding="utf-8"?>
<!-- Generator: Adobe Illustrator 16.2.1, SVG Export Plug-In . SVG Version: 6.00 Build 0)  -->
<!DOCTYPE svg PUBLIC "-//W3C//DTD SVG 1.1//EN" "http://www.w3.org/Graphics/SVG/1.1/DTD/svg11.dtd">
<svg version="1.1"
	 id="Layer_1" xmlns:dc="http://purl.org/dc/elements/1.1/" xmlns:cc="http://creativecommons.org/ns#" xmlns:rdf="http://www.w3.org/1999/02/22-rdf-syntax-ns#" xmlns:svg="http://www.w3.org/2000/svg" xmlns:sodipodi="http://sodipodi.sourceforge.net/DTD/sodipodi-0.dtd" xmlns:inkscape="http://www.inkscape.org/namespaces/inkscape" inkscape:version="0.48.2 r9819" sodipodi:docname="noun_project_1099.svg"
	 xmlns="http://www.w3.org/2000/svg" xmlns:xlink="http://www.w3.org/1999/xlink" x="0px" y="0px" width="100px" height="100px"
	 viewBox="0 0 100 100" enable-background="new 0 0 100 100" xml:space="preserve">
<sodipodi:namedview  guidetolerance="10" showgrid="false" inkscape:cy="50" id="namedview3145" pagecolor="#ffffff" inkscape:zoom="2.36" inkscape:cx="50" objecttolerance="10" gridtolerance="10" bordercolor="#666666" borderopacity="1" inkscape:window-maximized="0" inkscape:window-width="640" inkscape:pageopacity="0" inkscape:window-y="22" inkscape:current-layer="Layer_1" inkscape:pageshadow="2" inkscape:window-x="0" inkscape:window-height="480">
	</sodipodi:namedview>
<path id="path3143" d="M40.435,61.68c0.406,0.404,0.406,1.062,0,1.469l0,0c-0.405,0.404-1.063,0.406-1.469,0l-4.078-4.076
	c-0.406-0.406-0.406-1.064,0-1.471l0,0c0.406-0.404,1.063-0.404,1.469,0L40.435,61.68z M30.831,71.486
	c0.324,0.473,0.203,1.121-0.271,1.443l0,0c-0.473,0.32-1.121,0.199-1.444-0.271l-3.256-4.76c-0.324-0.477-0.203-1.121,0.271-1.443
	l0,0c0.474-0.326,1.121-0.203,1.445,0.271L30.831,71.486L30.831,71.486z M35.63,66.484c0.406,0.404,0.406,1.061,0,1.469l0,0
	c-0.406,0.404-1.064,0.404-1.47,0l-4.077-4.078c-0.406-0.406-0.406-1.064,0-1.471l0,0c0.405-0.406,1.063-0.406,1.469,0L35.63,66.484
	z M33.334,74.771c0,0.791-0.642,1.434-1.434,1.434s-1.434-0.643-1.434-1.434c0-0.793,0.642-1.436,1.434-1.436
	S33.334,73.979,33.334,74.771z M34.717,79.609c0,0.793-0.643,1.436-1.435,1.436s-1.435-0.643-1.435-1.436s0.643-1.436,1.435-1.436
	S34.717,78.816,34.717,79.609z M35.155,84.564c0,0.793-0.642,1.434-1.434,1.434s-1.434-0.641-1.434-1.434
	c0-0.791,0.642-1.434,1.434-1.434S35.155,83.773,35.155,84.564z M89.831,9.016l-0.213-0.358c0.754-0.475,0.68-0.716,0.68-0.716
	s-0.371-1.008-1.444-0.368c-1.07,0.645-0.359,1.449-0.359,1.449s0.181,0.177,0.943-0.256l0.196,0.336
	c-0.08,0.042-0.977,0.521-2.271,1.21l-0.192-0.33c0.752-0.474,0.68-0.716,0.68-0.716s-0.373-1.007-1.449-0.368
	c-1.07,0.646-0.357,1.449-0.357,1.449s0.176,0.179,0.941-0.255l0.193,0.321c-0.656,0.35-1.4,0.745-2.187,1.163l-0.223-0.371
	c0.754-0.475,0.682-0.717,0.682-0.717s-0.373-1.007-1.446-0.368c-1.07,0.645-0.359,1.449-0.359,1.449s0.174,0.178,0.939-0.255
	l0.217,0.364c-0.719,0.382-1.465,0.78-2.203,1.174l-0.189-0.321c0.752-0.476,0.682-0.717,0.682-0.717s-0.373-1.008-1.447-0.369
	c-1.071,0.646-0.36,1.449-0.36,1.449s0.181,0.179,0.942-0.255l0.188,0.313c-0.771,0.412-1.525,0.814-2.229,1.188l-0.184-0.309
	c0.756-0.474,0.682-0.717,0.682-0.717s-0.373-1.007-1.446-0.367c-1.069,0.645-0.36,1.449-0.36,1.449s0.178,0.177,0.944-0.256
	l0.179,0.3c-0.89,0.473-1.668,0.891-2.25,1.203l-0.164-0.276c0.752-0.474,0.68-0.716,0.68-0.716s-0.369-1.008-1.445-0.368
	c-1.072,0.646-0.359,1.449-0.359,1.449s0.178,0.179,0.943-0.256l0.158,0.27c-0.328,0.176-0.58,0.313-0.729,0.393
	c-1.453,0.796-1.834,1.106-1.558,1.833c0.276,0.726,0.006,1.458,0.004,1.459c-0.019,0.017-0.039,0.038-0.067,0.065
	c-0.412,0.398-1.847,1.791-2.601,2.522c-1.916,1.858-3.83,3.713-5.744,5.57c-2.426,2.354-4.854,4.708-7.28,7.063
	c-2.48,2.406-4.963,4.812-7.441,7.219C49.435,44.303,46.7,46.913,44,49.555c-0.792,0.777-1.509,1.578-2.731,1.3
	c-1.091-0.248-1.995-1.252-2.408-2.262c-0.864-2.111-0.087-4.4,1.277-6.1c0.654-0.814,2.151-2.124,1.152-3.208
	c-1.601-1.735-4.646,0.403-5.986,1.482c-3.238,2.61-4.645,6.029-6.514,9.59c-0.941,1.794-2.085,3.495-3.719,4.729
	c-1.622,1.227-3.445,1.68-5.325,2.33c-1.157,0.4-2.299,0.842-3.415,1.35c-4.167,1.895-8.674,4.943-10.038,9.568
	c-0.666,2.254-0.365,4.602,0.518,6.752c0.452,1.102,1.004,2.158,1.633,3.168c2.504,4.021,6.03,7.592,9.594,10.688
	c1.744,1.518,3.716,2.902,5.998,3.434c2.748,0.643,5.819,0.076,8.257-1.303c4.857-2.748,7.449-11.633,7.449-11.633
	c0.331-1.062,0.659-2.125,1.084-3.15c0.761-1.834,1.89-3.381,3.572-4.471c0.83-0.535,1.724-0.965,2.616-1.385
	c1.091-0.514,2.185-0.951,3.218-1.578c1.552-0.941,2.992-2.17,3.803-3.828c0.233-0.48,0.535-1.121,0.555-1.68
	c0.023-0.803-0.315-1.828-1.227-1.979c-0.925-0.15-1.677,0.543-2.418,0.979c-0.938,0.551-1.959,1.018-3.05,1.148
	c-0.927,0.113-1.769-0.264-2.491-0.822c-0.949-0.732-2.045-2.18-2.075-3.455c-0.002-0.117-0.037-0.197,0.058-0.297
	c0.031-0.031,31.75-32.821,34.772-35.843c3.024-3.025,5.55-1.503,5.55-1.503c1.694-1.659,3.891-5.41,4.786-6.793
	c0.9-1.382,2.181,0.242,3.732-0.587c1.557-0.83,2.594-3.111,1.159-4.685C92.187,8.2,90.397,8.782,89.831,9.016z M39.381,53.209
	c0.634,2.104,1.523,4.113,2.426,6.113c0.977,2.164,1.793,4.693,4.342,5.422c0.582,0.164,1.287,0.279,1.893,0.234
	c1.5-0.107,2.794-0.832,4.039-1.621c0.273-0.174,0.856-0.709,1.129-0.312c0.272,0.395-0.066,1.227-0.246,1.584
	c-0.412,0.834-1.125,1.508-1.836,2.09c-2.394,1.959-5.368,2.723-7.917,4.389c-1.292,0.846-2.149,2.062-2.807,3.438
	c-1.059,2.213-1.905,4.525-2.801,6.809c-0.133,0.34-0.267,0.682-0.402,1.021c-0.433,1.098-0.893,2.146-1.466,3.18
	c-0.479,0.859-1.409,2.461-2.663,2.188c-0.46-0.102-0.777-0.561-0.967-0.961c-0.458-0.965-0.432-2.135-0.441-3.176
	c-0.011-1.27-0.348-2.602-0.88-3.748c-0.471-1.016-1.133-1.896-1.878-2.717c-0.734-0.809-1.549-1.555-2.335-2.301
	c-1.191-1.133-2.299-2.355-3.537-3.438c-0.816-0.719-1.987-1.611-2.306-2.711c-0.793-2.732,1.656-5.295,3.748-6.607
	c0.668-0.42,1.386-0.771,2.111-1.086c2.567-1.109,5.087-2.314,7.129-4.273c1.232-1.184,2.043-2.559,2.991-3.955
	c0.268-0.393,0.568-0.848,1.031-1.021C38.771,51.348,39.146,52.434,39.381,53.209z"/>
</svg>
