<?xml version="1.0" encoding="utf-8"?>
<!-- Generator: Adobe Illustrator 16.2.1, SVG Export Plug-In . SVG Version: 6.00 Build 0)  -->
<!DOCTYPE svg PUBLIC "-//W3C//DTD SVG 1.1//EN" "http://www.w3.org/Graphics/SVG/1.1/DTD/svg11.dtd">
<svg version="1.1"
	 id="Layer_1" xmlns:rdf="http://www.w3.org/1999/02/22-rdf-syntax-ns#" xmlns:svg="http://www.w3.org/2000/svg" xmlns:dc="http://purl.org/dc/elements/1.1/" xmlns:cc="http://creativecommons.org/ns#" xmlns:sodipodi="http://sodipodi.sourceforge.net/DTD/sodipodi-0.dtd" xmlns:inkscape="http://www.inkscape.org/namespaces/inkscape" sodipodi:docname="noun_project_666.svg" inkscape:version="0.48.2 r9819"
	 xmlns="http://www.w3.org/2000/svg" xmlns:xlink="http://www.w3.org/1999/xlink" x="0px" y="0px" width="100px" height="100px"
	 viewBox="0 0 100 100" enable-background="new 0 0 100 100" xml:space="preserve">
<path id="rect3042" d="M79.874,37.927h17.562v5.289H79.874V37.927L79.874,37.927z M2.564,37.927h17.551v5.289H2.564V37.927
	L2.564,37.927z M97.436,47.935H73.631l-6.859-23.476H57.08l6.873,23.476h-26.97l6.858-23.476h-9.679l-6.858,23.476H2.564v6.03H25.54
	l-9.054,30.971h9.679l9.054-30.971h30.494l9.055,30.971h9.681l-9.054-30.971h22.041V47.935L97.436,47.935z M21.365,15.064h58.088
	v6.644H21.365V15.064L21.365,15.064z"/>
</svg>
