<?xml version="1.0" encoding="utf-8"?>
<!-- Generator: Adobe Illustrator 16.2.1, SVG Export Plug-In . SVG Version: 6.00 Build 0)  -->
<!DOCTYPE svg PUBLIC "-//W3C//DTD SVG 1.1//EN" "http://www.w3.org/Graphics/SVG/1.1/DTD/svg11.dtd">
<svg version="1.1"
	 id="Layer_1" xmlns:dc="http://purl.org/dc/elements/1.1/" xmlns:cc="http://creativecommons.org/ns#" xmlns:rdf="http://www.w3.org/1999/02/22-rdf-syntax-ns#" xmlns:svg="http://www.w3.org/2000/svg" xmlns:sodipodi="http://sodipodi.sourceforge.net/DTD/sodipodi-0.dtd" xmlns:inkscape="http://www.inkscape.org/namespaces/inkscape" inkscape:version="0.48.2 r9819" sodipodi:docname="noun_project_684.svg"
	 xmlns="http://www.w3.org/2000/svg" xmlns:xlink="http://www.w3.org/1999/xlink" x="0px" y="0px" width="100px" height="100px"
	 viewBox="0 0 100 100" enable-background="new 0 0 100 100" xml:space="preserve">
<path id="path3082" d="M97.779,64.912c0,0-5.792,3.147-13.729-3.849c0,0-2.547,8.045-13.586,4.731c0,0,5.553,7.356,13.586,1.454
	C84.05,67.253,94.029,71.351,97.779,64.912z M70.069,38.229c-5.729,0-10.375,4.646-10.375,10.362
	c0,5.739,4.646,10.395,10.375,10.395c5.74,0,10.384-4.654,10.384-10.395C80.453,42.875,75.81,38.229,70.069,38.229z M67.062,65.981
	c-1.65,2.34-4.284,3.869-7.248,3.869c-3.233,0-6.066-1.791-7.673-4.515c0,0-4.345,4.418-7.547,4.418
	c-3.247,0-6.096-1.815-7.695-4.562l0,0c-1.602,2.757-4.421,4.562-7.684,4.562c-3.077,0-5.806-1.63-7.439-4.146l0,0
	c-1.606,2.67-4.405,4.328-7.613,4.328c-4.104,0-7.574-2.896-8.685-6.885l32.695-13.688l-5.792-7.499l-30.161,7l1.498-5.598
	l31.819-13.204L67.062,65.981z"/>
</svg>
