<?xml version="1.0" encoding="utf-8"?>
<!-- Generator: Adobe Illustrator 16.2.1, SVG Export Plug-In . SVG Version: 6.00 Build 0)  -->
<!DOCTYPE svg PUBLIC "-//W3C//DTD SVG 1.1//EN" "http://www.w3.org/Graphics/SVG/1.1/DTD/svg11.dtd">
<svg version="1.1" id="Layer_1" xmlns="http://www.w3.org/2000/svg" xmlns:xlink="http://www.w3.org/1999/xlink" x="0px" y="0px"
	 width="100px" height="100px" viewBox="0 0 100 100" enable-background="new 0 0 100 100" xml:space="preserve">
<path fill="#010101" d="M54.356,16.506c3.324,0,6.019,2.694,6.019,6.018s-2.694,6.018-6.019,6.018c-3.323,0-6.018-2.694-6.018-6.018
	S51.033,16.506,54.356,16.506z M72.793,91.516l-12.564-19.5l5.086-16.956c0.087-0.291,0.135-0.583,0.151-0.872
	c0.038-0.102,0.059-0.211,0.059-0.326l-0.165-19.066l5.692-13.575c0.286-0.682,0.371-1.431,0.247-2.158l-2.8-13.335
	c-0.362-2.113-2.368-3.533-4.483-3.171c-2.114,0.362-3.532,2.369-3.171,4.483l2.61,12.34l-4.763,11.473h-5.967L33.21,22.747
	c-1.985-0.811-4.251,0.079-5.064,2.064c-0.811,1.984,0.354,4.221,2.336,5.033l19.167,7.726v16.385L43,67.584l-12.838,1.193
	c-2.135,0.199-3.757,2.092-3.557,4.228c0.188,2.011,1.854,3.521,3.834,3.521c0.121,0,0.23-0.007,0.354-0.021l14.929-1.4
	c1.366-0.129,2.559-0.968,3.145-2.207l8.365-17.915l-4.954,16.514c-0.325,1.091-0.16,2.267,0.454,3.222L66.27,95.721
	c0.738,1.152,1.992,1.779,3.266,1.779c0.721,0,1.448-0.203,2.101-0.619C73.435,95.719,73.954,93.316,72.793,91.516z"/>
</svg>
