<?xml version="1.0" encoding="utf-8"?>
<!-- Generator: Adobe Illustrator 16.2.1, SVG Export Plug-In . SVG Version: 6.00 Build 0)  -->
<!DOCTYPE svg PUBLIC "-//W3C//DTD SVG 1.1//EN" "http://www.w3.org/Graphics/SVG/1.1/DTD/svg11.dtd">
<svg version="1.1"
	 id="Layer_1" xmlns:dc="http://purl.org/dc/elements/1.1/" xmlns:cc="http://creativecommons.org/ns#" xmlns:rdf="http://www.w3.org/1999/02/22-rdf-syntax-ns#" xmlns:svg="http://www.w3.org/2000/svg" xmlns:sodipodi="http://sodipodi.sourceforge.net/DTD/sodipodi-0.dtd" xmlns:inkscape="http://www.inkscape.org/namespaces/inkscape" inkscape:version="0.48.2 r9819" sodipodi:docname="noun_project_5354.svg"
	 xmlns="http://www.w3.org/2000/svg" xmlns:xlink="http://www.w3.org/1999/xlink" x="0px" y="0px" width="100px" height="100px"
	 viewBox="0 0 100 100" enable-background="new 0 0 100 100" xml:space="preserve">
<path id="Path_1_decoration" d="M86.575,42.95c0,0,10.45,5.7,10.45,10.45c-1.9,7.6-10.45,2.85-12.35,7.6
	c-1.9,13.301-12.351,16.15-12.351,16.15s0,1.9,0.95,2.85c0.949,0.95,8.55,8.551,2.85,8.551c-6.65,0-8.55-9.5-14.25-7.601
	c-2.85,0.95-4.75,1.899-7.6,2.851c0.949,0,1.9,0,1.9,0c6.649,2.85,4.75,4.75,4.75,4.75H21.975c-0.95-0.951-0.95-2.851,0-3.801
	c-2.85-1.9-6.65-5.699-7.6-9.5l0,0c-6.65,0-11.4-4.75-11.4-10.449c0-4.75,4.75-9.5,11.4-9.5c0.95,0,0.95,0,1.9,0.949
	c0-0.949,0.95-0.949,0.95-0.949C33.375,28.7,61.875,47.7,61.875,47.7s7.6,2.851,10.45-2.85C55.225,27.75,52.375,13.5,55.225,13.5
	c4.75,0,17.101,17.1,17.101,17.1S56.176,4,69.475,13.5C82.775,23.95,86.575,42.95,86.575,42.95z"/>
</svg>
