<?xml version="1.0" encoding="utf-8"?>
<!-- Generator: Adobe Illustrator 16.2.1, SVG Export Plug-In . SVG Version: 6.00 Build 0)  -->
<!DOCTYPE svg PUBLIC "-//W3C//DTD SVG 1.1//EN" "http://www.w3.org/Graphics/SVG/1.1/DTD/svg11.dtd">
<svg version="1.1" id="Layer_1" xmlns="http://www.w3.org/2000/svg" xmlns:xlink="http://www.w3.org/1999/xlink" x="0px" y="0px"
	 width="100px" height="100px" viewBox="0 0 100 100" enable-background="new 0 0 100 100" xml:space="preserve">
<path d="M71.539,21.49c-5.316-2.34-12.43-2.231-19.143-2.137C48.78,13.406,45.15,6.451,45.364,5.115l0.14-0.653l-2.082-1.665
	l-4.564,3.49l1.868,2.616l0.357-0.032c0.434,0.32,2.265,2.069,5.942,10.511c-7.299-0.049-12.91-0.318-19.02,2.54
	C14.607,28.191,5.584,40.46,5.584,57.025c0,17.025,9.526,31.828,23.539,39.365c6.291,3.383,13.485,0.801,21.125,0.801
	c7.784,0,15.104,2.511,21.477-0.991c13.821-7.595,23.189-22.289,23.189-39.175C94.915,40.07,85.463,27.617,71.539,21.49z
	 M30.664,38.794c-6.889,8.51-9.532,18.231-12.292,18.231c-2.76,0-0.811-11.612,2.296-18.231c1.172-2.499,2.238-4.998,4.998-4.998
	C28.426,33.796,32.401,36.649,30.664,38.794z"/>
</svg>
