<?xml version="1.0" encoding="utf-8"?>
<!-- Generator: Adobe Illustrator 16.2.1, SVG Export Plug-In . SVG Version: 6.00 Build 0)  -->
<!DOCTYPE svg PUBLIC "-//W3C//DTD SVG 1.1//EN" "http://www.w3.org/Graphics/SVG/1.1/DTD/svg11.dtd">
<svg version="1.1"
	 id="Layer_1" xmlns:dc="http://purl.org/dc/elements/1.1/" xmlns:cc="http://creativecommons.org/ns#" xmlns:rdf="http://www.w3.org/1999/02/22-rdf-syntax-ns#" xmlns:svg="http://www.w3.org/2000/svg" xmlns:sodipodi="http://sodipodi.sourceforge.net/DTD/sodipodi-0.dtd" xmlns:inkscape="http://www.inkscape.org/namespaces/inkscape" inkscape:version="0.48.2 r9819" sodipodi:docname="noun_project_673.svg"
	 xmlns="http://www.w3.org/2000/svg" xmlns:xlink="http://www.w3.org/1999/xlink" x="0px" y="0px" width="100px" height="100px"
	 viewBox="0 0 100 100" enable-background="new 0 0 100 100" xml:space="preserve">
<sodipodi:namedview  guidetolerance="10" showgrid="false" inkscape:cy="50" id="namedview3059" pagecolor="#ffffff" inkscape:zoom="2.36" inkscape:cx="31.7995" objecttolerance="10" gridtolerance="10" bordercolor="#666666" borderopacity="1" inkscape:window-maximized="0" inkscape:window-width="640" inkscape:pageopacity="0" inkscape:window-y="22" inkscape:current-layer="Layer_1" inkscape:pageshadow="2" inkscape:window-x="0" inkscape:window-height="480">
	</sodipodi:namedview>
<g id="g3051">
</g>
<path id="path3057" d="M21.656,13.36l23.609,23.539c-6.215,7.712-19.111,27.166-22.646,35.244
	c-2.828,6.431-2.828,10.059-2.828,10.059L21.415,97.5h20.512l1.231-10.355c0,0-0.402-6.154,1.612-10.174
	c2.014-4.039,19.511-22.953,19.511-22.953l12.312,6.063l3.616-3.616L63.709,37.528c0,0-6.867-11.203-15.471-3.811L29.059,15.019
	l3.102-7.473L25.649,2.5L21.656,13.36 M71.765,18.521c-4.486,0-8.101,3.627-8.101,8.102c0,4.463,3.616,8.079,8.101,8.079
	c4.462,0,8.091-3.616,8.091-8.079C79.855,22.148,76.227,18.521,71.765,18.521z"/>
</svg>
