<?xml version="1.0" encoding="utf-8"?>
<!-- Generator: Adobe Illustrator 16.2.1, SVG Export Plug-In . SVG Version: 6.00 Build 0)  -->
<!DOCTYPE svg PUBLIC "-//W3C//DTD SVG 1.1//EN" "http://www.w3.org/Graphics/SVG/1.1/DTD/svg11.dtd">
<svg version="1.1" id="Layer_1" xmlns="http://www.w3.org/2000/svg" xmlns:xlink="http://www.w3.org/1999/xlink" x="0px" y="0px"
	 width="100px" height="100px" viewBox="0 0 100 100" enable-background="new 0 0 100 100" xml:space="preserve">
<path d="M37.458,1.449h4.18c0,0,0,12.542,8.362,12.542c8.361,0,8.361-12.542,8.361-12.542h4.182c0,0,0,12.542,4.182,16.723
	c0,4.721-4.182,16.495-4.182,25.085c0,8.592,12.542,37.627,12.542,53.581c-3.007,2.269-46.993,2.269-50.17,0.095
	c0-20.229,12.543-45.082,12.543-53.443s-4.18-21.133-4.18-25.315C37.458,13.991,37.458,1.449,37.458,1.449z"/>
</svg>
