<?xml version="1.0" encoding="utf-8"?>
<!-- Generator: Adobe Illustrator 15.0.2, SVG Export Plug-In . SVG Version: 6.00 Build 0)  -->
<!DOCTYPE svg PUBLIC "-//W3C//DTD SVG 1.1//EN" "http://www.w3.org/Graphics/SVG/1.1/DTD/svg11.dtd">
<svg version="1.1"
	 id="svg6584" xmlns:rdf="http://www.w3.org/1999/02/22-rdf-syntax-ns#" xmlns:svg="http://www.w3.org/2000/svg" xmlns:cc="http://creativecommons.org/ns#" xmlns:dc="http://purl.org/dc/elements/1.1/"
	 xmlns="http://www.w3.org/2000/svg" xmlns:xlink="http://www.w3.org/1999/xlink" x="0px" y="0px" width="100px" height="100px"
	 viewBox="0 0 100 100" enable-background="new 0 0 100 100" xml:space="preserve">
<path id="rect9826-2-1" d="M17.5,15c-2.77,0-5,2.229-5,5v45c0,2.771,2.229,4.999,5,4.999h55c2.771,0,4.999-2.229,4.999-4.999v-5H80
	c2.501,0,2.501-2.5,2.501-2.5v-2.501H87.5c4.999,0,10-4.999,10-10v-5V30c0-2.5-2.5-5-5.001-5h-15v-5c0-2.771-2.229-5-4.999-5H17.5z
	 M77.499,30h12.502c2.498,0,2.498,2.5,2.498,2.5V45c0,2.5-2.498,5-4.999,5H77.499V30z M2.5,75.001L10,82.5
	c1.24,1.239,2.5,2.499,5,2.499c20.833,0,60,0,60,0c2.498,0,3.754-1.256,4.999-2.499l7.5-7.5L2.5,75.001z"/>
</svg>
