<?xml version="1.0" encoding="utf-8"?>
<!-- Generator: Adobe Illustrator 16.2.1, SVG Export Plug-In . SVG Version: 6.00 Build 0)  -->
<!DOCTYPE svg PUBLIC "-//W3C//DTD SVG 1.1//EN" "http://www.w3.org/Graphics/SVG/1.1/DTD/svg11.dtd">
<svg version="1.1"
	 id="svg6584" xmlns:dc="http://purl.org/dc/elements/1.1/" xmlns:cc="http://creativecommons.org/ns#" xmlns:rdf="http://www.w3.org/1999/02/22-rdf-syntax-ns#" xmlns:svg="http://www.w3.org/2000/svg"
	 xmlns="http://www.w3.org/2000/svg" xmlns:xlink="http://www.w3.org/1999/xlink" x="0px" y="0px" width="100px" height="100px"
	 viewBox="0 0 100 100" enable-background="new 0 0 100 100" xml:space="preserve">
<path id="path7442" d="M50,15L2.5,40L50,65l27.499-13.904c0,0,0,12.604,0,18.904c0,10,10.001,10,10.001,10v-4.998
	c0,0-5-0.287-5-5.002c0-7.5,0-21.717,0-21.717L97.5,40L50,15z M27.5,60v10c0,2.482,1.625,5.811,5,7.5L50,85l15-7.5
	c3.375-1.689,7.734-5.027,7.5-7.5V60L50,70.938L27.5,60z"/>
</svg>
