<?xml version="1.0" encoding="utf-8"?>
<!-- Generator: Adobe Illustrator 16.2.1, SVG Export Plug-In . SVG Version: 6.00 Build 0)  -->
<!DOCTYPE svg PUBLIC "-//W3C//DTD SVG 1.1//EN" "http://www.w3.org/Graphics/SVG/1.1/DTD/svg11.dtd">
<svg version="1.1"
	 id="Layer_1" sodipodi:docname="noun_project_1464.svg" inkscape:version="0.48.2 r9819" xmlns:cc="http://creativecommons.org/ns#" xmlns:inkscape="http://www.inkscape.org/namespaces/inkscape" xmlns:svg="http://www.w3.org/2000/svg" xmlns:sodipodi="http://sodipodi.sourceforge.net/DTD/sodipodi-0.dtd" xmlns:rdf="http://www.w3.org/1999/02/22-rdf-syntax-ns#" xmlns:dc="http://purl.org/dc/elements/1.1/"
	 xmlns="http://www.w3.org/2000/svg" xmlns:xlink="http://www.w3.org/1999/xlink" x="0px" y="0px" width="100px" height="100px"
	 viewBox="0 0 100 100" enable-background="new 0 0 100 100" xml:space="preserve">
<path id="path3160" d="M10.62,86.947l43.676-69.975c0.479,0.107,0.976,0.167,1.486,0.167c3.766,0,6.819-3.053,6.819-6.819
	c0-3.766-3.057-6.819-6.819-6.819c-3.767,0-6.819,3.053-6.819,6.819c0,1.613,0.562,3.092,1.499,4.259L6.786,84.551l-0.001,0.001
	L3.5,94.084l7.12-7.139 M19.35,78.455L14,87l8.546-5.35v-0.002l58.327-58.325C81.766,23.752,82.764,24,83.82,24
	c3.766,0,6.82-3.053,6.82-6.82s-3.057-6.82-6.82-6.82c-3.771,0-6.82,3.054-6.82,6.82c0,1.057,0.248,2.054,0.677,2.948L19.35,78.455"
	/>
</svg>
