<?xml version="1.0" encoding="utf-8"?>
<!-- Generator: Adobe Illustrator 16.2.1, SVG Export Plug-In . SVG Version: 6.00 Build 0)  -->
<!DOCTYPE svg PUBLIC "-//W3C//DTD SVG 1.1//EN" "http://www.w3.org/Graphics/SVG/1.1/DTD/svg11.dtd">
<svg version="1.1"
	 id="svg2" xmlns:dc="http://purl.org/dc/elements/1.1/" xmlns:cc="http://creativecommons.org/ns#" xmlns:rdf="http://www.w3.org/1999/02/22-rdf-syntax-ns#" xmlns:svg="http://www.w3.org/2000/svg" xmlns:sodipodi="http://sodipodi.sourceforge.net/DTD/sodipodi-0.dtd" xmlns:inkscape="http://www.inkscape.org/namespaces/inkscape" sodipodi:docname="noun_project_11182.svg" inkscape:version="0.48.2 r9819"
	 xmlns="http://www.w3.org/2000/svg" xmlns:xlink="http://www.w3.org/1999/xlink" x="0px" y="0px" width="100px" height="100px"
	 viewBox="0 0 100 100" enable-background="new 0 0 100 100" xml:space="preserve">
<path id="path31" d="M22.384,48.483l-0.849-0.572c-0.354-0.238-0.828-0.145-1.065,0.208l-2.744,4.076l-3.61-3.02
	c0,0-0.001,0-0.001-0.001c-0.188-0.222-0.458-0.371-0.774-0.371h-6.92c-0.568,0-1.025,0.457-1.025,1.025v12.046l-1.706,8.93h2.231
	c-0.001,0.904-0.003,1.811,0.012,2.701c0.001,0.043,0.011,0.083,0.015,0.125c-0.013,0.081-0.026,0.162-0.026,0.247
	c0,0.004,0,0.008,0,0.011v9.748c0,0.426,0.342,0.77,0.768,0.77h1.792c0.426,0,0.768-0.344,0.768-0.77v-9.748
	c0-0.004,0-0.007,0-0.011c0-0.051-0.011-0.099-0.016-0.149c0.013-0.084,0.026-0.168,0.026-0.258
	c-0.009-0.881-0.011-1.772-0.012-2.666h1.279c-0.001,0.904-0.003,1.811,0.012,2.701c0.001,0.043,0.011,0.083,0.015,0.125
	c-0.013,0.081-0.026,0.162-0.026,0.247c0,0.004,0,0.008,0,0.011v9.748c0,0.426,0.342,0.77,0.768,0.77h1.791
	c0.426,0,0.768-0.344,0.768-0.77v-9.748c0-0.004,0-0.007,0-0.011c0-0.051-0.011-0.098-0.016-0.147
	c0.013-0.084,0.026-0.17,0.026-0.26c-0.009-0.881-0.01-1.772-0.011-2.666h2.394l-1.882-8.929v-9.14l2.795,2.336l0.036,0.029
	c0.543,0.422,1.321,0.342,1.766-0.19c0.049-0.06,0.068-0.128,0.105-0.191c0.057-0.057,0.124-0.098,0.17-0.167l3.364-4.998
	C22.84,49.201,22.737,48.721,22.384,48.483L22.384,48.483z M5.085,56.098c0.004-0.035,0.022-0.063,0.024-0.1
	c0-0.016,0.012-0.029,0.012-0.046l0.036-6.118c0.002-0.426-0.337-0.77-0.763-0.772l-1.025-0.006
	c-0.426-0.002-0.781,0.337-0.784,0.763L2.55,55.938v0.047c0.002,0.078,0.034,0.146,0.05,0.219c-0.007,0.055-0.033,0.104-0.033,0.158
	l0.001,6.024c0,0.427,0.354,0.77,0.78,0.767h1.023c0.426,0,0.768-0.342,0.768-0.769l-0.001-6.024
	C5.138,56.266,5.104,56.186,5.085,56.098z M96.309,39.266l-3.945-0.125c-0.605-5.096-8.75-5.06-9.125,0.25h0.031
	c-0.031,0.208-0.063,0.415-0.063,0.631c0,2.395,1.94,4.336,4.336,4.336s4.337-1.941,4.337-4.336c0-0.244-0.033-0.479-0.072-0.713
	L96.309,39.266z M93.323,62.966V46.299c0-0.64-0.515-1.156-1.156-1.156h-9.251c-0.232,0-0.438,0.085-0.617,0.203
	c-0.16,0.06-0.311,0.154-0.414,0.306l-3.353,4.882L74.55,46.41c-0.334-0.346-0.879-0.355-1.225-0.021l-0.83,0.802
	c-0.347,0.333-0.354,0.879-0.021,1.224l5.176,5.362c0.012,0.013,0.021,0.023,0.035,0.037c0.198,0.19,0.442,0.289,0.696,0.344
	c0.054,0.015,0.104,0.021,0.156,0.029c0.091,0.01,0.177,0.014,0.269,0.006c0.137-0.006,0.264-0.031,0.395-0.075
	c0.01-0.004,0.02-0.007,0.029-0.013c0.262-0.095,0.506-0.24,0.683-0.481c0.007-0.011,0.014-0.021,0.021-0.033l1.826-2.657v11.723
	c-0.226,2.505-0.834,8.896-0.834,8.896l1.387-0.022v1.352c0,0.073,0.029,0.13,0.037,0.201c-0.007,0.07-0.037,0.128-0.037,0.202
	v11.159c0,0.48,0.364,0.889,0.797,0.889h2.604c0.433,0,0.761-0.406,0.761-0.889V73.284c0-0.073,0.006-0.132,0-0.202
	c0.006-0.07,0-0.129,0-0.201v-1.419l0.58-0.01l0.525-3.609l0.311,3.431l0.719,0.008v1.541c0,0.066-0.004,0.137,0,0.201
	c-0.006,0.078,0,0.162,0,0.242v11.16c0,0.48,0.328,0.848,0.762,0.848h2.604c0.433,0,0.797-0.365,0.797-0.848v-11.16
	c0-0.082-0.028-0.164-0.037-0.242c0.007-0.064,0.037-0.135,0.037-0.2v-1.5l1.105,0.012C93.877,71.335,93.322,62.966,93.323,62.966z
	 M96.434,54.441c-0.002-0.02,0-0.034-0.002-0.053c-0.002-0.07-0.017-0.139-0.029-0.205c0.013-0.067,0.023-0.135,0.025-0.203
	c0.002-0.014,0-0.025,0-0.039v-3.824v-3.824c0-0.48-0.386-0.866-0.865-0.866h-1.153c-0.479,0-0.865,0.385-0.865,0.866v7.648v0.039
	c0.002,0.08,0.015,0.156,0.029,0.232c-0.013,0.064-0.023,0.13-0.025,0.198c-0.001,0.019,0,0.032,0,0.052l0.058,7.452
	c0.004,0.479,0.394,0.862,0.873,0.858l1.153-0.01c0.479-0.004,0.863-0.393,0.859-0.873L96.434,54.441z M74.559,35.289
	c0.004-0.037,0.014-0.072,0.016-0.11c0.001-0.028,0.021-0.052,0.021-0.081l0.062-10.583c0.004-0.737-0.583-1.331-1.32-1.335
	l-1.771-0.01c-0.736-0.004-1.354,0.583-1.355,1.32l-0.062,10.583v0.08c0.006,0.144,0.023,0.284,0.055,0.419
	c-0.008,0.079-0.023,0.155-0.023,0.235l0.004,10.422c0,0.737,0.61,1.328,1.35,1.328H73.3c0.737,0,1.328-0.592,1.328-1.329
	l-0.004-10.422C74.624,35.627,74.598,35.456,74.559,35.289z M52.426,23.18l-1.771-0.01c-0.735-0.004-1.35,0.583-1.354,1.32
	l-0.062,10.583v0.08c0.001,0.032,0.01,0.062,0.012,0.093c-0.001,0.002-0.002,0.005-0.003,0.007l-0.989,3.804L47.7,36.443
	c-0.005-0.027-0.01-0.052-0.017-0.079c-0.028-0.109-0.07-0.211-0.112-0.312V24.409c0-0.737-0.591-1.328-1.328-1.328h-1.77
	c-0.737,0-1.328,0.591-1.328,1.328v11.73v0.06c0.008,0.298,0.075,0.582,0.189,0.839c0.005,0.083,0.004,0.165,0.019,0.249
	c0.005,0.027,0.011,0.052,0.017,0.079l2.382,11.178c0.153,0.721,0.855,1.176,1.576,1.022l1.732-0.369
	c0.721-0.154,1.175-0.855,1.022-1.576l-0.049-0.229c0.425-0.13,0.773-0.468,0.895-0.933l2.621-10.087
	c0.067-0.259,0.078-0.517,0.055-0.768c0.033-0.137,0.055-0.279,0.062-0.425c0-0.028,0.021-0.052,0.021-0.081l0.062-10.583
	C53.75,23.778,53.163,23.184,52.426,23.18z M24.642,36.526c0.019-0.107,0.038-0.215,0.041-0.327c0-0.02,0-0.041,0-0.06v-11.73
	c0-0.737-0.591-1.328-1.328-1.328h-1.77c-0.737,0-1.328,0.591-1.328,1.328v11.73v0.06c0.003,0.115,0.022,0.226,0.042,0.336
	c-0.018,0.101-0.038,0.202-0.042,0.307c0,0.027,0,0.053,0,0.081v11.428c0,0.737,0.591,1.328,1.328,1.328h1.771
	c0.737,0,1.328-0.591,1.328-1.328V36.924c0-0.028,0-0.053,0-0.081C24.681,36.734,24.661,36.63,24.642,36.526z M9.792,40.339
	c-2.157,0-3.905,1.749-3.905,3.905c0,0.003,0,0.006,0,0.008c-0.003,0-0.005,0-0.008,0c-0.036,1.231-0.117,2.068-0.228,2.872
	c-0.105,0.342-0.692-0.024-1.212-0.285c0.242,1.203,0.682,1.567,1.293,1.57c0.51-0.018,1.099-0.485,1.05-1.57
	c0-0.034,0-0.079,0-0.114c0.716,0.868,1.797,1.424,3.011,1.424c1.205,0,2.278-0.55,2.994-1.408c0,0.03,0,0.068,0,0.098
	c-0.049,1.085,0.548,1.552,1.058,1.57c0.612-0.003,1.044-0.368,1.286-1.57c-0.521,0.26-1.107,0.626-1.212,0.285
	c-0.107-0.781-0.19-1.6-0.228-2.774c0.001-0.036,0.008-0.07,0.008-0.106C13.697,42.088,11.949,40.339,9.792,40.339L9.792,40.339z
	 M68.803,63.082h3.98L69.68,45.347V24.509c0-0.982-0.791-1.773-1.772-1.773H55.936c-0.981,0-1.772,0.791-1.772,1.773v20.838
	l-3.104,17.735h4.022c0.004,0.794-0.003,1.596,0.01,2.383c0.001,0.073,0.019,0.143,0.025,0.213
	c-0.022,0.143-0.046,0.283-0.046,0.432c0,0.008,0,0.014,0,0.021v16.86c0,0.735,0.592,1.327,1.328,1.327h3.1
	c0.736,0,1.327-0.592,1.327-1.327V66.13c0-0.008,0.001-0.014,0-0.021c-0.001-0.084-0.019-0.161-0.025-0.242
	c0.023-0.151,0.046-0.305,0.046-0.462c-0.008-0.767-0.006-1.55-0.01-2.322h2.213c0.004,0.794-0.003,1.597,0.01,2.383
	c0.002,0.074,0.021,0.144,0.025,0.218c-0.021,0.142-0.044,0.279-0.045,0.426c0,0.009,0,0.015,0,0.021v16.86
	c0,0.737,0.591,1.327,1.328,1.327h3.098c0.737,0,1.328-0.59,1.328-1.327v-16.86c0-0.008,0-0.014,0-0.021
	c-0.001-0.084-0.02-0.162-0.025-0.244c0.022-0.15,0.045-0.303,0.045-0.458C68.805,64.639,68.807,63.855,68.803,63.082z
	 M68.57,15.198c0,1.836,0.223,6.65,0.223,6.65s-0.08,0-0.221,0s-0.416-0.443-0.668-0.443c-0.25,0-0.475,0.443-0.803,0.443
	c-0.326,0-0.6-0.443-0.972-0.443s-0.846,0.443-1.229,0.443c-0.383,0-0.178-0.443-0.543-0.443c-0.363,0-1.301,0.443-1.615,0.443
	c-0.312,0-0.814-0.443-1.044-0.443c-0.23,0-0.287,0.443-0.601,0.443c-0.314,0-0.81-0.443-1.175-0.443
	c-0.364,0-0.603,0.443-0.985,0.443s-0.857-0.443-1.229-0.443s-0.644,0.443-0.97,0.443c-0.328,0-0.553-0.443-0.805-0.443
	c-0.25,0-0.524,0.443-0.666,0.443c-0.143,0-0.222,0-0.222,0s0.224-4.814,0.224-6.65c0-3.673,2.978-6.65,6.648-6.65
	C65.594,8.548,68.57,11.525,68.57,15.198z M21.585,23.081c-0.737,0-1.328,0.591-1.328,1.328V36.2h4.427V24.409
	c0-0.737-0.591-1.328-1.328-1.328H21.585z M20.257,36.843v11.509c0,0.737,0.591,1.328,1.328,1.328h1.771
	c0.737,0,1.328-0.591,1.328-1.328V36.843H20.257z M41.036,22.645H26.848c-0.982,0-1.773,0.791-1.773,1.773v27.488
	c0,0.662,0.365,1.232,0.902,1.537c-0.015,0.078-0.025,0.158-0.025,0.24v11.469v0.021c0,0.107,0.023,0.209,0.033,0.313
	c-0.01,0.109-0.033,0.217-0.033,0.33v17.123c0,0.734,0.611,1.328,1.348,1.328h4.426c0.737,0,1.328-0.594,1.328-1.328V65.816
	c0-0.113-0.023-0.222-0.033-0.33c0.01-0.105,0.033-0.206,0.033-0.313c0-0.007,0-0.014,0-0.021V53.684c0,0-0.001-0.002-0.001-0.004
	h1.684V65v0.02c0,0.107,0.023,0.209,0.033,0.313c-0.01,0.11-0.033,0.218-0.033,0.331v17.123c0,0.736,0.611,1.327,1.348,1.327h4.426
	c0.737,0,1.328-0.591,1.328-1.327V65.664c0-0.113-0.023-0.221-0.033-0.331c0.01-0.104,0.033-0.206,0.033-0.313
	c0-0.006,0-0.013,0-0.02V53.531c0-0.018-0.009-0.03-0.009-0.047c0.579-0.291,0.979-0.883,0.979-1.578V24.418
	C42.809,23.436,42.018,22.645,41.036,22.645z M40.592,15.107c0,3.673-2.978,6.65-6.65,6.65s-6.65-2.978-6.65-6.65
	c0-3.673,2.978-6.651,6.65-6.651S40.592,11.434,40.592,15.107z"/>
</svg>
