<?xml version="1.0" encoding="utf-8"?>
<!-- Generator: Adobe Illustrator 16.2.1, SVG Export Plug-In . SVG Version: 6.00 Build 0)  -->
<!DOCTYPE svg PUBLIC "-//W3C//DTD SVG 1.1//EN" "http://www.w3.org/Graphics/SVG/1.1/DTD/svg11.dtd">
<svg version="1.1"
	 id="Layer_1" xmlns:dc="http://purl.org/dc/elements/1.1/" xmlns:cc="http://creativecommons.org/ns#" xmlns:rdf="http://www.w3.org/1999/02/22-rdf-syntax-ns#" xmlns:svg="http://www.w3.org/2000/svg" xmlns:sodipodi="http://sodipodi.sourceforge.net/DTD/sodipodi-0.dtd" xmlns:inkscape="http://www.inkscape.org/namespaces/inkscape" inkscape:version="0.48.2 r9819" sodipodi:docname="noun_project_17.svg"
	 xmlns="http://www.w3.org/2000/svg" xmlns:xlink="http://www.w3.org/1999/xlink" x="0px" y="0px" width="100px" height="100px"
	 viewBox="0 0 100 100" enable-background="new 0 0 100 100" xml:space="preserve">
<path id="path2997" d="M49.031,68.594V44.131L44.415,3.84c-0.137-1.099-0.8-1.348-1.43-1.34c-0.614-0.009-1.279,0.24-1.385,1.34
	l-4.523,40.292v24.462c-8.531-4.438-14.932,2.486-14.954,8.768c0.022,5.621,4.155,10.229,10.063,10.246
	c5.887-0.02,9.924-5.182,9.921-10.246V52.763H44v24.601c0.005,5.846,4.723,10.157,9.787,10.153
	c6.346,0.004,10.391-4.47,10.385-10.105C64.178,71.031,57.586,64.155,49.031,68.594z M32.093,82.439
	c-2.764,0.004-5.01-2.244-5.031-5.028c0.02-2.757,2.268-5.005,5.031-4.987c2.779-0.018,5.026,2.23,5.03,4.987
	C37.119,80.195,34.872,82.443,32.093,82.439z M54.201,82.439c-2.752,0.004-5.001-2.244-4.987-5.028
	c-0.015-2.757,2.233-5.005,4.987-4.987c2.791-0.018,5.037,2.23,5.029,4.987C59.238,80.195,56.992,82.443,54.201,82.439z
	 M53.463,86.271c-0.472,3.043,0.561,8.496,2.722,10.477c2.267,2.071,4.942-0.564,3.831-2.721c-1.113-2.106-2.521-3.264-1.34-8.31
	L53.463,86.271L53.463,86.271z M69.525,13.717H55.631c-2.486-0.022-2.393,3.683,0,3.692h13.895v1.848H55.678
	c-2.519-0.007-2.427,3.699,0,3.69h13.848v1.847v0.091H55.678c-2.519,0.016-2.427,3.721,0,3.74h13.848v1.843H55.678
	c-2.466-0.009-2.427,3.695,0,3.697h13.848v1.844H55.678c-2.466,0.006-2.475,3.709,0,3.693h13.848v1.892H55.678
	c-2.466-0.021-2.475,3.683,0,3.693h13.848v1.846H55.678c-2.466-0.001-2.475,3.701,0,3.693h13.848v1.846H55.678
	c-2.466,0.017-2.427,3.723,0,3.738h13.848v35.91c-0.022,5.492,8.348,5.396,8.352,0V8.178c-0.004-2.485-2.072-5.652-5.49-5.63
	L55.631,2.5c-2.488,0.02-2.395,3.724,0,3.739h13.895v1.845H55.631c-2.482,0-2.391,3.705,0,3.694h13.895V13.717L69.525,13.717z"/>
</svg>
