<?xml version="1.0" encoding="utf-8"?>
<!-- Generator: Adobe Illustrator 16.2.1, SVG Export Plug-In . SVG Version: 6.00 Build 0)  -->
<!DOCTYPE svg PUBLIC "-//W3C//DTD SVG 1.1//EN" "http://www.w3.org/Graphics/SVG/1.1/DTD/svg11.dtd">
<svg version="1.1" id="Layer_1" xmlns="http://www.w3.org/2000/svg" xmlns:xlink="http://www.w3.org/1999/xlink" x="0px" y="0px"
	 width="100px" height="100px" viewBox="0 0 100 100" enable-background="new 0 0 100 100" xml:space="preserve">
<path d="M92.857,5.825H20.442c-2.564,0-4.643,2.127-4.643,4.75v4.75H5.35c-1.574,0-2.85,1.275-2.85,2.85v21.85
	c0,1.575,1.276,2.85,2.85,2.85h48.451v13.301H50v31.35c0,3.672,2.979,6.65,6.651,6.65s6.65-2.979,6.65-6.65v-31.35H59.5V40.025
	c0-1.574-1.276-2.85-2.85-2.85H8.2v-16.15h7.6v4.75c0,2.623,2.079,4.75,4.643,4.75h72.415c2.564,0,4.643-2.127,4.643-4.75v-15.2
	C97.5,7.953,95.422,5.825,92.857,5.825z"/>
</svg>
