<?xml version="1.0" encoding="utf-8"?>
<!-- Generator: Adobe Illustrator 16.2.1, SVG Export Plug-In . SVG Version: 6.00 Build 0)  -->
<!DOCTYPE svg PUBLIC "-//W3C//DTD SVG 1.1//EN" "http://www.w3.org/Graphics/SVG/1.1/DTD/svg11.dtd">
<svg version="1.1" id="Layer_1" xmlns="http://www.w3.org/2000/svg" xmlns:xlink="http://www.w3.org/1999/xlink" x="0px" y="0px"
	 width="100px" height="100px" viewBox="-1 0 100 100" enable-background="new -1 0 100 100" xml:space="preserve">
<path d="M89.18,21.821c-0.236-0.764-0.757-1.389-1.462-1.76l-3.87-2.036c-1.414-0.74-3.285-0.155-4.029,1.252l-0.521,0.991
	l1.778-6.613c0.429-1.589-0.517-3.23-2.104-3.658l-4.218-1.134c-1.039-0.283-2.122,0.062-2.86,0.776l0.088-0.501
	c0.14-0.785-0.037-1.577-0.496-2.231c-0.459-0.655-1.146-1.09-1.926-1.225l-4.311-0.755c-1.227-0.21-2.415,0.366-3.045,1.361
	l-3.266,1.022c-0.489-0.737-1.287-1.259-2.233-1.337l-4.362-0.361c-0.854-0.076-1.645,0.223-2.234,0.752l-0.569-1.133
	c-0.712-1.425-2.566-2.051-4.007-1.33L41.62,5.866c-1.469,0.738-2.065,2.535-1.329,4.008l0.648,1.292l-2.763,0.492
	c-0.463,0.083-0.874,0.277-1.229,0.538l-0.022-3.978c-0.004-0.796-0.318-1.544-0.887-2.106s-1.318-0.902-2.115-0.863l-4.372,0.024
	c-1.644,0.008-2.976,1.354-2.967,3.001l0.044,8.357l-2.81-5.987c-0.339-0.724-0.939-1.269-1.692-1.535
	c-0.753-0.27-1.566-0.224-2.286,0.126l-3.932,1.913c-0.716,0.349-1.253,0.957-1.512,1.712c-0.26,0.755-0.208,1.566,0.145,2.282
	l4.522,9.161l-2.415-2.219c-1.166-1.069-3.154-0.981-4.216,0.178L9.471,25.48c-1.113,1.213-1.033,3.105,0.179,4.217l10.722,9.854
	h-3.036c-1.826,0-2.984,1.457-2.571,3.237l11.667,50.375c0.412,1.778,2.244,3.235,4.072,3.235h12.422h16.307h12.426
	c1.826,0,3.658-1.457,4.066-3.235l11.67-50.375c0.412-1.78-0.746-3.237-2.571-3.237h-3.979l8.127-15.458
	C89.34,23.392,89.414,22.584,89.18,21.821z M73.861,11.715l-1.387-0.373l1.526,0.293l4.222,1.135
	c0.059,0.016,0.096,0.084,0.08,0.142L73.54,30.619l-2.565-8.179L73.861,11.715z M69.586,27.601l2.188,6.979l-2.613,4.974h-0.648
	l-1.152-3.677L69.586,27.601z M62.376,20.048h0.004l-0.002-0.004L64.607,7.86c0.013-0.065,0.084-0.116,0.146-0.105l4.308,0.754
	l0.094,0.134l-4.625,26.469l-3.598-7.167L62.376,20.048z M59.35,10.227c0.014-0.025,0.035-0.046,0.062-0.055l1.97-0.617
	l-0.843,4.604l-1.197-3.828L59.35,10.227z M58.727,17.978l0.703,2.246l-0.635,3.462l-0.456-0.907L58.727,17.978z M51.975,8.585
	c0.006-0.061,0.1-0.113,0.131-0.112l4.361,0.362c0.061,0.004,0.109,0.064,0.104,0.128l-0.073,0.932
	c-0.011,0.082-0.017,0.163-0.021,0.245l-0.619,7.691l-3.998-7.966L51.975,8.585z M42.908,8.43l3.908-1.962l-0.644-1.282l0.798,1.333
	l16.479,32.84l-0.053,0.195h-5L46.339,15.525l-0.018-0.1l-0.029,0.005l-3.434-6.843C42.829,8.532,42.853,8.458,42.908,8.43z
	 M50.623,39.552L49.8,34.938l0.435-5.25l4.951,9.865H50.623z M38.681,14.48l3.602-0.641l1.305,2.601l3.322,18.63l-0.371,4.482
	h-0.292c-0.913,0-1.369,0-1.369,0h-1.841l-4.45-24.936C38.577,14.557,38.622,14.493,38.681,14.48z M37.332,23.917l-0.313,0.762
	l-0.014-2.6L37.332,23.917z M38.271,29.184l1.521,8.532l-0.762,1.838h-3.377l-1.192-1.095L38.271,29.184z M29.567,8.141l4.372-0.023
	l0.117,0.115l0.131,23.34l-1.979,4.816l-2.616-2.406L29.455,8.257C29.455,8.204,29.512,8.141,29.567,8.141z M17.115,13.873
	l-1.287,0.634l1.335-0.777l4.057-1.87l5.446,11.6l0.042,7.872l-1.788-1.643L17.115,13.873z M11.592,27.583
	c-0.044-0.04-0.047-0.119-0.007-0.162l2.959-3.217l0.162-0.005l0.002-0.001l16.704,15.354h-6.78L11.592,27.583z M77.602,39.552
	h-1.26l-1.201-3.835l0.758-2.815l6.457-12.288l-1.27-0.667l1.426,0.62l3.87,2.035l0.05,0.155L77.602,39.552z"/>
</svg>
