<?xml version="1.0" encoding="utf-8"?>
<!-- Generator: Adobe Illustrator 16.2.1, SVG Export Plug-In . SVG Version: 6.00 Build 0)  -->
<!DOCTYPE svg PUBLIC "-//W3C//DTD SVG 1.1//EN" "http://www.w3.org/Graphics/SVG/1.1/DTD/svg11.dtd">
<svg version="1.1" id="Layer_1" xmlns="http://www.w3.org/2000/svg" xmlns:xlink="http://www.w3.org/1999/xlink" x="0px" y="0px"
	 width="100px" height="100px" viewBox="0 0 100 100" enable-background="new 0 0 100 100" xml:space="preserve">
<path d="M21.897,97.025l4.678-5.353l4.693,5.353l4.678-5.353l4.679,5.353l4.692-5.353l4.678,5.353l4.68-5.353l4.692,5.353
	l4.685-5.353l4.679,5.353l4.689-5.353l4.684,5.353V66.619H21.898L21.897,97.025L21.897,97.025z M76.318,54.125
	c-1.262,0-20.816-0.59-20.816-10.408c0-9.817,2.676-31.524,2.676-31.524S59.071,2.975,50,2.975c-9.07,0-8.178,9.218-8.178,9.218
	s2.676,21.708,2.676,31.525c0,9.815-19.552,10.409-20.815,10.409c-1.784,0-1.784,4.162-1.784,4.162v4.532h56.204v-4.532
	C78.102,58.287,78.102,54.125,76.318,54.125z M50,21.562c-2.216,0-4.015-7.819-4.015-10.037c0-2.212,1.798-4.015,4.015-4.015
	c2.217,0,4.016,1.801,4.016,4.015C54.016,13.743,52.215,21.562,50,21.562z"/>
</svg>
