<?xml version="1.0" encoding="utf-8"?>
<!-- Generator: Adobe Illustrator 16.2.1, SVG Export Plug-In . SVG Version: 6.00 Build 0)  -->
<!DOCTYPE svg PUBLIC "-//W3C//DTD SVG 1.1//EN" "http://www.w3.org/Graphics/SVG/1.1/DTD/svg11.dtd">
<svg version="1.1"
	 id="Your_Icon" xmlns:dc="http://purl.org/dc/elements/1.1/" xmlns:cc="http://creativecommons.org/ns#" xmlns:rdf="http://www.w3.org/1999/02/22-rdf-syntax-ns#" xmlns:svg="http://www.w3.org/2000/svg" xmlns:sodipodi="http://sodipodi.sourceforge.net/DTD/sodipodi-0.dtd" xmlns:inkscape="http://www.inkscape.org/namespaces/inkscape" inkscape:version="0.48.2 r9819" sodipodi:docname="noun_project_8199.svg"
	 xmlns="http://www.w3.org/2000/svg" xmlns:xlink="http://www.w3.org/1999/xlink" x="0px" y="0px" width="100px" height="100px"
	 viewBox="0 0 100 100" enable-background="new 0 0 100 100" xml:space="preserve">
<path id="circle3383" d="M60.801,13.1c0,4.474-3.627,8.1-8.101,8.1c-4.474,0-8.1-3.626-8.1-8.1S48.226,5,52.7,5
	C57.174,5,60.801,8.626,60.801,13.1z M28.4,16.7c0,4.474-3.626,8.1-8.1,8.1s-8.1-3.626-8.1-8.1s3.626-8.1,8.1-8.1
	S28.4,12.226,28.4,16.7z M86.9,61.7c0,0-8.137,0-9.45,0l-4.919-4.919l-5.695-25.999C65.877,26.848,62.32,23.9,58.1,23.9H47.3
	c-4.47,0-8.196,3.307-8.877,7.594l-2.166,10.354l-1.776-7.292C33.586,30.533,29.982,27.5,25.7,27.5H14.9c-4.95,0-9,4.05-9,9v18.9
	c0,3.671,2.23,6.843,5.4,8.238v24.162c0,3.96,3.24,7.199,7.2,7.199h3.6c3.96,0,7.2-3.239,7.2-7.199V48.65l2.598,11.363
	c0.514,2.25,2.39,3.535,4.603,3.535c2.25,0,4.041-1.295,4.503-3.557L43.7,46.85v40.951c0,3.96,3.24,7.199,7.2,7.199h3.6
	c3.961,0,7.2-3.239,7.2-7.199V45.95l2.569,11.89c0.406,1.938,1.891,3.371,2.391,3.871L76.1,71.15V88.7c0,3.465,2.836,6.3,6.301,6.3
	h1.8c3.465,0,6.3-2.835,6.3-6.3v-7.279c2.146-1.249,3.6-3.571,3.6-6.221v-6.3C94.1,64.939,90.86,61.7,86.9,61.7z M90.051,53.15
	c0,3.729-3.022,6.75-6.75,6.75c-3.729,0-6.75-3.021-6.75-6.75c0-3.728,3.021-6.75,6.75-6.75C87.028,46.4,90.051,49.422,90.051,53.15
	z"/>
</svg>
