<?xml version="1.0" encoding="utf-8"?>
<!-- Generator: Adobe Illustrator 16.2.1, SVG Export Plug-In . SVG Version: 6.00 Build 0)  -->
<!DOCTYPE svg PUBLIC "-//W3C//DTD SVG 1.1//EN" "http://www.w3.org/Graphics/SVG/1.1/DTD/svg11.dtd">
<svg version="1.1"
	 id="Layer_1" xmlns:dc="http://purl.org/dc/elements/1.1/" xmlns:cc="http://creativecommons.org/ns#" xmlns:rdf="http://www.w3.org/1999/02/22-rdf-syntax-ns#" xmlns:svg="http://www.w3.org/2000/svg" xmlns:sodipodi="http://sodipodi.sourceforge.net/DTD/sodipodi-0.dtd" xmlns:inkscape="http://www.inkscape.org/namespaces/inkscape" sodipodi:docname="noun_project_3818.svg" inkscape:version="0.48.2 r9819"
	 xmlns="http://www.w3.org/2000/svg" xmlns:xlink="http://www.w3.org/1999/xlink" x="0px" y="0px" width="100px" height="100px"
	 viewBox="0 0 100 100" enable-background="new 0 0 100 100" xml:space="preserve">
<path id="path3144" d="M12.565,66.501l-4.934,2.12C12.615,79.91,21.605,88.208,32.21,92.561l1.996-5.006
	C24.873,83.71,16.957,76.413,12.565,66.501z M63.57,13.932c-8.979-3.46-19.239-3.605-28.78,0.363l14.852,34.562L63.57,13.932z
	 M51.848,18.379c0.9-1.917,3.185-2.742,5.104-1.842c1.917,0.9,2.74,3.184,1.841,5.102s-3.183,2.743-5.103,1.844
	C51.771,22.582,50.947,20.298,51.848,18.379z M52.475,32.741c-0.899,1.918-3.185,2.743-5.103,1.842
	c-1.917-0.901-2.742-3.185-1.842-5.102c0.9-1.917,3.184-2.742,5.102-1.842C52.549,28.54,53.374,30.824,52.475,32.741z
	 M45.005,16.522c1.917,0.9,2.742,3.185,1.842,5.102c-0.9,1.918-3.184,2.743-5.102,1.843c-1.917-0.9-2.743-3.185-1.842-5.103
	C40.803,16.448,43.086,15.623,45.005,16.522z M13.53,36.145c-3.46,8.98-3.605,19.241,0.363,28.783l34.562-14.852L13.53,36.145z
	 M22.148,58.113c-0.992,1.871-3.312,2.587-5.185,1.596c-1.873-0.992-2.587-3.312-1.596-5.186c0.992-1.871,3.312-2.586,5.185-1.596
	C22.424,53.919,23.139,56.241,22.148,58.113z M22.736,46.182c-0.991,1.873-3.312,2.587-5.185,1.596
	c-1.873-0.991-2.587-3.312-1.595-5.185c0.991-1.873,3.312-2.586,5.184-1.596C23.012,41.989,23.727,44.31,22.736,46.182z
	 M33.522,53.023c-0.991,1.873-3.312,2.588-5.185,1.598c-1.873-0.992-2.587-3.312-1.595-5.185c0.991-1.873,3.312-2.586,5.184-1.595
	C33.799,48.832,34.513,51.152,33.522,53.023z M87.113,34.465c4.168,10.008,4.016,20.773,0.382,30.191l5.005,1.996
	c4.141-10.689,4.309-22.922-0.452-34.308L87.113,34.465z M66.1,87.152l2.119,4.934c11.29-4.982,19.588-13.973,23.94-24.578
	l-5.005-1.996C83.309,74.846,76.012,82.761,66.1,87.152z M33.944,14.659C24.498,18.85,17.542,26.394,13.872,35.29l34.924,13.93
	L33.944,14.659z M25.689,36.676c-1.974,0.769-4.198-0.206-4.968-2.18c-0.77-1.974,0.206-4.198,2.18-4.967
	c1.974-0.77,4.197,0.206,4.967,2.179C28.638,33.682,27.663,35.906,25.689,36.676z M37.624,40.255
	c-1.974,0.77-4.198-0.206-4.968-2.18c-0.77-1.974,0.206-4.197,2.181-4.967c1.973-0.77,4.196,0.206,4.966,2.18
	S39.597,39.486,37.624,40.255z M33.93,28.027c-1.974,0.77-4.198-0.206-4.968-2.18c-0.77-1.973,0.207-4.197,2.18-4.967
	s4.197,0.206,4.967,2.18S35.903,27.257,33.93,28.027z M35.062,87.896L33.066,92.9c10.689,4.143,22.922,4.311,34.308-0.451
	l-2.12-4.934C55.245,91.684,44.48,91.53,35.062,87.896z M65.372,85.461c9.444-4.191,16.401-11.734,20.071-20.631L50.52,50.898
	L65.372,85.461z M74.408,63.249c1.979-0.756,4.195,0.237,4.951,2.216c0.756,1.98-0.237,4.196-2.217,4.951
	c-1.979,0.756-4.195-0.238-4.949-2.217C71.438,66.22,72.43,64.005,74.408,63.249z M62.501,59.579
	c1.979-0.756,4.196,0.237,4.95,2.219c0.756,1.979-0.237,4.194-2.217,4.95c-1.979,0.753-4.194-0.238-4.949-2.218
	C59.529,62.551,60.521,60.334,62.501,59.579z M66.104,71.834c1.979-0.754,4.195,0.236,4.951,2.219
	c0.758,1.979-0.236,4.194-2.216,4.95c-1.979,0.753-4.194-0.239-4.95-2.217C63.133,74.807,64.125,72.591,66.104,71.834z
	 M85.785,63.975c3.461-8.979,3.605-19.241-0.362-28.782L50.861,50.044L85.785,63.975z M76.314,42.001
	c0.937-1.901,3.235-2.682,5.137-1.745c1.9,0.937,2.681,3.235,1.746,5.137c-0.938,1.9-3.237,2.681-5.137,1.744
	C76.16,46.202,75.379,43.902,76.314,42.001z M81.212,52.2c1.899,0.936,2.681,3.233,1.744,5.136c-0.938,1.9-3.235,2.682-5.136,1.745
	s-2.682-3.235-1.747-5.136C77.012,52.045,79.311,51.264,81.212,52.2z M70.229,45.673c1.902,0.935,2.684,3.235,1.748,5.138
	c-0.938,1.898-3.236,2.68-5.136,1.742c-1.903-0.936-2.684-3.235-1.747-5.135C66.031,45.518,68.329,44.736,70.229,45.673z
	 M92.75,27.619l4.934-2.12C92.7,14.208,83.711,5.912,73.105,1.559l-1.996,5.004C80.443,10.409,88.357,17.707,92.75,27.619z
	 M56.498,43.198l34.561-14.852C86.868,18.9,79.323,11.943,70.427,8.273L56.498,43.198z M70.74,33.651
	c-1.982,0.751-4.195-0.249-4.945-2.23c-0.748-1.981,0.251-4.195,2.232-4.944c1.98-0.75,4.193,0.25,4.943,2.232
	C73.721,30.69,72.723,32.902,70.74,33.651z M85.238,25.142c0.748,1.981-0.252,4.194-2.231,4.943c-1.981,0.75-4.194-0.25-4.946-2.23
	c-0.746-1.982,0.252-4.196,2.233-4.945S84.488,23.16,85.238,25.142z M74.443,21.755c-1.981,0.75-4.192-0.25-4.942-2.231
	c-0.751-1.981,0.25-4.195,2.231-4.944c1.98-0.749,4.194,0.25,4.943,2.232C77.426,18.793,76.425,21.006,74.443,21.755z
	 M35.744,86.188c8.98,3.461,19.24,3.605,28.781-0.362L49.673,51.264L35.744,86.188z M46.19,84.062
	c-1.684,1.285-4.091,0.963-5.377-0.722c-1.285-1.684-0.963-4.091,0.721-5.377c1.683-1.284,4.091-0.962,5.375,0.722
	C48.196,80.37,47.874,82.775,46.19,84.062z M46.339,72.75c-1.286-1.684-0.962-4.087,0.721-5.375c1.683-1.286,4.09-0.963,5.375,0.72
	c1.287,1.686,0.965,4.093-0.72,5.378C50.032,74.757,47.625,74.436,46.339,72.75z M58.648,84.2c-1.685,1.284-4.09,0.964-5.375-0.722
	c-1.287-1.683-0.965-4.09,0.721-5.375c1.683-1.285,4.089-0.963,5.374,0.721C60.654,80.508,60.333,82.915,58.648,84.2z
	 M64.254,12.223l1.997-5.005C55.561,3.077,43.328,2.91,31.943,7.67l2.12,4.934C44.071,8.435,54.835,8.588,64.254,12.223z
	 M33.217,12.967l-2.12-4.934c-11.29,4.985-19.587,13.974-23.94,24.579l5.005,1.996C16.007,25.274,23.305,17.359,33.217,12.967z
	 M11.821,35.463l-5.004-1.996c-4.142,10.69-4.309,22.922,0.452,34.309l4.933-2.12C8.033,55.646,8.187,44.882,11.821,35.463z
	 M14.257,65.773c4.191,9.445,11.735,16.402,20.631,20.071l13.931-34.924L14.257,65.773z M20.294,69.357
	c-0.836-1.946,0.063-4.201,2.01-5.039c1.947-0.836,4.202,0.063,5.039,2.01c0.837,1.947-0.063,4.203-2.01,5.039
	C23.386,72.204,21.13,71.305,20.294,69.357z M34.255,79.309c-1.946,0.838-4.202-0.062-5.038-2.01
	c-0.836-1.945,0.063-4.201,2.01-5.037c1.946-0.837,4.202,0.062,5.038,2.01C37.102,76.217,36.202,78.473,34.255,79.309z
	 M37.428,67.26c-1.946,0.838-4.202-0.062-5.038-2.01c-0.836-1.945,0.063-4.202,2.009-5.038c1.947-0.837,4.203,0.063,5.039,2.011
	C40.274,64.169,39.375,66.424,37.428,67.26z"/>
</svg>
