<?xml version="1.0" encoding="utf-8"?>
<!-- Generator: Adobe Illustrator 16.2.1, SVG Export Plug-In . SVG Version: 6.00 Build 0)  -->
<!DOCTYPE svg PUBLIC "-//W3C//DTD SVG 1.1//EN" "http://www.w3.org/Graphics/SVG/1.1/DTD/svg11.dtd">
<svg version="1.1" id="Layer_1" xmlns="http://www.w3.org/2000/svg" xmlns:xlink="http://www.w3.org/1999/xlink" x="0px" y="0px"
	 width="100px" height="100px" viewBox="0 0 100 100" enable-background="new 0 0 100 100" xml:space="preserve">
<path d="M72.707,57.729C47.668,73.492,40.72,51.401,60.236,37.915c-9.693,1.55-14.973,6.901-15.838,16.041
	c-2.659-2.13-3.77-4.859-3.333-8.177c0.424-2.118,0.842-4.241,1.266-6.358c9.238-25.71,40.2-13.763,51.258-33.784
	C90.062,22.656,89.938,46.871,72.707,57.729z M42.33,39.421c9.238-25.71,40.2-13.763,51.258-33.784 M41.064,45.778
	c0.424-2.118,0.842-4.241,1.266-6.358 M93.588,5.637c-3.525,17.019-3.65,41.233-20.881,52.092
	c-25.038,15.763-31.986-6.328-12.471-19.814c-9.692,1.55-14.972,6.901-15.837,16.041c-2.659-2.13-3.77-4.859-3.333-8.177
	 M43.636,64.866c0.227-1.293-0.554-2.722-0.742-3.733c-2.577-7.172-7.286-11.157-16.05-12.796
	c-6.263-1.17-13.686,3.153-22.236,3.153c10.293,6.426,11.043,14.458,20.454,20.39c3.596,2.264,11.149,5.208,14.839,1.663
	c0.476-9.521-8.259-11.886-12.625-14.903c6.383,2.587,13.735,4.543,14.404,11.022C43.338,69.459,43.636,66.136,43.636,64.866z
	 M42.893,61.133c-2.577-7.172-7.286-11.157-16.05-12.796c-6.263-1.17-13.686,3.153-22.236,3.153 M43.636,64.866
	c0.227-1.293-0.554-2.722-0.742-3.733 M4.607,51.492c10.293,6.424,11.043,14.458,20.454,20.39
	c3.596,2.264,11.149,5.208,14.839,1.663c0.476-9.523-8.259-11.887-12.625-14.904c6.383,2.586,13.735,4.543,14.404,11.023
	c1.66-0.205,1.958-3.53,1.958-4.799 M44.6,56.322c-1.422,6.928-2.868,14.35-2.193,21.441c0.653,6.875,3.318,12.133,5.637,18.527
	c0.841,2.318,2.862,2.061,3.769,0c1.172-2.666,0.972-5.886,0-8.565c-0.949-2.62-1.938-5.213-3.142-7.726
	c-0.747-1.559-0.548-0.993-0.887-3.414c-0.643-4.609,0.489-9.631,1.417-14.152c0.531-2.586,0.738-6.031-0.956-8.286
	C46.622,51.984,44.929,54.719,44.6,56.322L44.6,56.322z"/>
</svg>
