<?xml version="1.0" encoding="utf-8"?>
<!-- Generator: Adobe Illustrator 16.2.1, SVG Export Plug-In . SVG Version: 6.00 Build 0)  -->
<!DOCTYPE svg PUBLIC "-//W3C//DTD SVG 1.1//EN" "http://www.w3.org/Graphics/SVG/1.1/DTD/svg11.dtd">
<svg version="1.1"
	 id="Layer_1" xmlns:dc="http://purl.org/dc/elements/1.1/" xmlns:cc="http://creativecommons.org/ns#" xmlns:rdf="http://www.w3.org/1999/02/22-rdf-syntax-ns#" xmlns:svg="http://www.w3.org/2000/svg" xmlns:sodipodi="http://sodipodi.sourceforge.net/DTD/sodipodi-0.dtd" xmlns:inkscape="http://www.inkscape.org/namespaces/inkscape" inkscape:version="0.48.2 r9819" sodipodi:docname="noun_project_364.svg"
	 xmlns="http://www.w3.org/2000/svg" xmlns:xlink="http://www.w3.org/1999/xlink" x="0px" y="0px" width="100px" height="100px"
	 viewBox="0 0 100 100" enable-background="new 0 0 100 100" xml:space="preserve">
<path id="path3055" d="M79.758,15.347c1.709,1.167,3.856,3.248,5.57,5.081l2.149,2.334c1.404,1.463,3.545,1.283,5.448,1.651
	l0.671,0.121c2.079,1.096,1.418,3.306,0.734,4.96l-0.43,1.038c-1.965,4.723-7.779,5.092-11.887,2.878l-1.83-0.976h-0.619
	l-1.279,0.857l-2.635,2.081c-5.328-2.332-9.676-5.142-13.174-8.879l8.029-10.05l2.691-3.917l0.549-1.289l0.615-1.413
	c0.49-1.583,2.512-3.118,3.988-2.51c1.402,0.616,2.32,3.307,1.951,4.724l-0.367,1.593L79.758,15.347L79.758,15.347L79.758,15.347z
	 M73.181,89.759c-10.47,1.651-8.758-4.041-8.878-10.539l-0.616-12.733l-2.688,12.305c-0.49,2.334-1.106,4.475,2.202,6.188
	c2.33,2.023-0.301,4.904-2.811,4.533c-7.666,0.248-6.556-4.838-5.894-8.445l0.432-5.213c0.31-3.549,0.984-5.759,1.164-10.721
	l-1.032-2.688c-8.269-2.145-13.971-3.736-20.396-7.166l-4.604,0.609c-2.08,0.309-1.522,2.762-1.77,4.352l-0.672,4.346l-3.807,9.863
	l-0.298,0.855c-0.251,0.68-0.19,3.371,0.798,4.773l2.014,4.104c1.593,2.331,2.02,8.089-2.265,6.243l-3.187-1.341
	c-2.263-0.919-4.105-7.224-4.893-11.819l0.062-6.435c-1.965-0.609-2.764,10.97-1.965,13.353l1.965,6.008
	c0.604,1.95-1.656,2.631-3.249,2.631c-3.739,0-5.394-3.797-6.188-6.984L6,83.457c-0.929-3.678-0.439-9.258,1.461-12.506l0.855-2.01
	c1.712-3.987-0.369-6.869-0.855-8.892C5.868,53.556,4.581,47.248,9.055,41l0.312-0.427c-0.13-0.488-1.418-1.526-2.215-3.976
	C5.437,31.076,3.904,22.02,6.055,22.02l1.406-0.069c3.619,0,2.568,14.947,6.864,13.97l31.116,0.31l5.45-1.479
	c2.024-0.544,3.737-1.83,5.51-2.938l3.545-2.203c4.105,4.105,7.664,6.618,13.543,8.759c1.596,12.183-0.18,14.886-1.713,22.166
	l-0.618,2.941c-1.095,5.207-1.466,10.603-1.216,15.93l0.121,2.511c-0.06,2.571,1.401,2.756,3.426,3.366
	C74.774,85.964,75.69,88.535,73.181,89.759L73.181,89.759L73.181,89.759z"/>
</svg>
