<?xml version="1.0" encoding="utf-8"?>
<!-- Generator: Adobe Illustrator 16.2.1, SVG Export Plug-In . SVG Version: 6.00 Build 0)  -->
<!DOCTYPE svg PUBLIC "-//W3C//DTD SVG 1.1//EN" "http://www.w3.org/Graphics/SVG/1.1/DTD/svg11.dtd">
<svg version="1.1"
	 id="svg3449" xmlns:dc="http://purl.org/dc/elements/1.1/" xmlns:cc="http://creativecommons.org/ns#" xmlns:rdf="http://www.w3.org/1999/02/22-rdf-syntax-ns#" xmlns:svg="http://www.w3.org/2000/svg" xmlns:sodipodi="http://sodipodi.sourceforge.net/DTD/sodipodi-0.dtd" xmlns:inkscape="http://www.inkscape.org/namespaces/inkscape" inkscape:version="0.48.2 r9819" sodipodi:docname="noun_project_9490.svg"
	 xmlns="http://www.w3.org/2000/svg" xmlns:xlink="http://www.w3.org/1999/xlink" x="0px" y="0px" width="100px" height="100px"
	 viewBox="0 0 100 100" enable-background="new 0 0 100 100" xml:space="preserve">
<path id="polygon3479" d="M74.568,59.828l0.029-0.002h0.027h0.027l0.023-0.004l0.031-0.001l0.026-0.002l0.03-0.004l0.027-0.003
	l0.025-0.006l0.03-0.004l0.024-0.004l0.028-0.008l0.026-0.007l0.03-0.008l0.026-0.007l0.026-0.01l0.025-0.008l0.028-0.007
	l0.024-0.009l0.026-0.012l0.027-0.01l0.025-0.011l0.021-0.011l0.028-0.014l0.024-0.013l0.025-0.011l0.026-0.014l0.024-0.014
	l0.021-0.014l0.026-0.016l0.024-0.016l0.025-0.014l0.022-0.017l0.021-0.017l0.025-0.019l0.021-0.015l0.021-0.017l0.021-0.02
	l0.02-0.018l0.022-0.019l0.021-0.02l0.02-0.021l0.022-0.019l0.02-0.021l0.021-0.02l0.02-0.021l0.021-0.02l0.019-0.021l0.02-0.02
	l0.018-0.021l0.021-0.021l0.019-0.021l0.02-0.022l0.018-0.021l0.019-0.021l0.015-0.025l0.018-0.019l0.018-0.026l0.016-0.023
	l0.015-0.021l0.013-0.025l0.017-0.022l0.013-0.026l0.014-0.025l0.013-0.023l0.013-0.025l0.012-0.024l0.013-0.026l0.013-0.025
	l0.011-0.027l0.011-0.027l0.007-0.024l0.011-0.024l0.008-0.025l0.006-0.028l0.009-0.028l0.007-0.029l0.009-0.025l0.005-0.026
	l0.006-0.026l0.008-0.027l0.003-0.029l0.006-0.028l0.001-0.026l0.002-0.027l0.004-0.027l0.003-0.028v-0.028l0.002-0.029v-0.025
	v-0.032v-0.024l-0.002-0.029v-0.025l-0.003-0.028l-0.004-0.03l-0.002-0.025l-0.001-0.027l-0.006-0.028l-0.003-0.026l-0.008-0.029
	l-0.006-0.027l-0.005-0.026l-0.009-0.028l-0.007-0.027l-0.009-0.027l-0.006-0.025l-0.008-0.025l-0.006-0.033l-0.007-0.027
	L76.1,57.632l-0.013-0.028l-0.012-0.021l-0.013-0.026l-0.012-0.026l-0.013-0.027l-0.013-0.022l-0.014-0.026l-0.013-0.023
	l-0.017-0.024v-0.042l-0.014-0.025l-0.016-0.022l-0.018-0.026l-0.016-0.021l-0.016-0.023l-0.016-0.024l-0.018-0.021l-0.02-0.021
	l-0.02-0.022l-0.02-0.021l-0.018-0.022l-0.021-0.02l-0.019-0.021l-0.02-0.02L75.72,57.03l-0.022-0.021l-0.02-0.018l-0.023-0.021
	l-0.02-0.018l-0.021-0.021l-0.022-0.02l-0.02-0.018l-0.02-0.016l-0.024-0.02l-0.02-0.016l-0.026-0.02l-0.021-0.015l-0.022-0.015
	l-0.026-0.016l-0.023-0.016l-0.026-0.018l-0.022-0.013l-0.021-0.013l-0.028-0.012l-0.024-0.014l-0.025-0.014l-0.026-0.014
	l-0.022-0.01l-0.025-0.01l-0.041,0.002l-0.027-0.012l-0.024-0.009l-0.028-0.009l-0.025-0.008l-0.024-0.008l-0.028-0.01l-0.029-0.007
	l-0.025-0.005l-0.03-0.004l-0.024-0.01l-0.029-0.002h-0.033l-0.027-0.006l-0.028-0.002l-0.024-0.004l-0.035-0.001h-0.023
	l-0.027-0.002h-0.027l-0.029-0.004H25.431l-0.027,0.004h-0.03l-0.027,0.002h-0.027l-0.031,0.001l-0.027,0.004l-0.029,0.002
	l-0.028,0.006l-0.026,0.004l-0.03,0.002l-0.027,0.01l-0.027,0.003l-0.027,0.006l-0.03,0.009l-0.028,0.008l-0.027,0.008l-0.026,0.009
	l-0.028,0.007l-0.027,0.01l-0.024,0.008l-0.029,0.009l-0.026,0.009l-0.024,0.014l-0.029,0.012l-0.023,0.014l-0.027,0.014
	l-0.026,0.012l-0.023,0.012l-0.025,0.015l-0.025,0.016l-0.024,0.017l-0.024,0.016l-0.025,0.014l-0.022,0.016l-0.026,0.018
	l-0.021,0.018L24.45,56.89l-0.021,0.017l-0.022,0.019l-0.023,0.019l-0.021,0.021l-0.023,0.019l-0.02,0.02l-0.021,0.02l-0.02,0.02
	l-0.02,0.021l-0.019,0.02l-0.021,0.021L24.2,57.122l-0.02,0.021l-0.017,0.021l-0.017,0.021l-0.017,0.021l-0.018,0.013l-0.017,0.022
	l-0.015,0.023l-0.018,0.021l-0.014,0.025l-0.017,0.022l-0.014,0.024l-0.015,0.023l-0.012,0.022l-0.013,0.026l-0.012,0.023
	l-0.015,0.024l-0.011,0.028l-0.012,0.025l-0.01,0.024l-0.014,0.022l-0.009,0.027l-0.008,0.027l-0.009,0.028l-0.01,0.032L23.86,57.72
	l-0.006,0.024l-0.008,0.028l-0.008,0.028l-0.006,0.028l-0.005,0.025l-0.006,0.026l-0.004,0.029l-0.005,0.027l-0.004,0.027
	l-0.003,0.029l-0.003,0.025l-0.002,0.029l-0.003,0.027v0.027l-0.002,0.029v0.025v0.031v0.025l0.002,0.029v0.027l0.003,0.028
	l0.002,0.028l0.003,0.027l0.003,0.027l0.004,0.026l0.005,0.03l0.004,0.026l0.006,0.026l0.005,0.025l0.006,0.027l0.008,0.029
	l0.008,0.027l0.006,0.027l0.008,0.025l0.01,0.025l0.009,0.025l0.008,0.027l0.009,0.027l0.014,0.023l0.01,0.027l0.012,0.024
	l0.011,0.026l0.015,0.023l0.012,0.025l0.013,0.023l0.012,0.023l0.015,0.026l0.014,0.021l0.017,0.024l0.014,0.023l0.018,0.021
	l0.015,0.026l0.017,0.021l0.018,0.021l0.017,0.021l0.017,0.021l0.017,0.022l0.02,0.021l0.017,0.02l0.021,0.021l0.019,0.02l0.02,0.02
	l0.02,0.02l0.021,0.02l0.02,0.02l0.023,0.019l0.021,0.02l0.023,0.018l0.022,0.019l0.021,0.02l0.024,0.018l0.021,0.016l0.026,0.016
	l0.022,0.016l0.025,0.02l0.024,0.013l0.024,0.018l0.025,0.013l0.025,0.014l0.023,0.015l0.026,0.014l0.027,0.011l0.023,0.014
	l0.029,0.012l0.024,0.012l0.026,0.011l0.029,0.009l0.024,0.013l0.027,0.009l0.028,0.008l0.026,0.008l0.027,0.008l0.028,0.008
	l0.03,0.008l0.027,0.006l0.027,0.008l0.027,0.014l0.03,0.004l0.026,0.006l0.028,0.004l0.029,0.004l0.027,0.002l0.031,0.002
	l0.027,0.004h0.027h0.03l0.027,0.002h6.551v22.93h3.276V59.828h29.484v22.93h3.273v-22.93H74.568z M81.118,71.293h-1.637v-1.64
	h16.378V50.001H97.5v21.292h-1.641v11.465h-1.637V71.293H82.756v11.465h-1.64L81.118,71.293L81.118,71.293z M18.878,71.293h1.639
	v-1.64H4.14V50.001H2.5v21.292h1.64v11.465h1.636V71.293h11.466v11.465h1.636V71.293z M24.751,62.357H11.093l0.095-0.54l0.103-0.536
	l0.114-0.534l0.125-0.536l0.132-0.533l0.141-0.532l0.151-0.524l0.159-0.529l0.169-0.52l0.178-0.521l0.188-0.516l0.195-0.51
	l0.206-0.511l0.213-0.507l0.223-0.499l0.23-0.499l0.239-0.494l0.247-0.489l0.258-0.486l0.266-0.479l0.271-0.476l0.284-0.471
	l0.289-0.468l0.296-0.458l0.309-0.457l0.312-0.449l0.323-0.444l0.33-0.44l0.334-0.433l0.345-0.428l0.352-0.419l0.357-0.417
	l0.367-0.408l0.373-0.403l0.381-0.396l0.388-0.388l3.008,8.424l0.009,0.029l0.014,0.029l0.012,0.03l0.012,0.03l0.014,0.025
	l0.012,0.029l0.016,0.026l0.014,0.026l0.012,0.029l0.019,0.027l0.014,0.026l0.015,0.028l0.018,0.023l0.017,0.026l0.018,0.024
	l0.018,0.025l0.019,0.024l0.019,0.026l0.018,0.021l0.019,0.024l0.021,0.022l0.021,0.023l0.021,0.024l0.022,0.021l0.023,0.021
	l0.021,0.022l0.023,0.021l0.021,0.021l0.022,0.02l0.025,0.021l0.025,0.02l0.022,0.02l0.024,0.02l0.027,0.018l0.025,0.02l0.025,0.018
	l0.026,0.02l0.026,0.018l0.025,0.018l0.027,0.018l0.029,0.018l0.026,0.016l0.026,0.016l0.029,0.016l0.029,0.014l0.027,0.015
	l0.03,0.013l0.028,0.014l0.029,0.014l0.029,0.01l0.029,0.013l0.031,0.011l0.029,0.012l0.03,0.008l0.028,0.012l0.032,0.007
	l0.031,0.009l0.029,0.008l0.029,0.007l0.035,0.007l0.029,0.004l0.031,0.005l0.03,0.006l0.032,0.003l0.034,0.006l0.029,0.005
	l0.031,0.002h0.029l0.033,0.002h0.033h0.029h13.532h0.029h0.033l0.033-0.002h0.031l0.029-0.005l0.032-0.002l0.032-0.006l0.031-0.003
	l0.032-0.006l0.03-0.005l0.032-0.004l0.03-0.007l0.033-0.007l0.028-0.008l0.034-0.009l0.029-0.009l0.031-0.01l0.029-0.008
	l0.03-0.012l0.029-0.011l0.03-0.013l0.029-0.014l0.03-0.01l0.029-0.014l0.028-0.016l0.029-0.012l0.027-0.018l0.028-0.014
	l0.029-0.016l0.028-0.018l0.027-0.014l0.023-0.02l0.028-0.018l0.027-0.02l0.025-0.018l0.028-0.018l0.024-0.02l0.024-0.018
	l0.025-0.02l0.025-0.02l0.025-0.021l0.022-0.02l0.024-0.021l0.022-0.021l0.023-0.021l0.022-0.021l0.023-0.024l0.019-0.02
	l0.022-0.023l0.021-0.024l0.019-0.022l0.02-0.025l0.02-0.023l0.02-0.023l0.017-0.025l0.018-0.027l0.021-0.023l0.015-0.025
	l0.017-0.027l0.017-0.027l0.015-0.026l0.016-0.028l0.014-0.024l0.016-0.028l0.013-0.028l0.015-0.026l0.012-0.029l0.013-0.031
	l0.009-0.028l0.014-0.024l0.009-0.03l0.011-0.028l0.009-0.031l0.009-0.031l0.011-0.029l0.007-0.029l0.007-0.031l0.008-0.029
	l0.004-0.029l0.008-0.033l0.006-0.027l0.004-0.033l0.004-0.031l0.003-0.029l0.004-0.032l0.003-0.03l0.002-0.031v-0.031l0.002-0.033
	v-0.031v-0.028v-0.032l-0.002-0.031v-0.03l-0.002-0.032l-0.003-0.031l-0.004-0.029l-0.003-0.031l-0.004-0.033l-0.004-0.029
	l-0.006-0.031l-0.008-0.029l-0.004-0.032l-0.008-0.03l-0.007-0.029l-0.007-0.03l-0.011-0.03l-0.009-0.028l-0.009-0.028l-0.011-0.03
	l-0.009-0.029l-0.014-0.028l-0.009-0.03l-0.013-0.028l-0.012-0.027l-0.015-0.029l-0.013-0.025l-0.016-0.031l-0.014-0.027
	l-0.016-0.025l-0.015-0.027l-0.017-0.051l-0.017-0.026l-0.015-0.026l-0.021-0.024l-0.018-0.026l-0.017-0.025l-0.02-0.023
	l-0.02-0.024l-0.02-0.024L39.67,51.75l-0.021-0.021l-0.022-0.024l-0.019-0.021l-0.023-0.021l-0.022-0.021L39.54,51.62l-0.022-0.022
	l-0.024-0.021l-0.022-0.02l-0.025-0.02l-0.025-0.021l-0.025-0.02l-0.024-0.02l-0.024-0.018l-0.028-0.02l-0.025-0.018l-0.027-0.018
	l-0.028-0.02l-0.023-0.016l-0.027-0.018l-0.028-0.021l-0.029-0.015l-0.028-0.014l-0.027-0.015l-0.029-0.014l-0.028-0.014
	l-0.029-0.013l-0.03-0.013l-0.029-0.014l-0.03-0.009l-0.029-0.015l-0.03-0.008l-0.029-0.01l-0.031-0.013l-0.029-0.007l-0.034-0.008
	l-0.028-0.006l-0.033-0.009l-0.03-0.008l-0.032-0.003l-0.03-0.006h-0.032l-0.031-0.006l-0.032-0.004l-0.032-0.002l-0.029-0.002
	l-0.031-0.004h-0.033l-0.033-0.002h-0.029h-12.25l-3.608-10.106l-0.166-0.348l-0.299-0.451l-0.026-0.033l-0.029-0.032l-0.028-0.029
	l-0.029-0.032l-0.03-0.029l-0.029-0.031l-0.031-0.026l-0.031-0.03l-0.033-0.027l-0.031-0.027l-0.034-0.027l-0.033-0.026
	l-0.033-0.026l-0.036-0.024l-0.034-0.025l-0.035-0.023l-0.034-0.023L21.389,39.7l-0.037-0.022l-0.038-0.023l-0.036-0.02l-0.035-0.02
	l-0.039-0.019l-0.039-0.021l-0.037-0.016l-0.04-0.018l-0.037-0.018l-0.039-0.015l-0.041-0.017l-0.039-0.012l-0.04-0.016l-0.04-0.015
	l-0.042-0.012l-0.04-0.01l-0.04-0.013l-0.042-0.009l-0.042-0.011l-0.039-0.01l-0.042-0.007l-0.042-0.006l-0.041-0.007l-0.042-0.009
	l-0.042-0.004l-0.042-0.005l-0.042-0.002l-0.042-0.006l-0.042-0.002h-0.042l-0.043-0.002h-0.045h-0.042l-0.041,0.002l-0.042,0.002
	l-0.043,0.003l-0.042,0.003l-0.041,0.004l-0.043,0.003l-0.043,0.006l-0.039,0.006l-0.043,0.007l-0.042,0.006l-0.042,0.01
	l-0.04,0.007l-0.042,0.011l-0.042,0.012l-0.039,0.01l-0.041,0.013l-0.042,0.012l-0.039,0.016l-0.042,0.013l-0.039,0.014l-0.04,0.018
	l-0.037,0.015l-0.04,0.016l-0.038,0.019l-0.039,0.019l-0.037,0.018l-0.037,0.021l-0.037,0.02l-0.037,0.022l-0.037,0.021
	l-0.035,0.021l-0.037,0.024l-0.035,0.024l-0.035,0.024l-0.035,0.023l-0.031,0.027l-0.035,0.023l-0.032,0.028l-0.035,0.028
	l-0.463,0.394l-0.455,0.404l-0.45,0.412l-0.441,0.42l-0.434,0.426l-0.426,0.434l-0.418,0.441l-0.413,0.449l-0.405,0.457l-0.396,0.46
	l-0.386,0.47l-0.379,0.476l-0.373,0.48l-0.365,0.489l-0.354,0.497l-0.348,0.498l-0.335,0.508l-0.331,0.509l-0.321,0.519
	l-0.312,0.523l-0.303,0.528l-0.292,0.533L9.86,50.77l-0.275,0.541l-0.265,0.549l-0.255,0.554l-0.249,0.556L8.58,53.529l-0.228,0.566
	l-0.217,0.568l-0.209,0.574l-0.198,0.574L7.54,56.389l-0.181,0.582l-0.168,0.586l-0.157,0.586l-0.148,0.592l-0.139,0.592
	l-0.126,0.596L6.502,60.52l-0.106,0.6l-0.097,0.602l-0.09,0.601L6.135,62.93l-0.066,0.605L6.011,64.14l-0.045,0.608v0.042v0.044
	l0.003,0.041l0.002,0.042l0.002,0.043l0.003,0.042l0.004,0.041l0.005,0.043l0.005,0.043l0.005,0.041l0.008,0.043l0.007,0.038
	l0.011,0.044l0.009,0.041l0.01,0.041l0.01,0.042l0.01,0.039l0.013,0.041l0.013,0.04l0.014,0.041l0.015,0.039l0.015,0.039
	l0.016,0.041l0.015,0.037l0.017,0.039l0.017,0.037l0.02,0.041l0.017,0.037l0.02,0.037l0.022,0.035L6.294,66l0.019,0.036l0.025,0.037
	l0.02,0.035l0.025,0.037l0.024,0.033l0.024,0.032l0.026,0.033l0.023,0.035l0.029,0.031l0.027,0.033l0.025,0.031l0.029,0.033
	l0.029,0.028l0.028,0.032l0.029,0.029l0.031,0.029l0.032,0.026l0.029,0.03l0.033,0.024l0.033,0.026l0.033,0.028l0.031,0.023
	l0.035,0.033l0.034,0.024l0.035,0.023l0.034,0.022l0.035,0.025l0.036,0.021l0.037,0.021l0.035,0.02l0.037,0.021l0.037,0.02
	l0.037,0.021l0.04,0.021l0.036,0.019l0.041,0.019l0.037,0.019l0.039,0.015l0.041,0.018l0.039,0.014l0.04,0.016l0.04,0.014
	l0.039,0.016l0.041,0.014l0.041,0.011l0.041,0.009l0.042,0.01l0.042,0.012l0.04,0.008l0.042,0.008l0.043,0.008l0.042,0.008
	l0.04,0.007l0.044,0.004l0.039,0.005l0.042,0.002l0.042,0.002l0.044,0.004h0.039h0.046h13.934v13.119l0.002,0.042v0.041l0.003,0.042
	l0.002,0.043l0.002,0.041l0.006,0.043l0.005,0.045l0.005,0.042l0.004,0.039l0.008,0.042l0.007,0.043l0.008,0.041l0.01,0.041
	l0.009,0.041l0.01,0.041L22.419,81l0.013,0.042l0.012,0.039l0.013,0.041l0.014,0.038l0.016,0.039l0.015,0.041l0.014,0.037
	l0.017,0.039l0.017,0.037l0.018,0.041l0.02,0.037l0.019,0.037l0.021,0.037l0.02,0.037l0.022,0.035l0.019,0.035l0.025,0.033
	l0.023,0.035l0.021,0.035l0.026,0.036l0.023,0.033l0.024,0.033l0.029,0.034l0.026,0.033l0.028,0.031l0.027,0.027l0.027,0.031
	L23,82.007l0.03,0.032l0.031,0.027l0.029,0.029l0.032,0.029l0.029,0.025l0.032,0.027l0.034,0.025l0.031,0.026l0.035,0.026
	l0.032,0.023l0.035,0.022l0.035,0.026l0.034,0.02l0.036,0.023l0.037,0.021l0.034,0.021l0.038,0.021l0.037,0.021l0.037,0.02
	l0.037,0.018l0.037,0.02l0.04,0.02l0.036,0.018l0.041,0.015l0.039,0.02l0.037,0.016l0.042,0.013l0.039,0.016l0.04,0.013l0.042,0.014
	l0.04,0.011l0.04,0.013l0.042,0.011l0.042,0.009l0.041,0.013l0.042,0.007l0.043,0.009l0.039,0.003l0.042,0.008l0.042,0.005
	l0.042,0.002l0.042,0.007l0.042,0.002l0.042,0.004l0.041,0.001h0.04h0.042h0.043l0.042-0.001l0.042-0.004l0.042-0.002l0.041-0.007
	l0.042-0.002l0.043-0.005l0.039-0.008l0.042-0.003l0.042-0.009l0.042-0.007l0.041-0.013l0.041-0.009l0.041-0.011l0.042-0.013
	l0.039-0.011l0.039-0.014l0.041-0.013l0.041-0.016l0.041-0.013l0.037-0.016l0.039-0.02l0.04-0.015l0.036-0.018l0.041-0.02
	l0.037-0.02l0.037-0.018l0.037-0.02l0.037-0.021l0.035-0.021l0.037-0.021l0.037-0.021l0.034-0.023l0.035-0.02l0.034-0.026
	l0.036-0.022l0.031-0.023l0.033-0.026l0.033-0.026l0.032-0.025l0.032-0.027l0.031-0.025l0.031-0.029l0.03-0.029l0.029-0.027
	l0.033-0.032l0.029-0.03l0.026-0.031l0.028-0.027l0.026-0.031l0.028-0.033l0.025-0.034l0.027-0.033l0.025-0.033l0.024-0.036
	l0.022-0.035l0.021-0.035l0.023-0.033l0.023-0.035l0.021-0.035l0.02-0.037l0.021-0.037l0.018-0.037l0.021-0.037l0.017-0.041
	l0.017-0.037l0.015-0.039L27,81.24l0.016-0.041l0.014-0.039l0.016-0.039l0.013-0.041l0.011-0.039l0.013-0.043l0.011-0.039
	l0.011-0.041l0.011-0.04l0.007-0.041l0.01-0.04l0.007-0.043l0.005-0.043l0.008-0.039l0.005-0.043l0.004-0.043l0.005-0.043
	l0.002-0.041l0.004-0.043l0.002-0.042v-0.041v-0.042V64.783v-0.041v-0.043l-0.002-0.043l-0.004-0.043l-0.002-0.041l-0.005-0.042
	l-0.004-0.042l-0.005-0.043l-0.008-0.041l-0.005-0.043l-0.01-0.041l-0.007-0.041l-0.012-0.042l-0.009-0.039l-0.008-0.043
	l-0.011-0.04l-0.013-0.041l-0.011-0.041l-0.015-0.039l-0.016-0.039l-0.012-0.041l-0.017-0.039l-0.016-0.039l-0.018-0.041
	l-0.017-0.037l-0.017-0.039l-0.02-0.037l-0.019-0.037l-0.021-0.037l-0.019-0.037l-0.022-0.037l-0.022-0.035l-0.021-0.035
	l-0.023-0.037l-0.025-0.035l-0.024-0.033l-0.024-0.033l-0.027-0.031l-0.025-0.033l-0.027-0.032l-0.027-0.029l-0.028-0.034
	l-0.029-0.031l-0.03-0.029l-0.029-0.029l-0.031-0.03l-0.03-0.028l-0.032-0.029l-0.029-0.025l-0.034-0.028l-0.034-0.028l-0.031-0.023
	l-0.034-0.025l-0.034-0.025l-0.034-0.021l-0.035-0.026l-0.036-0.022l-0.038-0.021L26,62.717l-0.037-0.02l-0.036-0.021l-0.039-0.019
	l-0.037-0.021l-0.036-0.02l-0.04-0.032l-0.037-0.018l-0.04-0.018l-0.036-0.02l-0.041-0.016L25.582,62.5l-0.041-0.011L25.5,62.474
	l-0.039-0.011l-0.04-0.015l-0.043-0.011l-0.039-0.012l-0.042-0.013l-0.039-0.005l-0.042-0.011l-0.043-0.007l-0.042-0.008
	l-0.04-0.007l-0.044-0.003l-0.039-0.006l-0.042-0.007l-0.042-0.002l-0.041-0.002l-0.044-0.002l-0.042-0.003h-0.045V62.357z
	 M75.246,62.357h13.661l-0.095-0.54l-0.104-0.536l-0.113-0.534l-0.125-0.536l-0.131-0.533l-0.141-0.532l-0.152-0.524l-0.159-0.529
	l-0.168-0.52l-0.178-0.521l-0.188-0.516l-0.196-0.51l-0.205-0.511l-0.215-0.507l-0.223-0.499l-0.23-0.499l-0.24-0.494l-0.246-0.489
	l-0.258-0.486l-0.265-0.479l-0.271-0.476l-0.284-0.471l-0.288-0.468l-0.299-0.458l-0.306-0.457l-0.313-0.449l-0.323-0.444
	l-0.328-0.44l-0.335-0.433l-0.344-0.428l-0.354-0.419l-0.358-0.417l-0.364-0.408l-0.375-0.403l-0.38-0.396l-0.387-0.388
	l-3.009,8.424l-0.01,0.029l-0.012,0.029l-0.015,0.03l-0.013,0.03l-0.016,0.025l-0.009,0.029l-0.015,0.027l-0.016,0.025l-0.016,0.029
	l-0.018,0.027l-0.014,0.026l-0.018,0.028l-0.013,0.025l-0.018,0.027l-0.018,0.025l-0.021,0.025l-0.019,0.023l-0.02,0.025
	l-0.02,0.022l-0.02,0.024l-0.02,0.023l-0.021,0.023l-0.02,0.022l-0.021,0.021l-0.02,0.021l-0.023,0.021l-0.02,0.023l-0.021,0.021
	l-0.025,0.02l-0.021,0.021l-0.024,0.021l-0.022,0.019l-0.025,0.021l-0.023,0.017l-0.025,0.021l-0.023,0.017l-0.025,0.021
	l-0.025,0.017l-0.025,0.019l-0.026,0.016l-0.027,0.018l-0.034,0.02L76.1,54.523l-0.028,0.016l-0.028,0.014l-0.027,0.016
	l-0.027,0.012l-0.03,0.014l-0.028,0.014l-0.027,0.01l-0.033,0.01l-0.029,0.01l-0.029,0.012l-0.029,0.007l-0.037,0.015l-0.031,0.008
	l-0.028,0.008l-0.03,0.007l-0.026,0.009l-0.034,0.006l-0.028,0.005l-0.033,0.005l-0.028,0.006l-0.033,0.006l-0.032,0.003
	l-0.028,0.006l-0.031,0.001h-0.031l-0.029,0.002h-0.033h-0.031H61.717h-0.033h-0.031l-0.029-0.002H61.59l-0.032-0.005l-0.029-0.002
	l-0.032-0.003l-0.031-0.006l-0.029-0.006l-0.031-0.005l-0.028-0.005l-0.032-0.006l-0.031-0.009l-0.028-0.007l-0.032-0.008
	l-0.029-0.01l-0.029-0.009l-0.029-0.007l-0.029-0.014l-0.027-0.01l-0.03-0.014l-0.03-0.014l-0.029-0.01l-0.029-0.012l-0.025-0.016
	l-0.03-0.013l-0.024-0.017l-0.029-0.016l-0.029-0.016l-0.026-0.016l-0.027-0.016l-0.026-0.02l-0.022-0.017l-0.026-0.019L60.695,54.4
	l-0.026-0.018l-0.033-0.014l-0.024-0.018l-0.023-0.02l-0.023-0.02l-0.025-0.022l-0.021-0.019l-0.024-0.022l-0.021-0.02l-0.021-0.021
	l-0.021-0.021l-0.027-0.026l-0.02-0.021l-0.02-0.021l-0.021-0.022l-0.02-0.025l-0.021-0.025l-0.02-0.023l-0.021-0.023l-0.019-0.023
	l-0.02-0.027l-0.019-0.025l-0.019-0.025l-0.015-0.027l-0.017-0.026l-0.019-0.026l-0.016-0.027l-0.014-0.025l-0.017-0.028
	l-0.012-0.03l-0.017-0.025l-0.014-0.029l-0.014-0.028l-0.012-0.03l-0.01-0.025l-0.015-0.029l-0.007-0.03l-0.013-0.03l-0.007-0.031
	l-0.011-0.029l-0.009-0.027l-0.008-0.032l-0.008-0.029l-0.005-0.03l-0.008-0.031l-0.005-0.029l-0.006-0.033l-0.002-0.03l-0.004-0.03
	l-0.006-0.031l-0.004-0.029l-0.003-0.031v-0.033l-0.002-0.032v-0.031v-0.028v-0.033l0.002-0.031v-0.029l0.003-0.032l0.004-0.031
	l0.006-0.03l0.004-0.031l0.002-0.033l0.006-0.029l0.005-0.031l0.008-0.028l0.005-0.032l0.008-0.029l0.008-0.029l0.009-0.031
	l0.011-0.03l0.007-0.028l0.013-0.03l0.007-0.028l0.015-0.029l0.01-0.028l0.012-0.03l0.014-0.029l0.014-0.027l0.017-0.029
	l0.012-0.025l0.017-0.031l0.014-0.025l0.016-0.026l0.019-0.028l0.017-0.026l0.015-0.026l0.019-0.025l0.019-0.025l0.02-0.025
	l0.019-0.026l0.021-0.023l0.02-0.022l0.021-0.027l0.02-0.021l0.021-0.022l0.02-0.022l0.02-0.021l0.023-0.021l0.021-0.021
	l0.021-0.021l0.021-0.022l0.025-0.021l0.02-0.02l0.025-0.02l0.023-0.021l0.023-0.02l0.024-0.02l0.024-0.018l0.027-0.021l0.024-0.018
	l0.026-0.018l0.023-0.02l0.026-0.016l0.026-0.018l0.027-0.018l0.027-0.014l0.03-0.015l0.024-0.016l0.029-0.013l0.027-0.015
	l0.029-0.012l0.029-0.015l0.029-0.012l0.029-0.011l0.029-0.013l0.028-0.008l0.03-0.01l0.028-0.013l0.03-0.007l0.031-0.009
	l0.028-0.005l0.032-0.011l0.031-0.007l0.028-0.004l0.032-0.006l0.03-0.004l0.03-0.006l0.031-0.004l0.029-0.002l0.045-0.02
	l0.033-0.002h0.029l0.029-0.003h0.033h12.25l3.607-10.107l0.168-0.348l0.298-0.452l0.024-0.032l0.025-0.033l0.031-0.029l0.029-0.033
	l0.029-0.029l0.027-0.03l0.031-0.027l0.031-0.029l0.032-0.027l0.031-0.028l0.032-0.027l0.031-0.026l0.036-0.027l0.033-0.023
	l0.034-0.026l0.033-0.023l0.037-0.023l0.033-0.023l0.037-0.022l0.034-0.022l0.038-0.02l0.037-0.02l0.039-0.019l0.039-0.021
	l0.035-0.016l0.041-0.018l0.037-0.017l0.039-0.016l0.04-0.017l0.039-0.011l0.039-0.017l0.04-0.014l0.043-0.013l0.041-0.011
	l0.038-0.012l0.043-0.009l0.04-0.011l0.041-0.011l0.041-0.006l0.043-0.007l0.043-0.008l0.039-0.008l0.043-0.004l0.042-0.006
	l0.042-0.002l0.043-0.005l0.042-0.003h0.043l0.042-0.002h0.041h0.047l0.041,0.002l0.041,0.003l0.043,0.003l0.043,0.002l0.043,0.005
	l0.041,0.003l0.04,0.007l0.043,0.005l0.042,0.008l0.042,0.007l0.04,0.009l0.042,0.008l0.042,0.01l0.041,0.012l0.041,0.009
	l0.04,0.014l0.04,0.012l0.041,0.015l0.041,0.014l0.039,0.013l0.039,0.018l0.037,0.016l0.04,0.016l0.038,0.019l0.039,0.019
	l0.038,0.018l0.036,0.02l0.037,0.02l0.037,0.022l0.037,0.021l0.033,0.02l0.035,0.024l0.037,0.024l0.035,0.025l0.033,0.022
	l0.037,0.028l0.035,0.024l0.032,0.028l0.031,0.028l0.464,0.393l0.455,0.405l0.447,0.411l0.443,0.42l0.435,0.425l0.427,0.435
	l0.417,0.442l0.413,0.448l0.404,0.457l0.398,0.461l0.385,0.469l0.379,0.476l0.374,0.48l0.364,0.488l0.354,0.498l0.347,0.498
	l0.336,0.508l0.33,0.51l0.32,0.519l0.311,0.524l0.305,0.528l0.291,0.533l0.287,0.538l0.275,0.541l0.264,0.55l0.257,0.553
	l0.249,0.556l0.236,0.56l0.227,0.565l0.217,0.568l0.21,0.573l0.198,0.575l0.188,0.577l0.18,0.583l0.168,0.585l0.158,0.585
	l0.147,0.592l0.14,0.592l0.125,0.596l0.121,0.598l0.105,0.601l0.098,0.603l0.086,0.601l0.077,0.606l0.065,0.605l0.057,0.605
	l0.048,0.607v0.043v0.043l-0.002,0.041l-0.003,0.043l-0.004,0.044l-0.002,0.042l-0.006,0.039L94.01,65.1l-0.006,0.043l-0.007,0.041
	l-0.006,0.043l-0.009,0.039l-0.01,0.043l-0.011,0.041l-0.011,0.041l-0.01,0.043l-0.014,0.038l-0.012,0.041l-0.014,0.041l-0.014,0.04
	l-0.016,0.039l-0.016,0.039l-0.015,0.041l-0.016,0.037l-0.018,0.039l-0.015,0.036l-0.019,0.041l-0.021,0.037l-0.018,0.037
	l-0.023,0.037l-0.019,0.037l-0.022,0.035l-0.021,0.037l-0.021,0.035l-0.02,0.036l-0.025,0.033l-0.025,0.033l-0.023,0.033
	l-0.022,0.033l-0.026,0.031l-0.027,0.033l-0.026,0.032l-0.029,0.033l-0.027,0.03l-0.026,0.031l-0.028,0.027l-0.033,0.029
	l-0.03,0.027l-0.028,0.029l-0.038,0.029l-0.031,0.027l-0.033,0.028l-0.033,0.022l-0.028,0.017l-0.035,0.022l-0.035,0.025
	l-0.036,0.022l-0.033,0.025l-0.037,0.021l-0.037,0.021l-0.037,0.023l-0.033,0.022l-0.037,0.021l-0.039,0.019l-0.037,0.019
	l-0.037,0.021l-0.041,0.021l-0.037,0.017l-0.039,0.015l-0.04,0.016l-0.04,0.016l-0.039,0.018l-0.039,0.013l-0.041,0.015
	l-0.041,0.004l-0.04,0.011l-0.04,0.011l-0.043,0.01l-0.041,0.014l-0.041,0.007l-0.041,0.007l-0.042,0.008l-0.042,0.008l-0.043,0.006
	l-0.041,0.002L91.818,67.2l-0.043,0.002l-0.04,0.002l-0.043,0.005h-0.044h-0.043H77.672v13.125v0.042v0.041l-0.003,0.042
	l-0.003,0.043l-0.002,0.041l-0.004,0.043l-0.006,0.043l-0.006,0.042l-0.006,0.039l-0.008,0.042l-0.008,0.043l-0.012,0.041
	l-0.008,0.041l-0.01,0.041l-0.009,0.041l-0.013,0.039l-0.012,0.042l-0.016,0.039l-0.014,0.041l-0.015,0.039l-0.015,0.038
	l-0.016,0.041l-0.016,0.037l-0.02,0.039l-0.018,0.037l-0.02,0.041l-0.02,0.037l-0.02,0.037l-0.02,0.037l-0.02,0.037l-0.021,0.035
	l-0.021,0.037l-0.024,0.033l-0.021,0.035l-0.021,0.034l-0.023,0.035l-0.024,0.033l-0.026,0.034l-0.025,0.031l-0.025,0.033
	l-0.027,0.031l-0.025,0.029l-0.027,0.032l-0.029,0.031l-0.03,0.032l-0.03,0.025l-0.027,0.029l-0.033,0.028l-0.026,0.026
	l-0.031,0.027l-0.034,0.027l-0.031,0.025l-0.035,0.025l-0.032,0.021l-0.034,0.025l-0.035,0.025l-0.035,0.021l-0.033,0.021
	l-0.037,0.02l-0.034,0.023l-0.038,0.02l-0.036,0.021l-0.037,0.021l-0.038,0.018l-0.037,0.02l-0.039,0.02l-0.037,0.017l-0.039,0.016
	l-0.041,0.02l-0.039,0.017l-0.04,0.012l-0.039,0.015l-0.04,0.014l-0.039,0.015l-0.039,0.01l-0.043,0.013l-0.04,0.011l-0.042,0.009
	l-0.039,0.011l-0.043,0.009l-0.042,0.007l-0.04,0.006l-0.042,0.007l-0.046,0.005l-0.04,0.002l-0.043,0.007l-0.042,0.002
	l-0.041,0.004l-0.043,0.002H75.27h-0.043h-0.039l-0.043-0.002l-0.042-0.004l-0.042-0.002l-0.043-0.007l-0.041-0.002l-0.043-0.005
	l-0.041-0.007l-0.043-0.006l-0.039-0.007l-0.043-0.005l-0.043-0.012l-0.039-0.01l-0.039-0.009l-0.043-0.013l-0.039-0.012
	l-0.041-0.015l-0.041-0.013l-0.04-0.016l-0.039-0.011l-0.037-0.017l-0.041-0.019l-0.039-0.017l-0.037-0.017l-0.04-0.019
	l-0.035-0.021l-0.039-0.019l-0.037-0.02l-0.037-0.021l-0.037-0.02l-0.034-0.021l-0.038-0.021l-0.034-0.021l-0.035-0.021
	l-0.033-0.025l-0.036-0.023l-0.029-0.023l-0.035-0.024l-0.032-0.026l-0.03-0.026l-0.031-0.028l-0.032-0.025l-0.03-0.028
	l-0.031-0.029l-0.027-0.026l-0.031-0.032l-0.028-0.03l-0.026-0.031l-0.025-0.029l-0.027-0.031l-0.028-0.033L73.34,81.82
	l-0.023-0.033l-0.023-0.033l-0.025-0.035l-0.021-0.035l-0.022-0.035l-0.021-0.033l-0.02-0.036l-0.023-0.035l-0.019-0.037
	l-0.021-0.037l-0.019-0.037l-0.022-0.037l-0.017-0.041l-0.02-0.037l-0.018-0.038l-0.015-0.037l-0.017-0.041l-0.013-0.039
	l-0.018-0.039l-0.016-0.041l-0.012-0.039L72.926,81l-0.014-0.039l-0.008-0.041l-0.014-0.04l-0.006-0.041l-0.01-0.041l-0.012-0.042
	l-0.006-0.043l-0.006-0.039l-0.005-0.043l-0.005-0.043l-0.004-0.043l-0.004-0.041l-0.002-0.043l-0.002-0.043v-0.04v-0.044V64.783
	v-0.041v-0.043l0.002-0.043l0.002-0.043l0.004-0.041l0.004-0.042l0.005-0.042l0.005-0.043l0.008-0.041l0.004-0.043l0.013-0.041
	l0.009-0.041l0.006-0.042l0.014-0.039l0.011-0.043l0.011-0.04l0.012-0.041l0.012-0.041l0.018-0.039l0.016-0.039l0.013-0.041
	l0.019-0.039l0.016-0.039l0.018-0.041l0.021-0.037l0.017-0.039l0.021-0.037l0.019-0.037l0.021-0.037l0.019-0.037l0.023-0.037
	l0.021-0.035l0.021-0.035l0.021-0.037l0.024-0.035l0.025-0.033l0.022-0.033l0.028-0.031l0.021-0.033l0.028-0.032l0.026-0.029
	l0.027-0.034l0.027-0.031l0.03-0.029l0.028-0.029l0.029-0.03l0.03-0.028l0.032-0.029l0.028-0.025l0.033-0.028l0.036-0.028
	l0.029-0.023l0.032-0.025l0.034-0.025l0.035-0.021l0.031-0.026l0.037-0.022l0.037-0.021l0.033-0.021l0.037-0.02l0.039-0.021
	l0.037-0.019l0.035-0.021l0.039-0.02l0.039-0.018l0.037-0.017l0.039-0.019l0.039-0.017l0.039-0.019l0.039-0.015l0.04-0.012
	l0.04-0.017l0.041-0.013l0.041-0.014l0.039-0.011l0.042-0.013l0.042-0.012l0.039-0.006l0.043-0.01l0.042-0.01l0.042-0.008
	l0.041-0.006l0.043-0.004l0.04-0.007l0.043-0.005l0.04-0.002l0.043-0.002l0.043-0.002l0.041-0.004h0.045v-0.004H75.246z
	 M54.912,50.001h3.277v4.913h-3.277V50.001z M41.809,50.001h3.276v4.913h-3.276V50.001z M51.635,23.687l-0.004-0.02l-0.002-0.022
	l-0.002-0.02l-0.006-0.022l-0.002-0.02l-0.005-0.022l-0.003-0.02l-0.004-0.021L51.602,23.5l-0.004-0.024l-0.01-0.019l-0.005-0.02
	l-0.008-0.02l-0.007-0.02l-0.008-0.022l-0.008-0.021l-0.007-0.019l-0.009-0.02l-0.01-0.02l-0.008-0.017l-0.01-0.02l-0.01-0.021
	l-0.008-0.018l-0.012-0.018l-0.01-0.02l-0.012-0.017l-0.014-0.021l-0.01-0.017l-0.014-0.018l-0.014-0.016l-0.014-0.018l-0.012-0.018
	l-0.014-0.017l-0.013-0.017l-0.015-0.015l-0.014-0.018l-0.016-0.013l-0.016-0.018l-0.017-0.014l-0.014-0.016l-0.017-0.015
	l-0.018-0.014l-0.018-0.016l-0.014-0.014l-0.018-0.011l-0.017-0.016l-0.02-0.013l-0.018-0.011l-0.017-0.016l-0.019-0.013
	l-0.021-0.011l-0.015-0.01l-0.019-0.013l-0.021-0.012L51,22.732l-0.017-0.009l-0.021-0.01l-0.019-0.009l-0.019-0.01l-0.02-0.01
	l-0.021-0.011l-0.02-0.006l-0.02-0.007l-0.021-0.011l0.008-0.008l-0.02-0.009l-0.02-0.002l-0.021-0.009l-0.02-0.005l-0.02-0.007
	l-0.02-0.006l-0.021-0.003l-0.021-0.006l-0.021-0.004l-0.021-0.003l-0.019-0.003l-0.024-0.003l-0.02-0.003l-0.021-0.002l-0.02-0.002
	l-0.021-0.003h-0.022l-0.02-0.002h-0.021h-0.022h-0.02h-0.022l-0.022,0.002h-0.024l-0.022,0.003l-0.021,0.002h-0.021l-0.02,0.005
	l-0.022,0.003l-0.023,0.001l-0.021,0.005l-0.019,0.002l-0.022,0.004l-0.02,0.006L50.1,22.605l-0.02,0.007l-0.02,0.005l-0.02,0.006
	l-0.023,0.006l-0.02,0.008l-0.019,0.007l-0.021,0.007l-0.019,0.008l-0.021,0.009l-0.018,0.008l-0.021,0.01l-0.017,0.009l-0.02,0.011
	l-0.019,0.008l-0.018,0.012l-0.019,0.009l-0.018,0.012l-0.018,0.011l-0.017,0.012l-0.02,0.014l-0.016,0.012l-0.018,0.012
	l-0.015,0.013l-0.018,0.012l-0.018,0.015l-0.014,0.013l-0.018,0.015l-0.015,0.014l-0.017,0.016l-0.015,0.015l-0.015,0.015
	l-0.014,0.013l-0.014,0.016l-0.016,0.018l-0.013,0.014l-0.015,0.018l-0.012,0.017l-0.017,0.017l-0.011,0.016l-0.012,0.017
	l-0.013,0.018l-0.009,0.019l-0.013,0.018l-0.012,0.017l-0.011,0.02l-0.011,0.017l-0.011,0.017l-0.009,0.02l-0.01,0.021l-0.007,0.019
	l-0.011,0.017l-0.007,0.02l-0.011,0.02l-0.006,0.02l-0.006,0.02l-0.008,0.019l-0.008,0.023l-0.004,0.02l-0.009,0.021l-0.004,0.019
	l-0.007,0.023l-0.006,0.019l-0.005,0.021l-0.002,0.021l-0.005,0.021L49.2,23.592l-0.003,0.02l-0.002,0.021l-0.003,0.024
	l-0.001,0.019l-0.003,0.021v0.02l-0.002,0.023v0.02v0.021v0.023v0.021v0.022l0.002,0.023v0.02l0.003,0.022l0.001,0.02l0.003,0.022
	l0.002,0.02l0.003,0.023l0.004,0.019l0.005,0.023l0.002,0.019l0.005,0.024l0.006,0.019l0.007,0.021l0.004,0.021l0.009,0.02
	l0.004,0.021l0.008,0.02l0.008,0.021l0.006,0.023l0.006,0.02l0.011,0.02l0.007,0.016l0.011,0.02l0.007,0.02l0.01,0.021l0.009,0.016
	l0.011,0.02l0.011,0.017l0.011,0.017l0.012,0.02l0.013,0.017l0.009,0.018l0.013,0.017l0.012,0.017l0.011,0.018l0.017,0.018
	l0.012,0.017l0.015,0.014l0.013,0.018l0.016,0.015l0.014,0.018l0.014,0.014l0.015,0.016l0.015,0.015l0.017,0.014l0.015,0.012
	l0.018,0.015l0.014,0.016l0.018,0.012l0.018,0.014l0.015,0.013l0.018,0.013l0.016,0.013l0.02,0.012l0.017,0.01l0.018,0.013
	l0.018,0.008l0.019,0.013l0.018,0.01l0.019,0.011l0.02,0.008l0.017,0.011l0.021,0.007l0.018,0.011l0.021,0.006l0.019,0.011
	l0.021,0.007l0.019,0.007l0.02,0.008l0.023,0.005l0.02,0.006l0.02,0.006l0.02,0.007l0.022,0.005l0.02,0.005l0.022,0.003l0.019,0.005
	l0.021,0.004l0.023,0.002l0.022,0.003l0.02,0.003l0.021,0.003l0.021,0.002l0.022,0.002h0.02h0.023l0.021,0.002h0.02h0.022
	l0.022-0.002h0.02l0.022-0.002h0.02l0.021-0.002l0.021-0.003l0.02-0.003l0.025-0.005l0.018-0.002L50.647,25l0.021-0.003l0.021-0.006
	l0.021-0.007l0.021-0.005l0.019-0.004l0.02-0.005l0.021-0.007l0.02-0.007l0.02-0.007l0.02-0.008l0.021-0.009l0.02-0.006l0.021-0.01
	l0.021-0.007l0.02-0.01l0.02-0.01l0.02-0.01l0.02-0.01l0.018-0.01l0.02-0.012l0.02-0.01l0.02-0.012L51.1,24.81l0.02-0.011
	l0.019-0.014l0.017-0.013l0.019-0.011l0.018-0.014l0.016-0.014l0.019-0.015l0.017-0.012l0.017-0.016l0.016-0.014l0.016-0.015
	l0.016-0.014l0.017-0.015l0.017-0.018l0.014-0.014l0.014-0.018l0.016-0.016l0.013-0.016l0.015-0.018l0.012-0.016l0.013-0.019
	l0.013-0.016l0.014-0.018l0.011-0.019l0.013-0.018l0.014-0.019l0.009-0.018l0.009-0.019l-0.009-0.02l0.011-0.019l0.008-0.02
	l0.008-0.02l0.011-0.02l0.009-0.02l0.01-0.02l0.008-0.02l0.007-0.02l0.006-0.019l0.007-0.02l0.005-0.02l0.009-0.021l0.004-0.02
	l0.006-0.023l0.005-0.019l0.004-0.02l0.005-0.023l0.002-0.02l0.005-0.022l0.003-0.02l0.004-0.021l0.004-0.023v-0.02l0.002-0.023
	v-0.019v-0.022v-0.022v-0.019v-0.023V23.73l-0.002-0.02v-0.023H51.635z M44.262,23.687l-0.003-0.02v-0.022l-0.004-0.02l-0.003-0.022
	l-0.003-0.02l-0.004-0.022l-0.004-0.02l-0.005-0.021L44.229,23.5l-0.005-0.024l-0.005-0.019l-0.004-0.02l-0.008-0.02l-0.007-0.02
	l-0.004-0.022l-0.011-0.021l-0.007-0.019l-0.008-0.02l-0.008-0.02l-0.009-0.017l-0.01-0.02l-0.008-0.021l-0.012-0.018l-0.009-0.018
	l-0.011-0.02l-0.011-0.017l-0.01-0.021l-0.011-0.017l-0.012-0.018l-0.014-0.016l-0.012-0.018l-0.012-0.018l-0.013-0.017
	l-0.014-0.017l-0.013-0.015l-0.015-0.018l-0.012-0.013l-0.015-0.018l-0.016-0.014l-0.014-0.016l-0.015-0.015l-0.017-0.014
	l-0.014-0.016l-0.017-0.014l-0.017-0.011l-0.017-0.016l-0.014-0.013l-0.018-0.011l-0.018-0.016l-0.017-0.013l-0.018-0.011
	l-0.017-0.01l-0.018-0.013l-0.018-0.012l-0.018-0.011l-0.02-0.009l-0.018-0.01L43.6,22.703l-0.021-0.01l-0.019-0.01l-0.017-0.011
	l-0.02-0.006l-0.021-0.007l-0.019-0.01l-0.02-0.008l-0.02-0.009l-0.02-0.002l-0.022-0.009l-0.02-0.005l-0.02-0.007l-0.023-0.006
	l-0.019-0.003l-0.02-0.006l-0.021-0.004l-0.021-0.003l-0.022-0.003l-0.02-0.003l-0.022-0.003l-0.021-0.002l-0.021-0.002
	l-0.022-0.003h-0.021l-0.022-0.002h-0.02h-0.022h-0.023h-0.019l-0.024,0.002h-0.021l-0.021,0.003l-0.021,0.002h-0.021l-0.022,0.005
	l-0.02,0.003l-0.023,0.001l-0.019,0.005l-0.022,0.002l-0.019,0.004l-0.023,0.006l-0.02,0.004l-0.02,0.007l-0.022,0.005l-0.021,0.006
	l-0.019,0.006l-0.02,0.008l-0.02,0.007l-0.021,0.007l-0.019,0.008l-0.02,0.009l-0.02,0.008l-0.02,0.01l-0.019,0.009l-0.018,0.011
	l-0.02,0.009l-0.017,0.011l-0.019,0.009l-0.018,0.012l-0.019,0.011l-0.018,0.012l-0.017,0.014l-0.018,0.012l-0.017,0.012
	l-0.017,0.013l-0.019,0.012l-0.014,0.015l-0.018,0.013l-0.015,0.015l-0.017,0.014l-0.016,0.016l-0.013,0.015l-0.015,0.015
	l-0.015,0.013l-0.016,0.016l-0.014,0.018l-0.014,0.014l-0.014,0.018l-0.012,0.017l-0.015,0.017l-0.013,0.016l-0.012,0.017
	l-0.013,0.018l-0.013,0.019l-0.01,0.018l-0.012,0.017l-0.009,0.02l-0.012,0.017l-0.01,0.017l-0.011,0.02l-0.009,0.021l-0.011,0.019
	l-0.007,0.017l-0.01,0.02l-0.006,0.02l-0.007,0.02l-0.008,0.02l-0.008,0.019l-0.009,0.023l-0.006,0.02l-0.005,0.021l-0.008,0.019
	l-0.004,0.023l-0.006,0.019l-0.003,0.021l-0.006,0.021l-0.002,0.021l-0.005,0.022l-0.002,0.02l-0.001,0.021l-0.003,0.024
	l-0.003,0.019l-0.003,0.021l-0.002,0.02v0.023v0.02l-0.003,0.021v0.023l0.003,0.021v0.022v0.023l0.002,0.02l0.003,0.022l0.003,0.02
	l0.003,0.022l0.001,0.02l0.002,0.023l0.005,0.019l0.002,0.023l0.006,0.019l0.003,0.024l0.006,0.019l0.004,0.021l0.008,0.021
	l0.005,0.02l0.006,0.021l0.009,0.02l0.008,0.02l0.008,0.023l0.007,0.02l0.006,0.02l0.01,0.016l0.007,0.02l0.011,0.02l0.009,0.021
	l0.011,0.016l0.01,0.02l0.012,0.017l0.009,0.017l0.012,0.02l0.01,0.017l0.013,0.018l0.013,0.017l0.012,0.017l0.013,0.018
	l0.015,0.018l0.012,0.017l0.014,0.014l0.014,0.018l0.014,0.015l0.016,0.018l0.015,0.014l0.015,0.016l0.013,0.015l0.016,0.014
	l0.017,0.012l0.015,0.015l0.018,0.016l0.014,0.012l0.019,0.014l0.017,0.013l0.017,0.013l0.018,0.013l0.017,0.012l0.018,0.01
	l0.019,0.013l0.018,0.008l0.019,0.013l0.017,0.01l0.02,0.011l0.018,0.008l0.019,0.011l0.02,0.007l0.02,0.011l0.02,0.006l0.019,0.011
	l0.021,0.007l0.02,0.007l0.02,0.008l0.019,0.005l0.021,0.006l0.022,0.006l0.02,0.007l0.02,0.005l0.023,0.005l0.019,0.003
	l0.022,0.005l0.019,0.004l0.023,0.002l0.02,0.003l0.022,0.003l0.021,0.003l0.021,0.002l0.021,0.002h0.021h0.024l0.019,0.002h0.023
	h0.022l0.02-0.002h0.022l0.021-0.002h0.022l0.021-0.002l0.021-0.003l0.022-0.003l0.02-0.005l0.022-0.002L43.278,25l0.021-0.003
	l0.02-0.006l0.019-0.007l0.023-0.005l0.02-0.004l0.02-0.005l0.022-0.007l0.02-0.006l0.02-0.008l0.02-0.008l0.019-0.009l0.021-0.006
	l0.02-0.01l0.017-0.007l0.019-0.01l0.021-0.01l0.019-0.01l0.018-0.01l0.02-0.01l0.018-0.012l0.018-0.01l0.018-0.012l0.017-0.014
	l0.018-0.011l0.017-0.014l0.018-0.013l0.018-0.011l0.014-0.014l0.017-0.014l0.017-0.015l0.017-0.012l0.014-0.016l0.017-0.014
	l0.015-0.015l0.014-0.014l0.016-0.015l0.015-0.018l0.012-0.014l0.015-0.018l0.013-0.016l0.014-0.016l0.013-0.018l0.012-0.016
	l0.012-0.019l0.014-0.016l0.012-0.018l0.011-0.019l0.01-0.018l0.011-0.019l0.011-0.018l0.009-0.019l0.012-0.02l0.008-0.019
	l0.01-0.02l0.009-0.02l0.008-0.02l0.008-0.02l0.007-0.02l0.011-0.02l0.004-0.02l0.007-0.019l0.008-0.02l0.004-0.02l0.005-0.021
	l0.005-0.02l0.005-0.023l0.005-0.019l0.004-0.02l0.004-0.023l0.003-0.02l0.003-0.022l0.004-0.02v-0.022l0.003-0.022l0.002-0.02
	l0.002-0.023v-0.019v-0.021v-0.023v-0.019v-0.023v-0.022l-0.002-0.02L44.262,23.687z M47.947,23.678v-0.021l-0.003-0.021
	l-0.005-0.022l-0.002-0.02l-0.003-0.022l-0.005-0.02l-0.001-0.022l-0.005-0.02l-0.005-0.022l-0.008-0.021l-0.005-0.019L47.9,23.426
	l-0.009-0.02l-0.008-0.02l-0.003-0.019l-0.008-0.021l-0.009-0.019l-0.008-0.02l-0.007-0.02l-0.009-0.02l-0.011-0.019l-0.007-0.021
	l-0.01-0.017l-0.009-0.02l-0.013-0.017l-0.009-0.02l-0.014-0.017l-0.009-0.018l-0.012-0.019l-0.013-0.018l-0.011-0.017l-0.013-0.017
	l-0.013-0.019l-0.014-0.014l-0.013-0.018l-0.015-0.014l-0.012-0.018l-0.016-0.016l-0.015-0.013l-0.014-0.018l-0.015-0.014
	l-0.014-0.015l-0.018-0.016l-0.015-0.012l-0.018-0.015L47.5,22.833l-0.017-0.014l-0.018-0.013l-0.018-0.012l-0.017-0.012
	l-0.017-0.013l-0.017-0.012l-0.018-0.013l-0.019-0.011l-0.017-0.012l-0.02-0.011l-0.018-0.009l-0.019-0.01l-0.021-0.01l-0.016-0.011
	l-0.02-0.006l-0.02-0.007l-0.02-0.01l-0.02-0.008l-0.02-0.009l-0.019-0.006l-0.021-0.008l-0.022-0.005l-0.02-0.007l-0.02-0.004
	l-0.023-0.008l-0.019-0.004l-0.021-0.003l-0.021-0.003l-0.02-0.006l-0.022-0.002l-0.02-0.005l-0.021-0.002l-0.021-0.002
	l-0.022-0.003h-0.021l-0.02-0.003h-0.023h-0.019l-0.022-0.002h-0.023l-0.019,0.002h-0.022h-0.021l-0.023,0.003L46.6,22.563
	l-0.021,0.002l-0.021,0.002l-0.021,0.003l-0.021,0.002l-0.019,0.005l-0.023,0.005l-0.02,0.005l-0.022,0.004l-0.019,0.006
	l-0.021,0.003l-0.021,0.006l-0.021,0.007l-0.019,0.008l-0.02,0.006l-0.02,0.005l-0.02,0.011l-0.02,0.007l-0.02,0.008l-0.019,0.009
	l-0.021,0.008l-0.017,0.01l-0.02,0.009l-0.019,0.011l-0.019,0.009l-0.019,0.013L46.08,22.74l-0.018,0.011l-0.019,0.01l-0.018,0.013
	l-0.017,0.013l-0.018,0.012l-0.016,0.015l-0.015,0.012l-0.017,0.012l-0.018,0.016l-0.016,0.013l-0.016,0.014l-0.015,0.016
	l-0.016,0.014l-0.014,0.016l-0.015,0.018l-0.014,0.014l-0.016,0.015l-0.013,0.016l-0.014,0.016l-0.012,0.017l-0.015,0.017
	l-0.013,0.017l-0.012,0.018l-0.013,0.018l-0.01,0.016l-0.011,0.018l-0.014,0.017l-0.008,0.021l-0.013,0.017l-0.01,0.02l-0.01,0.02
	l-0.009,0.016l-0.011,0.021l-0.007,0.02l-0.011,0.02l-0.006,0.02l-0.007,0.02l-0.008,0.019l-0.008,0.021l-0.006,0.019l-0.008,0.02
	l-0.005,0.02l-0.007,0.022l-0.006,0.019l-0.005,0.021l-0.004,0.021l-0.005,0.02l-0.003,0.023l-0.005,0.019l-0.003,0.022l-0.001,0.02
	l-0.003,0.023l-0.002,0.021L45.5,23.69l-0.003,0.022v0.02v0.022v0.021v0.021v0.021v0.021v0.022l0.003,0.022l0.002,0.02l0.002,0.022
	l0.003,0.021l0.001,0.023l0.003,0.019l0.005,0.023l0.003,0.02l0.005,0.023l0.004,0.019l0.005,0.02l0.006,0.021l0.007,0.02
	l0.005,0.02l0.008,0.022l0.006,0.02l0.008,0.02l0.008,0.021l0.007,0.018l0.006,0.021l0.011,0.019l0.007,0.021l0.011,0.017
	l0.009,0.019l0.01,0.019l0.01,0.019l0.013,0.02l0.008,0.017l0.014,0.018l0.011,0.019l0.01,0.018l0.013,0.016l0.012,0.019
	l0.013,0.016l0.015,0.016l0.012,0.018l0.014,0.016l0.013,0.015l0.016,0.017l0.014,0.016l0.015,0.015l0.014,0.015l0.016,0.015
	l0.015,0.014l0.016,0.017l0.016,0.014l0.018,0.012l0.017,0.014l0.015,0.014l0.016,0.012l0.018,0.012l0.017,0.012l0.018,0.013
	l0.019,0.012l0.018,0.01l0.017,0.013l0.019,0.01l0.019,0.009l0.019,0.01l0.02,0.01l0.017,0.009l0.021,0.01l0.019,0.008l0.02,0.01
	l0.02,0.007l0.02,0.008l0.02,0.007l0.02,0.007l0.019,0.008l0.021,0.005l0.021,0.007l0.021,0.005l0.019,0.004l0.022,0.005l0.02,0.005
	l0.023,0.005l0.019,0.003l0.021,0.003l0.021,0.004l0.021,0.002l0.021,0.002l0.021,0.003h0.023l0.02,0.002h0.023h0.019h0.023h0.022
	h0.019l0.023-0.002h0.02l0.021-0.003l0.022-0.002l0.021-0.002l0.021-0.002l0.02-0.002l0.022-0.006l0.02-0.003l0.022-0.005
	l0.021-0.004l0.019-0.005l0.023-0.006l0.02-0.006l0.02-0.005l0.022-0.008l0.021-0.007l0.019-0.005l0.02-0.009l0.02-0.006l0.02-0.009
	l0.02-0.008l0.02-0.01l0.016-0.01l0.021-0.007l0.019-0.013l0.018-0.01l0.02-0.011l0.017-0.008l0.019-0.013l0.018-0.01l0.017-0.012
	l0.017-0.013l0.017-0.013l0.018-0.012l0.018-0.014L47.5,24.74l0.015-0.014l0.018-0.014l0.015-0.015l0.018-0.014l0.014-0.016
	l0.015-0.016l0.014-0.014l0.015-0.015l0.016-0.015l0.012-0.018l0.015-0.017l0.013-0.014l0.014-0.018l0.013-0.017l0.013-0.017
	l0.011-0.017l0.013-0.018l0.012-0.017l0.009-0.017l0.014-0.02l0.009-0.017l0.013-0.02l0.009-0.017l0.01-0.021l0.007-0.02
	l0.011-0.017l0.009-0.019l0.007-0.02l0.008-0.02l0.009-0.021l0.008-0.019l0.003-0.02l0.008-0.02l0.009-0.023l0.004-0.02l0.005-0.02
	l0.008-0.022l0.005-0.021l0.005-0.02l0.001-0.022L47.934,24l0.003-0.023l0.002-0.019l0.005-0.021l0.003-0.023v-0.019l0.001-0.022
	l0.002-0.02v-0.025v-0.021v-0.02v-0.023v-0.019v-0.022l-0.002-0.023L47.947,23.678z M58.189,36.896h1.639h0.057h0.059l0.058-0.003
	l0.058-0.004l0.058-0.003l0.06-0.007l0.057-0.005l0.057-0.008l0.055-0.009l0.059-0.008l0.057-0.01l0.059-0.014l0.055-0.012
	l0.057-0.013l0.053-0.015l0.057-0.016l0.057-0.015l0.057-0.017l0.053-0.018l0.055-0.02l0.053-0.017l0.055-0.022l0.055-0.02
	l0.053-0.021l0.054-0.025l0.048-0.022l0.053-0.024l0.052-0.026l0.051-0.027l0.05-0.028l0.051-0.025l0.047-0.031l0.049-0.029
	l0.05-0.032l0.046-0.029l0.047-0.032l0.048-0.035l0.045-0.034l0.046-0.035l0.04-0.035l0.021-0.037l0.042-0.037l0.041-0.037
	l0.043-0.04l0.041-0.037l0.039-0.042l0.041-0.041l0.035-0.042l0.041-0.042l0.037-0.042l0.035-0.043l0.037-0.044l0.033-0.045
	l0.032-0.044l0.034-0.045l0.031-0.047l0.032-0.047l0.028-0.047l0.033-0.048l0.023-0.05l0.029-0.05l0.027-0.049l0.027-0.05
	l0.023-0.049l0.023-0.05l0.023-0.051l0.021-0.053l0.021-0.052l0.02-0.052l0.021-0.052l0.02-0.055l0.02-0.052l0.018-0.055
	l0.018-0.052l0.018-0.055l0.016-0.055l0.013-0.055l0.017-0.057l0.016-0.055l0.009-0.055l0.011-0.057l0.012-0.055l0.007-0.058
	l0.006-0.054l0.011-0.058l0.005-0.057l0.005-0.057l0.002-0.056l0.004-0.057l0.005-0.057v-0.058v-6.568v-0.055l-0.005-0.058
	l-0.004-0.057l-0.002-0.058l-0.005-0.054l-0.005-0.057l-0.011-0.058l-0.006-0.055l-0.007-0.058l-0.012-0.054l-0.011-0.058
	l-0.006-0.054l-0.015-0.056l-0.014-0.054l-0.014-0.055l-0.017-0.055l-0.019-0.055l-0.017-0.055l-0.018-0.052l-0.021-0.055
	l-0.02-0.053l-0.02-0.053l-0.021-0.054l-0.026-0.03l-0.022-0.052l-0.025-0.052l-0.024-0.05l-0.026-0.049l-0.023-0.05l-0.026-0.049
	l-0.028-0.05l-0.029-0.047l-0.029-0.05l-0.03-0.047l-0.031-0.044l-0.032-0.048l-0.033-0.044l-0.031-0.044l-0.037-0.044l-0.033-0.046
	l-0.039-0.042l-0.035-0.042l-0.037-0.043L62.215,24.8l-0.041-0.039l-0.043-0.04l-0.043-0.04l-0.042-0.037l-0.041-0.04l-0.044-0.037
	l-0.043-0.035l-0.044-0.038l-0.046-0.031l-0.048-0.034l-0.046-0.033l-0.045-0.034l-0.05-0.031L61.594,24.3l-0.053-0.029
	l-0.047-0.027l-0.049-0.029L61.4,24.187l-0.055-0.027l-0.048-0.025l-0.053-0.023l-0.052-0.022l-0.051-0.024l-0.053-0.02
	l-0.052-0.021l-0.054-0.021l-0.056-0.02l-0.052-0.018l-0.058-0.018l-0.052-0.017l-0.056-0.016L60.656,23.9l-0.056-0.016
	l-0.056-0.012l-0.059-0.013l-0.055-0.01l-0.058-0.01l-0.058-0.01l-0.056-0.008l-0.058-0.007l-0.057-0.006l-0.057-0.005l-0.059-0.005
	l-0.059-0.003l-0.057-0.002l-0.057-0.002h-0.059h-3.273v-3.276v-0.055l-0.004-0.059l-0.004-0.057l-0.003-0.057l-0.004-0.058
	l-0.005-0.055l-0.009-0.057l-0.008-0.058l-0.009-0.055l-0.01-0.056l-0.01-0.056l-0.003-0.055l-0.013-0.057l-0.012-0.055
	l-0.019-0.055l-0.016-0.055l-0.015-0.054l-0.02-0.055l-0.018-0.052l-0.021-0.056l-0.021-0.052l-0.02-0.052l-0.02-0.055l-0.02-0.051
	l-0.021-0.052l-0.023-0.052l-0.024-0.049l-0.024-0.05l-0.025-0.053l-0.026-0.049l-0.028-0.048l-0.029-0.049l-0.029-0.048
	l-0.029-0.047l-0.032-0.047l-0.031-0.048l-0.03-0.044l-0.035-0.044l-0.035-0.045l-0.037-0.045l-0.039-0.042l-0.037-0.044
	l-0.029-0.041l-0.039-0.041l-0.041-0.042l-0.039-0.039l-0.039-0.04L55.48,18.09l-0.042-0.039l-0.041-0.034l-0.048-0.037
	l-0.042-0.038l-0.044-0.031l-0.048-0.035l-0.046-0.034l-0.049-0.032l-0.045-0.032l-0.049-0.03l-0.047-0.029L54.947,17.7
	l-0.051-0.026l-0.05-0.031l-0.052-0.023l-0.049-0.028l-0.055-0.024l-0.053-0.024l-0.049-0.022L54.537,17.5l-0.053-0.02l-0.057-0.023
	l-0.055-0.02l-0.052-0.017l-0.055-0.018l-0.055-0.018l-0.058-0.018l-0.056-0.015l-0.056-0.013l-0.055-0.014l-0.055-0.012
	L53.875,17.3l-0.055-0.01l-0.039-0.008l-0.057-0.009l-0.061-0.007l-0.057-0.004l-0.055-0.008l-0.057-0.005l-0.06-0.002l-0.056-0.003
	h-0.056l-0.058-0.002H40.172l-0.058,0.002h-0.057L40,17.246l-0.058,0.005l-0.057,0.002l-0.058,0.008l-0.055,0.004l-0.057,0.007
	l-0.058,0.009l-0.058,0.01l-0.049,0.009l-0.057,0.012l-0.056,0.012l-0.057,0.014l-0.055,0.015l-0.054,0.015l-0.055,0.018
	l-0.055,0.018l-0.055,0.018l-0.053,0.018l-0.055,0.021l-0.052,0.02l-0.055,0.021l-0.053,0.022l-0.052,0.021l-0.049,0.025
	l-0.052,0.024l-0.05,0.027l-0.05,0.026l-0.052,0.027l-0.047,0.029l-0.05,0.03l-0.048,0.029l-0.049,0.032l-0.047,0.033l-0.045,0.032
	l-0.047,0.032l-0.045,0.035l-0.044,0.037l-0.044,0.035l-0.035,0.038l-0.045,0.037l-0.042,0.04l-0.04,0.04l-0.042,0.04l-0.04,0.039
	l-0.04,0.043l-0.036,0.04l-0.039,0.045l-0.038,0.043l-0.034,0.043L37.6,18.493l-0.038,0.045l-0.032,0.046l-0.035,0.046l-0.032,0.047
	l-0.032,0.048l-0.03,0.047l-0.029,0.05l-0.029,0.05l-0.028,0.051l-0.027,0.049l-0.027,0.049l-0.023,0.052l-0.024,0.05l-0.025,0.053
	l-0.021,0.052l-0.022,0.054l-0.02,0.053l-0.022,0.052l-0.019,0.055l-0.019,0.055l-0.018,0.055l-0.016,0.054l-0.017,0.055L37,19.718
	l-0.014,0.055l-0.013,0.057l-0.012,0.055l-0.01,0.057l-0.011,0.055l-0.007,0.058l-0.007,0.058l-0.009,0.057l-0.007,0.054
	l-0.002,0.058l-0.006,0.057l-0.002,0.058l-0.002,0.057v0.058v6.568v0.058l0.002,0.057l0.002,0.058l0.003,0.058l0.005,0.054
	l0.006,0.057l0.007,0.058l0.006,0.055l0.009,0.057l0.011,0.056l0.01,0.056l0.01,0.055l0.012,0.056l0.013,0.055l0.016,0.058
	l0.014,0.055l0.016,0.055l0.018,0.052l0.017,0.055l0.02,0.052l0.02,0.055l0.02,0.053l0.022,0.052l0.021,0.053l0.022,0.053
	l0.024,0.052l0.025,0.05l0.024,0.049l0.026,0.052l0.027,0.047l0.027,0.05l0.03,0.047l0.029,0.05l0.032,0.047l0.031,0.048L37.51,29
	l0.032,0.047l0.035,0.045l0.034,0.044l0.036,0.044l0.036,0.043l0.037,0.042l0.037,0.042l0.04,0.042l0.04,0.041l0.04,0.042
	l0.039,0.037l0.043,0.04L38,29.545l0.042,0.037l0.044,0.037l0.042,0.034l0.045,0.036l0.045,0.034l0.046,0.032l0.047,0.033
	l0.046,0.032l0.046,0.033l0.05,0.03l0.048,0.029l0.05,0.025l0.047,0.006l0.051,0.027l0.049,0.026l0.054,0.025l0.049,0.022
	l0.053,0.025l0.052,0.021l0.052,0.02l0.055,0.022l0.053,0.02l0.052,0.018l0.055,0.018l0.055,0.018l0.055,0.014l0.055,0.017
	l0.055,0.015l0.055,0.013l0.055,0.012l0.057,0.014l0.056,0.011l0.056,0.007l0.055,0.009l0.058,0.008l0.054,0.006l0.058,0.004
	l0.058,0.005l0.057,0.002l0.055,0.006h0.057h0.058h1.637l-6.551,4.915l8.189-3.508v1.87v0.059l0.002,0.057l0.003,0.057l0.003,0.056
	l0.004,0.057l0.005,0.057l0.006,0.058l0.009,0.054l0.009,0.058l0.007,0.055l0.013,0.057l0.01,0.055l0.012,0.055l0.013,0.057
	l0.015,0.055l0.015,0.055l0.016,0.055l0.018,0.053l0.017,0.055l0.02,0.052l0.02,0.055l0.02,0.052l0.022,0.052l0.022,0.052
	l0.022,0.053l0.024,0.051l0.024,0.051l0.025,0.049l0.027,0.05l0.026,0.049l0.03,0.05l0.027,0.05l0.032,0.047l0.029,0.047
	l0.032,0.047l0.032,0.047l0.032,0.045l0.036,0.045l0.033,0.044l0.038,0.044l0.035,0.043l0.037,0.042l0.037,0.042l0.04,0.042
	l0.04,0.041l0.039,0.042l0.04,0.037l0.042,0.04l0.042,0.037l0.043,0.037l0.042,0.037l0.045,0.034l0.044,0.035l0.045,0.035
	l0.047,0.035l0.044,0.031l0.048,0.029l0.049,0.032l0.046,0.03l0.048,0.03l0.049,0.025l0.051,0.028l0.049,0.028l0.051,0.026
	l0.053,0.023l0.05,0.023l0.052,0.025l0.052,0.021l0.053,0.02l0.052,0.021l0.055,0.017l0.053,0.02l0.055,0.018l0.055,0.017
	l0.055,0.016l0.055,0.016l0.054,0.015l0.055,0.012l0.055,0.013l0.057,0.013l0.055,0.009l0.057,0.009l0.055,0.009l0.058,0.008
	l0.054,0.004l0.058,0.007l0.058,0.003l0.057,0.004l0.055,0.003h0.057h0.058h6.55l11.467,4.915L58.189,36.896L58.189,36.896z
	 M50.818,30.367v0.021l-0.004,0.02v0.023l-0.002,0.02l-0.002,0.022l-0.002,0.02l-0.004,0.022l-0.001,0.021l-0.008,0.02l-0.003,0.02
	l-0.006,0.022l-0.002,0.021l-0.004,0.022l-0.006,0.02l-0.008,0.02l-0.007,0.02l-0.007,0.022l-0.008,0.02l-0.01,0.02l-0.007,0.02
	l-0.008,0.02l-0.009,0.02l-0.01,0.02l-0.008,0.018l-0.011,0.02l-0.011,0.02l-0.01,0.02l-0.013,0.019l-0.009,0.02l-0.015,0.018
	l-0.01,0.017l-0.013,0.017l-0.016,0.02l-0.013,0.018l-0.007,0.02l-0.014,0.017l-0.013,0.018l-0.013,0.015l-0.018,0.017l-0.016,0.017
	l-0.013,0.018l-0.016,0.014l-0.015,0.016l-0.016,0.015l-0.015,0.016l-0.017,0.014l-0.015,0.016l-0.015,0.014l-0.018,0.014
	l-0.018,0.015l-0.015,0.013l-0.019,0.014l-0.018,0.012l-0.017,0.013l-0.017,0.013l-0.009,0.011l-0.02,0.014l-0.017,0.009
	l-0.02,0.011l-0.018,0.012l-0.02,0.01l-0.017,0.01l-0.02,0.01l-0.02,0.009l-0.02,0.009l-0.018,0.007l-0.006-0.006l-0.02,0.009
	l-0.022,0.009l-0.02,0.007l-0.02,0.005l-0.02,0.007l-0.02,0.005l-0.02,0.008l-0.021,0.005l-0.02,0.004l-0.022,0.003l-0.02,0.005
	l-0.02,0.005l-0.021,0.003l-0.022,0.002l-0.02,0.005h-0.021l-0.02,0.002l-0.022,0.002l-0.02,0.003h-0.021H49.61h-0.02H49.57h-0.02
	h-0.022l-0.02-0.003l-0.021-0.002l-0.023-0.002h-0.02l-0.021-0.005l-0.02-0.002l-0.022-0.003l-0.02-0.005l-0.025-0.007l-0.02-0.002
	l-0.022-0.005l-0.02-0.005l-0.02-0.007l-0.02-0.006l-0.022-0.007l-0.02-0.005l-0.02-0.007l-0.02-0.009l-0.02-0.009l-0.02-0.007
	l-0.02-0.008l-0.02-0.009l-0.018-0.009l-0.02-0.009l-0.02-0.011l-0.019-0.01l-0.019-0.013l-0.019-0.01l-0.02-0.01l-0.017-0.014
	l-0.018-0.012l-0.018-0.013l-0.018-0.013l-0.017-0.012L48.833,31.3l-0.018-0.013l-0.015-0.015l-0.017-0.014l-0.015-0.014
	l-0.018-0.016l-0.016-0.015l-0.015-0.016l-0.015-0.016l-0.015-0.015l-0.017-0.014l-0.014-0.018l-0.013-0.017l-0.014-0.017
	l-0.014-0.015l-0.015-0.018l-0.012-0.017l-0.012-0.018l-0.014-0.019l-0.01-0.02l-0.012-0.018l-0.013-0.017l-0.01-0.018l-0.01-0.02
	l-0.01-0.019l-0.01-0.02l-0.011-0.02l-0.01-0.02l-0.009-0.018l-0.009-0.02l-0.007-0.02l-0.01-0.02l-0.008-0.02l-0.007-0.02
	l-0.005-0.02l-0.008-0.022l-0.007-0.02l-0.004-0.02l-0.005-0.02l0.01-0.006l-0.004-0.02l-0.005-0.021l-0.005-0.02l-0.003-0.02
	l-0.003-0.022l-0.001-0.022l-0.002-0.02l-0.003-0.022l-0.003-0.02l-0.001-0.022v-0.02l-0.003-0.022v-0.023h2.458V30.367z
	 M54.502,30.306v0.022v0.02v0.021v0.022l-0.002,0.02v0.021l-0.002,0.02l-0.002,0.022l-0.004,0.02l-0.004,0.023l-0.004,0.02
	l-0.006,0.022l-0.003,0.02l-0.005,0.021l-0.006,0.02l-0.006,0.02l-0.008,0.022l-0.006,0.02l-0.008,0.02l-0.005,0.02l-0.007,0.022
	l-0.008,0.02l-0.008,0.02l-0.013,0.02l-0.007,0.02l-0.012,0.017l-0.008,0.02l-0.011,0.02l-0.011,0.018l-0.01,0.02l-0.01,0.02
	l-0.012,0.018l-0.013,0.018l-0.016,0.019l-0.009,0.018l0.003,0.016l-0.012,0.018l-0.013,0.018l-0.013,0.017L54.23,31.1l-0.015,0.016
	l-0.017,0.017l-0.016,0.016l-0.012,0.018l-0.011,0.015l-0.017,0.015l-0.014,0.015l-0.018,0.017l-0.02,0.014l-0.016,0.016
	l-0.018,0.013l-0.012,0.015l-0.018,0.013l-0.018,0.013l-0.02,0.015l-0.02,0.013l-0.019,0.011l-0.013,0.012l-0.021,0.013l-0.02,0.01
	l-0.018,0.013l-0.02,0.01l-0.021,0.011l-0.021,0.011l-0.02,0.009l-0.02,0.011l-0.021,0.01l-0.021,0.007l-0.02,0.008l-0.02,0.009
	l-0.02,0.009l-0.021,0.007l-0.02,0.006l-0.02,0.007l-0.02,0.007l-0.022,0.005l-0.02,0.006l-0.02,0.005l-0.022,0.005l-0.02,0.005
	l-0.02,0.001l-0.02,0.006l-0.021,0.002l-0.02,0.002l-0.022,0.006h-0.007l-0.023,0.001l-0.02,0.003h-0.021h-0.021l-0.021,0.003
	h-0.022l-0.02-0.003h-0.021h-0.021l-0.02-0.003l-0.021-0.001l-0.019-0.003l-0.022-0.003l-0.021-0.002l-0.022-0.002l-0.02-0.006
	l-0.021-0.001l-0.02-0.005l-0.02-0.005l-0.02-0.005l-0.021-0.006l-0.02-0.007l-0.02-0.005l-0.021-0.007l-0.021-0.009l-0.02-0.006
	l-0.02-0.008l-0.021-0.007l-0.02-0.008l-0.02-0.01l-0.02-0.011l-0.021-0.007l-0.018-0.009l-0.02-0.011l-0.02-0.011l-0.021-0.012
	l-0.019-0.011l-0.02-0.012l-0.02-0.011l-0.019-0.012l-0.017-0.014l-0.021-0.013l-0.019-0.012l-0.017-0.013l-0.019-0.016
	l-0.021-0.012l-0.017-0.015l-0.016-0.016l-0.016-0.015l-0.011-0.015l-0.014-0.019l-0.011-0.016l-0.018-0.015l-0.018-0.018
	l-0.017-0.015l-0.012-0.018l-0.015-0.016l-0.016-0.018l-0.015-0.017l-0.013-0.018l-0.012-0.017l-0.014-0.019l-0.012-0.017
	l-0.016-0.017l-0.01-0.02l-0.012-0.018l-0.01-0.02l-0.013-0.018l-0.011-0.02l-0.008-0.02l-0.01-0.02l-0.012-0.018l-0.008-0.02
	l-0.01-0.02l-0.008-0.02l-0.007-0.021l-0.009-0.018v-0.022l-0.004-0.02l-0.008-0.02l-0.006-0.02l0.002-0.016l-0.006-0.02
	l-0.005-0.021l-0.006-0.02l-0.003-0.022l-0.004-0.02l-0.004-0.022l-0.004-0.02l-0.002-0.022l-0.002-0.02V30.41l-0.004-0.02v-0.022
	l-0.002-0.021h1.23h0.059h0.057l0.058-0.003l0.058-0.005l0.056-0.005l0.06-0.004l0.059-0.006l0.055-0.007l0.057-0.008l0.059-0.009
	l0.057-0.011l0.055-0.014l0.057-0.009l0.056-0.015l0.056-0.013l0.058-0.015l0.054-0.017l0.053-0.016l0.055-0.017l0.055-0.02
	l0.055-0.02l0.055-0.02l0.004,0.022l0.002,0.02l0.005,0.022l0.002,0.02l0.003,0.021v0.024v0.022l0.002,0.02v0.023H54.502z
	 M55.729,27.198l-0.004,0.042l-0.002,0.042l-0.004,0.042l-0.004,0.042l-0.01,0.042l-0.004,0.043l-0.008,0.042l-0.01,0.04
	l-0.012,0.042l-0.006,0.042l-0.01,0.042l-0.01,0.041l-0.014,0.042l-0.016,0.04l-0.014,0.04l-0.013,0.039l-0.015,0.042l-0.016,0.04
	l-0.018,0.04l-0.016,0.037l-0.019,0.04l-0.019,0.04l-0.02,0.037l-0.02,0.04l-0.02,0.037L55.41,28.25l-0.02,0.037l-0.021,0.037
	l-0.02,0.035l-0.022,0.036l-0.021,0.035l-0.021,0.035L55.26,28.5l-0.023,0.034l-0.024,0.035l-0.026,0.032l-0.021,0.032l-0.027,0.036
	l-0.027,0.029l-0.029,0.031l-0.029,0.033l-0.029,0.029l-0.028,0.03l-0.028,0.029l-0.029,0.031l-0.031,0.025l-0.033,0.028
	L54.84,28.96l-0.032,0.026l-0.035,0.027l-0.028,0.025l-0.035,0.024l-0.035,0.024l-0.035,0.021l-0.037,0.025l-0.033,0.022
	l-0.035,0.022l-0.039,0.02l-0.033,0.022l-0.041,0.02l-0.037,0.02l-0.037,0.018l-0.039,0.018l-0.037,0.018l-0.04,0.018l-0.04,0.017
	l-0.039,0.016l-0.039,0.015l-0.041,0.013l-0.04,0.016l-0.041,0.012l-0.039,0.012l-0.04,0.01l-0.043,0.011l-0.043,0.01l-0.039,0.01
	l-0.041,0.007l-0.043,0.011l-0.042,0.005l-0.043,0.007l-0.044,0.005l-0.043,0.005l-0.043,0.004l-0.043,0.003l-0.041,0.002
	l-0.042,0.003h-0.042h-0.043h-6.72l-5.338,2.288l3.049-2.288h-4.094h-0.043h-0.042l-0.042-0.003l-0.042-0.002l-0.044-0.003
	l-0.04-0.005l-0.044-0.005l-0.04-0.004l-0.042-0.007l-0.042-0.005l-0.042-0.011l-0.043-0.007l-0.039-0.01l-0.042-0.01l-0.042-0.011
	l-0.04-0.01L39.46,29.42l-0.04-0.012l-0.04-0.016l-0.039-0.013l-0.04-0.015l-0.04-0.016l-0.04-0.017l-0.04-0.018l-0.036-0.018
	l-0.04-0.018l-0.037-0.018l-0.038-0.02l-0.04-0.02l-0.037-0.022l-0.034-0.02l-0.037-0.022l-0.035-0.022l-0.036-0.025l-0.035-0.021
	l-0.034-0.024l-0.036-0.024l-0.031-0.025l-0.035-0.027l-0.033-0.026l-0.031-0.027l-0.032-0.028l-0.032-0.025l-0.029-0.031
	l-0.033-0.029l-0.029-0.03l-0.029-0.029l-0.029-0.032l-0.031-0.031l-0.026-0.029l-0.026-0.036l-0.028-0.032l-0.024-0.032
	L38.2,28.535l-0.023-0.034l-0.022-0.036l-0.025-0.034l-0.021-0.035l-0.024-0.036l-0.02-0.035l-0.022-0.037l-0.02-0.037L38,28.214
	l-0.017-0.037l-0.02-0.04L37.945,28.1l-0.017-0.04l-0.019-0.041l-0.015-0.037l-0.015-0.04l-0.016-0.04l-0.015-0.042l-0.013-0.039
	l-0.016-0.041l-0.011-0.04l-0.012-0.042l-0.009-0.041l-0.011-0.042l-0.01-0.042l-0.007-0.042l-0.008-0.04l-0.006-0.042l-0.008-0.043
	l-0.004-0.042l-0.006-0.042l-0.002-0.042l-0.002-0.042l-0.005-0.042v-0.042l-0.002-0.045v-0.043V20.5v-0.043l0.002-0.039v-0.043
	l0.005-0.042l0.002-0.042l0.002-0.042l0.006-0.04l0.004-0.042l0.008-0.043l0.007-0.039l0.005-0.042l0.011-0.042l0.008-0.04
	l0.01-0.042l0.01-0.039l0.012-0.04l0.013-0.04l0.013-0.04l0.012-0.04l0.013-0.039l0.015-0.04l0.016-0.04l0.018-0.039l0.015-0.038
	l0.018-0.037l0.018-0.039l0.018-0.037l0.02-0.037l0.02-0.038l0.02-0.034l0.021-0.037l0.02-0.035l0.022-0.037l0.022-0.034
	l0.024-0.036l0.022-0.034l0.024-0.031l0.024-0.036l0.027-0.031l0.024-0.032l0.028-0.031l0.026-0.033l0.027-0.032l0.03-0.03
	l0.026-0.029l0.031-0.03l1.734-0.708h13.106h0.042h0.046l0.041,0.001l0.042,0.003l0.043,0.003l0.046,0.003l0.041,0.006l0.042,0.005
	l0.042,0.008l0.041,0.007l0.043,0.008l0.043,0.007l0.045,0.011l0.041,0.01l0.039,0.01l0.044,0.013L54,18.173l0.039,0.013l0.04,0.016
	l0.042,0.013l0.039,0.015l0.039,0.018l0.041,0.015l0.039,0.018l0.039,0.017l0.039,0.02l0.038,0.02l0.038,0.02l0.036,0.02l0.037,0.02
	l0.038,0.021l0.035,0.022l0.037,0.023l0.035,0.024l0.035,0.024l0.033,0.025l0.035,0.024l0.034,0.027l0.035,0.024l0.03,0.028
	l0.033,0.029l0.032,0.027l0.03,0.029l0.029,0.03l0.029,0.03l0.029,0.029l0.028,0.031l0.03,0.029l0.029,0.033l0.023,0.035
	l0.028,0.031l0.024,0.032l0.025,0.035l0.027,0.035l0.023,0.034l0.02,0.035l0.023,0.037l0.021,0.034l0.022,0.037l0.021,0.038
	l0.02,0.036l0.023,0.038l0.02,0.04l0.02,0.036l0.02,0.041l0.018,0.037l0.018,0.039l0.02,0.04l0.016,0.04l0.018,0.042l0.016,0.04
	l0.012,0.04l0.016,0.042l0.012,0.04l0.014,0.042l0.012,0.042l0.01,0.04l0.01,0.042l0.008,0.042l0.012,0.042l0.006,0.042l0.008,0.043
	l0.006,0.044l0.006,0.042l0.004,0.042l0.002,0.042l0.004,0.045l0.003,0.042l0.003,0.042v0.042v6.552v0.042l-0.003,0.044
	L55.729,27.198L55.729,27.198z M58.188,30.295v0.02v0.022v0.022v0.02v0.023l-0.003,0.02v0.022l-0.003,0.02l-0.002,0.021
	l-0.003,0.022l-0.006,0.02L58.17,30.55l-0.006,0.02l-0.002,0.021l-0.004,0.02l-0.006,0.02l-0.005,0.021l-0.007,0.021l-0.006,0.019
	l-0.008,0.021l-0.008,0.021l-0.007,0.021l-0.007,0.02l-0.01,0.021l-0.012,0.019l-0.007,0.021l-0.009,0.02l-0.008,0.017l-0.012,0.02
	l-0.012,0.02l-0.01,0.018l-0.016,0.02l-0.009,0.018l-0.011,0.02l-0.012,0.018l-0.014,0.017l-0.014,0.018l-0.016,0.018l-0.013,0.017
	l-0.013,0.018l-0.014,0.017l-0.016,0.018l-0.013,0.015l-0.016,0.018l-0.017,0.015l-0.016,0.016l-0.016,0.015l-0.017,0.015
	l-0.016,0.017l-0.019,0.014l-0.017,0.015l-0.018,0.015l-0.018,0.013l-0.019,0.014l-0.017,0.014l-0.02,0.013l-0.02,0.014
	l-0.019,0.012l-0.019,0.013l-0.019,0.01l-0.021,0.013l-0.021,0.01l-0.019,0.011l-0.021,0.013l0.012,0.011l-0.02,0.008l-0.02,0.01
	l-0.021,0.01l-0.021,0.008l-0.02,0.006l-0.02,0.011l-0.021,0.007l-0.021,0.009l-0.02,0.007l-0.02,0.005l-0.021,0.005l-0.02,0.008
	l-0.02,0.005l-0.021,0.005l-0.02,0.005l-0.021,0.004l-0.021,0.003l-0.021,0.006l-0.021,0.001l-0.021,0.003l-0.02,0.003l-0.021,0.001
	l-0.02,0.003l-0.021,0.003h-0.022h-0.021h-0.021h-0.021h-0.02h-0.021l-0.02-0.003l-0.022-0.003h-0.021l-0.02-0.001l-0.021-0.003
	l-0.02-0.003l-0.027-0.004l-0.02-0.003l-0.021-0.004l-0.02-0.006l-0.02-0.005l-0.021-0.005l-0.02-0.005l-0.021-0.008l-0.02-0.005
	l-0.028-0.007l-0.021-0.007l-0.008-0.021l-0.02-0.006l-0.021-0.007l-0.02-0.011l-0.02-0.008l-0.02-0.01l-0.021-0.009l-0.021-0.009
	l-0.02-0.009l-0.02-0.014l-0.02-0.009l-0.018-0.013l-0.02-0.01l-0.02-0.013l-0.02-0.013l-0.02-0.012l-0.019-0.014l-0.019-0.013
	l-0.014-0.013l-0.02-0.015l-0.021-0.013l-0.015-0.015l-0.017-0.015L56.1,31.219l-0.016-0.016l-0.017-0.015l-0.016-0.015
	l-0.018-0.016l-0.017-0.018l-0.012-0.015l-0.016-0.017l-0.013-0.018l-0.015-0.015l-0.016-0.018l-0.013-0.018l-0.014-0.017
	l-0.015-0.018l-0.01-0.02l-0.013-0.017l-0.011-0.018l-0.013-0.02l-0.012-0.018L55.84,30.89l-0.01-0.02l-0.01-0.018l-0.013-0.02
	l-0.007-0.02l-0.012-0.02l-0.008-0.021l0.006-0.02l-0.008-0.021l0.008-0.005l-0.004-0.022l-0.008-0.02l-0.005-0.02l-0.007-0.02
	l-0.006-0.022l-0.006-0.02l-0.003-0.022l-0.005-0.02L55.74,30.54l-0.006-0.02l-0.002-0.023l-0.002-0.02l-0.002-0.022l-0.004-0.02
	v-0.022l-0.002-0.023v-0.02v-0.022v-0.02v-0.022v-0.023l0.002-0.02V30.24l0.004-0.022l0.002-0.02l0.002-0.022l0.002-0.02
	l0.006-0.021l0.004-0.02l0.005-0.023l0.003-0.02l0.006-0.02l0.006-0.021l0.007-0.02l0.005-0.02l0.008-0.022l0.004-0.02l0.008-0.02
	l0.01-0.02l0.008-0.02l0.008-0.02l0.012-0.02l0.008-0.019l0.011-0.02l0.009-0.02l0.01-0.017l0.01-0.02l0.014-0.017l0.01-0.02
	l0.014-0.019l0.01-0.02l0.012-0.018l0.014-0.017l0.014-0.018l0.013-0.018l0.018-0.018l0.013-0.018l0.012-0.018l0.017-0.015
	l0.013-0.017l0.016-0.016l0.018-0.017l0.016-0.015l0.016-0.015l0.018-0.016l0.015-0.016l0.019-0.012l0.016-0.014l0.018-0.016
	l0.021-0.012l0.015-0.015l0.019-0.013l0.021-0.012l0.018-0.014l0.02-0.013l0.02-0.009l0.02-0.013l0.017-0.009l0.021-0.014
	l0.019-0.009l0.021-0.011l0.02-0.01l0.019-0.011l0.021-0.006l0.02-0.011l0.02-0.008l0.021-0.01l0.02-0.007l0.02-0.008l0.02-0.006
	l0.021-0.007l0.021-0.007l0.02-0.005l0.021-0.005l0.021-0.005l0.02-0.005l0.02-0.004l0.021-0.005l0.02-0.002l0.02-0.005l0.02-0.003
	l0.021-0.002l0.006-0.003l0.02-0.002l0.021-0.002h0.021h0.02h0.021h0.019h0.021h0.021h0.021l0.02,0.002l0.026,0.002h0.022
	l0.02,0.003l0.021,0.005l0.02,0.002l0.021,0.003l0.019,0.004l0.021,0.005l0.021,0.006l0.02,0.004l0.021,0.006l0.02,0.004
	l0.021,0.008l0.021,0.005l0.02,0.007l0.02,0.008l0.021,0.008l0.021,0.008l0.02,0.007l0.02,0.01l0.02,0.011l0.021,0.007l0.016,0.01
	l0.021,0.01l0.02,0.011l0.02,0.01l0.018,0.013l0.021,0.009l0.018,0.014l0.019,0.013l0.019,0.012l0.02,0.013l0.018,0.013l0.019,0.012
	l0.019,0.015l0.017,0.014l0.02,0.014l0.014,0.016l0.02,0.013l0.016,0.015l0.017,0.015l0.016,0.015l0.016,0.017l0.017,0.017
	l0.016,0.015l0.012,0.017l0.018,0.018l0.014,0.018l0.014,0.016l0.012,0.018l0.015,0.017l0.013,0.018l0.014,0.02l0.014,0.018
	l0.01,0.018l0.012,0.02l0.012,0.018l0.012,0.021l0.01,0.018l0.012,0.02l0.008,0.02l0.01,0.02l0.008,0.02l0.011,0.021l0.008,0.02
	l0.009,0.021l0.008,0.019l0.006,0.021l0.007,0.02l0.007,0.022l0.008,0.02l0.005,0.02l0.007,0.021l0.004,0.02l0.002,0.02l0.007,0.022
	l0.002,0.021l0.005,0.02l0.002,0.022l0.002,0.02l0.005,0.021v0.02l0.002,0.022v0.022H58.188z M72.822,30.345l-0.089,0.003l-0.096,0
	l-0.094,0.004l-0.093,0.007l-0.093,0.008l-0.093,0.007l-0.093,0.011l-0.091,0.011l-0.093,0.016l-0.091,0.014l-0.091,0.018
	l-0.091,0.017l-0.092,0.02l-0.09,0.023l-0.08,0.021l-0.092,0.025l-0.084,0.025l-0.09,0.028l-0.088,0.029l-0.088,0.031l-0.09,0.034
	l-0.087,0.032l-0.081,0.037l-0.087,0.035l-0.083,0.04l-0.085,0.04l-0.081,0.039l-0.082,0.042l-0.084,0.046l-0.078,0.045
	l-0.079,0.047l-0.079,0.048l-0.08,0.047l-0.072,0.052l-0.078,0.051l-0.074,0.053l-0.077,0.057l-0.071,0.054l-0.072,0.057
	l-0.072,0.06l-0.067,0.06L69.285,31.7l-0.07,0.062l-0.064,0.062l-0.064,0.064l-0.063,0.066l-0.063,0.068l-0.061,0.066l-0.062,0.07
	l-0.06,0.069l-0.061,0.071l-0.057,0.071l-0.057,0.073l-0.057,0.074l-0.055,0.075l-0.053,0.077l-0.054,0.076l-0.051,0.077
	l-0.046,0.079l-0.048,0.08l-0.048,0.079l-0.045,0.083l-0.041,0.083l-0.043,0.081l-0.039,0.085l-0.037,0.083l-0.037,0.084
	l-0.039,0.084l-0.031,0.087l-0.034,0.085l-0.029,0.086l-0.028,0.088l-0.03,0.086l-0.024,0.09l-0.021,0.089l-0.026,0.088l-0.021,0.09
	l-0.02,0.089l-0.02,0.092l-0.019,0.088l-0.015,0.092l-0.016,0.089l-0.014,0.091l-0.01,0.092l-0.012,0.094l-0.008,0.091l-0.008,0.093
	l-0.002,0.092l-0.004,0.092l-0.002,0.091v0.092l0.002,0.094l0.004,0.091l0.008,0.092l0.005,0.092l0.011,0.091l0.01,0.091
	l0.011,0.093l0.015,0.092l0.016,0.091l0.016,0.09l0.021,0.091l0.018,0.09l0.021,0.089l0.021,0.089l0.022,0.088l0.026,0.09
	l0.025,0.087l0.028,0.088l0.031,0.086l0.03,0.087l0.033,0.086l0.033,0.084l0.038,0.084l0.037,0.085l0.04,0.084l0.041,0.081
	l0.042,0.084l0.043,0.079l0.044,0.082l0.049,0.081l0.047,0.08l0.051,0.076l0.05,0.078l0.053,0.077l0.055,0.077l0.055,0.074
	l0.056,0.072l0.058,0.074l0.06,0.07l0.059,0.071l0.059,0.071l0.061,0.069l0.063,0.067l0.062,0.065l0.066,0.066l0.064,0.062
	l0.069,0.064l0.067,0.062l0.07,0.06l0.068,0.06l0.071,0.056l0.074,0.057l0.071,0.055l0.077,0.054l0.073,0.056l0.078,0.049
	l0.076,0.052l0.08,0.047l0.077,0.048l0.08,0.046l0.083,0.045l0.078,0.042l0.086,0.042l0.081,0.042l0.085,0.037l0.085,0.037
	l0.085,0.037l0.086,0.035l0.086,0.033l0.086,0.031l0.09,0.03l0.088,0.027l0.089,0.027l0.089,0.025l0.088,0.024l0.09,0.022
	l0.092,0.02l0.091,0.02l0.093,0.017l0.089,0.017l0.093,0.014l0.092,0.012l0.094,0.012l0.092,0.01l0.092,0.008l0.093,0.007
	l0.093,0.004l0.092,0.003l0.096,0.003h0.092l0.092-0.003l0.093-0.003l0.093-0.004l0.092-0.007l0.096-0.008l0.092-0.01l0.09-0.012
	l0.094-0.012l0.092-0.014l0.092-0.017l0.09-0.017l0.092-0.02l0.09-0.02l0.09-0.022l0.091-0.024l0.088-0.025l0.087-0.027l0.09-0.027
	l0.088-0.03l0.088-0.031l0.088-0.033l0.083-0.035l0.089-0.037l0.083-0.037l0.081-0.037l0.086-0.042l0.082-0.042l0.082-0.042
	l0.08-0.045l0.081-0.046l0.08-0.048l0.076-0.047l0.077-0.052l0.076-0.049l0.078-0.056l0.072-0.054l0.074-0.055l0.072-0.057
	l0.07-0.056l0.072-0.06l0.07-0.06l0.064-0.062l0.07-0.064l0.066-0.062l0.064-0.066l0.061-0.065l0.063-0.067l0.062-0.069l0.061-0.071
	l0.061-0.071l0.059-0.07l0.057-0.074l0.059-0.072l0.057-0.074l0.051-0.077l0.054-0.077l0.048-0.078l0.052-0.076l0.048-0.08
	l0.046-0.081l0.046-0.082l0.045-0.079l0.043-0.084l0.039-0.081l0.041-0.084l0.037-0.085l0.035-0.084l0.035-0.084l0.031-0.086
	l0.032-0.087l0.028-0.086l0.03-0.088l0.028-0.087l0.024-0.09l0.021-0.088l0.021-0.089l0.023-0.089l0.02-0.09l0.018-0.091l0.018-0.09
	l0.018-0.091l0.014-0.092l0.01-0.093l0.012-0.091l0.01-0.091l0.008-0.092l0.006-0.092l0.002-0.091l0.002-0.094v-0.092v-0.091
	l-0.002-0.092l-0.006-0.092l-0.018-0.094l-0.008-0.091l-0.008-0.092l-0.014-0.092l-0.011-0.091l-0.015-0.089l-0.018-0.092
	l-0.02-0.088l-0.018-0.092l-0.02-0.089l-0.022-0.09l-0.023-0.088l-0.024-0.089l-0.025-0.09l-0.028-0.086l-0.029-0.088l-0.028-0.086
	l-0.034-0.085l-0.032-0.087l-0.035-0.084l-0.036-0.084l-0.041-0.083l-0.039-0.085l-0.044-0.081l-0.041-0.083l-0.047-0.083
	l-0.043-0.079l-0.048-0.08l-0.05-0.079l-0.049-0.077l-0.052-0.076l-0.056-0.077l-0.052-0.075l-0.058-0.074l-0.056-0.073l-0.06-0.071
	l-0.059-0.071L76.82,32.16l-0.06-0.07l-0.063-0.066l-0.062-0.068l-0.062-0.066l-0.064-0.064l-0.068-0.062L76.372,31.7l-0.069-0.061
	l-0.072-0.06l-0.066-0.06l-0.075-0.057l-0.071-0.054l-0.074-0.057l-0.072-0.053l-0.078-0.051l-0.076-0.052l-0.08-0.048l-0.076-0.048
	l-0.079-0.047l-0.082-0.045l-0.081-0.046l-0.084-0.042l-0.082-0.039l-0.083-0.04l-0.085-0.04l-0.087-0.037l-0.085-0.035
	l-0.086-0.032l-0.088-0.034l-0.088-0.031l-0.086-0.029l-0.09-0.028l-0.087-0.025l-0.096-0.025l-0.089-0.021l-0.09-0.023l-0.091-0.02
	l-0.093-0.017l-0.093-0.018l-0.089-0.014l-0.088-0.016l-0.092-0.011l-0.094-0.011l-0.089-0.007l-0.095-0.008l-0.094-0.007
	l-0.092-0.004l-0.094,0L72.822,30.345z M27.176,30.345l0.091,0.003l0.092,0l0.092,0.004l0.093,0.007l0.092,0.008l0.092,0.007
	l0.092,0.011l0.089,0.011l0.091,0.016l0.091,0.014l0.092,0.018l0.09,0.017l0.089,0.02l0.09,0.023l0.089,0.021l0.087,0.025
	l0.089,0.025l0.089,0.028l0.087,0.029l0.087,0.031l0.086,0.034l0.086,0.032l0.084,0.037l0.084,0.035l0.084,0.04l0.084,0.04
	l0.083,0.039l0.082,0.042l0.082,0.046l0.079,0.045l0.08,0.047l0.08,0.048l0.076,0.048l0.077,0.052l0.077,0.051l0.074,0.053
	l0.074,0.057l0.074,0.054l0.074,0.057l0.071,0.06l0.068,0.06l0.069,0.061l0.069,0.062l0.067,0.062l0.065,0.064l0.064,0.066
	l0.064,0.068l0.062,0.066l0.062,0.07l0.059,0.069l0.06,0.071l0.057,0.071l0.058,0.073l0.054,0.074l0.055,0.075l0.051,0.077
	l0.052,0.076l0.05,0.077l0.046,0.079l0.048,0.08l0.048,0.079l0.044,0.083l0.042,0.083l0.042,0.081l0.039,0.085l0.038,0.083
	l0.037,0.084l0.035,0.084l0.034,0.087l0.035,0.085l0.03,0.086l0.029,0.088l0.028,0.086l0.027,0.09l0.023,0.089l0.023,0.088
	l0.023,0.09l0.02,0.089l0.019,0.092l0.018,0.088l0.014,0.092l0.016,0.089l0.012,0.091l0.009,0.092l0.011,0.094l0.007,0.091
	l0.008,0.093l0.002,0.092l0.003,0.092l0.002,0.091v0.092l-0.002,0.094l-0.006,0.091l-0.006,0.092l-0.004,0.092l-0.011,0.091
	l-0.008,0.091l-0.013,0.093l-0.013,0.092l-0.015,0.091l-0.015,0.09l-0.02,0.091l-0.02,0.09l-0.02,0.089l-0.022,0.089l-0.024,0.088
	l-0.026,0.09l-0.026,0.087l-0.029,0.088l-0.031,0.086l-0.032,0.087l-0.034,0.086l-0.036,0.084l-0.034,0.084l-0.037,0.085
	l-0.04,0.084l-0.042,0.081l-0.042,0.084l-0.042,0.079l-0.044,0.082l-0.047,0.081l-0.048,0.08l-0.048,0.076l-0.053,0.078
	l-0.052,0.077l-0.052,0.077l-0.054,0.074l-0.055,0.072l-0.058,0.074l-0.059,0.07l-0.06,0.071l-0.059,0.071l-0.062,0.069
	l-0.064,0.067l-0.065,0.065l-0.064,0.066L30.817,39.5l-0.068,0.064l-0.069,0.062l-0.07,0.06l-0.069,0.06l-0.073,0.056l-0.074,0.057
	l-0.074,0.055l-0.074,0.054l-0.075,0.056l-0.077,0.049l-0.077,0.052l-0.079,0.047l-0.08,0.048l-0.079,0.046l-0.083,0.045
	l-0.079,0.042l-0.084,0.043l-0.082,0.042l-0.084,0.037l-0.085,0.037L29.2,40.548l-0.086,0.035l-0.086,0.033l-0.088,0.031
	l-0.087,0.031l-0.087,0.027l-0.087,0.027l-0.088,0.025l-0.089,0.024l-0.092,0.022l-0.089,0.02l-0.089,0.02l-0.092,0.017
	l-0.089,0.017l-0.091,0.014l-0.092,0.012l-0.091,0.012l-0.091,0.01l-0.093,0.008l-0.091,0.007l-0.092,0.004l-0.091,0.003
	l-0.095,0.003h-0.091l-0.091-0.003l-0.092-0.003l-0.092-0.004l-0.094-0.007l-0.092-0.008l-0.09-0.01l-0.093-0.012l-0.091-0.012
	l-0.088-0.014l-0.093-0.017l-0.089-0.017l-0.091-0.02l-0.089-0.02l-0.09-0.022l-0.089-0.024l-0.088-0.025l-0.089-0.027l-0.086-0.027
	l-0.087-0.03l-0.087-0.031l-0.086-0.033l-0.084-0.035l-0.086-0.037l-0.085-0.037l-0.083-0.037l-0.082-0.042l-0.082-0.043
	l-0.083-0.042l-0.082-0.045l-0.08-0.046l-0.079-0.048l-0.077-0.047l-0.08-0.052l-0.076-0.049l-0.075-0.056l-0.074-0.054
	l-0.074-0.055l-0.073-0.057l-0.071-0.056l-0.072-0.06l-0.07-0.06l-0.068-0.062L23.534,39.5l-0.069-0.062l-0.063-0.066l-0.064-0.065
	l-0.062-0.067l-0.062-0.069L23.151,39.1l-0.059-0.071l-0.058-0.07l-0.057-0.074l-0.056-0.072l-0.055-0.074l-0.052-0.077
	l-0.052-0.077l-0.049-0.078l-0.048-0.076l-0.049-0.08l-0.046-0.08l-0.044-0.082l-0.046-0.079l-0.042-0.084l-0.039-0.081
	l-0.041-0.084l-0.036-0.085l-0.038-0.084l-0.034-0.084l-0.033-0.086l-0.031-0.087l-0.033-0.086l-0.026-0.088l-0.028-0.087
	l-0.027-0.09l-0.023-0.088l-0.021-0.089l-0.023-0.089l-0.019-0.09l-0.017-0.091l-0.017-0.09l-0.016-0.091l-0.013-0.092l-0.011-0.093
	l-0.011-0.091l-0.007-0.091l-0.008-0.092l-0.005-0.092l-0.002-0.091l-0.001-0.094l-0.004-0.092l0.004-0.091l0.001-0.092l0.005-0.092
	l0.004-0.094l0.011-0.091l0.008-0.092l0.011-0.092l0.013-0.091l0.013-0.089l0.013-0.092l0.021-0.088l0.018-0.092l0.019-0.089
	l0.022-0.09l0.025-0.088l0.024-0.089l0.026-0.09l0.029-0.086l0.03-0.088l0.029-0.086l0.032-0.085l0.036-0.087l0.034-0.084
	l0.038-0.084l0.039-0.083l0.039-0.085l0.043-0.081l0.043-0.083l0.044-0.083l0.044-0.079l0.048-0.08l0.049-0.079l0.051-0.077
	l0.048-0.076l0.053-0.077l0.054-0.075l0.053-0.074l0.058-0.073l0.058-0.071l0.059-0.071l0.06-0.069l0.062-0.07l0.061-0.066
	l0.066-0.068l0.063-0.066l0.067-0.064l0.066-0.062l0.068-0.062l0.068-0.061l0.072-0.06l0.069-0.06l0.072-0.057l0.074-0.054
	l0.074-0.057l0.074-0.053l0.077-0.051l0.077-0.052l0.08-0.048l0.076-0.048l0.08-0.047l0.082-0.045l0.082-0.046l0.082-0.042
	l0.083-0.039l0.084-0.04l0.082-0.04l0.087-0.037l0.084-0.035l0.086-0.032l0.083-0.034l0.091-0.031l0.085-0.029l0.087-0.028
	l0.088-0.025l0.089-0.025l0.089-0.021l0.092-0.023l0.088-0.02l0.091-0.017l0.092-0.018l0.09-0.014l0.091-0.016l0.093-0.011
	l0.091-0.011l0.092-0.007l0.091-0.008l0.092-0.007l0.091-0.004l0.095,0L27.176,30.345z"/>
</svg>
