<?xml version="1.0" encoding="utf-8"?>
<!-- Generator: Adobe Illustrator 16.2.1, SVG Export Plug-In . SVG Version: 6.00 Build 0)  -->
<!DOCTYPE svg PUBLIC "-//W3C//DTD SVG 1.1//EN" "http://www.w3.org/Graphics/SVG/1.1/DTD/svg11.dtd">
<svg version="1.1"
	 id="Layer_1" xmlns:dc="http://purl.org/dc/elements/1.1/" xmlns:cc="http://creativecommons.org/ns#" xmlns:rdf="http://www.w3.org/1999/02/22-rdf-syntax-ns#" xmlns:svg="http://www.w3.org/2000/svg" xmlns:sodipodi="http://sodipodi.sourceforge.net/DTD/sodipodi-0.dtd" xmlns:inkscape="http://www.inkscape.org/namespaces/inkscape" inkscape:version="0.48.2 r9819" sodipodi:docname="noun_project_47.svg"
	 xmlns="http://www.w3.org/2000/svg" xmlns:xlink="http://www.w3.org/1999/xlink" x="0px" y="0px" width="100px" height="100px"
	 viewBox="0 0 100 100" enable-background="new 0 0 100 100" xml:space="preserve">
<path id="path11" d="M35.777,62.682L46.444,73.35l-7.81,7.811l8.027,8.029c4.719,4.729-1.811,11.498-6.683,6.629L27.263,82.615
	c-2.714-2.792-3.466-7.922-0.538-10.828C26.726,71.766,35.777,62.682,35.777,62.682L35.777,62.682z M64.009,62.682L53.343,73.348
	l7.863,7.811l-8.024,8.029c-4.751,4.729,1.779,11.498,6.676,6.628l12.662-13.2c2.742-2.792,3.494-7.922,0.596-10.828
	C73.086,71.766,64.009,62.682,64.009,62.682L64.009,62.682z M50.001,57.401H35.777V47.108l-10.83,10.938
	c-4.907,4.906-11.549-1.377-6.627-6.304l17.941-17.996c1.465-1.433,3.059-2.352,5.604-2.372h8.137l0,0h7.973
	c2.514,0.02,4.219,0.912,5.711,2.372l18.156,18.209c4.672,4.651-2.151,10.993-6.627,6.25L64.062,47.055V57.4L50.001,57.401
	L50.001,57.401L50.001,57.401z M50.001,29.329c7.405-0.008,13.416-6.013,13.416-13.415c0-7.423-6.007-13.43-13.416-13.414
	c-7.416-0.017-13.422,5.991-13.417,13.414C36.579,23.316,42.586,29.321,50.001,29.329L50.001,29.329z"/>
</svg>
