<?xml version="1.0" encoding="utf-8"?>
<!-- Generator: Adobe Illustrator 15.0.2, SVG Export Plug-In . SVG Version: 6.00 Build 0)  -->
<!DOCTYPE svg PUBLIC "-//W3C//DTD SVG 1.1//EN" "http://www.w3.org/Graphics/SVG/1.1/DTD/svg11.dtd">
<svg version="1.1"
	 id="svg6584" xmlns:dc="http://purl.org/dc/elements/1.1/" xmlns:svg="http://www.w3.org/2000/svg" xmlns:cc="http://creativecommons.org/ns#" xmlns:rdf="http://www.w3.org/1999/02/22-rdf-syntax-ns#"
	 xmlns="http://www.w3.org/2000/svg" xmlns:xlink="http://www.w3.org/1999/xlink" x="0px" y="0px" width="100px" height="100px"
	 viewBox="0 0 100 100" enable-background="new 0 0 100 100" xml:space="preserve">
<path id="path10847-43-3-9" d="M71.777,4.025c-9.68,14.519-18.313,24.223-29.037,33.876c-10.243,9.222-29.036,6.056-29.036,19.359
	v4.838c0,4.84,4.839,9.445,4.839,14.52v4.84c0,7.258-2.419,7.258-4.839,14.518h4.839l9.679-14.518v14.518h4.84v-7.26V71.779
	c0,0,0-4.84,4.84-4.84c4.839,0,4.839,4.84,4.839,4.84v24.195h4.84V81.457v-7.26l4.84,7.26l4.839,14.518h4.839l-7.409-30.398
	c2.853-1.74,2.57-4.957,2.57-8.316c0-4.51,0-9.679,0-14.519l19.357-26.617l6.957,2.155c1.451,0.449,2.723,0.264,2.723-0.946
	c0-2.419-1.581-2.958-2.421-3.629L71.777,4.025z"/>
</svg>
