<?xml version="1.0" encoding="utf-8"?>
<!-- Generator: Adobe Illustrator 16.2.1, SVG Export Plug-In . SVG Version: 6.00 Build 0)  -->
<!DOCTYPE svg PUBLIC "-//W3C//DTD SVG 1.1//EN" "http://www.w3.org/Graphics/SVG/1.1/DTD/svg11.dtd">
<svg version="1.1"
	 id="Layer_1" xmlns:dc="http://purl.org/dc/elements/1.1/" xmlns:cc="http://creativecommons.org/ns#" xmlns:rdf="http://www.w3.org/1999/02/22-rdf-syntax-ns#" xmlns:svg="http://www.w3.org/2000/svg" xmlns:sodipodi="http://sodipodi.sourceforge.net/DTD/sodipodi-0.dtd" xmlns:inkscape="http://www.inkscape.org/namespaces/inkscape" sodipodi:docname="noun_project_3378.svg" inkscape:version="0.48.2 r9819"
	 xmlns="http://www.w3.org/2000/svg" xmlns:xlink="http://www.w3.org/1999/xlink" x="0px" y="0px" width="100px" height="100px"
	 viewBox="0 0 100 100" enable-background="new 0 0 100 100" xml:space="preserve">
<path id="path3105" d="M32.325,68.672l18.177-18.321c-1.179-10.074-6.413-18.014-21.92-14.205
	C10.502,31.705,6.38,43.231,6.38,55.492c0,12.262,9.94,22.205,22.202,22.205c4.226,0,8.175-1.184,11.536-3.23
	C37.326,72.947,34.695,71.021,32.325,68.672z M12.743,47.311c-0.865,9.007,2.197,19.761,15.839,25.308
	c0,0-21.86-4.594-16.704-25.802L12.743,47.311z M28.36,33.609c0,0,2.535-10.785,11.417-12.687
	C39.775,20.922,37.875,32.975,28.36,33.609z M83.482,20L35.194,68.672c13.441,13.334,35.146,13.248,48.479-0.193
	C97.009,55.039,96.924,33.333,83.482,20z M78.003,43.593c-1.938,1.955-3.388-3.377-3.388-3.377S79.94,41.639,78.003,43.593z
	 M76.502,53.312c-1.938,1.953-3.388-3.377-3.388-3.377S78.44,51.357,76.502,53.312z M70.296,44.569
	c-1.938,1.954-3.388-3.376-3.388-3.376S72.234,42.616,70.296,44.569z M68.077,53.598c-1.938,1.953-3.389-3.377-3.389-3.377
	S70.016,51.645,68.077,53.598z M67.857,62.025c-1.938,1.955-3.389-3.377-3.389-3.377S69.797,60.07,67.857,62.025z M59.066,55.887
	c-1.939,1.955-3.387-3.373-3.387-3.373S61.006,53.936,59.066,55.887z M58.149,63.604c-1.937,1.951-3.385-3.379-3.385-3.379
	S60.089,61.65,58.149,63.604z M80.681,65.594c-10.254,10.334-28.324,9.402-39.837,1.258l0.362-0.365
	c11.414,7.016,27.749,6.91,37.458-2.873c9.707-9.785,9.68-26.121,2.574-37.479l0.469-0.471
	C89.942,37.112,90.936,55.254,80.681,65.594z"/>
</svg>
