<?xml version="1.0" encoding="utf-8"?>
<!-- Generator: Adobe Illustrator 16.2.1, SVG Export Plug-In . SVG Version: 6.00 Build 0)  -->
<!DOCTYPE svg PUBLIC "-//W3C//DTD SVG 1.1//EN" "http://www.w3.org/Graphics/SVG/1.1/DTD/svg11.dtd">
<svg version="1.1"
	 id="svg3307" xmlns:dc="http://purl.org/dc/elements/1.1/" xmlns:cc="http://creativecommons.org/ns#" xmlns:rdf="http://www.w3.org/1999/02/22-rdf-syntax-ns#" xmlns:svg="http://www.w3.org/2000/svg" xmlns:sodipodi="http://sodipodi.sourceforge.net/DTD/sodipodi-0.dtd" xmlns:inkscape="http://www.inkscape.org/namespaces/inkscape" inkscape:version="0.48.2 r9819" sodipodi:docname="noun_project_6216.svg"
	 xmlns="http://www.w3.org/2000/svg" xmlns:xlink="http://www.w3.org/1999/xlink" x="0px" y="0px" width="100px" height="100px"
	 viewBox="0 0 100 100" enable-background="new 0 0 100 100" xml:space="preserve">
<sodipodi:namedview  guidetolerance="10" showgrid="false" inkscape:cy="50" id="namedview3333" pagecolor="#ffffff" inkscape:zoom="2.36" inkscape:cx="50" objecttolerance="10" gridtolerance="10" bordercolor="#666666" borderopacity="1" inkscape:window-maximized="0" inkscape:window-width="640" inkscape:pageopacity="0" inkscape:window-y="22" inkscape:current-layer="svg3307" inkscape:pageshadow="2" inkscape:window-x="0" inkscape:window-height="480">
	</sodipodi:namedview>
<path id="circle3331" d="M73.242,12.825c0,3.553-2.879,6.434-6.433,6.434s-6.433-2.881-6.433-6.434c0-3.553,2.879-6.433,6.433-6.433
	S73.242,9.271,73.242,12.825z M39.141,12.825c0,3.553-2.88,6.434-6.433,6.434s-6.434-2.881-6.434-6.434
	c0-3.553,2.88-6.433,6.434-6.433S39.141,9.271,39.141,12.825z M96.348,83.969l-9.58-18.889L85.75,52.023l0.006-0.007
	c0.494-0.633,0.792-1.355,0.905-2.094c0.608-1.7,0.724-3.595,0.216-5.47l-3.895-14.266l3.048,1.466l3.513,12.819
	c0.412,1.5,1.953,2.382,3.453,1.971c1.502-0.409,2.383-1.958,1.973-3.458l-3.822-13.958c-0.17-0.623-0.537-1.134-1.013-1.495
	c-0.204-0.196-0.444-0.363-0.716-0.494l-10.961-5.271c-2.137-1.469-4.879-2.024-7.572-1.29c-0.311,0.085-0.607,0.186-0.898,0.299
	l0.011-0.014c-4.794,1.461-5.89,5.005-6.017,7.554l-0.025,0.091l5.336,20.846c0.21,0.767,0.506,1.484,0.885,2.143l-5.104,12.38
	c-0.119,0.154-0.223,0.317-0.324,0.479c-0.342,0.452-0.614,0.974-0.771,1.559l-5.855,21.18c-0.668,2.429,0.751,4.938,3.179,5.607
	c2.425,0.672,4.937-0.752,5.604-3.177l5.642-20.411l4.216-5.421l0.96,2.653c0.018,0.193,0.048,0.383,0.085,0.571
	c0.051,0.564,0.201,1.132,0.475,1.672l9.941,19.604c1.135,2.242,3.878,3.144,6.12,2.004C96.588,88.958,97.486,86.217,96.348,83.969z
	 M73.242,12.825c0,3.553-2.879,6.434-6.433,6.434s-6.433-2.881-6.433-6.434c0-3.553,2.879-6.433,6.433-6.433
	S73.242,9.271,73.242,12.825z M39.141,12.825c0,3.553-2.88,6.434-6.433,6.434s-6.434-2.881-6.434-6.434
	c0-3.553,2.88-6.433,6.434-6.433S39.141,9.271,39.141,12.825z M65.101,42.399l-2.538-9.818l-2.154,6.476L49.759,44.8l-10.65-5.743
	l-4.298-12.909c-0.048-0.145-0.107-0.277-0.177-0.408c-1.048-2.493-3.188-4.497-6.002-5.266c-0.194-0.053-0.387-0.098-0.579-0.136
	c-0.13-0.016-0.271-0.033-0.419-0.053c-6.945-0.93-10.019,6.416-10.399,7.409l-4.592,16.757c-0.512,1.875-0.395,3.771,0.214,5.47
	c0.117,0.738,0.413,1.462,0.905,2.093l0.006,0.007l-1.021,13.058l-9.58,18.89c-1.135,2.246-0.24,4.989,2.006,6.127
	c2.243,1.138,4.987,0.238,6.125-2.006l9.938-19.603c0.273-0.54,0.424-1.107,0.475-1.673c0.036-0.188,0.07-0.377,0.085-0.571
	l0.962-2.653l4.214,5.421l5.636,20.41c0.675,2.425,3.183,3.849,5.608,3.179c2.425-0.67,3.849-3.181,3.18-5.607l-5.854-21.182
	c-0.161-0.583-0.43-1.105-0.775-1.559c-0.098-0.16-0.203-0.325-0.324-0.478l-5.105-12.38c0.379-0.659,0.678-1.377,0.891-2.143
	l2.854-10.471l0.959,2.878c0.076,0.236,0.185,0.447,0.311,0.644c0.252,0.503,0.652,0.938,1.186,1.226l12.739,6.869
	c0.468,0.253,0.982,0.356,1.48,0.332c0.498,0.024,1.008-0.078,1.48-0.332l12.734-6.869C64.474,43.26,64.85,42.86,65.101,42.399z
	 M73.242,12.825c0,3.553-2.879,6.434-6.433,6.434s-6.433-2.881-6.433-6.434c0-3.553,2.879-6.433,6.433-6.433
	S73.242,9.271,73.242,12.825z M39.141,12.825c0,3.553-2.88,6.434-6.433,6.434s-6.434-2.881-6.434-6.434
	c0-3.553,2.88-6.433,6.434-6.433S39.141,9.271,39.141,12.825z M6.517,46.442c1.499,0.413,3.047-0.471,3.459-1.971l3.508-12.819
	l0.014-0.006l1.976-7.195L10.1,27.037c-0.272,0.13-0.509,0.298-0.72,0.494c-0.476,0.361-0.845,0.872-1.015,1.495l-3.82,13.958
	C4.133,44.484,5.018,46.034,6.517,46.442z M73.242,12.825c0,3.553-2.879,6.434-6.433,6.434s-6.433-2.881-6.433-6.434
	c0-3.553,2.879-6.433,6.433-6.433S73.242,9.271,73.242,12.825z M39.141,12.825c0,3.553-2.88,6.434-6.433,6.434
	s-6.434-2.881-6.434-6.434c0-3.553,2.88-6.433,6.434-6.433S39.141,9.271,39.141,12.825z M61.902,82.923
	C62.516,83.012,61.334,83.059,61.902,82.923L61.902,82.923z"/>
</svg>
