<?xml version="1.0" encoding="utf-8"?>
<!-- Generator: Adobe Illustrator 16.2.1, SVG Export Plug-In . SVG Version: 6.00 Build 0)  -->
<!DOCTYPE svg PUBLIC "-//W3C//DTD SVG 1.1//EN" "http://www.w3.org/Graphics/SVG/1.1/DTD/svg11.dtd">
<svg version="1.1"
	 id="svg2876" xmlns:dc="http://purl.org/dc/elements/1.1/" xmlns:cc="http://creativecommons.org/ns#" xmlns:rdf="http://www.w3.org/1999/02/22-rdf-syntax-ns#" xmlns:svg="http://www.w3.org/2000/svg" xmlns:sodipodi="http://sodipodi.sourceforge.net/DTD/sodipodi-0.dtd" xmlns:inkscape="http://www.inkscape.org/namespaces/inkscape" inkscape:version="0.48.2 r9819" sodipodi:docname="noun_project_1646.svg"
	 xmlns="http://www.w3.org/2000/svg" xmlns:xlink="http://www.w3.org/1999/xlink" x="0px" y="0px" width="100px" height="100px"
	 viewBox="0 0 100 100" enable-background="new 0 0 100 100" xml:space="preserve">
<sodipodi:namedview  guidetolerance="10" showgrid="false" inkscape:cy="44.29134" id="namedview2888" pagecolor="#ffffff" inkscape:zoom="2.6641777" inkscape:cx="-14.263313" objecttolerance="10" gridtolerance="10" bordercolor="#666666" borderopacity="1" inkscape:window-maximized="1" inkscape:window-width="2560" inkscape:pageopacity="0" inkscape:window-y="22" inkscape:current-layer="svg2876" inkscape:pageshadow="2" inkscape:window-x="0" inkscape:window-height="1345">
	</sodipodi:namedview>
<defs>
	
	
		<inkscape:perspective  inkscape:vp_x="0 : 44.29134 : 1" sodipodi:type="inkscape:persp3d" id="perspective2892" inkscape:vp_z="88.58268 : 44.29134 : 1" inkscape:vp_y="0 : 1000 : 0" inkscape:persp3d-origin="44.29134 : 29.52756 : 1">
		</inkscape:perspective>
	
		<inkscape:perspective  inkscape:vp_x="0 : 50 : 1" sodipodi:type="inkscape:persp3d" id="perspective3682" inkscape:vp_z="90 : 50 : 1" inkscape:vp_y="0 : 1000 : 0" inkscape:persp3d-origin="45 : 33.333333 : 1">
		</inkscape:perspective>
	
		<inkscape:perspective  inkscape:vp_x="0 : 44.29134 : 1" sodipodi:type="inkscape:persp3d" id="perspective3743" inkscape:vp_z="88.58268 : 44.29134 : 1" inkscape:vp_y="0 : 1000 : 0" inkscape:persp3d-origin="44.29134 : 29.52756 : 1">
		</inkscape:perspective>
	
		<inkscape:perspective  inkscape:vp_x="0 : 44.29134 : 1" sodipodi:type="inkscape:persp3d" id="perspective3769" inkscape:vp_z="88.58268 : 44.29134 : 1" inkscape:vp_y="0 : 1000 : 0" inkscape:persp3d-origin="44.29134 : 29.52756 : 1">
		</inkscape:perspective>
	
		<inkscape:perspective  inkscape:vp_x="0 : 44.29134 : 1" sodipodi:type="inkscape:persp3d" id="perspective3795" inkscape:vp_z="88.58268 : 44.29134 : 1" inkscape:vp_y="0 : 1000 : 0" inkscape:persp3d-origin="44.29134 : 29.52756 : 1">
		</inkscape:perspective>
	
		<inkscape:perspective  inkscape:vp_x="0 : 44.645672 : 1" sodipodi:type="inkscape:persp3d" id="perspective3821" inkscape:vp_z="89.291344 : 44.645672 : 1" inkscape:vp_y="0 : 1000 : 0" inkscape:persp3d-origin="44.645672 : 29.763781 : 1">
		</inkscape:perspective>
	
		<inkscape:perspective  inkscape:vp_x="0 : 44.645672 : 1" sodipodi:type="inkscape:persp3d" id="perspective3847" inkscape:vp_z="89.291344 : 44.645672 : 1" inkscape:vp_y="0 : 1000 : 0" inkscape:persp3d-origin="44.645672 : 29.763781 : 1">
		</inkscape:perspective>
</defs>
<path id="path3841" d="M12.606,40.646c-2.904-2.134-3.588-4.012-2.734-7.513l1.28,0.598l18.783-6.836
	c0.655,1.878,1.354,3.771,2.051,5.635l-18.782,6.834L12.606,40.646L12.606,40.646z M83.808,2.5l2.219,0.256l4.443,12.208
	l-1.535,1.623L83.808,2.5L83.808,2.5z M48.295,68.394h3.998V97.5h-3.998V68.394z M61.405,69.021l3.757-1.367l10.254,28.175
	l-3.757,1.366L61.405,69.021L61.405,69.021z M35.426,67.653l3.757,1.367L28.929,97.194l-3.756-1.366L35.426,67.653L35.426,67.653z
	 M35.17,65.433l5.635,2.052l6.49-17.831v16.859h5.998V49.654l6.489,17.831l5.635-2.051l-12.305-33.81l-2.819,1.025l-2.817-1.025
	L35.17,65.433L35.17,65.433z M49.745,30.651c2.897,0,5.249-2.35,5.249-5.246c0-0.238-0.018-0.472-0.049-0.701l9.146-3.329
	l-2.394-6.573L31.644,25.74l2.393,6.574l11.274-4.104C46.241,29.677,47.878,30.651,49.745,30.651z M63.401,13.649L82.44,4.593
	l4.103,11.269l-20.405,5.301L63.401,13.649L63.401,13.649z"/>
</svg>
