<?xml version="1.0" encoding="utf-8"?>
<!-- Generator: Adobe Illustrator 16.2.1, SVG Export Plug-In . SVG Version: 6.00 Build 0)  -->
<!DOCTYPE svg PUBLIC "-//W3C//DTD SVG 1.1//EN" "http://www.w3.org/Graphics/SVG/1.1/DTD/svg11.dtd">
<svg version="1.1"
	 id="Layer_1" xmlns:dc="http://purl.org/dc/elements/1.1/" xmlns:cc="http://creativecommons.org/ns#" xmlns:rdf="http://www.w3.org/1999/02/22-rdf-syntax-ns#" xmlns:svg="http://www.w3.org/2000/svg" xmlns:sodipodi="http://sodipodi.sourceforge.net/DTD/sodipodi-0.dtd" xmlns:inkscape="http://www.inkscape.org/namespaces/inkscape" inkscape:version="0.48.2 r9819" sodipodi:docname="noun_project_11537.svg"
	 xmlns="http://www.w3.org/2000/svg" xmlns:xlink="http://www.w3.org/1999/xlink" x="0px" y="0px" width="100px" height="100px"
	 viewBox="0 0 100 100" enable-background="new 0 0 100 100" xml:space="preserve">
<path id="path3603" d="M34.203,82.039c0,0,4.032-24.646,14.544-29.461c18.274-8.35,39.536,7.566,39.536,7.566L82.82,82.09
	L34.203,82.039z M86.003,34.292c-3.17,2.946-6.883,9.358-10.378,16.441c6.238,2.322,11.029,5.354,13.057,6.729L95,31.302
	C94.795,31.269,90.023,30.552,86.003,34.292z M31.854,55.91l7.494,3.082c2.204-3.805,4.964-7.042,8.391-8.618
	c3.837-1.752,8.068-2.643,12.576-2.643c4.547,0,8.937,0.898,12.886,2.165c2.282-4.619,4.677-9.012,6.991-12.443
	c-3.604-3.717-10.879-3.56-13.055,3.252l-1.927,4.308l-9.211-6.002v-13.35l-10.488-0.094l-7.626-7.184v20.2l6.038,5.687
	l-15.786-4.595c-1.788-0.523-3.731,0.099-4.881,1.576L5.972,63.342c-1.558,1.988-1.204,4.87,0.784,6.426
	c0.836,0.659,1.831,0.978,2.819,0.978c1.357,0,2.704-0.604,3.606-1.759l9.969-12.747v21.586c0,6.11,8.702,6.084,8.702-0.109
	C31.854,71.975,31.854,55.91,31.854,55.91z M78.691,33.174c-4.297,0.032-7.805-3.435-7.812-7.738
	c-0.021-4.294,3.446-7.796,7.75-7.821c4.291-0.014,7.788,3.451,7.812,7.746C86.463,29.664,83.001,33.167,78.691,33.174z"/>
</svg>
