<?xml version="1.0" encoding="utf-8"?>
<!-- Generator: Adobe Illustrator 16.2.1, SVG Export Plug-In . SVG Version: 6.00 Build 0)  -->
<!DOCTYPE svg PUBLIC "-//W3C//DTD SVG 1.1//EN" "http://www.w3.org/Graphics/SVG/1.1/DTD/svg11.dtd">
<svg version="1.1" id="Layer_1" xmlns="http://www.w3.org/2000/svg" xmlns:xlink="http://www.w3.org/1999/xlink" x="0px" y="0px"
	 width="100px" height="100px" viewBox="0 0 100 100" enable-background="new 0 0 100 100" xml:space="preserve">
<path d="M71.572,57.363H28.425c-0.749,0-1.362,0.609-1.362,1.359v6.821c0,0.752,0.613,1.358,1.362,1.358h43.147
	c0.75,0,1.365-0.606,1.365-1.358v-6.821C72.938,57.973,72.322,57.363,71.572,57.363z M34.728,96.514
	c0.132,0.74,0.854,1.344,1.602,1.344h27.34c0.748,0,1.471-0.604,1.6-1.344l4.977-28.211H29.752L34.728,96.514z M49.317,29.345
	v27.131h1.365V29.345c2.939-2.89,4.877-7.765,4.877-13.292c0-5.943-2.238-11.133-5.561-13.911
	c-3.324,2.777-5.561,7.967-5.561,13.911C44.438,21.581,46.373,26.456,49.317,29.345z M47.96,36.084
	c0.264-2.925-1.152-6.487-4.004-9.337c-2.849-2.853-6.41-4.267-9.335-4.006c-0.264,2.926,1.154,6.487,4.005,9.338
	C41.475,34.929,45.036,36.344,47.96,36.084z M52.035,36.084c2.924,0.261,6.486-1.154,9.338-4.005s4.266-6.412,4.003-9.338
	c-2.922-0.26-6.483,1.154-9.336,4.006C53.189,29.597,51.775,33.159,52.035,36.084z M47.96,50.678
	c0.264-2.926-1.152-6.487-4.004-9.339c-2.849-2.848-6.41-4.266-9.335-4.002c-0.264,2.922,1.154,6.487,4.005,9.334
	C41.475,49.523,45.036,50.939,47.96,50.678z M56.04,41.339c-2.851,2.852-4.265,6.413-4.005,9.339
	c2.924,0.262,6.486-1.155,9.338-4.006c2.852-2.848,4.266-6.41,4.003-9.334C62.454,37.073,58.893,38.491,56.04,41.339z"/>
</svg>
