<?xml version="1.0" encoding="utf-8"?>
<!-- Generator: Adobe Illustrator 16.2.1, SVG Export Plug-In . SVG Version: 6.00 Build 0)  -->
<!DOCTYPE svg PUBLIC "-//W3C//DTD SVG 1.1//EN" "http://www.w3.org/Graphics/SVG/1.1/DTD/svg11.dtd">
<svg version="1.1" id="Layer_1" xmlns="http://www.w3.org/2000/svg" xmlns:xlink="http://www.w3.org/1999/xlink" x="0px" y="0px"
	 width="100px" height="100px" viewBox="0 0 100 100" enable-background="new 0 0 100 100" xml:space="preserve">
<path d="M48.128,86.202c-5.881-3.664-35.479-22.517-40.57-33.878c-2.75-6.137-2.905-12.958-0.437-19.207
	c2.537-6.422,7.512-11.46,14.008-14.186c3.29-1.381,6.763-2.081,10.321-2.081c7.03,0,13.698,2.752,18.549,7.52
	c4.853-4.768,11.521-7.52,18.549-7.52c3.56,0,7.031,0.7,10.321,2.081c6.497,2.726,11.472,7.763,14.009,14.186
	c2.468,6.249,2.312,13.07-0.438,19.207C87.18,64.066,55.441,83.988,51.839,86.22l-1.846,1.146l-1.843-1.151"/>
</svg>
