<?xml version="1.0" encoding="utf-8"?>
<!-- Generator: Adobe Illustrator 16.2.1, SVG Export Plug-In . SVG Version: 6.00 Build 0)  -->
<!DOCTYPE svg PUBLIC "-//W3C//DTD SVG 1.1//EN" "http://www.w3.org/Graphics/SVG/1.1/DTD/svg11.dtd">
<svg version="1.1"
	 id="svg2" xmlns:dc="http://purl.org/dc/elements/1.1/" xmlns:cc="http://creativecommons.org/ns#" xmlns:rdf="http://www.w3.org/1999/02/22-rdf-syntax-ns#" xmlns:svg="http://www.w3.org/2000/svg" xmlns:sodipodi="http://sodipodi.sourceforge.net/DTD/sodipodi-0.dtd" xmlns:inkscape="http://www.inkscape.org/namespaces/inkscape" inkscape:version="0.48.2 r9819" sodipodi:docname="noun_project_8715.svg"
	 xmlns="http://www.w3.org/2000/svg" xmlns:xlink="http://www.w3.org/1999/xlink" x="0px" y="0px" width="100px" height="100px"
	 viewBox="0 0 100 100" enable-background="new 0 0 100 100" xml:space="preserve">
<sodipodi:namedview  guidetolerance="10" showgrid="false" inkscape:cy="48.700649" id="namedview12" pagecolor="#ffffff" inkscape:zoom="5.17" inkscape:cx="50" objecttolerance="10" gridtolerance="10" bordercolor="#666666" borderopacity="1" inkscape:window-maximized="1" inkscape:window-width="2560" inkscape:pageopacity="0" inkscape:window-y="22" inkscape:current-layer="svg2" inkscape:pageshadow="2" inkscape:window-x="0" inkscape:window-height="1345">
	</sodipodi:namedview>
<path id="path6" d="M94.227,37.101c0.805-0.301,1.869-0.08,2.311,0.703c0.542,0.843,0.1,2.089-0.783,2.491
	c-0.803,0.301-1.888,0.281-2.451-0.462C92.58,38.909,93.223,37.502,94.227,37.101z M48.832,21.394
	c1.406-1.125,3.417-0.86,4.903-0.277c1.024,0.461,2.188,1.2,2.931,2.125c0.502,0.582,0.201,1.386,0.08,2.049
	c-0.252,0.984-0.646,1.6-0.631,3.293c-0.847,0.159-1.016,0.317-1.297,1.302c-0.14,0.763-0.59,1.637-1.191,1.778
	c-0.494-0.038-0.557-0.228-1.039-0.308c-0.603,0.663,0.281,1.406,0.643,1.948c1.024,1.125,0.924,2.731,1.348,4.117
	c0.124,0.28-0.541,0.488,2.73,4.238c0.904,1.667,2.41,2.832,3.735,4.117c1.507,1.406,2.472,3.254,3.878,4.761
	c0.621,0.683,1.084,1.748,2.129,1.827c1.105-0.02,1.484,1.053,2.59,1.174c2.295-0.395,4.943-3.184,6.791-5.713
	c0.833-5.495,8.717-13.282,12.994-7.968c3.62,5.773-5.712,10.767-11.066,10.513c-2.965,1.071-3.869,1.829-7.246,5.344
	c-0.944,0.102,0.203,1.101-2.416,2.195c-0.502-0.099-1.085-0.199-1.266-0.742c-0.281-0.742-1.145-0.763-1.686-1.225
	c-1.969-2.431-4.781-3.938-7.232-5.825c-1.425-0.884-1.949-2.592-3.053-3.776c-0.582-0.642-1.086-1.346-1.566-2.069
	c-2.78-4.221-2.469-1.711-3.07-2.836c-0.999-1.781-4.363-0.185-5.329,0.363c-1.386,0.402-3.169,1.288-4.415,2.192
	c-1.346,0.542-1.888,1.949-2.491,3.153c-0.221,0.461,0.381,0.703,0.663,0.944c2.551,1.406,4.781,3.354,7.392,4.66
	c0.723,0.421,1.687,0.684,2.028,1.525c0.884,1.908,0.643,4.117,1.426,6.066c0.522,1.225,1.024,2.473,1.185,3.796
	c0.141,1.207,0.944,2.169,1.064,3.376c0.342,2.69,1.988,5.242,4.499,6.366c1.708,0.886,3.597,1.306,5.483,1.567
	c1.365,0.2,1.365,2.43,0.08,2.75c-2.149,0.645-4.377,1.186-6.648,1.065c-2.209-0.099-4.58,0.562-6.648-0.442
	c-0.321-1.586,0.542-3.094,0.602-4.66c-0.723-4.279-4.499-7.251-5.283-11.529c-0.301-1.346,0.02-2.771-0.342-4.098
	c-1.747-1.004-3.816-1.186-5.784-1.485c-1.025-0.14-1.949-0.702-2.993-0.784c-0.643,0.645-0.623,1.646-0.803,2.491
	c-0.2,1.667-1.024,3.136-1.525,4.722c-0.362,1.285-1.386,2.311-1.487,3.676c-0.121,0.661-0.06,1.506-0.723,1.907
	c-1.044,0.684-2.31,0.903-3.535,0.823c-1.848-0.121-3.576,0.783-5.423,0.744c-2.992,0.059-6.066,0.099-8.858,1.305
	c-0.844,0.422-1.466,1.226-2.43,1.387c-1.908,0.4-3.576,1.445-5.243,2.41c-0.542,0.38-1.323,0.068-1.496-0.42
	c-0.684-1.922,1.858-3.477,3.525-5.004c0.683-0.603,1.266-1.306,1.787-2.049c0.885-1.266,2.069-2.27,3.174-3.354
	c0.784,0.603,1.366,1.405,2.109,2.05c0.522,0.48,1.286,0.301,1.868,0.039c2.129-0.924,4.198-2.029,6.489-2.551
	c1.085-0.282,2.21,0.021,3.314-0.1c0.983-1.607,0.482-3.595,0.362-5.363c-0.321-0.122-0.644-0.242-0.965-0.342
	c0.141-1.567,0.301-3.133,0.704-4.66c0.421-1.507-0.964-2.671-1.105-4.117c-0.261-1.748,0.401-3.436,1.025-5.022
	c0.743-1.606,1.626-3.214,2.912-4.479c1.707-2.21,3.636-4.258,5.644-6.207c1.326-0.844,2.39-2.109,3.958-2.511
	c1.688-0.542,3.314-1.265,5.022-1.767c1.245-0.301,2.169-1.287,3.053-2.17c0.461-1.104-0.161-2.39,0.461-3.475
	C47.667,23.261,48.038,22.242,48.832,21.394L48.832,21.394z"/>
</svg>
