<?xml version="1.0" encoding="utf-8"?>
<!-- Generator: Adobe Illustrator 16.2.1, SVG Export Plug-In . SVG Version: 6.00 Build 0)  -->
<!DOCTYPE svg PUBLIC "-//W3C//DTD SVG 1.1//EN" "http://www.w3.org/Graphics/SVG/1.1/DTD/svg11.dtd">
<svg version="1.1"
	 id="Capa_42" xmlns:dc="http://purl.org/dc/elements/1.1/" xmlns:cc="http://creativecommons.org/ns#" xmlns:rdf="http://www.w3.org/1999/02/22-rdf-syntax-ns#" xmlns:svg="http://www.w3.org/2000/svg" xmlns:sodipodi="http://sodipodi.sourceforge.net/DTD/sodipodi-0.dtd" xmlns:inkscape="http://www.inkscape.org/namespaces/inkscape" inkscape:version="0.48.2 r9819" sodipodi:docname="noun_project_14875.svg"
	 xmlns="http://www.w3.org/2000/svg" xmlns:xlink="http://www.w3.org/1999/xlink" x="0px" y="0px" width="100px" height="100px"
	 viewBox="0 0 100 100" enable-background="new 0 0 100 100" xml:space="preserve">
<path id="path4018" d="M67.75,56.412V18.095H10.105v38.317h26.446v5.036c-6.21,0.241-10.925,1.403-10.925,2.802
	c0,1.574,5.955,2.85,13.3,2.85c7.346,0,13.3-1.275,13.3-2.85c0-1.4-4.714-2.561-10.925-2.802v-5.036H67.75z M15.267,22.625h47.319
	v29.262H15.267V22.625z M83.051,72.111c-3.055,1.986-1.64,3.504,2.704,6.762c4.341,3.256,8.684,2.168,9.769,0
	C96.607,76.702,90.117,67.523,83.051,72.111z M40.46,31.6l1.145,13.217l3.051-1.54l2.102,4.072l2.586-1.353l-2.083-4.032
	l3.043-1.536L40.46,31.6z M11.698,69.244L2.5,79.573v2.331h75.375v-2.331L68.68,69.244H11.698z M73.014,23.427v45.152H97.5V23.427
	H73.014z M80.326,65.592h-4.995V64.74h4.995V65.592z M80.326,63.068h-4.997v-0.852h4.997V63.068z M80.326,59.689v0.855h-4.995
	v-0.855H80.326z M75.331,58.023V57.17h4.995v0.854H75.331z M80.326,55.502h-4.995v-0.857h4.995V55.502z M75.331,50.458v-0.856h4.995
	v0.856H75.331z M80.326,52.975h-4.995v-0.854h4.995V52.975z M80.326,47.932h-4.995v-0.856h4.995V47.932z M92.664,49.914
	c-0.856,0-1.555-0.696-1.555-1.558c0-0.857,0.695-1.553,1.555-1.553c0.857,0,1.555,0.695,1.555,1.553
	C94.219,49.218,93.521,49.914,92.664,49.914z M95.168,39.204H75.176v-4.996h19.992V39.204z M95.168,31.377H75.176v-5h19.992V31.377z
	"/>
</svg>
