<?xml version="1.0" encoding="utf-8"?>
<!-- Generator: Adobe Illustrator 16.2.1, SVG Export Plug-In . SVG Version: 6.00 Build 0)  -->
<!DOCTYPE svg PUBLIC "-//W3C//DTD SVG 1.1//EN" "http://www.w3.org/Graphics/SVG/1.1/DTD/svg11.dtd">
<svg version="1.1" id="Layer_1" xmlns="http://www.w3.org/2000/svg" xmlns:xlink="http://www.w3.org/1999/xlink" x="0px" y="0px"
	 width="100px" height="100px" viewBox="0 0 100 100" enable-background="new 0 0 100 100" xml:space="preserve">
<path d="M50,2.5C23.766,2.5,2.5,23.766,2.5,50S23.766,97.5,50,97.5c26.232,0,47.5-21.268,47.5-47.501S76.232,2.5,50,2.5z
	 M55.137,32.692c-3.121,0-5.653-2.532-5.653-5.654c0.001-3.123,2.532-5.653,5.654-5.654c3.121,0,5.653,2.532,5.653,5.654
	C60.791,30.162,58.259,32.692,55.137,32.692z M72.008,49.564c-3.121,0-5.652-2.532-5.652-5.653c0-3.123,2.531-5.653,5.653-5.653
	s5.653,2.532,5.653,5.653S75.131,49.564,72.008,49.564z M75.055,29.647c-3.122,0-5.652-2.532-5.652-5.654
	c0-3.123,2.53-5.653,5.652-5.654c3.123,0,5.653,2.532,5.653,5.654C80.708,27.116,78.178,29.647,75.055,29.647z"/>
</svg>
