<?xml version="1.0" encoding="utf-8"?>
<!-- Generator: Adobe Illustrator 15.0.2, SVG Export Plug-In . SVG Version: 6.00 Build 0)  -->
<!DOCTYPE svg PUBLIC "-//W3C//DTD SVG 1.1//EN" "http://www.w3.org/Graphics/SVG/1.1/DTD/svg11.dtd">
<svg version="1.1"
	 id="svg6584" xmlns:rdf="http://www.w3.org/1999/02/22-rdf-syntax-ns#" xmlns:svg="http://www.w3.org/2000/svg" xmlns:cc="http://creativecommons.org/ns#" xmlns:dc="http://purl.org/dc/elements/1.1/"
	 xmlns="http://www.w3.org/2000/svg" xmlns:xlink="http://www.w3.org/1999/xlink" x="0px" y="0px" width="100px" height="100px"
	 viewBox="0 0 100 100" enable-background="new 0 0 100 100" xml:space="preserve">
<path id="path6080-4" d="M25.062,2.5c-1.502,0-1.781,3.323-1.781,5.938v11.875c0,12.06,11.875,18.184,23.75,17.812v47.5
	c-5.938-11.876-23.75-29.688-41.562-23.75c0,0,14.843,35.625,44.531,35.625c29.688,0,44.531-35.625,44.531-35.625
	c-17.812-5.938-35.625,11.874-41.562,23.75v-47.5c11.873,0.368,23.749-5.752,23.749-17.812V8.438c0-2.615-0.278-5.938-1.781-5.938
	c-1.146,0-2.527,1.34-4.155,2.969l-8.906,8.906L52.97,4.355C52.04,3.31,51.503,2.5,50,2.5c-1.502,0-2.04,0.81-2.969,1.856
	l-8.907,10.02l-8.906-8.906C27.589,3.839,26.208,2.5,25.062,2.5z"/>
</svg>
