<?xml version="1.0" encoding="utf-8"?>
<!-- Generator: Adobe Illustrator 16.2.1, SVG Export Plug-In . SVG Version: 6.00 Build 0)  -->
<!DOCTYPE svg PUBLIC "-//W3C//DTD SVG 1.1//EN" "http://www.w3.org/Graphics/SVG/1.1/DTD/svg11.dtd">
<svg version="1.1" id="Layer_1" xmlns="http://www.w3.org/2000/svg" xmlns:xlink="http://www.w3.org/1999/xlink" x="0px" y="0px"
	 width="100px" height="100px" viewBox="0 0 100 100" enable-background="new 0 0 100 100" xml:space="preserve">
<path d="M55.66,0.666c4.684,0,8.48,3.797,8.48,8.48s-3.797,8.48-8.48,8.48s-8.48-3.797-8.48-8.48S50.977,0.666,55.66,0.666z
	 M78.848,45.643l-12.229-5.408L58.84,24.224c-0.205-0.548-0.459-1.072-0.759-1.565l-0.185-0.379c-0.463-0.95-1.19-1.657-2-2.054
	c-0.934-0.708-2.02-1.23-3.226-1.496c-0.706-0.155-1.412-0.205-2.108-0.177c-0.621-0.02-1.279,0.073-1.942,0.309
	c-1.068,0.303-2.074,0.813-2.971,1.5l-18.264,9.66c-0.33,0.173-0.622,0.378-0.898,0.595c-0.894,0.481-1.578,1.333-1.78,2.408
	l-2.853,15.118c-0.357,1.891,0.887,3.714,2.779,4.072c1.891,0.355,3.713-0.889,4.069-2.781l2.677-14.182l9.81-5.19L36.872,49.66
	c-0.132,0.593-0.18,1.158-0.165,1.695l-3.272,20.437c-0.073,0.099-0.153,0.183-0.221,0.287L20.342,91.926
	c-1.611,2.48-1.299,5.543,0.693,6.834c1.993,1.291,4.911,0.328,6.522-2.154L40.434,76.76c0.405-0.629,0.689-1.293,0.854-1.953
	c0.151-0.35,0.278-0.715,0.341-1.108l2.428-15.171c0.297,0.084,0.595,0.156,0.896,0.222c1.014,0.228,1.9,0.574,2.689,0.935
	l13.435,16.043l4.153,19.805c0.528,2.512,2.842,4.156,5.166,3.672c2.322-0.492,3.783-2.924,3.252-5.441L69.43,73.652
	c-0.166-0.795-0.525-1.486-0.992-2.068c-0.158-0.275-0.342-0.545-0.557-0.801L53.869,54.055l3.824-17.344l3.328,6.849
	c0.1,0.206,0.217,0.394,0.342,0.58c0.226,0.942,0.822,1.755,1.732,2.158l12.932,5.722c1.617,0.719,3.56-0.129,4.339-1.891
	C81.145,48.367,80.467,46.361,78.848,45.643z"/>
</svg>
