<?xml version="1.0" encoding="utf-8"?>
<!-- Generator: Adobe Illustrator 16.2.1, SVG Export Plug-In . SVG Version: 6.00 Build 0)  -->
<!DOCTYPE svg PUBLIC "-//W3C//DTD SVG 1.1//EN" "http://www.w3.org/Graphics/SVG/1.1/DTD/svg11.dtd">
<svg version="1.1"
	 id="Layer_1" xmlns:dc="http://purl.org/dc/elements/1.1/" xmlns:cc="http://creativecommons.org/ns#" xmlns:rdf="http://www.w3.org/1999/02/22-rdf-syntax-ns#" xmlns:svg="http://www.w3.org/2000/svg" xmlns:sodipodi="http://sodipodi.sourceforge.net/DTD/sodipodi-0.dtd" xmlns:inkscape="http://www.inkscape.org/namespaces/inkscape" inkscape:version="0.48.2 r9819" sodipodi:docname="noun_project_6326.svg"
	 xmlns="http://www.w3.org/2000/svg" xmlns:xlink="http://www.w3.org/1999/xlink" x="0px" y="0px" width="100px" height="100px"
	 viewBox="0 0 100 100" enable-background="new 0 0 100 100" xml:space="preserve">
<path id="path3365" d="M59.896,19.653c0-1.822-1.479-3.298-3.301-3.298H28.889c-0.539,0-1.069,0.131-1.544,0.383L4.915,28.613
	c-1.609,0.853-2.224,2.848-1.371,4.459c0.592,1.118,1.734,1.754,2.917,1.754c0.521,0,1.049-0.124,1.541-0.384l15.629-8.272
	l9.244,12.017l-8.248,9.164c-0.942,1.046-1.258,2.514-0.829,3.854l4.839,15.118c0.539,1.682,2.093,2.753,3.769,2.753
	c0.399,0,0.807-0.061,1.208-0.188c2.082-0.666,3.229-2.896,2.564-4.977l-4.145-12.955l8.049-8.945l-0.607,4.857
	c-0.152,1.212,0.264,2.426,1.128,3.289l9.567,9.565c0.773,0.773,1.785,1.16,2.798,1.16s2.025-0.385,2.799-1.16
	c1.546-1.545,1.546-4.053,0-5.599l-8.197-8.197l1.079-8.634c0.127-1.019-0.146-2.044-0.76-2.866l-8.61-11.479h17.316
	C58.418,22.952,59.896,21.476,59.896,19.653z M30.208,9.097c0,3.643-2.954,6.597-6.597,6.597c-3.644,0-6.597-2.954-6.597-6.597
	S19.968,2.5,23.611,2.5C27.254,2.5,30.208,5.454,30.208,9.097z M25.439,77.709h-8.425c-1.457,0-2.639-1.182-2.639-2.64
	c0-1.456,1.182-2.639,2.639-2.639h7.409l38.608-15.442l4.895-4.894c1.031-1.031,2.701-1.031,3.731,0c1.032,1.03,1.032,2.7,0,3.731
	l-5.66,5.662L25.439,77.709z M64.514,67.812c0,1.822-1.477,3.299-3.299,3.299s-3.299-1.477-3.299-3.299s1.477-3.299,3.299-3.299
	S64.514,65.99,64.514,67.812z M35.486,79.688c0,1.822-1.478,3.299-3.299,3.299c-1.821,0-3.298-1.477-3.298-3.299
	s1.478-3.299,3.298-3.299C34.009,76.389,35.486,77.865,35.486,79.688z M2.5,92.221c0,0,73.889-3.957,89.721-48.818H97.5V97.5h-95
	V92.221z"/>
</svg>
