<?xml version="1.0" encoding="utf-8"?>
<!-- Generator: Adobe Illustrator 16.2.1, SVG Export Plug-In . SVG Version: 6.00 Build 0)  -->
<!DOCTYPE svg PUBLIC "-//W3C//DTD SVG 1.1//EN" "http://www.w3.org/Graphics/SVG/1.1/DTD/svg11.dtd">
<svg version="1.1"
	 id="Layer_1" xmlns:dc="http://purl.org/dc/elements/1.1/" xmlns:cc="http://creativecommons.org/ns#" xmlns:rdf="http://www.w3.org/1999/02/22-rdf-syntax-ns#" xmlns:svg="http://www.w3.org/2000/svg" xmlns:sodipodi="http://sodipodi.sourceforge.net/DTD/sodipodi-0.dtd" xmlns:inkscape="http://www.inkscape.org/namespaces/inkscape" inkscape:version="0.48.2 r9819" sodipodi:docname="noun_project_923.svg"
	 xmlns="http://www.w3.org/2000/svg" xmlns:xlink="http://www.w3.org/1999/xlink" x="0px" y="0px" width="100px" height="100px"
	 viewBox="0 0 100 100" enable-background="new 0 0 100 100" xml:space="preserve">
<path id="path3095" d="M73.431,48.698c0.729,2.534,2.379,12.538-0.445,13.716c-1.369,0.422-1.662-4.779-3.107-8.792
	c-0.658-1.825-2.914-8.56-4.982-8.56c3.574,9.963,4.775,18.391,4.775,25.219c0,9.587-2.941,13.828-5.441,15.58
	c-0.83,0.582-1.64,1.012-2.432,1.324c0.469,0.852,1.396,1.094,2.738,1.554c1.792,0.612,4.703,1.948,4.012,2.704
	c-0.75,0.815-4.52-0.346-4.587,0.26s1.96,2.676,1.459,3.479c-0.577,0.93-2.685-0.818-2.685-0.818
	c-0.883-0.721-1.873-1.408-2.574-1.566c-1.932-0.434-2.811,0.705-3.78,0.189c-0.7-0.788,1.091-1.846,1.187-3.598
	c0.027-0.479-0.002-0.988-0.057-1.476c-2.252-0.033-4.438-0.58-6.68-0.724h-1.665c-2.255,0.146-4.449,0.695-6.719,0.726
	c-0.053,0.485-0.081,0.995-0.055,1.474c0.097,1.752,1.886,2.81,1.187,3.598c-0.971,0.516-1.848-0.623-3.779-0.189
	c-0.701,0.158-1.691,0.848-2.573,1.566c0,0-2.108,1.748-2.688,0.818c-0.5-0.804,1.528-2.873,1.461-3.479s-3.838,0.557-4.586-0.26
	c-0.692-0.756,2.219-2.092,4.011-2.704c1.349-0.464,2.279-0.704,2.745-1.566c-0.782-0.312-1.581-0.737-2.399-1.312
	c-2.497-1.752-5.441-5.993-5.441-15.58c0-6.828,1.203-15.256,4.778-25.219c-2.07,0-4.329,6.735-4.986,8.56
	c-1.442,4.013-1.602,9.308-3.106,8.792c-2.823-1.178-1.176-11.182-0.445-13.716c2.615-9.088,6.994-13.015,9.738-17.01
	c2.415-3.52,5.897-8.757,3.918-12.035c-0.753-1.333-0.992-2.87-0.879-3.967c0.187-1.843,0.912-3.93,1.646-5.587
	c0.898-2.035,3.028-5.176,7.451-5.553h3.146c4.424,0.376,6.551,3.518,7.45,5.552c0.733,1.658,1.463,3.746,1.647,5.587
	c0.112,1.097-0.125,2.635-0.879,3.967c-1.979,3.278,1.504,8.516,3.918,12.036l-0.022,0.017
	C66.447,35.695,70.815,39.623,73.431,48.698z M62.327,82.535c7.342-7.184,1.734-28.07-0.258-35.603
	c-2.381-8.988-5.107-15.556-12.071-15.925c-6.964,0.369-9.69,6.937-12.07,15.926c-1.994,7.533-7.603,28.418-0.261,35.603
	c3.283,3.211,7.438,0.954,11.444,0.899h0.132h1.511h0.132C54.892,83.49,59.045,85.746,62.327,82.535L62.327,82.535z M51.531,16.878
	c0.358-0.097-0.247-1.085-1.284-1.174h-0.035h-0.388h-0.037c-1.037,0.088-1.645,1.077-1.283,1.174
	c0.463,0.128,0.875,0.706,0.999,1.41c0.055,0.299,0.17,0.616,0.342,0.834c0,0,0.038,0.058,0.15,0.058c0.007,0,0.019,0,0.022,0
	c0.006,0,0.016,0,0.021,0c0.112,0,0.151-0.058,0.151-0.058c0.171-0.218,0.287-0.535,0.341-0.834
	C50.655,17.584,51.067,17.007,51.531,16.878z M50.212,23.596c5.775,0.109,10.081-4.041,8.982-9.264
	c-0.297-1.415-0.854-4.172-2.445-4.046c-0.79,0.062-1.738,0.941-2.462,1.968c-0.681,0.961-1.283,3.453-0.901,4.662
	c0.135,0.429,0.971,0.693,0.819,1.331c-0.336,1.419-1.511,2.126-3.616,2.211h-1.195c-2.106-0.084-3.281-0.792-3.616-2.211
	c-0.151-0.638,0.685-0.901,0.821-1.331c0.38-1.208-0.226-3.7-0.904-4.662c-0.723-1.026-1.672-1.905-2.462-1.968
	c-1.592-0.126-2.149,2.631-2.446,4.046c-1.097,5.223,3.209,9.373,8.984,9.264H50.212L50.212,23.596z M57.076,14.666
	c0.133,0.311-0.181,1.05-0.658,1.755c-0.088,0.101-0.362,0.148-0.666,0.158c-0.019,0.003-0.035,0-0.049,0
	c-0.347-0.013-0.664-0.062-0.711-0.133c-0.207-0.289,1.336-1.673,2.021-1.845C57.041,14.613,57.063,14.635,57.076,14.666z
	 M43.618,16.42c-0.477-0.705-0.793-1.442-0.66-1.753c0.017-0.03,0.037-0.053,0.064-0.065c0.685,0.172,2.226,1.555,2.02,1.843
	c-0.047,0.071-0.366,0.121-0.71,0.133c-0.017,0.003-0.033,0.003-0.05,0C43.981,16.568,43.706,16.52,43.618,16.42z"/>
</svg>
