<?xml version="1.0" encoding="utf-8"?>
<!-- Generator: Adobe Illustrator 16.2.1, SVG Export Plug-In . SVG Version: 6.00 Build 0)  -->
<!DOCTYPE svg PUBLIC "-//W3C//DTD SVG 1.1//EN" "http://www.w3.org/Graphics/SVG/1.1/DTD/svg11.dtd">
<svg version="1.1" id="Layer_1" xmlns="http://www.w3.org/2000/svg" xmlns:xlink="http://www.w3.org/1999/xlink" x="0px" y="0px"
	 width="100px" height="100px" viewBox="0 0 100 100" enable-background="new 0 0 100 100" xml:space="preserve">
<path d="M76.961,82.338c-0.753,2.27-2.494,4.107-3.886,4.107h-47.3c-1.393,0-3.089-1.838-3.789-4.107L8.694,39.22
	c-0.699-2.268,0.573-4.105,2.841-4.105h76.999c2.267,0,3.494,1.839,2.742,4.105L76.961,82.338z M90.754,33.34
	c0,0-14.53-10.558-36.09-11.963c0.458-0.746,0.72-1.597,0.72-2.501c0-2.938-2.742-5.321-6.126-5.321
	c-3.383,0-6.126,2.383-6.126,5.321c0,0.944,0.287,1.832,0.785,2.601C33.333,22.371,21.575,25.729,9.317,33.34H90.754z"/>
</svg>
