<?xml version="1.0" encoding="utf-8"?>
<!-- Generator: Adobe Illustrator 16.2.1, SVG Export Plug-In . SVG Version: 6.00 Build 0)  -->
<!DOCTYPE svg PUBLIC "-//W3C//DTD SVG 1.1//EN" "http://www.w3.org/Graphics/SVG/1.1/DTD/svg11.dtd">
<svg version="1.1" id="Layer_1" xmlns="http://www.w3.org/2000/svg" xmlns:xlink="http://www.w3.org/1999/xlink" x="0px" y="0px"
	 width="100px" height="100px" viewBox="0 0 100 100" enable-background="new 0 0 100 100" xml:space="preserve">
<path d="M22.481,66.643L22.481,66.643c-0.003,0-0.008,0-0.011,0l0,0c-3.109-0.008-5.623-2.526-5.625-5.635l0,0
	c0-0.024,0-0.045,0-0.062l0,0c0.031-3.088,2.541-5.579,5.635-5.58l0,0c3.112,0.001,5.634,2.523,5.635,5.638l0,0
	c0,0.004,0,0.008,0,0.019l0,0C28.108,64.128,25.589,66.643,22.481,66.643L22.481,66.643L22.481,66.643z M22.474,62.944
	c0.003,0,0.004,0,0.008,0l0,0c1.066,0,1.934-0.865,1.936-1.928l0,0c0-0.007,0-0.011,0-0.017l0,0
	c-0.001-1.067-0.868-1.936-1.936-1.937l0,0c-1.068,0.001-1.934,0.867-1.935,1.937l0,0v0.047v0.002
	C20.567,62.098,21.424,62.942,22.474,62.944L22.474,62.944L22.474,62.944L22.474,62.944z M72.668,66.643L72.668,66.643
	c-0.005,0-0.008,0-0.012,0l0,0c-3.109-0.006-5.623-2.526-5.624-5.635l0,0c0-0.002,0-0.004,0-0.006l0,0l0,0
	c0.001-3.114,2.522-5.637,5.637-5.638l0,0c3.112,0.001,5.632,2.521,5.636,5.636l0,0l0,0v0.002c0,0.004,0,0.008,0,0.019l0,0
	C78.295,64.129,75.775,66.643,72.668,66.643L72.668,66.643L72.668,66.643z M72.66,62.942c0.002,0,0.006,0,0.008,0l0,0
	c1.064,0.002,1.936-0.863,1.936-1.926l0,0c0-0.007,0-0.011,0-0.017l0,0c0-1.067-0.867-1.936-1.935-1.938l0,0
	c-1.067,0.003-1.935,0.869-1.937,1.938l0,0v0.056C70.757,62.101,71.611,62.941,72.66,62.942L72.66,62.942L72.66,62.942L72.66,62.942
	z M94.777,33.359l-19.233,0.03l-12.253,0.03l-12.262,0.022l-12.259,0.03l-12.254,0.023L3.368,33.405
	c-0.788,0.057-1.42,0.565-1.455,1.3l-0.59,13.303L0,49.026v6.505l0.023,4.994c-0.024,1.325,0.976,2.032,1.972,2.062h14.321
	c-0.128-0.504-0.197-1.031-0.197-1.576c0-0.029,0-0.053,0.001-0.069c0.034-3.486,2.868-6.302,6.361-6.303
	c3.515,0.001,6.361,2.85,6.363,6.362v0.021c-0.001,0.538-0.07,1.062-0.198,1.562h21.129l16.739,0.043
	c-0.135-0.519-0.207-1.062-0.207-1.619v-0.01c0-3.514,2.848-6.36,6.362-6.36s6.358,2.847,6.36,6.36v0.022
	c-0.002,0.57-0.078,1.123-0.221,1.646l21.07-4.188L100,37.932C100.033,35.598,97.12,33.289,94.777,33.359z M12.365,57.728
	c0,0.784-0.633,1.417-1.418,1.417H7.408c-0.786,0-1.418-0.633-1.418-1.417v-17.86c0-0.787,0.633-1.418,1.418-1.418h3.538
	c0.786,0,1.418,0.632,1.418,1.418v17.86H12.365z M34.079,45.628c0,0.786-0.632,1.418-1.418,1.418h-14.61
	c-0.785,0-1.417-0.632-1.417-1.418v-5.82c0-0.786,0.632-1.418,1.417-1.418h14.61c0.786,0,1.418,0.633,1.418,1.418V45.628z
	 M54.953,45.628c0,0.786-0.633,1.418-1.419,1.418H38.925c-0.786,0-1.418-0.632-1.418-1.418v-5.82c0-0.786,0.632-1.418,1.418-1.418
	h14.609c0.786,0,1.419,0.633,1.419,1.418V45.628z M75.759,45.628c0,0.786-0.632,1.418-1.418,1.418H59.738
	c-0.784,0-1.418-0.632-1.418-1.418v-5.82c0-0.786,0.634-1.418,1.418-1.418h14.603c0.786,0,1.418,0.633,1.418,1.418V45.628z
	 M96.456,45.628c0,0.786-0.634,1.418-1.419,1.418H80.428c-0.785,0-1.419-0.632-1.419-1.418v-5.82c0-0.786,0.634-1.418,1.419-1.418
	h11.93c2.401,0,4.101,1.483,4.101,2.992L96.456,45.628L96.456,45.628z"/>
</svg>
