<?xml version="1.0" encoding="UTF-8" standalone="no"?>
<!-- Generator: Adobe Illustrator 15.0.2, SVG Export Plug-In . SVG Version: 6.00 Build 0)  -->

<svg
   xmlns:dc="http://purl.org/dc/elements/1.1/"
   xmlns:cc="http://creativecommons.org/ns#"
   xmlns:rdf="http://www.w3.org/1999/02/22-rdf-syntax-ns#"
   xmlns:svg="http://www.w3.org/2000/svg"
   xmlns="http://www.w3.org/2000/svg"
   xmlns:sodipodi="http://sodipodi.sourceforge.net/DTD/sodipodi-0.dtd"
   xmlns:inkscape="http://www.inkscape.org/namespaces/inkscape"
   version="1.1"
   id="Layer_1"
   x="0px"
   y="0px"
   width="100px"
   height="100px"
   viewBox="0 0 100 100"
   enable-background="new 0 0 100 100"
   xml:space="preserve"
   inkscape:version="0.48.2 r9819"
   sodipodi:docname="noun_project_9420.svg"><metadata
   id="metadata3447"><rdf:RDF><cc:Work
       rdf:about=""><dc:format>image/svg+xml</dc:format><dc:type
         rdf:resource="http://purl.org/dc/dcmitype/StillImage" /></cc:Work></rdf:RDF></metadata><defs
   id="defs3445" /><sodipodi:namedview
   pagecolor="#ffffff"
   bordercolor="#666666"
   borderopacity="1"
   objecttolerance="10"
   gridtolerance="10"
   guidetolerance="10"
   inkscape:pageopacity="0"
   inkscape:pageshadow="2"
   inkscape:window-width="640"
   inkscape:window-height="480"
   id="namedview3443"
   showgrid="false"
   inkscape:zoom="2.36"
   inkscape:cx="50"
   inkscape:cy="50"
   inkscape:window-x="0"
   inkscape:window-y="22"
   inkscape:window-maximized="0"
   inkscape:current-layer="Layer_1" />


<path
   id="path3441"
   d="M 77.76,93.626 C 76.766,92.955 75.067,92.729 73.096,92.464 68.844,91.897 65.846,91.296 66.007,88.75 66.008,88.732 66,88.717 66,88.7 V 66.492 c 0.083,-0.007 0.166,-0.015 0.248,-0.042 0.665,-0.229 1.337,-0.412 1.986,-0.591 2.019,-0.551 4.107,-1.123 5.908,-3.043 2.262,-2.412 3.371,-5.322 3.392,-8.9 C 77.56,48.695 77.325,42.785 75.366,38.555 75.277,38.362 75.125,38.226 74.953,38.127 74.507,35.287 70.298,33.128 65,33.128 c -5.299,0 -9.509,2.16 -9.954,5 -0.17,0.1 -0.32,0.234 -0.409,0.427 -1.959,4.232 -2.195,10.14 -2.17,15.361 0.018,3.572 1.127,6.483 3.393,8.899 1.8,1.922 3.888,2.492 5.908,3.045 0.648,0.178 1.32,0.361 1.985,0.59 0.081,0.026 0.165,0.034 0.247,0.041 v 21.775 c -0.069,0.148 -0.116,0.308 -0.105,0.482 0.16,2.546 -2.836,3.146 -7.09,3.714 -1.97,0.265 -3.67,0.491 -4.664,1.162 -0.457,0.31 -0.578,0.931 -0.27,1.39 0.193,0.285 0.509,0.439 0.83,0.439 0.191,0 0.386,-0.057 0.561,-0.171 0.605,-0.408 2.234,-0.627 3.809,-0.839 2.757,-0.368 6.234,-0.844 7.88,-2.774 1.646,1.931 5.123,2.406 7.88,2.774 1.576,0.212 3.206,0.431 3.811,0.839 0.172,0.114 0.366,0.171 0.559,0.171 0.322,0 0.637,-0.154 0.83,-0.439 0.307,-0.457 0.187,-1.078 -0.271,-1.388 z M 54.467,53.907 c -10e-4,-0.123 0.001,-0.25 0.001,-0.373 0.069,-0.1 0.162,-0.19 0.276,-0.269 0.455,-0.312 1.079,-0.363 1.391,0.092 1.28,1.866 4.342,2.643 9.095,2.643 0.004,0 0.008,0 0.012,0 0.552,0 1,0.447 1,1 0,0.552 -0.447,1 -1,1 -0.004,0 -0.008,0 -0.012,0 -5.522,0 -9.034,-0.979 -10.736,-3.445 -0.01,-0.215 -0.026,-0.426 -0.027,-0.648 z M 65,35.129 c 4.713,0 7.998,1.844 7.998,3.499 0,1.655 -3.285,3.499 -7.998,3.499 -4.713,0 -7.998,-1.844 -7.998,-3.499 0,-1.655 3.285,-3.499 7.998,-3.499 z m -9.136,5.761 c 1.541,1.924 5.006,3.237 9.136,3.237 4.132,0 7.598,-1.314 9.138,-3.239 0.903,2.697 1.242,5.978 1.352,9.244 -2.184,-1.912 -6.021,-3.16 -10.489,-3.16 -4.467,0 -8.304,1.248 -10.487,3.159 0.109,-3.265 0.449,-6.545 1.35,-9.241 z M 23.839,32.501 c 0.025,0 0.051,-10e-4 0.076,-0.003 0.551,-0.041 0.964,-0.522 0.922,-1.072 -0.086,-1.145 0.522,-2.064 1.861,-2.81 2.452,-1.367 2.945,-1.921 4.063,-4.559 0.215,-0.509 -0.023,-1.096 -0.531,-1.311 -0.509,-0.215 -1.096,0.023 -1.311,0.531 -0.939,2.216 -1.148,2.451 -3.195,3.592 -2.567,1.43 -2.984,3.349 -2.881,4.707 0.039,0.526 0.478,0.925 0.996,0.925 z M 40,23 c -2.953,0 -4,-3.771 -4,-7 V 6 C 36,5.925 35.973,5.86 35.958,5.79 35.973,5.693 36,5.6 36,5.5 36,4.051 34.318,3 32,3 29.682,3 28,4.051 28,5.5 28,5.6 28.027,5.693 28.042,5.79 28.027,5.86 28,5.925 28,6 v 10 c 0,3.229 -1.047,7 -4,7 -0.026,0 -0.048,0.013 -0.073,0.015 -1.633,0.065 -3.901,2.345 -3.923,3.966 C 20.004,26.987 20,26.993 20,27 v 18 30 2 h 0.32 c 1.221,2.897 5.909,5 11.68,5 5.771,0 10.458,-2.103 11.68,-5 H 44 V 75 45 27 C 44,26.993 43.996,26.987 43.996,26.98 43.974,25.336 41.637,23 40,23 z m 2,24.771 c 0,10e-4 0,0.002 -10e-4,0.002 -1.432,2.088 -4.37,3.227 -8.981,3.227 -0.004,0 -0.008,0 -0.012,0 -0.552,0 -1,-0.448 -1,-1 0,-0.552 0.448,-1 1,-1 10e-4,0 0.007,0 0.011,0 3.849,0 6.315,-0.917 7.331,-2.398 0.312,-0.456 0.935,-0.654 1.39,-0.342 0.108,0.074 0.193,0.175 0.262,0.288 v 1.223 z M 32,5 c 1.039,0 1.714,0.306 1.942,0.5 C 33.714,5.694 33.039,6 32,6 30.961,6 30.286,5.694 30.058,5.5 30.286,5.306 30.961,5 32,5 z m -8,20.002 c 0.005,0 0.009,-0.003 0.014,-0.003 C 27.651,24.99 30,21.459 30,16 v -3.316 c 0.581,0.197 1.251,0.316 2,0.316 0.749,0 1.419,-0.119 2,-0.316 V 16 c 0,5.46 2.35,8.991 5.988,8.999 0.004,0 0.008,0.003 0.012,0.003 0.568,0.011 1.989,1.434 2,2.003 V 42.878 C 39.873,41.133 36.23,40 32,40 c -4.23,0 -7.873,1.133 -10,2.877 v -15.87 c 0.011,-0.568 1.432,-1.994 2,-2.005 z" />
</svg>