<?xml version="1.0" encoding="utf-8"?>
<!-- Generator: Adobe Illustrator 16.2.1, SVG Export Plug-In . SVG Version: 6.00 Build 0)  -->
<!DOCTYPE svg PUBLIC "-//W3C//DTD SVG 1.1//EN" "http://www.w3.org/Graphics/SVG/1.1/DTD/svg11.dtd">
<svg version="1.1"
	 id="Layer_1" xmlns:dc="http://purl.org/dc/elements/1.1/" xmlns:cc="http://creativecommons.org/ns#" xmlns:rdf="http://www.w3.org/1999/02/22-rdf-syntax-ns#" xmlns:svg="http://www.w3.org/2000/svg" xmlns:sodipodi="http://sodipodi.sourceforge.net/DTD/sodipodi-0.dtd" xmlns:inkscape="http://www.inkscape.org/namespaces/inkscape" inkscape:version="0.48.2 r9819" sodipodi:docname="noun_project_11135.svg"
	 xmlns="http://www.w3.org/2000/svg" xmlns:xlink="http://www.w3.org/1999/xlink" x="0px" y="0px" width="100px" height="100px"
	 viewBox="0 0 100 100" enable-background="new 0 0 100 100" xml:space="preserve">
<path id="path15" d="M60.006,49.706l-4.561-15.372c-0.219-0.652-0.544-1.28-0.976-1.887c-0.435-0.608-0.935-1.141-1.498-1.596
	c-0.565-0.458-1.185-0.825-1.856-1.108c-0.672-0.282-1.357-0.423-2.052-0.423h-8.14c-0.608,0-1.226,0.13-1.855,0.39
	c-0.631,0.26-1.216,0.599-1.759,1.01c-0.544,0.414-1.021,0.892-1.433,1.435c-0.414,0.544-0.706,1.097-0.88,1.66l-2.785,9.229
	l-2.583-8.709c-0.218-0.652-0.544-1.28-0.976-1.887c-0.435-0.608-0.934-1.141-1.499-1.596c-0.565-0.458-1.183-0.825-1.856-1.108
	c-0.673-0.282-1.356-0.423-2.051-0.423h-8.141c-0.608,0-1.226,0.13-1.854,0.39c-0.63,0.26-1.217,0.599-1.76,1.01
	c-0.543,0.414-1.019,0.892-1.433,1.435c-0.412,0.543-0.706,1.097-0.878,1.66L4.426,49.576c-0.088,0.132-0.13,0.325-0.13,0.587v0.26
	c0,0.65,0.205,1.205,0.618,1.66c0.413,0.455,0.943,0.684,1.596,0.684c0.478,0,0.911-0.141,1.301-0.423
	c0.392-0.283,0.654-0.661,0.781-1.138l4.299-14.264h1.042L6.771,61.819h6.643l0.064,0.066v18.755c0,0.042,0.032,0.142,0.098,0.293
	c0.064,0.152,0.119,0.249,0.163,0.296c0.174,0.521,0.478,0.892,0.912,1.107c0.435,0.214,0.912,0.322,1.435,0.322
	c1.085,0,1.867-0.541,2.345-1.628c0-0.089,0.02-0.174,0.064-0.262c0.042-0.087,0.064-0.151,0.064-0.194V61.819h1.434v18.756
	c0,0.607,0.27,1.104,0.813,1.496c0.543,0.391,1.096,0.588,1.662,0.588c0.652,0,1.14-0.119,1.466-0.357
	c0.325-0.239,0.574-0.555,0.748-0.945c0.173-0.391,0.271-0.848,0.294-1.367c0.022-0.521,0.033-1.042,0.033-1.563l0.066-16.54
	l0.13-0.066h6.511l-7.228-24.877h1.107l0.131,0.195l4.168,13.873c0.216,0.52,0.497,0.944,0.846,1.268
	c0.347,0.328,0.783,0.491,1.305,0.491c0.054,0,0.099-0.013,0.149-0.015c0.048,0.002,0.09,0.015,0.138,0.015
	c0.478,0,0.91-0.14,1.301-0.423c0.391-0.283,0.652-0.66,0.781-1.138l4.298-14.264h1.042l-7.163,24.877h6.644l0.063,0.067v18.754
	c0,0.043,0.033,0.139,0.099,0.294c0.064,0.151,0.118,0.251,0.163,0.295c0.173,0.521,0.477,0.891,0.912,1.106
	c0.431,0.212,0.909,0.32,1.432,0.32c1.084,0,1.866-0.541,2.343-1.628c0-0.089,0.02-0.174,0.065-0.262
	c0.043-0.087,0.065-0.151,0.065-0.194V61.819h1.433v18.756c0,0.607,0.271,1.104,0.814,1.496c0.543,0.391,1.097,0.588,1.66,0.588
	c0.652,0,1.141-0.119,1.466-0.357c0.325-0.239,0.574-0.555,0.748-0.945c0.176-0.391,0.273-0.848,0.296-1.367
	c0.02-0.521,0.031-1.042,0.031-1.563l0.065-16.54l0.132-0.066h6.511l-7.229-24.877h1.106l0.133,0.195l4.17,13.873
	c0.218,0.52,0.497,0.944,0.847,1.268c0.347,0.328,0.781,0.491,1.305,0.491c0.779,0,1.345-0.238,1.691-0.716
	c0.344-0.477,0.521-1.088,0.521-1.826V49.97C60.07,49.88,60.047,49.794,60.006,49.706z M45.091,27.954
	c1.476,0,2.735-0.51,3.777-1.528c1.042-1.019,1.563-2.271,1.563-3.747c0-1.518-0.523-2.788-1.563-3.807
	c-1.042-1.021-2.323-1.532-3.843-1.532c-1.477,0-2.712,0.521-3.712,1.563c-0.998,1.04-1.498,2.302-1.498,3.775
	c0,1.434,0.511,2.672,1.53,3.714C42.367,27.435,43.614,27.954,45.091,27.954z M19.274,27.954c1.477,0,2.736-0.51,3.777-1.528
	s1.563-2.271,1.563-3.747c0-1.518-0.523-2.788-1.563-3.807c-1.042-1.021-2.322-1.532-3.842-1.532c-1.477,0-2.713,0.521-3.711,1.563
	c-1,1.04-1.499,2.302-1.499,3.775c0,1.434,0.51,2.672,1.531,3.714C16.55,27.435,17.798,27.954,19.274,27.954z M66.484,78.296
	c0-1.047-0.85-1.893-1.893-1.893c-1.049,0-1.893,0.85-1.893,1.893c0,1.048,0.847,1.893,1.893,1.893
	C65.638,80.189,66.484,79.344,66.484,78.296 M84.02,78.296c0-1.047-0.85-1.893-1.893-1.893c-1.041,0-1.891,0.85-1.891,1.893
	c0,1.048,0.85,1.893,1.891,1.893C83.171,80.189,84.02,79.344,84.02,78.296 M62.28,74.573c-0.244-0.671-0.345-1.404-0.179-2.141
	c0.199-0.83,0.654-1.529,1.255-2.04l26.196-20.852c0.64-0.468,1.42-0.757,2.275-0.757c2.086,0,3.771,1.685,3.771,3.779
	c0,1.217-0.555,2.3-1.436,2.993c-0.312,0.271-0.77,0.239-1.033-0.078c-0.275-0.312-0.232-0.792,0.084-1.052
	c0.564-0.417,0.92-1.096,0.92-1.863c0-1.276-1.036-2.312-2.307-2.312c-0.541,0-1.018,0.179-1.406,0.473l-7.614,6.062l-3.979,11.527
	l2.413,5.74c0.284-0.062,0.583-0.117,0.886-0.117c2.416,0,4.368,1.959,4.368,4.363c0,2.42-1.952,4.36-4.368,4.36
	c-2.403,0-4.355-1.942-4.355-4.36c0-1.56,0.812-2.931,2.049-3.691l-1.738-4.156l-0.144,0.443c-0.532,1.631-2.294,2.521-3.923,1.982
	l-8.088-2.669l-1.576,1.26c-0.377,0.306-0.656,0.745-0.783,1.255c-0.107,0.473-0.029,0.926,0.127,1.33
	c0.281-0.058,0.593-0.119,0.9-0.119c2.403,0,4.357,1.958,4.357,4.362c0,2.42-1.954,4.362-4.357,4.362
	c-2.404,0-4.369-1.942-4.369-4.362C60.227,76.721,61.022,75.337,62.28,74.573 M75.247,58.919c-1.956,0-3.534-1.578-3.534-3.534
	s1.578-3.547,3.534-3.547c1.957,0,3.544,1.591,3.544,3.547S77.204,58.919,75.247,58.919 M67.947,65.146l-3.91,3.101l-4.998,3.829
	c-1.428,1.119-2.592-0.229-2.592-0.229c-1.111-1.455,0.164-2.41,0.164-2.41l6.232-4.871c0,0,0.682-0.711,2.475-0.199L67.947,65.146"
	/>
</svg>
