<?xml version="1.0" encoding="utf-8"?>
<!-- Generator: Adobe Illustrator 16.2.1, SVG Export Plug-In . SVG Version: 6.00 Build 0)  -->
<!DOCTYPE svg PUBLIC "-//W3C//DTD SVG 1.1//EN" "http://www.w3.org/Graphics/SVG/1.1/DTD/svg11.dtd">
<svg version="1.1"
	 id="Layer_1" xmlns:dc="http://purl.org/dc/elements/1.1/" xmlns:cc="http://creativecommons.org/ns#" xmlns:rdf="http://www.w3.org/1999/02/22-rdf-syntax-ns#" xmlns:svg="http://www.w3.org/2000/svg" xmlns:sodipodi="http://sodipodi.sourceforge.net/DTD/sodipodi-0.dtd" xmlns:inkscape="http://www.inkscape.org/namespaces/inkscape" inkscape:version="0.48.2 r9819" sodipodi:docname="noun_project_115.svg"
	 xmlns="http://www.w3.org/2000/svg" xmlns:xlink="http://www.w3.org/1999/xlink" x="0px" y="0px" width="100px" height="100px"
	 viewBox="0 0 100 100" enable-background="new 0 0 100 100" xml:space="preserve">
<path id="path3013" d="M65.2,87.525c-3.8-0.95-4.75-3.801-4.75-7.6v-0.951H50H39.55v0.951c0,3.799-0.95,6.649-4.75,7.6
	c-0.922,0.23-0.95,1.9,0,1.9H50h15.2C66.15,89.426,66.122,87.756,65.2,87.525z M97.481,12.771c-0.092-1.227-1.106-2.196-2.356-2.196
	H4.875c-1.25,0-2.265,0.97-2.357,2.196L2.5,73.75c0,1.312,1.063,2.375,2.375,2.375h90.25c1.312,0,2.375-1.062,2.375-2.375
	L97.481,12.771z M93.7,64.725H6.3v-50.35h87.4V64.725z"/>
</svg>
