<?xml version="1.0" encoding="utf-8"?>
<!-- Generator: Adobe Illustrator 16.2.1, SVG Export Plug-In . SVG Version: 6.00 Build 0)  -->
<!DOCTYPE svg PUBLIC "-//W3C//DTD SVG 1.1//EN" "http://www.w3.org/Graphics/SVG/1.1/DTD/svg11.dtd">
<svg version="1.1"
	 id="Layer_1" xmlns:dc="http://purl.org/dc/elements/1.1/" xmlns:cc="http://creativecommons.org/ns#" xmlns:rdf="http://www.w3.org/1999/02/22-rdf-syntax-ns#" xmlns:svg="http://www.w3.org/2000/svg" xmlns:sodipodi="http://sodipodi.sourceforge.net/DTD/sodipodi-0.dtd" xmlns:inkscape="http://www.inkscape.org/namespaces/inkscape" inkscape:version="0.48.2 r9819" sodipodi:docname="noun_project_318.svg"
	 xmlns="http://www.w3.org/2000/svg" xmlns:xlink="http://www.w3.org/1999/xlink" x="0px" y="0px" width="99.997px" height="100px"
	 viewBox="0 0 99.997 100" enable-background="new 0 0 99.997 100" xml:space="preserve">
<path id="path9" d="M28.643,45.972c3.705,0,6.691-3.008,6.691-6.702c0-3.716-2.987-6.703-6.691-6.703
	c-3.694,0-6.702,2.987-6.702,6.703C21.94,42.964,24.949,45.972,28.643,45.972z M39.492,49.068c-1.018-1.039-2.411-1.657-3.958-1.657
	H21.477c-1.548,0-2.942,0.618-3.938,1.657L3.45,63.16c-1.306,1.371-1.261,3.539,0.11,4.846c1.371,1.305,3.561,1.26,4.844-0.111
	L19.33,56.969v14.598H7.077c-2.256,0-4.07,1.812-4.07,4.068c0,1.172,0.443,2.211,1.239,2.963L18.048,92.4
	c1.216,1.792,3.605,2.367,5.507,1.261c2.013-1.149,2.676-3.694,1.525-5.685l-7.875-7.852l0.155,0.021h22.617l-7.896,7.853
	c-1.129,1.991-0.465,4.534,1.525,5.685c1.902,1.105,4.314,0.53,5.53-1.262L52.94,78.621c0.795-0.753,1.237-1.793,1.237-2.965
	c0-2.256-1.813-4.07-4.069-4.07h-12.23V57.143l10.728,10.773c1.305,1.371,3.473,1.414,4.843,0.109
	c1.371-1.305,1.416-3.471,0.111-4.844L39.492,49.068z M74.993,23.523h-9.798l-16.7-16.7c-1.305-1.37-3.472-1.438-4.844-0.11
	c-1.372,1.305-1.438,3.473-0.133,4.845l17.451,17.474v57.908c0,2.102,1.683,3.783,3.761,3.783c2.101,0,3.781-1.684,3.781-3.783
	v-31.41h3.053l0.021,31.408c0,2.102,1.704,3.783,3.782,3.783s3.761-1.684,3.761-3.783L79.106,29.03l17.452-17.474
	c1.304-1.372,1.238-3.54-0.134-4.845c-1.371-1.326-3.539-1.259-4.845,0.11L74.993,23.523z M69.993,22.018
	c3.717,0,6.725-3.009,6.725-6.724c0-3.695-3.008-6.703-6.725-6.703c-3.695,0-6.701,3.008-6.701,6.703
	C63.293,19.01,66.301,22.018,69.993,22.018z"/>
</svg>
