<?xml version="1.0" encoding="utf-8"?>
<!-- Generator: Adobe Illustrator 16.2.1, SVG Export Plug-In . SVG Version: 6.00 Build 0)  -->
<!DOCTYPE svg PUBLIC "-//W3C//DTD SVG 1.1//EN" "http://www.w3.org/Graphics/SVG/1.1/DTD/svg11.dtd">
<svg version="1.1"
	 id="Layer_1" xmlns:dc="http://purl.org/dc/elements/1.1/" xmlns:cc="http://creativecommons.org/ns#" xmlns:rdf="http://www.w3.org/1999/02/22-rdf-syntax-ns#" xmlns:svg="http://www.w3.org/2000/svg" xmlns:sodipodi="http://sodipodi.sourceforge.net/DTD/sodipodi-0.dtd" xmlns:inkscape="http://www.inkscape.org/namespaces/inkscape" inkscape:version="0.48.2 r9819" sodipodi:docname="noun_project_175.svg"
	 xmlns="http://www.w3.org/2000/svg" xmlns:xlink="http://www.w3.org/1999/xlink" x="0px" y="0px" width="100px" height="100px"
	 viewBox="0 0 100 100" enable-background="new 0 0 100 100" xml:space="preserve">
<path id="path3044" d="M49.999,47.864c0,0-1.387-0.077-3.39,0.539c-2.005,0.615-3.603,1.165-3.776-2.774
	c-0.232-5.241,1.366-5.07,2.466-10.172c0.426-1.976,8.975-1.976,9.402,0c1.097,5.104,2.698,4.931,2.468,10.172
	c-0.176,3.939-1.773,3.39-3.779,2.774C51.385,47.787,49.999,47.864,49.999,47.864z M42.91,72.987
	c-5.472-3.932-3.544-13.718-1.772-19.036C42.91,48.634,50,48.634,50,48.634s7.089,0,8.865,5.317
	c1.769,5.318,3.7,15.104-1.774,19.036c-4.413,3.169-7.012,3.006-7.012,3.006S47.321,76.156,42.91,72.987z M44.951,34.481
	l0.013-2.262c0,0,1.926-2.621,2.311-4.007c0.386-1.389-0.385-1.772-1.386-0.386c-1.002,1.387-2.158,3.699-2.235,4.624
	c-0.077,0.924,0.327,3.808,0.54,4.238C44.359,34.8,44.951,34.481,44.951,34.481z M43.961,37.537c0,0-1.31-1.388-2.389-1.311
	c-1.85-3.467-13.64-3.544-13.64-3.544s0.771-4.084-0.771-13.487c2.158-3.391,4.702-6.705,6.089-8.863
	c0.207-2.963,0.771-6.321,0.924-7.167c0.154-0.849-0.693-0.924-0.924,0c-0.232,0.924-0.849,6.859-0.849,6.859
	s-6.704,8.322-6.704,9.401c0,1.08,0.461,12.64,0.924,13.795c0.462,1.155,0.925,1.387,2.313,1.696
	c1.387,0.308,9.787,2.852,11.56,2.466c0.462,1.541,2.543,2.39,2.543,2.39S43.766,38.531,43.961,37.537z M42.857,40.576
	c0,0-3.186-0.497-4.034,0.119c-3.313-2.079-13.256,1.927-13.256,1.927s-3.543-10.172-5.084-11.79
	c1.233-2.774,2.466-7.321,2.929-9.171c0.309-2.081,0.771-5.934,0.925-6.627c0.153-0.693-0.771-0.771-0.925-0.077
	c-0.154,0.693-0.925,6.472-0.925,6.472s-3.569,9.146-3.314,9.942c1.156,3.622,4.393,12.717,5.857,12.871
	c1.465,0.154,12.101-0.386,13.641-1.465c1.541,0.539,3.55,0.165,3.55,0.165S42.228,41.672,42.857,40.576z M42.176,43.807
	c0,0-3.428,0.664-3.505,1.744c-3.313,0.54-8.478,7.244-8.786,9.632c-2.004,1.388-6.012,10.482-5.935,11.946
	c-1.464,1.387-4.238,7.319-4.238,7.319s-1.464,4.01-1.695,5.008c-0.232,1.004,0.539,1.312,0.847,0.23
	c0.309-1.079,1.619-4.773,1.619-4.773s2.851-4.473,4.315-7.168c1.695-1.082,5.934-10.252,6.319-11.638
	c2.002-0.772,2.428-3.278,4.777-5.319c1.157-1.003,3.083-2.467,3.314-3.545c1.31,0.23,2.929-1.079,2.929-1.079
	S42.039,44.808,42.176,43.807z M42.294,47.17c0,0-3.006,1.848-2.544,3.391c-2.928,2.08-5.703,13.486-4.701,15.799
	c-1.166,1.061-1.593,3.969-2.678,6.776c-1.488,3.841-2.452,6.792-2.331,7.714c-2.081,2.002-4.777,6.779-6.088,9.939
	c-1.092,2.634-2.003,5.319-2.157,6.012c-0.154,0.693,0.539,1.078,0.924,0.152c0.386-0.924,2.004-5.856,2.004-5.856
	s4.931-6.704,5.78-9.016c1.387-0.925,5.935-12.562,5.935-14.948c0.668-0.708,1.248-3.914,2.11-8.404
	c0.708-3.729,2.408-6.451,2.206-7.012c1.233-0.463,2.789-2.495,2.789-2.495S42.37,48.634,42.294,47.17z M55.047,34.481l-0.012-2.262
	c0,0-1.926-2.621-2.312-4.007c-0.385-1.389,0.385-1.772,1.387-0.386c1.004,1.387,2.158,3.699,2.236,4.624
	c0.076,0.924-0.328,3.808-0.538,4.238C55.641,34.8,55.047,34.481,55.047,34.481z M56.037,37.537c0,0,1.311-1.388,2.391-1.311
	c1.85-3.467,13.64-3.544,13.64-3.544s-0.772-4.084,0.771-13.487c-2.156-3.391-4.699-6.705-6.086-8.863
	c-0.209-2.963-0.771-6.321-0.926-7.167c-0.154-0.849,0.693-0.924,0.926,0c0.23,0.924,0.85,6.859,0.85,6.859s6.706,8.322,6.706,9.401
	c0,1.08-0.463,12.64-0.927,13.795c-0.461,1.156-0.924,1.387-2.312,1.696c-1.391,0.308-9.79,2.852-11.563,2.466
	c-0.462,1.541-2.54,2.39-2.54,2.39S56.23,38.531,56.037,37.537z M57.142,40.576c0,0,3.185-0.497,4.034,0.119
	c3.311-2.079,13.252,1.927,13.252,1.927s3.543-10.172,5.088-11.791c-1.234-2.774-2.469-7.32-2.93-9.171
	c-0.308-2.081-0.772-5.934-0.928-6.627c-0.154-0.693,0.771-0.771,0.928-0.077c0.155,0.693,0.924,6.473,0.924,6.473
	s3.573,9.146,3.315,9.942c-1.158,3.622-4.394,12.717-5.856,12.871c-1.465,0.154-12.1-0.386-13.641-1.465
	c-1.541,0.539-3.55,0.165-3.55,0.165S57.77,41.672,57.142,40.576z M57.826,43.807c0,0,3.424,0.664,3.504,1.744
	c3.312,0.54,8.477,7.244,8.783,9.632c2.004,1.388,6.012,10.482,5.936,11.946c1.463,1.387,4.236,7.319,4.236,7.319
	s1.466,4.01,1.697,5.008c0.23,1.004-0.537,1.312-0.85,0.23c-0.307-1.079-1.617-4.773-1.617-4.773s-2.851-4.473-4.316-7.168
	c-1.693-1.082-5.934-10.252-6.318-11.638c-2.004-0.772-2.428-3.278-4.777-5.319c-1.156-1.003-3.082-2.467-3.314-3.545
	c-1.31,0.23-2.93-1.079-2.93-1.079S57.959,44.808,57.826,43.807z M57.704,47.17c0,0,3.008,1.848,2.548,3.391
	c2.928,2.08,5.701,13.486,4.699,15.799c1.166,1.061,1.596,3.969,2.678,6.776c1.486,3.841,2.451,6.792,2.33,7.714
	c2.08,2.002,4.776,6.779,6.088,9.939c1.092,2.634,2.002,5.319,2.158,6.012c0.154,0.693-0.54,1.078-0.926,0.152
	c-0.387-0.924-2.002-5.856-2.002-5.856s-4.93-6.704-5.781-9.016c-1.387-0.925-5.935-12.562-5.935-14.948
	c-0.668-0.708-1.247-3.914-2.109-8.404c-0.709-3.729-2.409-6.451-2.206-7.012c-1.234-0.463-2.791-2.495-2.791-2.495
	S57.632,48.634,57.704,47.17z"/>
</svg>
