<?xml version="1.0" encoding="utf-8"?>
<!-- Generator: Adobe Illustrator 16.2.1, SVG Export Plug-In . SVG Version: 6.00 Build 0)  -->
<!DOCTYPE svg PUBLIC "-//W3C//DTD SVG 1.1//EN" "http://www.w3.org/Graphics/SVG/1.1/DTD/svg11.dtd">
<svg version="1.1"
	 id="Layer_1" xmlns:dc="http://purl.org/dc/elements/1.1/" xmlns:cc="http://creativecommons.org/ns#" xmlns:rdf="http://www.w3.org/1999/02/22-rdf-syntax-ns#" xmlns:svg="http://www.w3.org/2000/svg" xmlns:sodipodi="http://sodipodi.sourceforge.net/DTD/sodipodi-0.dtd" xmlns:inkscape="http://www.inkscape.org/namespaces/inkscape" inkscape:version="0.48.2 r9819" sodipodi:docname="noun_project_3.svg"
	 xmlns="http://www.w3.org/2000/svg" xmlns:xlink="http://www.w3.org/1999/xlink" x="0px" y="0px" width="100px" height="100px"
	 viewBox="0 0 100 100" enable-background="new 0 0 100 100" xml:space="preserve">
<path id="path19" d="M70.562,20.838l7.033-3.398c1.01-0.466,0.354-1.937-0.697-1.445l-5.965,2.655v-7.034
	c-0.021-1.127-1.695-1.076-1.675,0v8.43C69.262,20.694,69.946,21.151,70.562,20.838L70.562,20.838z M70.609,5.419
	c-7.641-0.014-13.822,6.168-13.834,13.791c0.014,7.626,6.195,13.805,13.834,13.787c7.611,0.018,13.789-6.161,13.789-13.787
	C84.398,11.587,78.221,5.405,70.609,5.419z M70.609,30.669c-6.345,0.004-11.478-5.131-11.459-11.458
	c-0.019-6.33,5.114-11.461,11.459-11.463c6.313,0.001,11.446,5.133,11.457,11.463C82.055,25.539,76.922,30.673,70.609,30.669z
	 M70.562,20.838l7.033-3.398c1.01-0.466,0.354-1.937-0.697-1.445l-5.965,2.655v-7.034c-0.021-1.127-1.695-1.076-1.675,0v8.43
	C69.262,20.694,69.946,21.151,70.562,20.838L70.562,20.838z M50.811,69.008c5.273,0,5.249,7.818,0.047,7.827H36.276
	c-7.119-0.009-14.203-5.346-16.071-13.604l-4.519-22.127c-0.943-5.015,6.289-6.687,7.36-1.536l4.332,21.148
	c1.19,5.41,5.192,8.293,10.017,8.293H50.811L50.811,69.008z M24.49,35.374c-1.69-10.857,13.983-14.157,16.491-3.027l4.286,21.288
	h15.93c4.653,0.015,7.069,3.736,7.082,7.176v28.932c-0.013,7.046-10.021,7.014-10.018-0.095c-0.004-6.618,0-22.549,0-22.549H37.907
	c-4.738,0.009-7.714-3.245-8.478-6.989L24.49,35.374L24.49,35.374z M31.665,23.915c5.224-0.017,9.451-4.245,9.455-9.457
	C41.115,9.24,36.888,5.013,31.665,5c-5.208,0.013-9.434,4.24-9.456,9.458C22.231,19.67,26.457,23.897,31.665,23.915L31.665,23.915z"
	/>
</svg>
