<?xml version="1.0" encoding="UTF-8" standalone="no"?>
<!-- Generator: Adobe Illustrator 15.0.2, SVG Export Plug-In . SVG Version: 6.00 Build 0)  -->

<svg
   xmlns:dc="http://purl.org/dc/elements/1.1/"
   xmlns:cc="http://creativecommons.org/ns#"
   xmlns:rdf="http://www.w3.org/1999/02/22-rdf-syntax-ns#"
   xmlns:svg="http://www.w3.org/2000/svg"
   xmlns="http://www.w3.org/2000/svg"
   xmlns:sodipodi="http://sodipodi.sourceforge.net/DTD/sodipodi-0.dtd"
   xmlns:inkscape="http://www.inkscape.org/namespaces/inkscape"
   version="1.1"
   id="Layer_1"
   x="0px"
   y="0px"
   width="100px"
   height="100px"
   viewBox="0 0 100 100"
   enable-background="new 0 0 100 100"
   xml:space="preserve"
   inkscape:version="0.48.2 r9819"
   sodipodi:docname="noun_project_3983.svg"><metadata
   id="metadata3271"><rdf:RDF><cc:Work
       rdf:about=""><dc:format>image/svg+xml</dc:format><dc:type
         rdf:resource="http://purl.org/dc/dcmitype/StillImage" /></cc:Work></rdf:RDF></metadata><defs
   id="defs3269" /><sodipodi:namedview
   pagecolor="#ffffff"
   bordercolor="#666666"
   borderopacity="1"
   objecttolerance="10"
   gridtolerance="10"
   guidetolerance="10"
   inkscape:pageopacity="0"
   inkscape:pageshadow="2"
   inkscape:window-width="640"
   inkscape:window-height="480"
   id="namedview3267"
   showgrid="false"
   inkscape:zoom="2.36"
   inkscape:cx="50"
   inkscape:cy="50"
   inkscape:window-x="0"
   inkscape:window-y="22"
   inkscape:window-maximized="0"
   inkscape:current-layer="Layer_1" />



<path
   id="ellipse3265"
   style=""
   d="m 97.499996,55.068001 c 0,6.706393 -5.711503,12.142999 -12.757,12.142999 -7.045496,0 -12.757,-5.436606 -12.757,-12.142999 0,-6.706394 5.711504,-12.143 12.757,-12.143 7.045497,0 12.757,5.436606 12.757,12.143 z M 97.5,5.776 93.854,2.252 83.432,13.034 73.009,2.252 69.361,5.776 79.904,16.684 69.361,27.591 73.009,31.116 83.432,20.333 93.854,31.116 97.5,27.591 86.957,16.684 z M 30.792,65.567 34.44,69.092 44.863,58.309 55.285,69.092 58.933,65.567 48.389,54.66 58.933,43.753 55.285,40.228 44.863,51.011 34.44,40.228 30.792,43.753 41.335,54.66 z M 68.13,10.601 H 62.204 V 31.117 H 27.939 V 10.601 H 22.012 V 31.117 H 2.5 v 5.925 H 22.012 V 71.307 H 2.5 v 5.928 H 22.012 V 97.75 h 5.927 V 77.233 H 62.204 V 97.748 H 68.13 V 77.233 H 89.648 V 71.305 H 68.13 V 37.041 H 89.648 V 31.116 H 73.009 68.13 V 10.601 l 0,0 z M 62.204,71.306 H 27.939 V 37.041 h 34.265 v 34.265 l 0,0 z" />
</svg>