<?xml version="1.0" encoding="utf-8"?>
<!-- Generator: Adobe Illustrator 16.2.1, SVG Export Plug-In . SVG Version: 6.00 Build 0)  -->
<!DOCTYPE svg PUBLIC "-//W3C//DTD SVG 1.1//EN" "http://www.w3.org/Graphics/SVG/1.1/DTD/svg11.dtd">
<svg version="1.1"
	 id="Layer_1" xmlns:dc="http://purl.org/dc/elements/1.1/" xmlns:cc="http://creativecommons.org/ns#" xmlns:rdf="http://www.w3.org/1999/02/22-rdf-syntax-ns#" xmlns:svg="http://www.w3.org/2000/svg" xmlns:sodipodi="http://sodipodi.sourceforge.net/DTD/sodipodi-0.dtd" xmlns:inkscape="http://www.inkscape.org/namespaces/inkscape" inkscape:version="0.48.2 r9819" sodipodi:docname="noun_project_67.svg"
	 xmlns="http://www.w3.org/2000/svg" xmlns:xlink="http://www.w3.org/1999/xlink" x="0px" y="0px" width="100px" height="100px"
	 viewBox="0 0 100 100" enable-background="new 0 0 100 100" xml:space="preserve">
<path id="path4092" d="M66.763,75.258c4.387-0.729,8.758-5.309,8.748-10.898V23.55c0.011-5.753-4.837-11.044-11.406-11.037H50.046
	H35.938c-6.606-0.007-11.455,5.284-11.449,11.037v40.81c-0.006,5.59,4.367,10.171,8.748,10.898L20.093,95h7.602l9.389-13.833H50
	h12.916L72.35,95h7.558L66.763,75.258z M42.58,16.729c0.002-1.023,0.873-1.865,1.877-1.88h5.542h5.545
	c1.004,0.015,1.879,0.857,1.879,1.88v3.203c0,1.02-0.824,1.883-1.879,1.879H50h-5.542c-1.051,0.004-1.875-0.859-1.877-1.879
	L42.58,16.729L42.58,16.729z M35.664,69.305c-2.753-0.021-4.998-2.264-4.991-5.038c-0.007-2.763,2.238-5.007,4.991-4.992
	c2.781-0.015,5.025,2.229,5.038,4.992C40.69,67.041,38.445,69.284,35.664,69.305z M36.306,42.788
	c-3.157-0.019-5.731-2.179-5.726-5.727v-7.327c0.022-3.056,1.997-5.72,5.726-5.727H50h13.693c3.733,0.006,5.71,2.67,5.728,5.727
	v7.327c0.01,3.548-2.566,5.708-5.728,5.727H50H36.306z M59.207,64.269c-0.008-2.764,2.233-5.005,4.99-4.992
	c2.782-0.015,5.026,2.229,5.041,4.992c-0.015,2.772-2.259,5.016-5.041,5.038C61.44,69.284,59.199,67.041,59.207,64.269z
	 M54.215,11.321c1.743-0.006,3.161-1.424,3.161-3.16c0-1.761-1.418-3.179-3.161-3.161c-1.755-0.019-3.171,1.4-3.162,3.161
	C51.044,9.897,52.46,11.315,54.215,11.321L54.215,11.321z M45.787,11.321c-1.739-0.006-3.157-1.424-3.16-3.16
	C42.63,6.4,44.048,4.981,45.787,5c1.757-0.019,3.174,1.4,3.16,3.161C48.961,9.897,47.543,11.315,45.787,11.321L45.787,11.321z"/>
</svg>
