<?xml version="1.0" encoding="UTF-8" standalone="no"?>
<!-- Generator: Adobe Illustrator 15.0.2, SVG Export Plug-In . SVG Version: 6.00 Build 0)  -->

<svg
   xmlns:dc="http://purl.org/dc/elements/1.1/"
   xmlns:cc="http://creativecommons.org/ns#"
   xmlns:rdf="http://www.w3.org/1999/02/22-rdf-syntax-ns#"
   xmlns:svg="http://www.w3.org/2000/svg"
   xmlns="http://www.w3.org/2000/svg"
   xmlns:sodipodi="http://sodipodi.sourceforge.net/DTD/sodipodi-0.dtd"
   xmlns:inkscape="http://www.inkscape.org/namespaces/inkscape"
   version="1.1"
   id="Layer_1"
   x="0px"
   y="0px"
   width="100px"
   height="100px"
   viewBox="0 0 100 100"
   enable-background="new 0 0 100 100"
   xml:space="preserve"
   inkscape:version="0.48.2 r9819"
   sodipodi:docname="noun_project_8481.svg"><metadata
   id="metadata3428"><rdf:RDF><cc:Work
       rdf:about=""><dc:format>image/svg+xml</dc:format><dc:type
         rdf:resource="http://purl.org/dc/dcmitype/StillImage" /></cc:Work></rdf:RDF></metadata><defs
   id="defs3426" /><sodipodi:namedview
   pagecolor="#ffffff"
   bordercolor="#666666"
   borderopacity="1"
   objecttolerance="10"
   gridtolerance="10"
   guidetolerance="10"
   inkscape:pageopacity="0"
   inkscape:pageshadow="2"
   inkscape:window-width="640"
   inkscape:window-height="480"
   id="namedview3424"
   showgrid="false"
   inkscape:zoom="2.36"
   inkscape:cx="50"
   inkscape:cy="50"
   inkscape:window-x="0"
   inkscape:window-y="22"
   inkscape:window-maximized="0"
   inkscape:current-layer="Layer_1" />





<path
   id="path3422"
   d="m 66.512,53.661 -5.11,-1.754 c -0.204,-0.068 -0.426,0.039 -0.495,0.242 -0.07,0.202 0.039,0.423 0.241,0.491 l 5.112,1.754 c 0.204,0.071 0.425,-0.038 0.493,-0.24 0.069,-0.203 -0.037,-0.424 -0.241,-0.493 z M 90.493,4.085 C 90.353,3.68 89.912,3.467 89.51,3.607 L 73.71,9.09 c -0.149,0.038 -0.293,0.122 -0.402,0.25 -0.277,0.324 -0.239,0.814 0.088,1.091 l 1.727,1.476 -19.505,22.839 0.002,0.002 c -0.281,0.326 -0.4,0.733 -0.369,1.128 0.03,0.392 0.212,0.775 0.54,1.054 l -0.002,0.003 0.485,0.413 -45.852,53.693 c -0.277,0.324 -0.239,0.816 0.087,1.093 l 0.007,0.008 c 0.327,0.276 0.815,0.238 1.093,-0.089 l 45.852,-53.69 3.318,2.833 c -1.417,2.518 -1.22,3.923 -1.025,5.324 0.172,1.248 0.346,2.489 -1.031,4.804 -0.163,0.276 -0.074,0.633 0.2,0.796 0.273,0.164 0.632,0.073 0.796,-0.2 1.586,-2.665 1.384,-4.11 1.181,-5.562 -0.162,-1.168 -0.323,-2.339 0.778,-4.393 l 1.209,1.033 0.003,-0.003 c 0.324,0.28 0.733,0.401 1.127,0.368 0.392,-0.031 0.775,-0.213 1.054,-0.541 l 0.003,0.002 19.505,-22.837 1.728,1.474 0.002,-0.002 c 0.1,0.086 0.226,0.148 0.365,0.172 0.42,0.075 0.823,-0.205 0.896,-0.625 l 2.954,-16.52 c 0.022,-0.13 0.013,-0.267 -0.031,-0.399 z m -14.191,8.83 1.646,1.407 -2.358,-0.572 0.712,-0.835 z m -12.406,28.9 -2.318,-1.98 3.321,0.806 -1.003,1.174 z m 3.342,-3.917 -10.168,-2.462 2.315,-2.712 10.169,2.464 -2.316,2.71 z m 4.658,-5.451 -10.17,-2.463 2.354,-2.758 10.168,2.465 -2.352,2.756 z m 4.693,-5.497 -10.168,-2.464 2.314,-2.713 10.171,2.464 -2.317,2.713 z m 4.657,-5.452 -10.168,-2.465 2.17,-2.542 10.108,2.45 0.043,0.035 -2.153,2.522 z m -20.841,31.73 c -0.097,-0.191 -0.326,-0.27 -0.519,-0.172 -0.188,0.095 -0.268,0.327 -0.171,0.518 l 3.213,6.401 c 0.094,0.191 0.327,0.269 0.519,0.172 0.19,-0.095 0.267,-0.326 0.17,-0.518 L 60.405,53.228 z M 57.276,51.46 c 0.193,0.093 0.429,0.016 0.521,-0.175 0.094,-0.192 0.017,-0.425 -0.174,-0.52 l -4.942,-2.439 c -0.192,-0.096 -0.427,-0.02 -0.521,0.173 -0.094,0.192 -0.018,0.426 0.174,0.519 l 4.942,2.442 z m 0.587,0.961 C 57.77,52.227 57.541,52.15 57.346,52.245 l -5.295,2.604 c -0.191,0.096 -0.269,0.325 -0.176,0.519 0.095,0.191 0.326,0.269 0.519,0.176 l 5.293,-2.604 c 0.193,-0.095 0.272,-0.329 0.176,-0.519 z m 0.95,0.656 c -0.204,-0.065 -0.419,0.048 -0.486,0.253 l -2.059,6.462 c -0.064,0.203 0.049,0.421 0.25,0.487 0.205,0.063 0.424,-0.05 0.487,-0.253 l 2.06,-6.464 c 0.063,-0.203 -0.049,-0.421 -0.252,-0.485 z" />
</svg>