<?xml version="1.0" encoding="utf-8"?>
<!-- Generator: Adobe Illustrator 16.2.1, SVG Export Plug-In . SVG Version: 6.00 Build 0)  -->
<!DOCTYPE svg PUBLIC "-//W3C//DTD SVG 1.1//EN" "http://www.w3.org/Graphics/SVG/1.1/DTD/svg11.dtd">
<svg version="1.1"
	 id="Layer_1" xmlns:dc="http://purl.org/dc/elements/1.1/" xmlns:cc="http://creativecommons.org/ns#" xmlns:rdf="http://www.w3.org/1999/02/22-rdf-syntax-ns#" xmlns:svg="http://www.w3.org/2000/svg" xmlns:sodipodi="http://sodipodi.sourceforge.net/DTD/sodipodi-0.dtd" xmlns:inkscape="http://www.inkscape.org/namespaces/inkscape" inkscape:version="0.48.2 r9819" sodipodi:docname="noun_project_16078.svg"
	 xmlns="http://www.w3.org/2000/svg" xmlns:xlink="http://www.w3.org/1999/xlink" x="0px" y="0px" width="100px" height="100px"
	 viewBox="0 0 100 100" enable-background="new 0 0 100 100" xml:space="preserve">
<path id="path8" d="M55.635,77.029c-0.621-0.251-1.193-0.514-1.683-0.794h-7.899c-0.492,0.28-1.063,0.543-1.684,0.794H55.635z
	 M68.113,78.134H32.046l-4.865,1.692h45.637L68.113,78.134z M94.368,20.174H5.63c-1.727,0-3.13,1.403-3.13,3.131V72
	c0,1.729,1.403,3.131,3.13,3.131h88.74c1.728,0,3.13-1.402,3.13-3.131V23.305C97.5,21.577,96.098,20.174,94.368,20.174z
	 M93.082,26.153v42.996v1.84H91.42H8.58H6.918v-1.838V26.153v-1.561H8.48H91.52h1.562V26.153z"/>
</svg>
