<?xml version="1.0" encoding="utf-8"?>
<!-- Generator: Adobe Illustrator 16.2.1, SVG Export Plug-In . SVG Version: 6.00 Build 0)  -->
<!DOCTYPE svg PUBLIC "-//W3C//DTD SVG 1.1//EN" "http://www.w3.org/Graphics/SVG/1.1/DTD/svg11.dtd">
<svg version="1.1" id="Layer_1" xmlns="http://www.w3.org/2000/svg" xmlns:xlink="http://www.w3.org/1999/xlink" x="0px" y="0px"
	 width="100px" height="100px" viewBox="0 0 100 100" enable-background="new 0 0 100 100" xml:space="preserve">
<path d="M53.812,3.45c-16.029,0-30.811,12.032-33.884,25.293c-0.695,2.947-1.456,10.645-1.456,10.645l-7.382,18.585
	c-0.142,0.335-0.214,0.711-0.214,1.105c0,1.568,1.286,2.849,2.858,2.849h4.736v9.875c0,7.698,6.237,13.934,13.927,13.934h5.534
	V96.55h37.692V66.565c8.219-6.466,13.499-16.511,13.499-27.782C89.125,19.268,73.311,3.45,53.812,3.45L53.812,3.45z M68.126,13.233
	c5.501,2.552,8.133,9.07,3.787,16.764c-3.091,5.474-8.558,9.596-18.103,16.988c-9.541-7.394-15.012-11.519-18.099-16.989
	c-4.345-7.693-1.716-14.212,3.785-16.764c3.665-1.695,8.098-1.021,11.236,1.327l-2.48,7.305l8.431,5.692l-2.521,8.665l6.887-9.305
	l-6.58-5.729l3.321-7.256C60.842,12.096,64.808,11.697,68.126,13.233L68.126,13.233z M24.832,53.477
	c0-3.429,5.278-14.089,5.278-14.089s5.278,10.66,5.278,14.089c0,3.43-2.364,6.209-5.278,6.209
	C27.194,59.686,24.832,56.906,24.832,53.477z"/>
</svg>
