<?xml version="1.0" encoding="utf-8"?>
<!-- Generator: Adobe Illustrator 16.2.1, SVG Export Plug-In . SVG Version: 6.00 Build 0)  -->
<!DOCTYPE svg PUBLIC "-//W3C//DTD SVG 1.1//EN" "http://www.w3.org/Graphics/SVG/1.1/DTD/svg11.dtd">
<svg version="1.1"
	 id="Layer_1" xmlns:dc="http://purl.org/dc/elements/1.1/" xmlns:cc="http://creativecommons.org/ns#" xmlns:rdf="http://www.w3.org/1999/02/22-rdf-syntax-ns#" xmlns:svg="http://www.w3.org/2000/svg" xmlns:sodipodi="http://sodipodi.sourceforge.net/DTD/sodipodi-0.dtd" xmlns:inkscape="http://www.inkscape.org/namespaces/inkscape" inkscape:version="0.48.2 r9819" sodipodi:docname="noun_project_6396.svg"
	 xmlns="http://www.w3.org/2000/svg" xmlns:xlink="http://www.w3.org/1999/xlink" x="0px" y="0px" width="100px" height="100px"
	 viewBox="0 0 100 100" enable-background="new 0 0 100 100" xml:space="preserve">
<path id="path10" d="M88.125,70.236c2.325-0.014,4.639-1.721,4.641-5.119V40.055c-0.006-2.019-0.809-3.985-2.805-5.135
	l-15.102-8.143c-3.579-1.843-8.572,1.537-8.617,5.237v12.031h-0.001l-5.712,6.319c-2.627,2.941,1.525,6.99,4.427,4.055l6.453-7.128
	c0.417-0.396,0.718-0.867,0.706-1.959v-5.747l11.291,6.084v19.382c-0.002,3.436,2.315,5.162,4.639,5.188H73.75l-6.902-3.453
	l-0.27-0.137c-0.133-0.045-0.268-0.082-0.415-0.082c-0.33,0-0.614,0.133-0.849,0.326l-0.256,0.297l-9.779,10.961h-2.188l3.234-7.916
	h-5.02c0-2.793,0-5.588,0-8.381c1.217-0.133,3.031-0.545,4.297-1.809c2.06-2.057,1.865-5.6,1.865-5.6s-3.539-0.195-5.602,1.867
	c-0.214,0.215-0.396,0.445-0.564,0.684c0-2.354,0-4.703,0-7.055c1.213-0.132,3.029-0.546,4.295-1.81
	c2.062-2.059,1.867-5.598,1.867-5.598s-3.541-0.195-5.602,1.866c-0.214,0.213-0.396,0.445-0.563,0.683c0-2.171,0-4.341,0-6.511
	c0-1.684-2.612-1.684-2.612,0c0,3.739,0,7.476,0,11.215c-0.256-0.509-0.581-1-1.008-1.427c-2.059-2.061-5.597-1.866-5.597-1.866
	s-0.195,3.538,1.866,5.598c1.428,1.428,3.562,1.771,4.74,1.848c0,3.014,0,6.029,0,9.043c-0.256-0.51-0.581-1.004-1.008-1.428
	c-2.059-2.059-5.597-1.865-5.597-1.865s-0.195,3.537,1.866,5.596c1.428,1.43,3.562,1.773,4.74,1.852c0,1.033,0,2.068,0,3.104h-5.015
	l3.234,7.916h-2.186l-9.79-10.963l-0.251-0.299c-0.231-0.195-0.518-0.328-0.844-0.328c-0.147,0-0.282,0.039-0.415,0.088
	l-0.269,0.135l-6.903,3.445H12.424c2.333-0.018,4.659-1.744,4.658-5.189V45.667l11.287-6.084v5.747
	c-0.006,1.092,0.294,1.563,0.71,1.96l6.454,7.128c2.898,2.938,7.052-1.113,4.427-4.056l-5.713-6.319V32.015
	c-0.04-3.7-5.041-7.08-8.615-5.237l-15.105,8.144c-1.999,1.149-2.798,3.116-2.806,5.135v25.061c0.004,3.408,2.331,5.117,4.662,5.119
	H2.5v10.557H50h47.5V70.236H88.125z M60.357,31.845c3.496,0,6.321-2.826,6.32-6.317c0.001-3.481-2.826-6.307-6.32-6.32
	c-3.477,0.013-6.305,2.839-6.318,6.32C54.055,29.02,56.881,31.845,60.357,31.845z M40.128,31.845c3.479,0,6.306-2.826,6.322-6.317
	c-0.016-3.481-2.843-6.307-6.322-6.32c-3.494,0.013-6.32,2.839-6.317,6.32C33.809,29.02,36.635,31.845,40.128,31.845z"/>
</svg>
