<?xml version="1.0" encoding="utf-8"?>
<!-- Generator: Adobe Illustrator 16.2.1, SVG Export Plug-In . SVG Version: 6.00 Build 0)  -->
<!DOCTYPE svg PUBLIC "-//W3C//DTD SVG 1.1//EN" "http://www.w3.org/Graphics/SVG/1.1/DTD/svg11.dtd">
<svg version="1.1"
	 id="svg2" xmlns:dc="http://purl.org/dc/elements/1.1/" xmlns:cc="http://creativecommons.org/ns#" xmlns:rdf="http://www.w3.org/1999/02/22-rdf-syntax-ns#" xmlns:svg="http://www.w3.org/2000/svg" xmlns:sodipodi="http://sodipodi.sourceforge.net/DTD/sodipodi-0.dtd" xmlns:inkscape="http://www.inkscape.org/namespaces/inkscape" sodipodi:docname="noun_project_11476.svg" inkscape:version="0.48.2 r9819"
	 xmlns="http://www.w3.org/2000/svg" xmlns:xlink="http://www.w3.org/1999/xlink" x="0px" y="0px" width="100px" height="100px"
	 viewBox="0 0 100 100" enable-background="new 0 0 100 100" xml:space="preserve">
<path id="_x31_2" d="M27.372,39.985l1.675-1.396l1.592,1.396l-1.473,1.948L27.372,39.985z M26.06,47.624l1.271-0.273l-1.788,2.506
	l-2.073,0.428l-0.125,0.653l-2.417,2.067l-1.158-0.244l0.012-1.627l3.147-0.695L26.06,47.624L26.06,47.624z M40.07,72.191
	l1.354-0.915l1.539,1.2l0.172,1.674l0.624,1.23l-0.458,0.629l0.176,1.707l-1.357,0.515l-1.342-0.457l-0.79-1.497l0.214-1.241
	l-0.725-1.212L40.07,72.191z M48.034,2.5l9.567,2.364L72.42,2.5l-0.445,5.583l-2.584,3.017l-6.36,10.044l-5.065,6.848l10.606-3.249
	l17.739,0.867l1.907,4.895l-6.925,15.247l-6.801,11.268l3.143,2.305L66,65.545l5.672,1.413l3.456-3.112l10.507,5.322l-4.289,5.714
	l1.776,3.884L70.009,90.242l-6.366-0.719l-0.078,2.459l-6.123,2.862l-4.918-3.159l0.131,5.506l-6.063-5.316l-1.823,1.235l0.552,4.39
	l-3.848-5.969l0.635-3.647l1.622,2.868l0.956-0.219l-1.408-2.709l5.399-9.123l1.277-2.946l-3.67-3.605L47.25,65.9l-0.314-1.645
	l-1.627,3.438l-0.796,3.451l-3.201-1.401l-2.524,1.295l-1.146,9.836l-4.116,0.564l3.13-11.334l-1.134-3.646l2.382-3.938
	c-0.184-1.094-0.368,1.128-0.552-3.404l-3.683,8.108l-2.536,1.817l0.641,2.619l-4.798,2.459l0.974-4.811l-3.183,2.215l0.796-3.997
	l5.006-1.426l5.844-6.866l6.539-11.666l-5.559,4.705l-0.351,3.427l-8,2.382l-2.233-1.443l3.296-1.164l-2.079-4.336l3.433-2.727
	l-1.907-1.609l4.585-0.76l3.979-10.341l-5.44,4.009l2.007-3.267l-3.961,0.439l-6.681-7.68l2.019-3.771l2.228,2.376l2.108-4.657
	l1.906,2.572l-0.297,5.084l2.56,3.968l2.441-0.754l-1.307-3.077l0.956-10.406l5.161-1.776L48.034,2.5z M20.708,24.031l-1.354-2.073
	l-1.521,1.515l-2.53,0.024l-0.736,1.253l2.031,1.919l-1.372,7.086l0.291,2.839l-1.823,2.661l-1.913,4.698l5.737-6.854L20.708,24.031
	L20.708,24.031z M21.742,10.489L32.575,4.27l0.559,4.146l-2.512,3.243l-0.778,4.918l-7.703,5.946l-1.669-2.091l2.637-2.602
	l-2.322-1.527L21.742,10.489z"/>
</svg>
