<?xml version="1.0" encoding="utf-8"?>
<!-- Generator: Adobe Illustrator 16.2.1, SVG Export Plug-In . SVG Version: 6.00 Build 0)  -->
<!DOCTYPE svg PUBLIC "-//W3C//DTD SVG 1.1//EN" "http://www.w3.org/Graphics/SVG/1.1/DTD/svg11.dtd">
<svg version="1.1"
	 id="Layer_1" xmlns:dc="http://purl.org/dc/elements/1.1/" xmlns:cc="http://creativecommons.org/ns#" xmlns:rdf="http://www.w3.org/1999/02/22-rdf-syntax-ns#" xmlns:svg="http://www.w3.org/2000/svg" xmlns:sodipodi="http://sodipodi.sourceforge.net/DTD/sodipodi-0.dtd" xmlns:inkscape="http://www.inkscape.org/namespaces/inkscape" inkscape:version="0.48.2 r9819" sodipodi:docname="noun_project_2.svg"
	 xmlns="http://www.w3.org/2000/svg" xmlns:xlink="http://www.w3.org/1999/xlink" x="0px" y="0px" width="100px" height="100px"
	 viewBox="0 0 100 100" enable-background="new 0 0 100 100" xml:space="preserve">
<sodipodi:namedview  guidetolerance="10" showgrid="false" inkscape:cy="50" id="namedview7" pagecolor="#ffffff" inkscape:zoom="2.36" inkscape:cx="18.6035" objecttolerance="10" gridtolerance="10" bordercolor="#666666" borderopacity="1" inkscape:window-maximized="0" inkscape:window-width="1241" inkscape:pageopacity="0" inkscape:window-y="22" inkscape:current-layer="Layer_1" inkscape:pageshadow="2" inkscape:window-x="7" inkscape:window-height="1054">
	</sodipodi:namedview>
<path id="path5" d="M40.375,93.154c0,2.398,1.947,4.346,4.345,4.346c2.403,0,4.348-1.947,4.348-4.346l0.003-36.455h1.937
	l-0.014,36.455c0,2.398,1.947,4.346,4.346,4.346c2.396,0,4.342-1.947,4.342-4.346l0.02-62.85h1.908v23.162
	c0,4.656,6.076,4.656,6.064,0V29.811c0-5.147-3.025-10.191-9.047-10.191l-17.374-0.007c-5.488,0-8.926,4.474-8.926,10.058v23.797
	c0,4.625,6.111,4.625,6.111,0V30.306h1.946L40.375,93.154z M57.289,10.251c0,4.28-3.469,7.75-7.75,7.75s-7.751-3.47-7.751-7.75
	C41.787,5.97,45.257,2.5,49.539,2.5C53.82,2.5,57.289,5.97,57.289,10.251z"/>
</svg>
