<?xml version="1.0" encoding="utf-8"?>
<!-- Generator: Adobe Illustrator 16.2.1, SVG Export Plug-In . SVG Version: 6.00 Build 0)  -->
<!DOCTYPE svg PUBLIC "-//W3C//DTD SVG 1.1//EN" "http://www.w3.org/Graphics/SVG/1.1/DTD/svg11.dtd">
<svg version="1.1"
	 id="svg3287" xmlns:dc="http://purl.org/dc/elements/1.1/" xmlns:cc="http://creativecommons.org/ns#" xmlns:rdf="http://www.w3.org/1999/02/22-rdf-syntax-ns#" xmlns:svg="http://www.w3.org/2000/svg" xmlns:sodipodi="http://sodipodi.sourceforge.net/DTD/sodipodi-0.dtd" xmlns:inkscape="http://www.inkscape.org/namespaces/inkscape" inkscape:version="0.48.2 r9819" sodipodi:docname="noun_project_6215.svg"
	 xmlns="http://www.w3.org/2000/svg" xmlns:xlink="http://www.w3.org/1999/xlink" x="0px" y="0px" width="100px" height="100px"
	 viewBox="0 0 100 100" enable-background="new 0 0 100 100" xml:space="preserve">
<sodipodi:namedview  guidetolerance="10" showgrid="false" inkscape:cy="50" id="namedview3301" pagecolor="#ffffff" inkscape:zoom="2.36" inkscape:cx="50" objecttolerance="10" gridtolerance="10" bordercolor="#666666" borderopacity="1" inkscape:window-maximized="0" inkscape:window-width="640" inkscape:pageopacity="0" inkscape:window-y="22" inkscape:current-layer="svg3287" inkscape:pageshadow="2" inkscape:window-x="0" inkscape:window-height="480">
	</sodipodi:namedview>
<path id="circle3299" d="M85.047,23.545c0,2.99-2.425,5.414-5.414,5.414c-2.99,0-5.414-2.424-5.414-5.414
	c0-2.99,2.424-5.414,5.414-5.414C82.622,18.131,85.047,20.555,85.047,23.545z M87.088,36.312l9.417-11.275
	c1.228-1.471,1.03-3.665-0.443-4.893c-1.474-1.229-3.658-1.032-4.89,0.439c0,0-7.254,8.614-7.275,8.604
	c-1.209,1.068-2.789,1.721-4.524,1.721c-1.624,0-3.114-0.567-4.281-1.511c-0.019,0.007-0.009,0.003-0.005,0l-7.48-8.813
	c-0.732-0.876-1.809-1.297-2.868-1.236c-1.06-0.061-2.13,0.359-2.866,1.236c0,0-7.256,8.615-7.271,8.604
	c-1.211,1.068-2.793,1.721-4.525,1.721c-1.624,0-3.115-0.567-4.282-1.511h-0.004l-7.481-8.813c-0.741-0.883-1.824-1.303-2.892-1.235
	c-1.072-0.068-2.161,0.352-2.893,1.235c0,0-7.258,8.615-7.275,8.604c-1.209,1.068-2.792,1.72-4.53,1.72
	c-1.625,0-3.11-0.567-4.282-1.511l-7.484-8.813c-1.228-1.471-3.417-1.668-4.889-0.438c-1.475,1.227-1.667,3.422-0.44,4.893
	l9.908,11.858v11.576c0,0.32,0.025,0.628,0.068,0.938l-1.516,29.227c-0.139,1.951,1.335,3.646,3.285,3.779
	c1.952,0.135,3.643-1.33,3.776-3.286l1.206-23.239c0.213,0.016,0.418,0.033,0.632,0.033c0.259,0,0.515-0.014,0.767-0.041
	l1.595,23.247c0.13,1.956,1.825,3.421,3.779,3.286c1.947-0.135,3.425-1.828,3.287-3.779l-2.018-29.393
	c0.024-0.254,0.042-0.514,0.042-0.772V36.312l6.982-8.359l7.468,8.946v2.464L39.553,61.69h2.757l-0.878,16.948
	c-0.134,1.951,1.334,3.646,3.285,3.779c1.955,0.135,3.65-1.33,3.784-3.286l0.905-17.441h2.088l1.193,17.441
	c0.142,1.956,1.832,3.421,3.783,3.286s3.424-1.828,3.29-3.779L58.597,61.69h2.722l-3.531-23.675v-1.704l6.952-8.326l7.446,8.913
	v11.576c0,0.32,0.02,0.628,0.062,0.938l-1.516,29.226c-0.134,1.953,1.334,3.646,3.284,3.781c1.952,0.133,3.647-1.332,3.785-3.287
	l1.202-23.239c0.205,0.017,0.414,0.034,0.627,0.034c0.258,0,0.516-0.015,0.768-0.043l1.59,23.248
	c0.139,1.955,1.832,3.42,3.785,3.287c1.947-0.136,3.42-1.83,3.285-3.781L87.04,49.247c0.03-0.254,0.046-0.514,0.046-0.772V36.312
	H87.088z M85.047,23.545c0,2.99-2.425,5.414-5.414,5.414c-2.99,0-5.414-2.424-5.414-5.414c0-2.99,2.424-5.414,5.414-5.414
	C82.622,18.131,85.047,20.555,85.047,23.545z M50.335,28.959c2.99,0,5.413-2.423,5.413-5.412c0-2.992-2.423-5.417-5.413-5.417
	c-2.993,0-5.417,2.424-5.417,5.417C44.918,26.536,47.342,28.959,50.335,28.959z M85.047,23.545c0,2.99-2.425,5.414-5.414,5.414
	c-2.99,0-5.414-2.424-5.414-5.414c0-2.99,2.424-5.414,5.414-5.414C82.622,18.131,85.047,20.555,85.047,23.545z M20.983,28.959
	c2.994,0,5.413-2.423,5.413-5.412c0-2.992-2.419-5.417-5.413-5.417c-2.992,0-5.411,2.424-5.411,5.417
	C15.572,26.536,17.991,28.959,20.983,28.959z"/>
</svg>
