<?xml version="1.0" encoding="utf-8"?>
<!-- Generator: Adobe Illustrator 16.2.1, SVG Export Plug-In . SVG Version: 6.00 Build 0)  -->
<!DOCTYPE svg PUBLIC "-//W3C//DTD SVG 1.1//EN" "http://www.w3.org/Graphics/SVG/1.1/DTD/svg11.dtd">
<svg version="1.1"
	 id="Your_Icon" sodipodi:docname="noun_project_10990.svg" inkscape:version="0.48.2 r9819" xmlns:cc="http://creativecommons.org/ns#" xmlns:inkscape="http://www.inkscape.org/namespaces/inkscape" xmlns:svg="http://www.w3.org/2000/svg" xmlns:sodipodi="http://sodipodi.sourceforge.net/DTD/sodipodi-0.dtd" xmlns:rdf="http://www.w3.org/1999/02/22-rdf-syntax-ns#" xmlns:dc="http://purl.org/dc/elements/1.1/"
	 xmlns="http://www.w3.org/2000/svg" xmlns:xlink="http://www.w3.org/1999/xlink" x="0px" y="0px" width="100px" height="100px"
	 viewBox="0 0 100 100" enable-background="new 0 0 100 100" xml:space="preserve">
<path id="path3552" d="M10.357,51.062c1.97,0,3.827-1.179,5.094-3.235c1.254-2.03,3.012-2.03,4.264,0
	c1.266,2.057,3.124,3.235,5.094,3.235c1.97,0,3.826-1.179,5.096-3.235c1.248-2.03,3.008-2.03,4.26,0
	c1.27,2.057,3.125,3.235,5.095,3.235c1.97,0,3.827-1.179,5.098-3.235c1.247-2.026,3.007-2.03,4.259,0
	c1.271,2.057,3.127,3.235,5.093,3.235c0,0,0,0,0.004,0c1.966,0,3.826-1.179,5.095-3.235c1.248-2.026,3.012-2.03,4.266,0
	c1.264,2.054,3.119,3.235,5.093,3.235l0,0c1.968,0,3.825-1.179,5.093-3.235c1.244-2.026,3.01-2.03,4.262,0
	c1.269,2.057,3.129,3.235,5.094,3.235c0.004,0,0.004,0,0.004,0c1.961,0,3.826-1.182,5.094-3.235c1.248-2.03,3.014-2.026,4.262,0
	l2.965-1.765c-1.271-2.055-3.129-3.237-5.098-3.237s-3.828,1.182-5.097,3.24c-0.624,1.014-1.401,1.591-2.126,1.591
	c-0.004,0-0.004,0-0.004,0c-0.729,0-1.506-0.58-2.129-1.594c-1.269-2.055-3.129-3.237-5.094-3.237c-1.972,0-3.828,1.182-5.097,3.237
	c-0.628,1.017-1.405,1.594-2.129,1.594l0,0c-0.728,0-1.509-0.577-2.129-1.594c-1.271-2.055-3.129-3.237-5.097-3.237
	c-1.969,0-3.83,1.182-5.098,3.237c-1.248,2.029-3.007,2.029-4.262,0c-1.27-2.058-3.127-3.237-5.096-3.237
	c-1.969,0-3.828,1.182-5.093,3.237c-1.253,2.029-3.012,2.026-4.265,0c-1.267-2.058-3.125-3.237-5.096-3.237
	c-1.968,0-3.824,1.182-5.094,3.237c-1.25,2.029-3.01,2.029-4.258,0c-1.271-2.055-3.127-3.237-5.097-3.237s-3.826,1.182-5.095,3.237
	c-1.252,2.026-3.012,2.029-4.264,0l-2.963,1.765C6.529,49.885,8.389,51.062,10.357,51.062z M7.594,54.582
	c-1.232,0-2.242,0.842-2.242,1.873c0,1.029,1.01,1.879,2.242,1.879H50.1c3.578,0,8.429,3.205,10.785,7.123l1.692,2.811
	c0.881,1.472,1.972,2.39,3.116,2.758c0.384,0.121,0.773,0.185,1.16,0.185c1.164,0,2.328-0.553,3.332-1.653
	c0.336-0.369,0.65-0.798,0.949-1.287l1.688-2.812c2.352-3.918,8.063-7.123,12.702-7.123h7.076c1.235,0,2.239-0.851,2.239-1.879
	c0-1.031-1.004-1.873-2.239-1.873L7.594,54.582L7.594,54.582z M59.494,70.057l-1.688-2.812c-1.793-2.975-5.479-5.283-7.572-5.375
	h-40.13c-2.712,0-4.909,2.16-4.909,4.82c0,2.662,2.197,4.821,4.909,4.821h50.443C60.172,71.066,59.812,70.588,59.494,70.057z
	 M90.094,61.869h-4.763c-3.324,0.092-7.763,2.604-9.429,5.375l-1.686,2.809c-0.316,0.535-0.678,1.01-1.053,1.459h16.929
	c2.708,0,4.906-2.16,4.906-4.822C95,64.029,92.802,61.869,90.094,61.869z M17.463,39.31c7.135,0,21,0,32.637,0
	c11.63,0,25.501,0,32.63,0c6.082,0,6.295-2.392,6.295-4.787c0-5.224-3.729-22.411-38.925-22.411
	c-35.205,0-38.93,17.187-38.93,22.411C11.17,36.918,11.385,39.31,17.463,39.31z M82.73,75.029c-7.131,0-20.996,0-32.631,0
	c-11.634,0-25.502,0-32.637,0c-6.08,0-6.293,2.395-6.293,4.791c0,5.223,3.727,8.565,38.93,8.565c35.2,0,38.926-3.344,38.926-8.565
	C89.025,77.424,88.812,75.029,82.73,75.029z"/>
</svg>
