<?xml version="1.0" encoding="UTF-8" standalone="no"?>
<svg
   xmlns:dc="http://purl.org/dc/elements/1.1/"
   xmlns:cc="http://creativecommons.org/ns#"
   xmlns:rdf="http://www.w3.org/1999/02/22-rdf-syntax-ns#"
   xmlns:svg="http://www.w3.org/2000/svg"
   xmlns="http://www.w3.org/2000/svg"
   xmlns:sodipodi="http://sodipodi.sourceforge.net/DTD/sodipodi-0.dtd"
   xmlns:inkscape="http://www.inkscape.org/namespaces/inkscape"
   version="1.1"
   id="Layer_1"
   x="0px"
   y="0px"
   width="100px"
   height="100px"
   viewBox="0 0 100 100"
   enable-background="new 0 0 100 100"
   xml:space="preserve"
   inkscape:version="0.48.2 r9819"
   sodipodi:docname="noun_project_15804.svg"><metadata
   id="metadata4085"><rdf:RDF><cc:Work
       rdf:about=""><dc:format>image/svg+xml</dc:format><dc:type
         rdf:resource="http://purl.org/dc/dcmitype/StillImage" /></cc:Work></rdf:RDF></metadata><defs
   id="defs4083" /><sodipodi:namedview
   pagecolor="#ffffff"
   bordercolor="#666666"
   borderopacity="1"
   objecttolerance="10"
   gridtolerance="10"
   guidetolerance="10"
   inkscape:pageopacity="0"
   inkscape:pageshadow="2"
   inkscape:window-width="640"
   inkscape:window-height="480"
   id="namedview4081"
   showgrid="false"
   inkscape:zoom="2.36"
   inkscape:cx="50"
   inkscape:cy="50"
   inkscape:window-x="0"
   inkscape:window-y="22"
   inkscape:window-maximized="0"
   inkscape:current-layer="Layer_1" />
<g
   id="Captions">
</g>
<g
   id="g4049">
	
</g>
<g
   id="g4053">
	
</g>
<g
   id="g4057">
	
</g>
<g
   id="g4061">
	
</g>
<g
   id="g4065">
	
</g>
<g
   id="g4069">
	
</g>
<g
   id="g4073">
	
</g>
<g
   id="g4077">
	<path
   id="path4079"
   d="m 76.645,86.729 c -4.651,0 -7.242,-1.521 -9.134,-2.633 -1.479,-0.868 -2.373,-1.393 -4.576,-1.393 -2.201,0 -3.093,0.524 -4.571,1.393 -1.891,1.111 -4.48,2.633 -9.129,2.633 -4.65,0 -7.24,-1.521 -9.132,-2.633 -1.479,-0.868 -2.371,-1.393 -4.573,-1.393 -2.201,0 -3.093,0.524 -4.57,1.393 -1.891,1.111 -4.48,2.633 -9.13,2.633 -4.648,0 -7.238,-1.521 -9.128,-2.633 -1.477,-0.868 -2.369,-1.393 -4.568,-1.393 v -9 c 4.649,0 7.238,1.522 9.129,2.633 1.477,0.868 2.369,1.393 4.568,1.393 2.201,0 3.093,-0.524 4.57,-1.393 1.891,-1.111 4.48,-2.633 9.13,-2.633 4.65,0 7.241,1.521 9.132,2.633 1.479,0.868 2.371,1.393 4.573,1.393 2.201,0 3.092,-0.524 4.57,-1.393 1.892,-1.111 4.481,-2.633 9.131,-2.633 4.65,0 7.241,1.521 9.133,2.632 1.479,0.869 2.373,1.394 4.577,1.394 2.204,0 3.098,-0.524 4.577,-1.394 1.892,-1.11 4.482,-2.632 9.133,-2.632 v 9 c -2.203,0 -3.097,0.524 -4.576,1.393 -1.894,1.112 -4.485,2.633 -9.136,2.633 z m 0,0 c -4.651,0 -7.242,-1.521 -9.134,-2.633 -1.479,-0.868 -2.373,-1.393 -4.576,-1.393 -2.201,0 -3.093,0.524 -4.571,1.393 -1.891,1.111 -4.48,2.633 -9.129,2.633 -4.65,0 -7.24,-1.521 -9.132,-2.633 -1.479,-0.868 -2.371,-1.393 -4.573,-1.393 -2.201,0 -3.093,0.524 -4.57,1.393 -1.891,1.111 -4.48,2.633 -9.13,2.633 -4.648,0 -7.238,-1.521 -9.128,-2.633 -1.477,-0.868 -2.369,-1.393 -4.568,-1.393 v -9 c 4.649,0 7.238,1.522 9.129,2.633 1.477,0.868 2.369,1.393 4.568,1.393 2.201,0 3.093,-0.524 4.57,-1.393 1.891,-1.111 4.48,-2.633 9.13,-2.633 4.65,0 7.241,1.521 9.132,2.633 1.479,0.868 2.371,1.393 4.573,1.393 2.201,0 3.092,-0.524 4.57,-1.393 1.892,-1.111 4.481,-2.633 9.131,-2.633 4.65,0 7.241,1.521 9.133,2.632 1.479,0.869 2.373,1.394 4.577,1.394 2.204,0 3.098,-0.524 4.577,-1.394 1.892,-1.11 4.482,-2.632 9.133,-2.632 v 9 c -2.203,0 -3.097,0.524 -4.576,1.393 -1.894,1.112 -4.485,2.633 -9.136,2.633 z m 0,-17.758 c -4.651,0 -7.242,-1.521 -9.134,-2.633 -1.479,-0.868 -2.373,-1.393 -4.576,-1.393 -2.201,0 -3.093,0.524 -4.571,1.393 -1.891,1.111 -4.48,2.633 -9.129,2.633 -4.65,0 -7.24,-1.521 -9.132,-2.633 -1.479,-0.868 -2.371,-1.393 -4.573,-1.393 -2.201,0 -3.093,0.524 -4.57,1.393 -1.891,1.111 -4.48,2.633 -9.13,2.633 -4.648,0 -7.238,-1.521 -9.128,-2.633 -1.477,-0.868 -2.369,-1.393 -4.568,-1.393 v -9 c 4.649,0 7.238,1.522 9.129,2.633 1.477,0.868 2.369,1.393 4.568,1.393 2.201,0 3.093,-0.524 4.57,-1.393 1.891,-1.111 4.48,-2.633 9.13,-2.633 4.65,0 7.241,1.521 9.132,2.633 1.479,0.868 2.371,1.393 4.573,1.393 2.201,0 3.092,-0.524 4.57,-1.393 1.892,-1.111 4.481,-2.633 9.131,-2.633 4.65,0 7.241,1.521 9.133,2.632 1.479,0.869 2.373,1.394 4.577,1.394 2.204,0 3.098,-0.524 4.577,-1.394 1.892,-1.11 4.482,-2.632 9.133,-2.632 v 9 c -2.203,0 -3.097,0.524 -4.576,1.393 -1.894,1.111 -4.485,2.633 -9.136,2.633 z m 0,0 c -4.651,0 -7.242,-1.521 -9.134,-2.633 -1.479,-0.868 -2.373,-1.393 -4.576,-1.393 -2.201,0 -3.093,0.524 -4.571,1.393 -1.891,1.111 -4.48,2.633 -9.129,2.633 -4.65,0 -7.24,-1.521 -9.132,-2.633 -1.479,-0.868 -2.371,-1.393 -4.573,-1.393 -2.201,0 -3.093,0.524 -4.57,1.393 -1.891,1.111 -4.48,2.633 -9.13,2.633 -4.648,0 -7.238,-1.521 -9.128,-2.633 -1.477,-0.868 -2.369,-1.393 -4.568,-1.393 v -9 c 4.649,0 7.238,1.522 9.129,2.633 1.477,0.868 2.369,1.393 4.568,1.393 2.201,0 3.093,-0.524 4.57,-1.393 1.891,-1.111 4.48,-2.633 9.13,-2.633 4.65,0 7.241,1.521 9.132,2.633 1.479,0.868 2.371,1.393 4.573,1.393 2.201,0 3.092,-0.524 4.57,-1.393 1.892,-1.111 4.481,-2.633 9.131,-2.633 4.65,0 7.241,1.521 9.133,2.632 1.479,0.869 2.373,1.394 4.577,1.394 2.204,0 3.098,-0.524 4.577,-1.394 1.892,-1.11 4.482,-2.632 9.133,-2.632 v 9 c -2.203,0 -3.097,0.524 -4.576,1.393 -1.894,1.111 -4.485,2.633 -9.136,2.633 z m 0,-17.759 c -4.651,0 -7.242,-1.521 -9.134,-2.632 -1.479,-0.869 -2.373,-1.393 -4.576,-1.393 -2.201,0 -3.093,0.524 -4.571,1.393 -1.891,1.111 -4.48,2.633 -9.129,2.633 -4.65,0 -7.24,-1.521 -9.132,-2.633 -1.479,-0.868 -2.371,-1.393 -4.573,-1.393 -2.201,0 -3.093,0.524 -4.57,1.393 -1.891,1.111 -4.48,2.633 -9.13,2.633 -4.648,0 -7.238,-1.522 -9.128,-2.633 -1.477,-0.868 -2.369,-1.392 -4.568,-1.392 v -9 c 4.649,0 7.238,1.522 9.129,2.633 1.477,0.868 2.369,1.392 4.568,1.392 2.201,0 3.093,-0.524 4.57,-1.393 1.891,-1.111 4.48,-2.633 9.13,-2.633 4.65,0 7.241,1.521 9.132,2.633 1.479,0.868 2.371,1.393 4.573,1.393 2.201,0 3.092,-0.524 4.57,-1.393 1.892,-1.111 4.481,-2.633 9.131,-2.633 4.65,0 7.241,1.521 9.133,2.632 1.479,0.869 2.373,1.393 4.577,1.393 2.204,0 3.098,-0.524 4.577,-1.393 1.892,-1.111 4.482,-2.632 9.133,-2.632 v 9 c -2.203,0 -3.097,0.524 -4.576,1.393 -1.894,1.11 -4.485,2.632 -9.136,2.632 z m 0,0 c -4.651,0 -7.242,-1.521 -9.134,-2.632 -1.479,-0.869 -2.373,-1.393 -4.576,-1.393 -2.201,0 -3.093,0.524 -4.571,1.393 -1.891,1.111 -4.48,2.633 -9.129,2.633 -4.65,0 -7.24,-1.521 -9.132,-2.633 -1.479,-0.868 -2.371,-1.393 -4.573,-1.393 -2.201,0 -3.093,0.524 -4.57,1.393 -1.891,1.111 -4.48,2.633 -9.13,2.633 -4.648,0 -7.238,-1.522 -9.128,-2.633 -1.477,-0.868 -2.369,-1.392 -4.568,-1.392 v -9 c 4.649,0 7.238,1.522 9.129,2.633 1.477,0.868 2.369,1.392 4.568,1.392 2.201,0 3.093,-0.524 4.57,-1.393 1.891,-1.111 4.48,-2.633 9.13,-2.633 4.65,0 7.241,1.521 9.132,2.633 1.479,0.868 2.371,1.393 4.573,1.393 2.201,0 3.092,-0.524 4.57,-1.393 1.892,-1.111 4.481,-2.633 9.131,-2.633 4.65,0 7.241,1.521 9.133,2.632 1.479,0.869 2.373,1.393 4.577,1.393 2.204,0 3.098,-0.524 4.577,-1.393 1.892,-1.111 4.482,-2.632 9.133,-2.632 v 9 c -2.203,0 -3.097,0.524 -4.576,1.393 -1.894,1.11 -4.485,2.632 -9.136,2.632 z m 0,-17.759 c -4.651,0 -7.242,-1.521 -9.134,-2.632 -1.479,-0.869 -2.373,-1.393 -4.576,-1.393 -2.201,0 -3.093,0.524 -4.571,1.393 -1.891,1.111 -4.48,2.633 -9.129,2.633 -4.65,0 -7.24,-1.521 -9.132,-2.633 -1.479,-0.868 -2.371,-1.393 -4.573,-1.393 -2.201,0 -3.093,0.524 -4.57,1.393 -1.891,1.111 -4.48,2.633 -9.13,2.633 -4.648,0 -7.238,-1.522 -9.128,-2.633 -1.477,-0.868 -2.369,-1.392 -4.568,-1.392 v -9 c 4.649,0 7.238,1.522 9.129,2.633 1.477,0.868 2.369,1.392 4.568,1.392 2.201,0 3.093,-0.524 4.57,-1.393 1.891,-1.111 4.48,-2.633 9.13,-2.633 4.65,0 7.241,1.521 9.132,2.633 1.479,0.868 2.371,1.393 4.573,1.393 2.201,0 3.092,-0.524 4.57,-1.393 1.892,-1.111 4.481,-2.633 9.131,-2.633 4.65,0 7.241,1.521 9.133,2.632 1.479,0.869 2.373,1.393 4.577,1.393 2.204,0 3.098,-0.524 4.577,-1.393 1.892,-1.111 4.482,-2.632 9.133,-2.632 v 9 c -2.203,0 -3.097,0.524 -4.576,1.393 -1.894,1.111 -4.485,2.632 -9.136,2.632 z m 0,0 c -4.651,0 -7.242,-1.521 -9.134,-2.632 -1.479,-0.869 -2.373,-1.393 -4.576,-1.393 -2.201,0 -3.093,0.524 -4.571,1.393 -1.891,1.111 -4.48,2.633 -9.129,2.633 -4.65,0 -7.24,-1.521 -9.132,-2.633 -1.479,-0.868 -2.371,-1.393 -4.573,-1.393 -2.201,0 -3.093,0.524 -4.57,1.393 -1.891,1.111 -4.48,2.633 -9.13,2.633 -4.648,0 -7.238,-1.522 -9.128,-2.633 -1.477,-0.868 -2.369,-1.392 -4.568,-1.392 v -9 c 4.649,0 7.238,1.522 9.129,2.633 1.477,0.868 2.369,1.392 4.568,1.392 2.201,0 3.093,-0.524 4.57,-1.393 1.891,-1.111 4.48,-2.633 9.13,-2.633 4.65,0 7.241,1.521 9.132,2.633 1.479,0.868 2.371,1.393 4.573,1.393 2.201,0 3.092,-0.524 4.57,-1.393 1.892,-1.111 4.481,-2.633 9.131,-2.633 4.65,0 7.241,1.521 9.133,2.632 1.479,0.869 2.373,1.393 4.577,1.393 2.204,0 3.098,-0.524 4.577,-1.393 1.892,-1.111 4.482,-2.632 9.133,-2.632 v 9 c -2.203,0 -3.097,0.524 -4.576,1.393 -1.894,1.111 -4.485,2.632 -9.136,2.632 z" />
</g>
</svg>