<?xml version="1.0" encoding="utf-8"?>
<!-- Generator: Adobe Illustrator 16.2.1, SVG Export Plug-In . SVG Version: 6.00 Build 0)  -->
<!DOCTYPE svg PUBLIC "-//W3C//DTD SVG 1.1//EN" "http://www.w3.org/Graphics/SVG/1.1/DTD/svg11.dtd">
<svg version="1.1" id="Layer_1" xmlns="http://www.w3.org/2000/svg" xmlns:xlink="http://www.w3.org/1999/xlink" x="0px" y="0px"
	 width="100px" height="100px" viewBox="0 0 100 100" enable-background="new 0 0 100 100" xml:space="preserve">
<path d="M90.602,12.832C80.848,6.267,66.508,4.379,50,4.583C33.491,4.38,19.149,6.267,9.394,12.832
	c-5.219,3.515-6.419,9.002-6.419,13.44c0,6.341,1.808,10.914,5.546,13.302c0.845,0.54,2.501,0.792,1.764,1.926
	c-1.161,1.786-2.82,4.185-2.653,12.245c0.132,6.379-0.058-2.77,0.77,38.143c0.089,1.949,1.757,3.543,3.707,3.543H87.89
	c1.953,0,3.621-1.594,3.708-3.543c0.828-40.912,0.638-31.766,0.77-38.143c0.168-8.06-1.493-10.458-2.652-12.245
	c-0.738-1.133,0.92-1.385,1.764-1.926c3.741-2.388,5.547-6.96,5.547-13.302C97.023,21.833,95.822,16.345,90.602,12.832z"/>
</svg>
