<?xml version="1.0" encoding="UTF-8" standalone="no"?>
<!-- Generator: Adobe Illustrator 15.0.2, SVG Export Plug-In . SVG Version: 6.00 Build 0)  -->

<svg
   xmlns:dc="http://purl.org/dc/elements/1.1/"
   xmlns:cc="http://creativecommons.org/ns#"
   xmlns:rdf="http://www.w3.org/1999/02/22-rdf-syntax-ns#"
   xmlns:svg="http://www.w3.org/2000/svg"
   xmlns="http://www.w3.org/2000/svg"
   xmlns:sodipodi="http://sodipodi.sourceforge.net/DTD/sodipodi-0.dtd"
   xmlns:inkscape="http://www.inkscape.org/namespaces/inkscape"
   version="1.1"
   id="svg2"
   inkscape:version="0.48.2 r9819"
   sodipodi:docname="noun_project_11090.svg"
   x="0px"
   y="0px"
   width="100px"
   height="100px"
   viewBox="0 0 100 100"
   enable-background="new 0 0 100 100"
   xml:space="preserve"><metadata
   id="metadata3571"><rdf:RDF><cc:Work
       rdf:about=""><dc:format>image/svg+xml</dc:format><dc:type
         rdf:resource="http://purl.org/dc/dcmitype/StillImage" /></cc:Work></rdf:RDF></metadata><defs
   id="defs3569" />
<sodipodi:namedview
   pagecolor="#ffffff"
   borderopacity="1"
   gridtolerance="10"
   inkscape:window-width="2560"
   objecttolerance="10"
   bordercolor="#666666"
   inkscape:zoom="5.17"
   guidetolerance="10"
   inkscape:pageopacity="0"
   inkscape:pageshadow="2"
   inkscape:window-height="1345"
   inkscape:cy="50"
   showgrid="true"
   inkscape:cx="50"
   inkscape:window-x="0"
   inkscape:window-y="22"
   inkscape:window-maximized="1"
   inkscape:current-layer="svg2"
   inkscape:snap-grids="false"
   id="namedview6">
	<inkscape:grid
   type="xygrid"
   id="grid3807" />
</sodipodi:namedview>
<g
   id="g3563">
	
	<path
   id="path3567"
   d="m 30.496,14.601 c 0.661,0.221 1.437,0.267 2.217,0.191 -1.177,0.803 -2.75,0.736 -5.184,-0.975 0,0 1.603,3.096 3.905,3.342 1.773,0.19 4.061,-0.833 5.154,-2.246 1.146,3.032 3.906,5.154 7.077,5.321 0.053,0.004 0.104,0.01 0.158,0.013 0.021,0.001 0.043,0 0.065,0 0.494,0.022 0.995,0.001 1.501,-0.076 3.537,-0.542 6.17,-3.448 6.654,-6.984 1.381,1.132 3.84,1.618 5.525,1.036 2.188,-0.755 3.059,-4.131 3.059,-4.131 -1.989,2.212 -3.508,2.628 -4.835,2.11 0.777,-0.101 1.523,-0.32 2.118,-0.683 1.986,-1.214 2.166,-4.713 2.166,-4.713 -3.737,6.462 -6.832,1.448 -10.864,-1.313 -0.141,-0.116 -0.284,-0.229 -0.43,-0.335 0.006,0.015 0.011,0.03 0.017,0.045 C 47.522,4.232 45.975,3.656 44.337,3.601 44.011,3.583 43.683,3.579 43.35,3.603 c -2.171,0.16 -4.067,1.219 -5.387,2.801 0.002,-0.016 0.004,-0.031 0.006,-0.046 -0.118,0.136 -0.232,0.276 -0.343,0.421 -3.312,3.592 -5.207,9.175 -10.296,3.712 0.001,0.001 0.959,3.371 3.166,4.11 z m 34.7,3.317 c 0.028,-0.024 0.036,-0.063 0.062,-0.087 0.298,-0.273 0.521,-0.596 0.676,-0.943 0.087,-0.121 0.172,-0.243 0.241,-0.38 L 72.218,4.468 C 72.646,3.617 72.306,2.592 71.454,2.164 L 69.41,1.138 C 68.558,0.711 67.51,1.039 67.082,1.89 l -6.024,12.003 -8.56,7.28 C 52.393,21.17 52.287,21.165 52.18,21.177 l -15.375,1.742 c -0.478,0.054 -0.904,0.251 -1.241,0.543 -0.13,0.081 -0.256,0.173 -0.366,0.292 L 27.9,31.67 19.768,24.166 c -0.7,-0.646 -1.78,-0.603 -2.425,0.098 l -1.552,1.682 c -0.646,0.7 -0.62,1.799 0.08,2.445 l 9.9,9.136 c 0.027,0.025 0.06,0.042 0.088,0.066 0.08,0.095 0.156,0.193 0.25,0.28 1.141,1.051 2.888,1.005 3.972,-0.087 l 0.071,-0.077 5.364,-5.817 2.303,20.328 0,0 c 0,0 0.778,11.399 -3.621,16.924 l 6.684,-0.109 c 0.174,1.528 0.336,3.041 0.504,4.562 L 23.513,72.783 c -0.951,-0.043 -1.75,0.686 -1.792,1.637 l -0.183,4.001 c -0.043,0.952 0.685,1.749 1.637,1.793 l 21.771,0.991 c 0.008,0 0.017,0.001 0.026,0.001 0.258,0.01 0.511,-0.006 0.756,-0.046 0.08,-0.004 0.158,0.006 0.239,-0.003 2.015,-0.228 3.47,-2.032 3.282,-4.062 -0.261,-2.704 -0.577,-5.44 -0.897,-8.181 l 2.876,-0.047 c 0.263,2.311 0.514,4.611 0.753,6.896 l -9.568,18.885 c -0.43,0.85 -0.094,1.877 0.755,2.307 l 3.573,1.811 c 0.85,0.43 1.876,0.094 2.307,-0.756 l 9.85,-19.44 c 0.005,-0.008 0.007,-0.016 0.012,-0.023 0.135,-0.271 0.225,-0.552 0.29,-0.834 0.226,-0.546 0.341,-1.146 0.282,-1.776 -0.229,-2.378 -0.503,-4.782 -0.782,-7.19 l 8.549,-0.14 C 60.373,64.964 58.399,54.94 57.9,51.303 L 55.092,26.515 65.196,17.918 z" />
</g>
</svg>