<?xml version="1.0" encoding="utf-8"?>
<!-- Generator: Adobe Illustrator 16.2.1, SVG Export Plug-In . SVG Version: 6.00 Build 0)  -->
<!DOCTYPE svg PUBLIC "-//W3C//DTD SVG 1.1//EN" "http://www.w3.org/Graphics/SVG/1.1/DTD/svg11.dtd">
<svg version="1.1" id="Layer_1" xmlns="http://www.w3.org/2000/svg" xmlns:xlink="http://www.w3.org/1999/xlink" x="0px" y="0px"
	 width="100px" height="100px" viewBox="0 0 100 100" enable-background="new 0 0 100 100" xml:space="preserve">
<path d="M57.279,26.51c1.183-1.781,2.4-3.401,3.719-4.951c0.717-0.836,1.387-1.57,2.051-2.243c0.811-0.822,1.542-1.497,2.062-1.901
	c0.146-0.115,0.303-0.256,0.432-0.396c0.654-0.707,0.996-1.625,0.96-2.587c-0.035-0.963-0.444-1.854-1.151-2.508
	c-1.402-1.301-3.789-1.218-5.102,0.198c-0.934,1.008-1.555,1.832-2.332,2.892c-0.648,0.897-1.284,1.847-1.939,2.9
	c-1.188,1.918-2.278,3.95-3.244,6.035c-1.012,2.169-1.812,4.273-2.449,6.435c-0.514,1.772-1.126,4.152-1.307,6.823
	c-0.055,0.796,0.49,1.527,1.267,1.698c0.118,0.026,0.237,0.04,0.356,0.04c0.756,0,1.422-0.536,1.603-1.347
	c0.38-1.704,1.067-3.63,2.045-5.725C55.092,30.072,56.111,28.267,57.279,26.51z M68.395,33.148l-0.629,0.196
	c-2.283,0.702-4.381,1.515-6.416,2.487c-1.662,0.808-3.838,1.945-5.939,3.596c-0.615,0.482-0.788,1.359-0.405,2.039
	c0.283,0.504,0.815,0.816,1.394,0.816c0.272,0,0.543-0.071,0.848-0.239c1.51-0.85,3.404-1.624,5.63-2.3
	c1.874-0.564,3.901-1.01,6.024-1.319c2.02-0.297,4.037-0.468,6.17-0.522c1.02-0.026,2.037,0.014,3.037,0.061
	c0.639,0.029,1.893,0.262,2.643,0.399c0.398,0.074,0.684,0.119,0.818,0.121c2.158,0,3.625-1.233,3.649-3.069
	c0.029-2.068-1.887-3.098-3.534-3.349c-1.233-0.188-3.83-0.586-6.832-0.329C72.211,31.958,70.271,32.563,68.395,33.148z
	 M81.893,53.822c-0.912-0.632-1.877-1.242-2.943-1.877c-1.936-1.136-3.989-2.184-6.107-3.11c-2.191-0.96-4.312-1.715-6.488-2.308
	c-2.695-0.715-4.75-1.061-6.941-1.159c-0.801,0-1.493,0.571-1.646,1.357c-0.176,0.908,0.418,1.791,1.404,1.983
	c1.714,0.335,3.654,0.974,5.764,1.892c1.815,0.793,3.646,1.767,5.437,2.892c1.804,1.129,3.454,2.301,5.046,3.584
	c0.855,0.693,1.604,1.344,2.294,1.989c0.826,0.771,1.537,1.504,1.956,2.013c0.113,0.139,0.261,0.291,0.4,0.416
	c0.658,0.582,1.506,0.899,2.384,0.899c1.036,0,2.021-0.444,2.704-1.22c0.639-0.723,0.955-1.649,0.896-2.612
	c-0.062-0.959-0.491-1.84-1.214-2.476C83.805,55.176,82.967,54.574,81.893,53.822z M65.428,82.121
	c1.814-0.23,3.047-1.939,2.877-3.979c-0.002-1.56-0.229-2.701-0.475-3.709c-0.117-0.455-0.195-0.906-0.275-1.354
	c-0.115-0.648-0.234-1.319-0.457-1.992c-0.701-2.125-1.557-4.266-2.541-6.36c-1.012-2.159-2.108-4.123-3.358-6.006
	c-1.033-1.534-2.464-3.53-4.39-5.376c-0.551-0.531-1.465-0.58-2.067-0.119c-0.341,0.259-0.56,0.635-0.615,1.057
	s0.054,0.842,0.356,1.234c1.057,1.387,2.088,3.154,3.065,5.257c0.83,1.798,1.554,3.743,2.146,5.78
	c0.586,1.99,1.041,3.965,1.39,6.035c0.153,0.926,0.278,1.91,0.381,3.014c0.091,0.954,0.056,3.209,0.056,3.307
	c-0.015,0.891,0.287,1.67,0.867,2.26c0.618,0.627,1.536,0.986,2.518,0.986C65.076,82.154,65.252,82.143,65.428,82.121z
	 M20.672,31.358c0.271,0,0.514-0.024,0.724-0.072c0.925-0.212,2.238-0.396,2.7-0.422c0.99-0.059,2.005-0.034,3.023,0.075
	c1.992,0.204,4.055,0.756,5.959,1.596c2.002,0.907,3.914,2.031,5.683,3.341c1.97,1.472,3.539,3.035,4.593,4.617
	c0.29,0.434,0.773,0.691,1.294,0.691c0.233,0,0.458-0.05,0.668-0.15c0.375-0.179,0.658-0.491,0.796-0.882
	c0.139-0.393,0.116-0.812-0.063-1.186c-1.258-2.64-3.022-4.607-4.588-6.196c-1.774-1.755-3.761-3.333-5.913-4.716
	c-2.278-1.433-4.734-2.469-7.303-3.128c-1.316-0.338-2.663-0.42-4.004-0.539c-0.657-0.058-1.317,0.104-2.076,0.104
	c-0.003,0-0.006,0-0.008,0c-0.74,0-2.396-0.193-3.31,0.122s-1.612,0.983-2,1.87c-0.389,0.887-0.408,1.846-0.056,2.747
	C17.372,30.709,19.208,31.359,20.672,31.358z M43.876,51.794c-0.047-0.897-0.787-1.486-1.778-1.486c-0.002,0-0.004,0-0.006,0
	c-2.48,0-4.925,0.593-7.474,1.644c-2.391,0.992-4.656,2.363-6.549,4.129c-1.879,1.732-3.504,3.67-4.968,5.945
	c-0.689,1.074-1.33,2.203-1.908,3.377c-0.536,1.115-1.057,2.24-1.536,3.76c-0.05,0.158-0.097,0.351-0.123,0.516
	c-0.15,0.949,0.077,1.9,0.642,2.681c0.566,0.779,1.399,1.292,2.352,1.441c0.191,0.03,0.381,0.047,0.569,0.047
	c1.779,0,3.275-1.276,3.555-3.035c0.118-0.726,0.397-1.787,0.747-2.838c0.347-1.029,0.738-2.009,1.166-2.92
	c0.884-1.912,2.027-3.738,3.31-5.29c1.336-1.628,2.87-2.938,4.688-4.02c1.85-1.097,3.932-1.862,5.944-2.252
	C43.334,53.332,43.924,52.636,43.876,51.794z M48.942,54.235c-0.817-0.491-1.977-0.196-2.466,0.618
	c-1.375,2.296-2.208,4.516-2.842,6.387c-0.71,2.14-1.256,4.327-1.667,6.688c-0.397,2.274-0.66,4.565-0.783,6.812
	c-0.066,1.244-0.087,2.385-0.069,3.493c0.028,1.106,0.058,2.251,0.258,3.703c0.025,0.169,0.064,0.358,0.114,0.521
	c0.449,1.521,1.869,2.584,3.455,2.584c0.344,0,0.688-0.049,1.021-0.148c1.904-0.562,2.997-2.572,2.436-4.479
	c-0.253-0.853-0.465-2.084-0.567-2.742c-0.148-0.94-0.27-1.954-0.361-3.012c-0.169-2.045-0.216-4.068-0.142-6.185
	c0.073-2.108,0.294-4.166,0.652-6.108c0.417-2.246,0.974-4.199,1.69-5.886C50.023,55.664,49.71,54.697,48.942,54.235z
	 M66.875,86.273c-0.368,0-0.736,0.049-1.096,0.146c-1.081,0.293-1.981,0.988-2.538,1.957c-0.558,0.971-0.702,2.1-0.409,3.178
	c0.491,1.822,2.152,3.096,4.039,3.096c0.369,0,0.736-0.049,1.096-0.146c2.229-0.604,3.551-2.907,2.947-5.136
	C70.422,87.547,68.762,86.273,66.875,86.273z M90.297,60.435c-2.266,0.445-3.748,2.649-3.303,4.916
	c0.383,1.959,2.109,3.383,4.105,3.383c0.267,0,0.537-0.026,0.81-0.079c1.097-0.216,2.046-0.846,2.669-1.773s0.848-2.045,0.631-3.141
	C94.775,61.518,92.613,59.981,90.297,60.435z M97.111,31.399c-0.732-0.845-1.752-1.353-2.867-1.432
	c-2.326-0.182-4.312,1.602-4.473,3.883c-0.078,1.115,0.281,2.193,1.016,3.039c0.734,0.845,1.752,1.353,2.867,1.431
	c0.1,0.008,0.199,0.011,0.299,0.011c2.188,0,4.02-1.71,4.172-3.892C98.205,33.324,97.844,32.244,97.111,31.399z M71.623,11.755
	c0.266,0,0.533-0.025,0.803-0.077c2.264-0.441,3.748-2.644,3.311-4.908c-0.432-2.227-2.621-3.759-4.907-3.313
	c-1.099,0.212-2.047,0.841-2.675,1.769c-0.625,0.927-0.853,2.042-0.639,3.141C67.896,10.328,69.625,11.755,71.623,11.755z
	 M9.199,32.937c0.33,0,0.661-0.039,0.984-0.117c2.244-0.54,3.629-2.807,3.091-5.051c-0.456-1.888-2.129-3.208-4.069-3.208
	c-0.33,0-0.66,0.04-0.983,0.117c-1.088,0.262-2.008,0.931-2.591,1.885c-0.583,0.955-0.761,2.078-0.499,3.166
	C5.585,31.617,7.258,32.937,9.199,32.937z M19.082,75.125c-0.647,0-1.27,0.146-1.853,0.436c-1.002,0.494-1.753,1.352-2.111,2.41
	c-0.358,1.061-0.282,2.195,0.214,3.195c0.709,1.44,2.147,2.336,3.755,2.336c0.646,0,1.27-0.146,1.851-0.436
	c1.004-0.492,1.754-1.351,2.112-2.408c0.36-1.061,0.284-2.195-0.211-3.199C22.128,76.021,20.688,75.125,19.082,75.125z
	 M43.729,88.242c-0.368,0-0.736,0.051-1.095,0.147c-2.229,0.603-3.551,2.905-2.948,5.132c0.491,1.825,2.151,3.1,4.039,3.1
	c0.368,0,0.737-0.051,1.095-0.146c1.079-0.292,1.981-0.988,2.538-1.957s0.703-2.098,0.41-3.18
	C47.275,89.516,45.614,88.242,43.729,88.242z M17.408,51.331c0.08-0.125,0.423-0.51,0.79-0.87c0.34-0.338,0.708-0.659,1.087-0.972
	c0.771-0.632,1.609-1.196,2.489-1.705c1.73-1.005,3.721-1.758,5.75-2.198c2.059-0.426,4.175-0.604,6.288-0.604h0.264
	c2.453,0,4.633,0.333,6.417,0.99c0.731,0.271,1.604-0.103,1.976-0.793c0.42-0.782,0.126-1.756-0.657-2.178
	c-2.584-1.387-5.181-1.935-7.388-2.291c-2.479-0.368-5.002-0.473-7.567-0.315c-2.683,0.19-5.294,0.79-7.76,1.78
	c-1.264,0.507-2.487,1.116-3.636,1.812c-0.623,0.376-1.188,0.755-1.83,1.232c-0.543,0.412-1.013,0.769-1.669,1.424l-0.176,0.175
	c-0.178,0.18-0.338,0.379-0.469,0.588c-1.082,1.678-0.596,3.924,1.082,5.008c0.586,0.377,1.264,0.576,1.959,0.576
	C15.598,52.992,16.737,52.375,17.408,51.331z M2.858,53.824c-1.495,1.76-1.28,4.405,0.481,5.904c0.758,0.641,1.72,0.993,2.709,0.993
	c1.233,0,2.397-0.537,3.193-1.479c1.493-1.76,1.276-4.406-0.482-5.901C7.062,51.902,4.296,52.131,2.858,53.824z"/>
</svg>
