<?xml version="1.0" encoding="utf-8"?>
<!-- Generator: Adobe Illustrator 16.2.1, SVG Export Plug-In . SVG Version: 6.00 Build 0)  -->
<!DOCTYPE svg PUBLIC "-//W3C//DTD SVG 1.1//EN" "http://www.w3.org/Graphics/SVG/1.1/DTD/svg11.dtd">
<svg version="1.1"
	 id="Layer_1" xmlns:dc="http://purl.org/dc/elements/1.1/" xmlns:cc="http://creativecommons.org/ns#" xmlns:rdf="http://www.w3.org/1999/02/22-rdf-syntax-ns#" xmlns:svg="http://www.w3.org/2000/svg" xmlns:sodipodi="http://sodipodi.sourceforge.net/DTD/sodipodi-0.dtd" xmlns:inkscape="http://www.inkscape.org/namespaces/inkscape" inkscape:version="0.48.2 r9819" sodipodi:docname="noun_project_941.svg"
	 xmlns="http://www.w3.org/2000/svg" xmlns:xlink="http://www.w3.org/1999/xlink" x="0px" y="0px" width="100px" height="100px"
	 viewBox="0 0 100 100" enable-background="new 0 0 100 100" xml:space="preserve">
<path id="path3108" d="M29.108,31.713c-14.694,0-26.607,2.87-26.607,6.412l3.146,23.559c1.469,3.01,10.504,6.604,23.463,6.604
	c12.959,0,21.922-3.332,23.463-6.604l3.145-23.559C55.715,34.583,43.803,31.713,29.108,31.713z M53.521,38.156
	c-0.279,1.226-8.211,4.502-24.414,4.502S4.975,39.382,4.693,38.135c0.28-1.246,8.212-4.522,24.415-4.522s24.134,3.276,24.414,4.501
	V38.156z M57.789,38.125c0,0.242-0.027,0.487-0.082,0.727l-0.686,5.146l8.338-3.022h31.752l0.389-2.851H57.789L57.789,38.125z"/>
</svg>
