<?xml version="1.0" encoding="utf-8"?>
<!-- Generator: Adobe Illustrator 16.2.1, SVG Export Plug-In . SVG Version: 6.00 Build 0)  -->
<!DOCTYPE svg PUBLIC "-//W3C//DTD SVG 1.1//EN" "http://www.w3.org/Graphics/SVG/1.1/DTD/svg11.dtd">
<svg version="1.1" id="Layer_1" xmlns="http://www.w3.org/2000/svg" xmlns:xlink="http://www.w3.org/1999/xlink" x="0px" y="0px"
	 width="100px" height="100px" viewBox="0 0 100 100" enable-background="new 0 0 100 100" xml:space="preserve">
<path d="M74.938,44.202c-2.876,2.536-7.047,1.432-7.047-3.526V25.918c0-2.026-1.505-3.474-3.533-3.474H49.492
	c-4.958,0-6.062-4.177-3.526-7.051c4.176-4.731,1.939-12.047-5.66-12.364c-7.598,0.316-9.835,7.62-5.659,12.352
	c2.537,2.875,1.433,7.063-3.525,7.063H16.474c-2.026,0-3.683,1.448-3.683,3.474v15.061c0,0.884,0.396,2.37,1.243,2.765
	c0.841,0.392,1.93-0.017,2.825-0.833c2.753-2.51,6.45-3.209,9.589-1.827c3.155,1.39,5.343,4.657,5.343,8.737v0.072v0.047
	c0,4.068-2.213,7.304-5.385,8.7c-3.173,1.397-6.887,0.646-9.65-1.873c-0.885-0.808-1.924-1.193-2.733-0.818
	c-0.831,0.391-1.232,1.811-1.232,2.695v15.158c0,2.026,1.657,3.742,3.683,3.742H31.12c4.958,0,6.062,4.023,3.525,6.899
	c-4.176,4.73-1.939,11.962,5.66,12.279c7.598-0.317,9.836-7.509,5.658-12.24c-2.534-2.878-1.43-6.939,3.528-6.939h14.866
	c2.028,0,3.533-1.715,3.533-3.741V59.045c0-4.958,4.14-6.061,7.012-3.525c4.731,4.176,11.99,1.939,12.307-5.661
	C86.893,42.262,79.669,40.025,74.938,44.202z"/>
</svg>
