<?xml version="1.0" encoding="utf-8"?>
<!-- Generator: Adobe Illustrator 16.2.1, SVG Export Plug-In . SVG Version: 6.00 Build 0)  -->
<!DOCTYPE svg PUBLIC "-//W3C//DTD SVG 1.1//EN" "http://www.w3.org/Graphics/SVG/1.1/DTD/svg11.dtd">
<svg version="1.1" id="Layer_1" xmlns="http://www.w3.org/2000/svg" xmlns:xlink="http://www.w3.org/1999/xlink" x="0px" y="0px"
	 width="100px" height="100px" viewBox="0 0 100 100" enable-background="new 0 0 100 100" xml:space="preserve">
<path d="M90.033,27.191H53.949l14.783-14.782c0.506-0.505,0.82-1.206,0.82-1.977c0-1.542-1.25-2.792-2.795-2.792
	c-0.771,0-1.473,0.314-1.977,0.822L50,23.242L35.218,8.459c-0.505-0.507-1.205-0.82-1.977-0.82c-1.543,0-2.793,1.25-2.793,2.792
	c0,0.771,0.312,1.471,0.817,1.976l14.786,14.783H9.966c-3.6,0-6.517,2.877-6.517,6.424v52.318c0,3.549,2.917,6.427,6.517,6.427
	h80.067c3.6,0,6.518-2.876,6.518-6.425v-52.32C96.551,30.068,93.633,27.191,90.033,27.191z M74.207,73.74
	c0,6.17-5.004,11.172-11.174,11.172H21.138c-6.171,0-11.172-5.002-11.172-11.172v-27.93c0-6.169,5.002-11.172,11.172-11.172h41.896
	c6.17,0,11.174,5.003,11.174,11.172V73.74z M85.379,60.706c-3.082,0-5.586-2.499-5.586-5.585s2.504-5.587,5.586-5.587
	c3.084,0,5.586,2.501,5.586,5.587S88.463,60.706,85.379,60.706z M85.379,45.811c-3.082,0-5.586-2.5-5.586-5.586
	s2.504-5.586,5.586-5.586c3.084,0,5.586,2.5,5.586,5.586S88.463,45.811,85.379,45.811z"/>
</svg>
