<?xml version="1.0" encoding="utf-8"?>
<!-- Generator: Adobe Illustrator 16.2.1, SVG Export Plug-In . SVG Version: 6.00 Build 0)  -->
<!DOCTYPE svg PUBLIC "-//W3C//DTD SVG 1.1//EN" "http://www.w3.org/Graphics/SVG/1.1/DTD/svg11.dtd">
<svg version="1.1" id="Layer_1" xmlns="http://www.w3.org/2000/svg" xmlns:xlink="http://www.w3.org/1999/xlink" x="0px" y="0px"
	 width="100px" height="100px" viewBox="0 0 100 100" enable-background="new 0 0 100 100" xml:space="preserve">
<path d="M93.962,20.825v-0.021l-0.013,0.009L52.084,55.15V36.028v-0.013h-0.008c-3.917-8.965-12.856-15.23-23.263-15.23
	C14.796,20.786,3.432,32.149,3.432,46.169c0,10.407,6.267,19.347,15.229,23.263v9.783h33.423V66.988l31.492-31.491h10.367h0.019
	v-0.022c1.627-1.999,2.606-4.547,2.606-7.324S95.587,22.823,93.962,20.825z M35.447,31.594v4.423H18.662v29.353
	c-6.878-3.652-11.574-10.887-11.574-19.2c0-11.98,9.747-21.728,21.728-21.728c7.224,0,13.631,3.549,17.583,8.989
	C42.963,32.249,39.284,31.594,35.447,31.594z"/>
</svg>
