<?xml version="1.0" encoding="utf-8"?>
<!-- Generator: Adobe Illustrator 16.2.1, SVG Export Plug-In . SVG Version: 6.00 Build 0)  -->
<!DOCTYPE svg PUBLIC "-//W3C//DTD SVG 1.1//EN" "http://www.w3.org/Graphics/SVG/1.1/DTD/svg11.dtd">
<svg version="1.1" id="Layer_1" xmlns="http://www.w3.org/2000/svg" xmlns:xlink="http://www.w3.org/1999/xlink" x="0px" y="0px"
	 width="100px" height="100px" viewBox="0 0 100 100" enable-background="new 0 0 100 100" xml:space="preserve">
<path d="M50.443,77.367c5.958,4.041,17.148,9.369,32.256,8.881c0,0-8.238-8.122-20.937-11.391
	C82.166,74.986,97.5,63.441,97.5,63.441c-16.013-2.682-29.027,0.297-37.631,3.621c21.535-14.569,28.404-38.449,28.404-38.449
	c-15.793,7.942-25.91,18.631-32.169,27.611c1.657-13.221,1.22-30.974-6.37-50.857c0,0-11.224,22.649-7.583,50.104
	c-6.294-8.818-16.286-19.136-31.638-26.856c0,0,6.584,22.891,27.072,37.524c-8.537-2.906-20.578-5.125-35.084-2.697
	c0,0,14.888,11.211,34.848,11.412c-12.704,3.268-20.947,11.391-20.947,11.391c15.261,0.498,26.253-4.978,32.012-8.807
	c0,0-1.171,10.479,2.243,17.195l1.591-0.297C52.247,94.334,48.952,84.568,50.443,77.367z"/>
</svg>
