<?xml version="1.0" encoding="utf-8"?>
<!-- Generator: Adobe Illustrator 16.2.1, SVG Export Plug-In . SVG Version: 6.00 Build 0)  -->
<!DOCTYPE svg PUBLIC "-//W3C//DTD SVG 1.1//EN" "http://www.w3.org/Graphics/SVG/1.1/DTD/svg11.dtd">
<svg version="1.1"
	 id="Layer_1" xmlns:dc="http://purl.org/dc/elements/1.1/" xmlns:cc="http://creativecommons.org/ns#" xmlns:rdf="http://www.w3.org/1999/02/22-rdf-syntax-ns#" xmlns:svg="http://www.w3.org/2000/svg" xmlns:sodipodi="http://sodipodi.sourceforge.net/DTD/sodipodi-0.dtd" xmlns:inkscape="http://www.inkscape.org/namespaces/inkscape" inkscape:version="0.48.2 r9819" sodipodi:docname="noun_project_444.svg"
	 xmlns="http://www.w3.org/2000/svg" xmlns:xlink="http://www.w3.org/1999/xlink" x="0px" y="0px" width="100px" height="100px"
	 viewBox="0 0 100 100" enable-background="new 0 0 100 100" xml:space="preserve">
<path id="path2995" d="M84.2,44.775c0,2.1-1.7,3.8-3.8,3.8c-2.096,0-3.801-1.701-3.801-3.8c0-2.099,1.705-3.8,3.801-3.8
	C82.5,40.975,84.2,42.676,84.2,44.775z M76.6,37.175c0,2.099-1.7,3.8-3.799,3.8c-2.096,0-3.801-1.701-3.801-3.8
	c0-2.1,1.705-3.8,3.801-3.8C74.899,33.375,76.6,35.076,76.6,37.175z M31.95,38.125h-5.7v-5.7h-5.7v5.7h-5.7v5.7h5.7v5.7h5.7v-5.7
	h5.7V38.125z M95.506,39.075l-0.002,0.001c-0.952-9.601-9.051-17.101-18.904-17.101c-3.662,0-7.07,1.054-9.973,2.85H33.373
	c-2.901-1.796-6.311-2.85-9.973-2.85c-9.853,0-17.951,7.5-18.903,17.101l-0.003-0.001C4.164,43.041,2.5,70.132,2.5,70.426
	c0,4.196,3.402,7.6,7.6,7.6c17.458,0,24.646-14.901,27.233-22.801h25.335c2.586,7.899,9.773,22.801,27.232,22.801
	c4.197,0,7.6-3.403,7.6-7.6C97.5,70.132,95.836,43.041,95.506,39.075z M23.4,52.375c-6.297,0-11.4-5.104-11.4-11.4
	s5.103-11.4,11.4-11.4c6.298,0,11.4,5.104,11.4,11.4S29.698,52.375,23.4,52.375z M76.6,52.375c-6.297,0-11.399-5.104-11.399-11.4
	s5.103-11.4,11.399-11.4c6.298,0,11.4,5.104,11.4,11.4S82.897,52.375,76.6,52.375z"/>
</svg>
