<?xml version="1.0" encoding="utf-8"?>
<!-- Generator: Adobe Illustrator 16.2.1, SVG Export Plug-In . SVG Version: 6.00 Build 0)  -->
<!DOCTYPE svg PUBLIC "-//W3C//DTD SVG 1.1//EN" "http://www.w3.org/Graphics/SVG/1.1/DTD/svg11.dtd">
<svg version="1.1"
	 id="svg8210" xmlns:dc="http://purl.org/dc/elements/1.1/" xmlns:cc="http://creativecommons.org/ns#" xmlns:rdf="http://www.w3.org/1999/02/22-rdf-syntax-ns#" xmlns:svg="http://www.w3.org/2000/svg" xmlns:sodipodi="http://sodipodi.sourceforge.net/DTD/sodipodi-0.dtd" xmlns:inkscape="http://www.inkscape.org/namespaces/inkscape" inkscape:version="0.48.2 r9819" sodipodi:docname="noun_project_2966.svg"
	 xmlns="http://www.w3.org/2000/svg" xmlns:xlink="http://www.w3.org/1999/xlink" x="0px" y="0px" width="100px" height="100px"
	 viewBox="0 0 100 100" enable-background="new 0 0 100 100" xml:space="preserve">
<path id="path5467" d="M70.584,29.464h4.168c2.994,0,4.861,1.334,5.352,3.559c0,0-3.174,1.559-3.272,5.857
	c-0.101,4.3,3.381,6.246,3.381,6.246s-3.498,0.192-4.565,4.19c-0.066,6.083-0.16,17.777-0.16,17.777l-5.631-0.02
	c0,0,0-11.838-0.062-17.758c-0.854-3.922-4.582-4.19-4.582-4.19s3.465-1.739,3.303-6.169c0.185-2.865-2.521-5.456-3.266-5.912
	C65.651,30.794,67.881,29.464,70.584,29.464z M47.814,29.464h4.167c2.994,0,4.857,1.334,5.351,3.559c0,0-3.174,1.559-3.273,5.857
	c-0.1,4.3,3.383,6.246,3.383,6.246s-3.498,0.192-4.567,4.19c-0.066,6.083-0.156,17.777-0.156,17.777l-5.634-0.02
	c0,0,0.001-11.838-0.062-17.758c-0.854-3.922-4.581-4.19-4.581-4.19s3.464-1.739,3.304-6.169c0.182-2.865-2.522-5.456-3.265-5.912
	C42.884,30.794,45.11,29.464,47.814,29.464z M89.93,37.43c0.894,3.272-1.033,6.651-4.307,7.547s-6.65-1.032-7.547-4.306
	c-0.896-3.271,1.033-6.651,4.305-7.546C85.654,32.229,89.033,34.157,89.93,37.43 M82.201,45.878h4.166
	c2.994,0,5.404,2.098,5.404,4.704v28.223c0,2.606-2.41,4.704-5.404,4.704h-4.166c-2.994,0-5.404-2.098-5.404-4.704V50.582
	C76.797,47.976,79.207,45.878,82.201,45.878z M59.207,45.878h4.168c2.994,0,5.404,2.098,5.404,4.704v28.223
	c0,2.606-2.41,4.704-5.404,4.704h-4.168c-2.992,0-5.404-2.098-5.404-4.704V50.582C53.803,47.976,56.215,45.878,59.207,45.878z
	 M67.147,37.43c0.896,3.272-1.03,6.651-4.305,7.547s-6.652-1.032-7.549-4.306c-0.896-3.271,1.033-6.651,4.307-7.546
	C62.873,32.229,66.252,34.157,67.147,37.43 M13.632,45.878H17.8c2.993,0,5.404,2.098,5.404,4.704v28.223
	c0,2.606-2.411,4.704-5.404,4.704h-4.168c-2.994,0-5.403-2.098-5.403-4.704V50.582C8.229,47.976,10.638,45.878,13.632,45.878z
	 M36.533,45.878h4.168c2.993,0,5.403,2.098,5.403,4.704v28.223c0,2.606-2.41,4.704-5.403,4.704h-4.168
	c-2.992,0-5.402-2.098-5.402-4.704V50.582C31.13,47.976,33.541,45.878,36.533,45.878z M44.474,37.43
	c0.896,3.272-1.033,6.651-4.306,7.547c-3.273,0.896-6.651-1.032-7.546-4.306c-0.896-3.271,1.03-6.651,4.305-7.546
	C40.201,32.229,43.579,34.157,44.474,37.43 M21.909,37.43c0.896,3.272-1.032,6.651-4.307,7.547
	c-3.273,0.896-6.649-1.032-7.547-4.306c-0.895-3.271,1.032-6.651,4.306-7.546C17.634,32.229,21.013,34.157,21.909,37.43
	 M78.27,21.016c0.896,3.272-1.033,6.651-4.305,7.547c-3.273,0.895-6.652-1.032-7.547-4.306c-0.896-3.274,1.033-6.651,4.305-7.547
	C73.996,15.815,77.373,17.743,78.27,21.016 M55.705,21.016c0.895,3.272-1.033,6.651-4.308,7.547
	c-3.271,0.895-6.65-1.032-7.545-4.306c-0.896-3.273,1.032-6.651,4.306-7.547C51.43,15.815,54.811,17.743,55.705,21.016
	 M25.199,29.464h4.167c2.994,0,4.858,1.334,5.35,3.559c0,0-3.172,1.559-3.272,5.857c-0.1,4.3,3.384,6.246,3.384,6.246
	s-3.498,0.192-4.568,4.19c-0.066,6.083-0.158,17.777-0.158,17.777l-5.633-0.02c0,0,0.001-11.838-0.062-17.758
	c-0.854-3.922-4.58-4.19-4.58-4.19s3.464-1.739,3.304-6.169c0.182-2.865-2.523-5.456-3.267-5.912
	C20.267,30.794,22.495,29.464,25.199,29.464z M33.139,21.016c0.896,3.272-1.032,6.651-4.306,7.547
	c-3.273,0.894-6.65-1.033-7.545-4.306c-0.896-3.273,1.031-6.652,4.304-7.547C28.865,15.815,32.244,17.743,33.139,21.016"/>
</svg>
