<?xml version="1.0" encoding="utf-8"?>
<!-- Generator: Adobe Illustrator 16.2.1, SVG Export Plug-In . SVG Version: 6.00 Build 0)  -->
<!DOCTYPE svg PUBLIC "-//W3C//DTD SVG 1.1//EN" "http://www.w3.org/Graphics/SVG/1.1/DTD/svg11.dtd">
<svg version="1.1"
	 id="svg2876" xmlns:dc="http://purl.org/dc/elements/1.1/" xmlns:cc="http://creativecommons.org/ns#" xmlns:rdf="http://www.w3.org/1999/02/22-rdf-syntax-ns#" xmlns:svg="http://www.w3.org/2000/svg" xmlns:sodipodi="http://sodipodi.sourceforge.net/DTD/sodipodi-0.dtd" xmlns:inkscape="http://www.inkscape.org/namespaces/inkscape" inkscape:version="0.48.2 r9819" sodipodi:docname="noun_project_1844.svg"
	 xmlns="http://www.w3.org/2000/svg" xmlns:xlink="http://www.w3.org/1999/xlink" x="0px" y="0px" width="100px" height="100px"
	 viewBox="0 0 100 100" enable-background="new 0 0 100 100" xml:space="preserve">
<path id="path3229" d="M90.717,25.188c4.565-6.521,2.98-15.514-3.541-20.08c-6.521-4.567-15.514-2.98-20.08,3.542
	c-1.757,2.508-2.602,5.384-2.607,8.231l19.387,13.572C86.547,29.475,88.96,27.697,90.717,25.188z M7.701,93.662
	c2.331-4.059,5.386-7.109,10.227-7.562c2.706-0.254,6.101,0.553,8.551-0.039c1.455-0.354,2.461-1.199,3.3-2.422l1.167-1.695
	l3.394,2.334l-1.167,1.697c-1.527,2.221-3.501,3.726-6.186,4.221c-2.942,0.541-5.743-0.299-8.609-0.018
	c-3.444,0.338-5.477,2.702-7.105,5.536L10.247,97.5l-3.571-2.053L7.701,93.662L7.701,93.662z M38.336,82.046l39.995-49.941
	l-13.499-9.451L31.587,77.32L38.336,82.046L38.336,82.046z"/>
</svg>
