<?xml version="1.0" encoding="utf-8"?>
<!-- Generator: Adobe Illustrator 16.2.1, SVG Export Plug-In . SVG Version: 6.00 Build 0)  -->
<!DOCTYPE svg PUBLIC "-//W3C//DTD SVG 1.1//EN" "http://www.w3.org/Graphics/SVG/1.1/DTD/svg11.dtd">
<svg version="1.1"
	 id="svg3653" xmlns:dc="http://purl.org/dc/elements/1.1/" xmlns:cc="http://creativecommons.org/ns#" xmlns:rdf="http://www.w3.org/1999/02/22-rdf-syntax-ns#" xmlns:svg="http://www.w3.org/2000/svg" xmlns:sodipodi="http://sodipodi.sourceforge.net/DTD/sodipodi-0.dtd" xmlns:inkscape="http://www.inkscape.org/namespaces/inkscape" inkscape:version="0.48.2 r9819" sodipodi:docname="noun_project_9497.svg"
	 xmlns="http://www.w3.org/2000/svg" xmlns:xlink="http://www.w3.org/1999/xlink" x="0px" y="0px" width="100px" height="100px"
	 viewBox="0 0 100 100" enable-background="new 0 0 100 100" xml:space="preserve">
<sodipodi:namedview  guidetolerance="10" showgrid="false" inkscape:cy="50" id="namedview3663" pagecolor="#ffffff" inkscape:zoom="2.36" inkscape:cx="50" objecttolerance="10" gridtolerance="10" bordercolor="#666666" borderopacity="1" inkscape:window-maximized="0" inkscape:window-width="640" inkscape:pageopacity="0" inkscape:window-y="22" inkscape:current-layer="svg3653" inkscape:pageshadow="2" inkscape:window-x="0" inkscape:window-height="480">
	</sodipodi:namedview>
<path id="polygon3661" d="M58.457,22.553H41.561l-1.049,2.117h18.99L58.457,22.553z M50.009,2.5
	c-11.663,0-21.115,1.888-21.115,4.224l2.118,4.224c0.476,0.953,1.184,1.685,2.101,2.261v54.725c0,1.762,7.563,3.162,16.896,3.162
	c9.312,0,16.9-1.402,16.9-3.162l0,0V13.209c0.912-0.577,1.609-1.307,2.098-2.262l2.1-4.224C71.105,4.388,61.656,2.5,50.009,2.5z
	 M48.421,15.169h3.175v3.159h-3.175V15.169z M54.218,40.5h-8.435V27.828h8.435V40.5z M60.558,25.723H39.457v-6.333h21.101V25.723z
	 M50.008,72.168c-9.333,0-16.896-1.43-16.896-3.176v24.274c0,2.34,7.563,4.233,16.896,4.233c9.312,0,16.9-1.894,16.9-4.233V68.992
	C66.908,70.738,59.32,72.168,50.008,72.168z"/>
</svg>
