<?xml version="1.0" encoding="utf-8"?>
<!-- Generator: Adobe Illustrator 16.2.1, SVG Export Plug-In . SVG Version: 6.00 Build 0)  -->
<!DOCTYPE svg PUBLIC "-//W3C//DTD SVG 1.1//EN" "http://www.w3.org/Graphics/SVG/1.1/DTD/svg11.dtd">
<svg version="1.1" id="Layer_1" xmlns="http://www.w3.org/2000/svg" xmlns:xlink="http://www.w3.org/1999/xlink" x="0px" y="0px"
	 width="100px" height="100px" viewBox="0 0 100 100" enable-background="new 0 0 100 100" xml:space="preserve">
<path d="M97.468,21.903c-0.1-1.212-1.829-2.229-2.642-2.465C80.58,15.292,57.815,40.728,52.65,46.773l0.016-0.25
	c0.012-0.096,0.018-0.193,0.018-0.292c0-1.481-1.201-2.681-2.682-2.681c-1.48,0-2.68,1.2-2.68,2.681
	c0,0.099,0.006,0.196,0.017,0.292l0.014,0.25c-5.168-6.046-27.934-31.481-42.18-27.335c-0.811,0.236-2.543,1.251-2.641,2.465
	c-0.236,2.926,0.818,5.346,2.738,7.233c7.611,7.481,5.166,14.893,7.299,19.69c1.252,2.818,10.517,3.482,8.453,4.224
	C1.455,60.097,24.936,86.55,35.892,79.977c4.16-2.496,11.38-14.779,12.4-16.537l0.493,8.698c0,0.671,0.543,1.214,1.214,1.214
	c0.672,0,1.214-0.543,1.214-1.214l0.494-8.698c1.02,1.759,8.24,14.041,12.4,16.537c10.957,6.573,34.438-19.88,14.871-26.926
	c-2.066-0.742,7.199-1.406,8.452-4.224c2.132-4.797-0.313-12.21,7.298-19.69C96.648,27.249,97.703,24.828,97.468,21.903z"/>
</svg>
