<?xml version="1.0" encoding="utf-8"?>
<!-- Generator: Adobe Illustrator 16.2.1, SVG Export Plug-In . SVG Version: 6.00 Build 0)  -->
<!DOCTYPE svg PUBLIC "-//W3C//DTD SVG 1.1//EN" "http://www.w3.org/Graphics/SVG/1.1/DTD/svg11.dtd">
<svg version="1.1"
	 id="Layer_1" xmlns:dc="http://purl.org/dc/elements/1.1/" xmlns:cc="http://creativecommons.org/ns#" xmlns:rdf="http://www.w3.org/1999/02/22-rdf-syntax-ns#" xmlns:svg="http://www.w3.org/2000/svg" xmlns:sodipodi="http://sodipodi.sourceforge.net/DTD/sodipodi-0.dtd" xmlns:inkscape="http://www.inkscape.org/namespaces/inkscape" inkscape:version="0.48.2 r9819" sodipodi:docname="noun_project_2082.svg"
	 xmlns="http://www.w3.org/2000/svg" xmlns:xlink="http://www.w3.org/1999/xlink" x="0px" y="0px" width="100px" height="100px"
	 viewBox="0 0 100 100" enable-background="new 0 0 100 100" xml:space="preserve">
<sodipodi:namedview  guidetolerance="10" showgrid="false" inkscape:cy="50" id="namedview3222" pagecolor="#ffffff" inkscape:zoom="2.36" inkscape:cx="50" objecttolerance="10" gridtolerance="10" bordercolor="#666666" borderopacity="1" inkscape:window-maximized="0" inkscape:window-width="640" inkscape:pageopacity="0" inkscape:window-y="22" inkscape:current-layer="Layer_1" inkscape:pageshadow="2" inkscape:window-x="0" inkscape:window-height="480">
	</sodipodi:namedview>
<path id="path3220" d="M95.125,22.608c0,0-2.429,2.547-4.251,3.396c-1.816,0.849-4.727-2.061-11.769-2.061
	c-7.031,0-13.826,11.28-14.676,13.583c-0.066,0.191-0.135,0.358-0.216,0.53l-3.94-2.407c0.15-0.829-0.207-1.702-0.977-2.152
	l-5.32-3.122v-8.381c0-3.132-2.541-5.676-5.669-5.676c-3.132,0-5.672,2.543-5.672,5.676v18.933H27.311
	c-1.738,0-3.305,0.482-4.667,1.271c-4.249-0.651-10.582-0.347-13.045,2.004c-2.55,2.428-4.723,5.457-4.723,12.247
	c0,6.791,0,16.377,0,16.377c4.723-3.882,6.908-9.828,6.908-16.01c0-6.189,2.308-14.315,8.61-12.982l0.223-0.127
	c-2.79,2.587-4.344,6.405-4.344,8.863c0,4.006,1.218,6.676,5.097,11.891l0.06,0.816l-3.859,5.038
	c-0.167,0.224-0.303,0.484-0.382,0.755l-6.305,20.977c-0.371,1.236,0.33,2.538,1.561,2.918c0.225,0.071,0.455,0.092,0.67,0.092
	c1.008,0,1.937-0.646,2.235-1.653l6.189-20.587l0.766-0.997l8.598-4.153l-0.786,3.715c-0.06,0.305-0.06,0.622,0,0.93l4.125,21.104
	c0.21,1.117,1.188,1.89,2.287,1.89c0.148,0,0.295-0.014,0.451-0.044c1.26-0.248,2.088-1.47,1.841-2.743l-4.032-20.642l1.359-6.45
	c0.024-0.101,0.024-0.221,0.036-0.322l0.833-0.404l32.751,1.344l-8.418,28.07c-0.371,1.236,0.334,2.545,1.562,2.907
	c0.232,0.071,0.455,0.099,0.669,0.099c1.005,0,1.935-0.652,2.237-1.662l8.27-27.559l8.474,5.453l-0.325,13.252
	c-0.037,1.281,0.988,2.355,2.279,2.384c0.013,0,0.039,0,0.059,0c1.261,0,2.305-1.009,2.329-2.27l0.362-14.559
	c0.021-0.816-0.389-1.583-1.068-2.029l-11.875-7.637l0.422-0.827c0,0,2.332-7.207,4.337-13.375l8.091,1.259
	c0.251,1.75,1.375,2.173,3.584,2.173c3.398,0,3.276-2.185,3.276-3.644C94.034,46.63,95.125,22.608,95.125,22.608z M62.677,52.437
	c-0.979,1.999-1.581,3.08-1.845,3.542l-5.411-2.598l0.696-1.917l-0.235-0.143c-0.002-0.006-7.759-4.835-9.88-6.17
	c-2.117-1.339-2.67-2.349-2.67-4.25c0-2.251,0-3.519,0-4.073h9.916c0,0-0.017,2.906-0.017,3.607c0,0.709,0.234,2.048,2.68,3.729
	c2.34,1.623,5.093,3.328,5.69,3.811c0.479,0.378,1.53,1.263,1.53,2.705C63.133,51.186,63.007,51.767,62.677,52.437z M60.673,40.926
	c-1.822,0-5.213,0-5.213,0s-0.546,0-1.483,0v-5.748l3.215,1.89c0.803,0.47,1.774,0.338,2.43-0.252l3.979,2.427
	C62.873,40.372,61.957,40.926,60.673,40.926z M87.126,48.196l-7.616-1.191c1.204-3.711,2.217-6.804,2.395-7.293
	c0.484-1.332,1.695-1.332,1.818,0c0.123,1.336,1.82,4.245,3.764,5.704C87.276,46.522,87.162,47.43,87.126,48.196z M49.508,9.335
	c1.018,0.017,1.147,0.343,1.346,1.048c0,0.024,0.014,0.036,0.023,0.048c0.611,2.356,1.412,6.189,3.443,5.963
	c1.803-0.2,3.131-3.321,3.736-5.462l2.06-0.02c0.483-0.003,0.874-0.395,0.866-0.875c-0.006-0.483-0.395-0.866-0.877-0.866
	l-0.548,0.003c-0.155-0.538-0.532-1.913-0.767-2.774c-0.295-1.081-2.58-4.297-6.059-3.348c-3.487,0.949-4.357,3.76-4.229,5.253
	C48.539,8.693,48.492,9.319,49.508,9.335z"/>
</svg>
