<?xml version="1.0" encoding="utf-8"?>
<!-- Generator: Adobe Illustrator 16.2.1, SVG Export Plug-In . SVG Version: 6.00 Build 0)  -->
<!DOCTYPE svg PUBLIC "-//W3C//DTD SVG 1.1//EN" "http://www.w3.org/Graphics/SVG/1.1/DTD/svg11.dtd">
<svg version="1.1"
	 id="svg6584" xmlns:dc="http://purl.org/dc/elements/1.1/" xmlns:cc="http://creativecommons.org/ns#" xmlns:rdf="http://www.w3.org/1999/02/22-rdf-syntax-ns#" xmlns:svg="http://www.w3.org/2000/svg"
	 xmlns="http://www.w3.org/2000/svg" xmlns:xlink="http://www.w3.org/1999/xlink" x="0px" y="0px" width="100px" height="100px"
	 viewBox="0 0 100 100" enable-background="new 0 0 100 100" xml:space="preserve">
<path id="path5421" d="M64.812,15.439l-2.47,4.937l9.874,3.703v11.108h-34.56V30.25h4.938v-2.468c0-1.215-1.254-2.469-2.468-2.469
	H27.781c-2.469,0-2.469,2.469-2.469,2.469v2.469h7.406v4.938l-5.245,10.492c-1.48-0.355-3.041-0.618-4.628-0.618
	c-10.907,0-19.75,8.842-19.75,19.75c0,10.906,8.843,19.748,19.75,19.748s19.749-8.842,19.749-19.748c0,0,4.937,0,7.406,0
	c2.471,0,2.471-2.471,2.471-2.471c0.505-7.261,4.247-12.954,9.101-16.662c3.357-2.563,6.977-4.146,10.646-4.938v3.086v2.006
	c-8.514,2.195-14.812,9.777-14.812,18.979c0,10.906,8.842,19.748,19.748,19.748c10.907,0,19.751-8.842,19.751-19.748
	c0-9.027-6.079-16.468-14.349-18.823l-5.402-10.801V22.847c0-1.432-1.148-3.024-2.467-3.55L64.812,15.439z M37.656,40.126h22.218
	c-4.939,2.468-12.345,14.811-12.345,19.749h-5.707c-1.249-4.841-4.098-8.916-8.178-11.572L37.656,40.126z M22.845,52.468
	c6.816,0,12.343,5.526,12.343,12.345c0,6.816-5.527,12.342-12.343,12.342c-6.817,0-12.343-5.525-12.343-12.342
	C10.501,57.994,16.028,52.468,22.845,52.468L22.845,52.468z M77.153,52.468c6.817,0,12.346,5.526,12.346,12.345
	c0,6.816-5.528,12.342-12.346,12.342c-6.816,0-12.342-5.525-12.342-12.342C64.812,57.994,70.337,52.468,77.153,52.468L77.153,52.468
	z"/>
</svg>
