<?xml version="1.0" encoding="utf-8"?>
<!-- Generator: Adobe Illustrator 16.2.1, SVG Export Plug-In . SVG Version: 6.00 Build 0)  -->
<!DOCTYPE svg PUBLIC "-//W3C//DTD SVG 1.1//EN" "http://www.w3.org/Graphics/SVG/1.1/DTD/svg11.dtd">
<svg version="1.1"
	 id="svg3402" xmlns:dc="http://purl.org/dc/elements/1.1/" xmlns:cc="http://creativecommons.org/ns#" xmlns:rdf="http://www.w3.org/1999/02/22-rdf-syntax-ns#" xmlns:svg="http://www.w3.org/2000/svg" xmlns:sodipodi="http://sodipodi.sourceforge.net/DTD/sodipodi-0.dtd" xmlns:inkscape="http://www.inkscape.org/namespaces/inkscape" sodipodi:docname="noun_project_9021.svg" inkscape:version="0.48.2 r9819"
	 xmlns="http://www.w3.org/2000/svg" xmlns:xlink="http://www.w3.org/1999/xlink" x="0px" y="0px" width="100px" height="100px"
	 viewBox="0 0 100 100" enable-background="new 0 0 100 100" xml:space="preserve">
<path id="path3412" d="M74.521,71.575L59.477,35.742l-2.142-0.406l-7.318,11.66l-10.134-9.044L33.822,41.7L27.37,57.371
	l8.059,20.415c0.52,1.509,0.61,2.528,0.496,3.214l36.567-0.005C72.492,80.995,78.029,81.111,74.521,71.575z M40.239,32.099
	l9.005,8.034l6.436-10.239l1.459,0.276l-4.927-11.736l-1.826-4.329c0,0-2.433-6.703-5.405,0.511l-2.029,4.928l-6.015,14.603
	L40.239,32.099z M29.467,76.314L19.065,49.958l-0.851-2.141c0,0-1.137-3.326-2.524,0.245l-0.946,2.454L4.466,77.047
	c0,0-1.419,3.115,0.694,3.953l1.877-0.005l21.487-0.006C28.524,80.989,31.104,81.048,29.467,76.314z M97.504,74.9L79.287,40.48
	l-1.486-2.804c0,0-1.988-4.335-4.412,0.334l-1.658,3.185l-2.668,5.155l12.58,28.386c1.045,2.668,1.448,4.709,1.471,6.264h12.73
	C95.844,81,100.368,81.077,97.504,74.9L97.504,74.9z"/>
</svg>
