<?xml version="1.0" encoding="utf-8"?>
<!-- Generator: Adobe Illustrator 16.2.1, SVG Export Plug-In . SVG Version: 6.00 Build 0)  -->
<!DOCTYPE svg PUBLIC "-//W3C//DTD SVG 1.1//EN" "http://www.w3.org/Graphics/SVG/1.1/DTD/svg11.dtd">
<svg version="1.1"
	 id="Layer_1" xmlns:dc="http://purl.org/dc/elements/1.1/" xmlns:cc="http://creativecommons.org/ns#" xmlns:rdf="http://www.w3.org/1999/02/22-rdf-syntax-ns#" xmlns:svg="http://www.w3.org/2000/svg" xmlns:sodipodi="http://sodipodi.sourceforge.net/DTD/sodipodi-0.dtd" xmlns:inkscape="http://www.inkscape.org/namespaces/inkscape" inkscape:version="0.48.2 r9819" sodipodi:docname="noun_project_313.svg"
	 xmlns="http://www.w3.org/2000/svg" xmlns:xlink="http://www.w3.org/1999/xlink" x="0px" y="0px" width="100px" height="100px"
	 viewBox="0 0 100 100" enable-background="new 0 0 100 100" xml:space="preserve">
<path id="path5" d="M6.424,42.358v53.127H97.5V42.358H6.424z M89.909,71.769H14.083v-21.82h75.826V71.769z M2.5,20.895l3.925,21.464
	l89.59-16.38L92.09,4.515L2.5,20.895z M48.463,18.277l9.977-1.824l-8.391,12.143l-9.975,1.823L48.463,18.277z M29.519,32.351
	l-9.975,1.822l8.389-12.142l9.975-1.823L29.519,32.351z M68.996,14.522L78.97,12.7l-8.389,12.142l-9.974,1.823L68.996,14.522z
	 M17.376,23.961l-6.744,9.763L9.121,25.47L17.376,23.961z M81.138,22.912l6.745-9.763l1.509,8.253L81.138,22.912z"/>
</svg>
