<?xml version="1.0" encoding="utf-8"?>
<!-- Generator: Adobe Illustrator 16.2.1, SVG Export Plug-In . SVG Version: 6.00 Build 0)  -->
<!DOCTYPE svg PUBLIC "-//W3C//DTD SVG 1.1//EN" "http://www.w3.org/Graphics/SVG/1.1/DTD/svg11.dtd">
<svg version="1.1"
	 id="Your_Icon" xmlns:dc="http://purl.org/dc/elements/1.1/" xmlns:cc="http://creativecommons.org/ns#" xmlns:rdf="http://www.w3.org/1999/02/22-rdf-syntax-ns#" xmlns:svg="http://www.w3.org/2000/svg" xmlns:sodipodi="http://sodipodi.sourceforge.net/DTD/sodipodi-0.dtd" xmlns:inkscape="http://www.inkscape.org/namespaces/inkscape" sodipodi:docname="noun_project_8201.svg" inkscape:version="0.48.2 r9819"
	 xmlns="http://www.w3.org/2000/svg" xmlns:xlink="http://www.w3.org/1999/xlink" x="0px" y="0px" width="100px" height="100px"
	 viewBox="0 0 100 100" enable-background="new 0 0 100 100" xml:space="preserve">
<path id="path3394" d="M55.311,32.74H44.689c-7.303,0-13.277,5.975-13.277,13.277v10.621c0,4.886,2.682,9.163,6.638,11.472V83.19
	c0,5.843,4.779,10.622,10.622,10.622h2.654c5.844,0,10.621-4.779,10.621-10.622V68.109c3.959-2.305,6.641-6.586,6.641-11.472V46.017
	C68.588,38.715,62.611,32.74,55.311,32.74z M61.947,18.137c0,6.598-5.35,11.948-11.948,11.948c-6.599,0-11.948-5.35-11.948-11.948
	c0-6.6,5.349-11.949,11.948-11.949C56.598,6.188,61.947,11.537,61.947,18.137z"/>
</svg>
