<?xml version="1.0" encoding="utf-8"?>
<!-- Generator: Adobe Illustrator 16.2.1, SVG Export Plug-In . SVG Version: 6.00 Build 0)  -->
<!DOCTYPE svg PUBLIC "-//W3C//DTD SVG 1.1//EN" "http://www.w3.org/Graphics/SVG/1.1/DTD/svg11.dtd">
<svg version="1.1" id="Layer_1" xmlns="http://www.w3.org/2000/svg" xmlns:xlink="http://www.w3.org/1999/xlink" x="0px" y="0px"
	 width="100px" height="100px" viewBox="0 0 100 100" enable-background="new 0 0 100 100" xml:space="preserve">
<path d="M58.377,30c0,0,3.232-7.655,4.383-7.813c1.154-0.16,3.467,3.527,4.77,0.068c1.347,4.449,10.729,7.441,6.99-1.273
	c5.162,1.614,7.81,1.713,1.195-3.931c3.195-0.321,2.766-5.769-5.562-4.939C71.503,6.216,60.087-3.845,58.04,6.664
	c-3.517-2.874-12.369-3.065-3.315,3.961c-9.483,0.1-4.786,4.936-0.148,4.638c-2.611,3.803,2.289,4.684,4.248,2.165
	c0.561,5.369-1.758,10.69-3.592,11.794c-2.699-1.67-10.742-1.547-17.689,20.206c-4.076,4.775-12.458,29.625-12.815,33.766
	c0.002,1.338-3.163,3.334-3.396,5.168c-0.231,1.836,1.256,6.158-0.979,7.992c0,0,3.068,1.537,5.093-7.084
	c1.047-0.631,3.635-2.992,6.553-10.728c2.383-0.188,7.868-7.508,9.067-10.104c1.888,0.468,10.045-5.522,9.719-12.28
	c2.281,0.678,7.136-7.243,7.861-11.069C61.65,42.382,64.674,35.566,58.377,30z"/>
</svg>
