<?xml version="1.0" encoding="utf-8"?>
<!-- Generator: Adobe Illustrator 16.2.1, SVG Export Plug-In . SVG Version: 6.00 Build 0)  -->
<!DOCTYPE svg PUBLIC "-//W3C//DTD SVG 1.1//EN" "http://www.w3.org/Graphics/SVG/1.1/DTD/svg11.dtd">
<svg version="1.1"
	 id="Layer_1" xmlns:dc="http://purl.org/dc/elements/1.1/" xmlns:cc="http://creativecommons.org/ns#" xmlns:rdf="http://www.w3.org/1999/02/22-rdf-syntax-ns#" xmlns:svg="http://www.w3.org/2000/svg" xmlns:sodipodi="http://sodipodi.sourceforge.net/DTD/sodipodi-0.dtd" xmlns:inkscape="http://www.inkscape.org/namespaces/inkscape" inkscape:version="0.48.2 r9819" sodipodi:docname="noun_project_11136.svg"
	 xmlns="http://www.w3.org/2000/svg" xmlns:xlink="http://www.w3.org/1999/xlink" x="0px" y="0px" width="100px" height="100px"
	 viewBox="0 0 100 100" enable-background="new 0 0 100 100" xml:space="preserve">
<path id="path15" d="M17.158,27.91c1.549,0,2.853-0.534,3.913-1.593c1.062-1.062,1.592-2.365,1.592-3.914
	c0-1.105-0.298-2.1-0.895-2.987c-0.598-0.882-1.403-1.568-2.42-2.056c-0.177-0.088-0.387-0.164-0.63-0.23
	c-0.243-0.067-0.474-0.1-0.697-0.1h-1.658c-0.22,0-0.453,0.032-0.695,0.1c-0.243,0.066-0.453,0.142-0.631,0.23
	c-0.971,0.444-1.768,1.117-2.387,2.024c-0.62,0.906-0.93,1.914-0.93,3.019c0,1.504,0.521,2.796,1.56,3.881
	C14.318,27.366,15.611,27.91,17.158,27.91z M58.695,33.479c-0.354-0.794-0.828-1.514-1.426-2.156
	c-0.598-0.639-1.271-1.168-2.023-1.59c-0.751-0.421-1.524-0.632-2.32-0.632h-4.179l0.038-0.031h-8.219
	c-0.167,0-0.336,0.012-0.505,0.031h-0.267l-0.002,0.042c-0.362,0.063-0.729,0.167-1.098,0.319c-0.637,0.263-1.229,0.605-1.777,1.02
	c-0.548,0.417-1.03,0.898-1.445,1.447c-0.417,0.549-0.712,1.107-0.888,1.677l-2.756,9.138l-2.756-9.138
	c-0.176-0.57-0.47-1.128-0.889-1.677c-0.416-0.548-0.896-1.03-1.446-1.447c-0.548-0.416-1.139-0.757-1.775-1.02
	c-0.372-0.152-0.736-0.256-1.099-0.319l-0.002-0.042h-0.267c-0.169-0.02-0.338-0.031-0.506-0.031H14.87l0.038,0.031h-4.183
	c-0.796,0-1.569,0.211-2.321,0.632c-0.752,0.421-1.427,0.951-2.023,1.59c-0.597,0.642-1.072,1.361-1.426,2.156
	c-0.354,0.797-0.531,1.573-0.531,2.323v17.643c0,0.619,0.255,1.109,0.763,1.461c0.508,0.354,1.029,0.529,1.559,0.529
	c0.488,0,0.929-0.1,1.326-0.297c0.398-0.197,0.687-0.539,0.862-1.025c0.045-0.049,0.112-0.203,0.201-0.465V37.728h1.06v42.583
	c0.178,0.488,0.289,0.773,0.332,0.861c0.266,0.617,0.663,1.074,1.194,1.361c0.532,0.287,1.106,0.432,1.723,0.432
	c0.71,0,1.338-0.199,1.891-0.598c0.553-0.4,0.94-0.904,1.161-1.525c0.089-0.086,0.157-0.266,0.2-0.531V55.305h1.061v24.74
	c0,0.84,0.342,1.537,1.028,2.088c0.687,0.555,1.405,0.832,2.156,0.832c0.707,0,1.336-0.189,1.89-0.566
	c0.554-0.377,0.918-0.895,1.093-1.561c0.045-0.086,0.111-0.309,0.2-0.662V37.725l-0.03-0.998l0.03,0.026l1.197,0.01l4.339,14.4
	c0.131,0.482,0.395,0.865,0.789,1.15c0.396,0.287,0.832,0.426,1.314,0.426c0.021,0,0.04-0.004,0.061-0.004
	c0.02,0,0.039,0.004,0.061,0.004c0.481,0,0.919-0.139,1.314-0.426c0.395-0.285,0.658-0.668,0.79-1.15l4.339-14.4l1.197-0.01
	l0.03-0.026l-0.03,0.998v42.453c0.087,0.354,0.154,0.576,0.199,0.662c0.176,0.664,0.54,1.184,1.093,1.559
	c0.553,0.377,1.183,0.566,1.891,0.566c0.75,0,1.47-0.277,2.156-0.832c0.685-0.549,1.028-1.246,1.028-2.086V55.305h1.061v25.004
	c0.043,0.264,0.111,0.445,0.201,0.531c0.22,0.621,0.607,1.127,1.16,1.527c0.553,0.396,1.182,0.598,1.891,0.598
	c0.617,0,1.193-0.146,1.723-0.432c0.532-0.289,0.93-0.742,1.194-1.361c0.044-0.09,0.154-0.377,0.332-0.863V37.725h1.062v15.922
	c0.088,0.264,0.154,0.418,0.199,0.463c0.178,0.488,0.463,0.83,0.862,1.027c0.397,0.199,0.839,0.297,1.327,0.297
	c0.529,0,1.048-0.178,1.559-0.531c0.507-0.352,0.762-0.844,0.762-1.459V35.802C59.227,35.052,59.049,34.276,58.695,33.479z
	 M46.492,27.91c1.546,0,2.839-0.544,3.88-1.625c1.039-1.085,1.558-2.377,1.558-3.881c0-1.105-0.309-2.112-0.928-3.019
	c-0.619-0.907-1.417-1.58-2.388-2.024c-0.179-0.088-0.389-0.164-0.631-0.23c-0.244-0.067-0.476-0.1-0.696-0.1h-1.658
	c-0.222,0-0.454,0.032-0.696,0.1c-0.244,0.066-0.454,0.142-0.63,0.23c-1.017,0.488-1.824,1.174-2.42,2.056
	c-0.598,0.887-0.896,1.881-0.896,2.987c0,1.549,0.529,2.852,1.593,3.914C43.638,27.377,44.943,27.91,46.492,27.91z M67.123,78.559
	c0-1.055-0.855-1.912-1.912-1.912s-1.912,0.857-1.912,1.912c0,1.057,0.854,1.912,1.912,1.912
	C66.268,80.473,67.123,79.617,67.123,78.559 M84.826,78.559c0-1.055-0.855-1.912-1.912-1.912c-1.051,0-1.91,0.857-1.91,1.912
	c0,1.057,0.857,1.912,1.91,1.912C83.969,80.473,84.826,79.617,84.826,78.559 M62.877,74.801c-0.248-0.68-0.35-1.416-0.183-2.16
	c0.2-0.84,0.657-1.543,1.269-2.059l26.451-21.055c0.643-0.472,1.434-0.764,2.295-0.764c2.107,0,3.807,1.7,3.807,3.817
	c0,1.227-0.561,2.316-1.445,3.025c-0.314,0.273-0.773,0.238-1.045-0.08c-0.279-0.314-0.234-0.803,0.086-1.064
	c0.57-0.42,0.93-1.107,0.93-1.881c0-1.287-1.047-2.334-2.328-2.334c-0.546,0-1.03,0.179-1.422,0.475l-7.688,6.123l-4.02,11.639
	l2.438,5.795c0.285-0.062,0.59-0.119,0.893-0.119c2.436,0,4.41,1.977,4.41,4.406c0,2.441-1.971,4.402-4.41,4.402
	c-2.43,0-4.398-1.959-4.398-4.402c0-1.572,0.82-2.959,2.069-3.727l-1.757-4.197l-0.145,0.449c-0.535,1.645-2.316,2.547-3.961,1.998
	l-8.167-2.693l-1.592,1.273c-0.377,0.309-0.663,0.752-0.79,1.268c-0.109,0.479-0.03,0.934,0.127,1.342
	c0.286-0.053,0.601-0.119,0.91-0.119c2.428,0,4.4,1.977,4.4,4.406c0,2.441-1.973,4.404-4.4,4.404s-4.409-1.961-4.409-4.404
	C60.804,76.967,61.607,75.57,62.877,74.801 M75.971,58.994c-1.977,0-3.568-1.592-3.568-3.566c0-1.979,1.592-3.584,3.568-3.584
	c1.975,0,3.577,1.607,3.577,3.584C79.547,57.402,77.945,58.994,75.971,58.994 M68.598,65.281l-3.945,3.131l-5.047,3.865
	c-1.441,1.129-2.618-0.23-2.618-0.23c-1.124-1.471,0.167-2.434,0.167-2.434l6.29-4.922c0,0,0.69-0.717,2.496-0.201L68.598,65.281"/>
</svg>
