<?xml version="1.0" encoding="utf-8"?>
<!-- Generator: Adobe Illustrator 16.2.1, SVG Export Plug-In . SVG Version: 6.00 Build 0)  -->
<!DOCTYPE svg PUBLIC "-//W3C//DTD SVG 1.1//EN" "http://www.w3.org/Graphics/SVG/1.1/DTD/svg11.dtd">
<svg version="1.1"
	 id="Capa_3" xmlns:dc="http://purl.org/dc/elements/1.1/" xmlns:cc="http://creativecommons.org/ns#" xmlns:rdf="http://www.w3.org/1999/02/22-rdf-syntax-ns#" xmlns:svg="http://www.w3.org/2000/svg" xmlns:sodipodi="http://sodipodi.sourceforge.net/DTD/sodipodi-0.dtd" xmlns:inkscape="http://www.inkscape.org/namespaces/inkscape" inkscape:version="0.48.2 r9819" sodipodi:docname="noun_project_14894.svg"
	 xmlns="http://www.w3.org/2000/svg" xmlns:xlink="http://www.w3.org/1999/xlink" x="0px" y="0px" width="100px" height="100px"
	 viewBox="0 0 100 100" enable-background="new 0 0 100 100" xml:space="preserve">
<path id="path4039" d="M93.182,28.291c-1.978,0-3.578,1.604-3.578,3.579v20.783c0,1.609,1.07,2.963,2.535,3.406v3.404
	c0.026,2.746-0.254,4.059-0.588,4.369c-0.139,0.227-0.573,0.379-1.438,0.449c-0.459-1.447-1.801-2.506-3.399-2.506h-0.41
	c-1.126,1.08-2.729,1.716-4.646,1.862l-15.904,1.921l-0.421,3.318c0.196,0.037,0.394,0.061,0.597,0.061h9.813v15.034
	c-4.815,0.405-8.743,3.911-9.784,8.519c-0.993,0.361-1.707,1.305-1.707,2.422c0,1.43,1.16,2.591,2.588,2.591
	c1.432,0,2.592-1.161,2.592-2.591c0-0.891-0.451-1.666-1.131-2.129c0.883-3.462,3.82-6.049,7.445-6.441v6.162
	c-0.971,0.375-1.658,1.311-1.658,2.408c0,1.43,1.154,2.591,2.586,2.591c1.431,0,2.586-1.161,2.586-2.591
	c0-1.098-0.691-2.035-1.664-2.408v-6.162c3.623,0.393,6.564,2.988,7.444,6.441c-0.677,0.463-1.124,1.247-1.124,2.129
	c0,1.43,1.158,2.591,2.586,2.591c1.432,0,2.59-1.161,2.59-2.591c0-1.119-0.713-2.061-1.707-2.422
	c-1.044-4.607-4.969-8.113-9.789-8.519V68.938h9.123c1.719,0,3.144-1.207,3.494-2.816c1.097-0.059,2.009-0.275,2.754-1.094
	c0.939-1.195,0.997-2.764,1.023-5.562v-3.329c1.592-0.366,2.778-1.781,2.778-3.481V31.87C96.764,29.894,95.164,28.291,93.182,28.291
	z M2.481,46.667h53.158v6.134H2.481V46.667z M16.281,40.652v4.054h20.042v-4.558H16.891l-5.722-21.233l-4.405,1.188l5.809,21.548
	L16.281,40.652z M61.496,20.499c4.924,0.982,9.709-2.207,10.691-7.127c0.984-4.919-2.205-9.708-7.128-10.693
	c-4.925-0.985-9.709,2.209-10.698,7.129C53.381,14.725,56.57,19.514,61.496,20.499z M80.717,62.697
	c3.937-0.311,6.596-2.622,6.373-6.768c-0.25-4.514,0.253-8.012-2.096-16.348c-4.199-14.85-7.256-16.245-9.827-17.824
	c-0.699-0.396-1.435-0.665-2.181-0.813c-1.576-0.315-3.209-0.093-4.627,0.6c-1.631,0.253-3.076,1.369-3.629,3.048h-0.002
	c0,0-0.018,0.059-0.138,0.351c-0.391,1.014-1.72,3.849-3.74,5.859c-2.128,2.017-5.941,3.962-9.741,4.092l-12.4,0.911l0.083,6.949
	l12.482,0.464c8.047-0.066,13.953-3.359,17.173-7.26c0.053,0.101,0.098,0.177,0.15,0.281c0.963,1.897,1.023,2.386,2.394,7.267
	c1.261,4.515,1.03,7.801,1.362,10.056c-1.282,0.159-2.609,0.329-3.912,0.495c-4.725,0.609-9.025,1.196-9.039,1.196
	c-0.379,0.054-0.736,0.161-1.086,0.29c-0.096,0.037-0.181,0.08-0.273,0.115c-0.28,0.127-0.551,0.271-0.8,0.447
	c-0.055,0.037-0.111,0.068-0.169,0.107c-0.289,0.217-0.537,0.465-0.771,0.732c-0.061,0.071-0.121,0.152-0.18,0.229
	c-0.188,0.25-0.357,0.516-0.502,0.799c-0.02,0.045-0.055,0.074-0.074,0.119L41.296,91.014l7.14,3.34l5.028-8.195l0.221,8.775
	l7.197,0.624l3.934-30.942L80.717,62.697z"/>
</svg>
