<?xml version="1.0" encoding="utf-8"?>
<!-- Generator: Adobe Illustrator 16.2.1, SVG Export Plug-In . SVG Version: 6.00 Build 0)  -->
<!DOCTYPE svg PUBLIC "-//W3C//DTD SVG 1.1//EN" "http://www.w3.org/Graphics/SVG/1.1/DTD/svg11.dtd">
<svg version="1.1"
	 id="Layer_1" xmlns:dc="http://purl.org/dc/elements/1.1/" xmlns:cc="http://creativecommons.org/ns#" xmlns:rdf="http://www.w3.org/1999/02/22-rdf-syntax-ns#" xmlns:svg="http://www.w3.org/2000/svg" xmlns:sodipodi="http://sodipodi.sourceforge.net/DTD/sodipodi-0.dtd" xmlns:inkscape="http://www.inkscape.org/namespaces/inkscape" inkscape:version="0.48.2 r9819" sodipodi:docname="noun_project_662.svg"
	 xmlns="http://www.w3.org/2000/svg" xmlns:xlink="http://www.w3.org/1999/xlink" x="0px" y="0px" width="100px" height="100px"
	 viewBox="0 0 100 100" enable-background="new 0 0 100 100" xml:space="preserve">
<path id="path3023" d="M92.338,76.027l4.939-6.954c0,0-34.275-37.165-76.626,0.909L3.41,60.1l7.632,14.588L2.5,90.408l18.311-8.652
	C65.152,114.813,97.5,81.411,97.5,81.411L92.338,76.027z M84.916,73.717c-2.188,0-3.959-1.795-3.959-3.969
	c0-2.201,1.771-3.971,3.959-3.971c2.199,0,3.98,1.768,3.98,3.971C88.896,71.922,87.115,73.717,84.916,73.717z M97.145,22.875
	c0-2.742-1.857-4.971-4.363-5.716V3.641h-3.369v13.513c-2.507,0.737-4.375,2.968-4.375,5.721c0,2.758,1.87,4.976,4.375,5.708v10.709
	v2.925v3.109c0,0-0.049,1.303-1.524,1.303c-1.572-0.025-1.498-1.303-1.498-1.303v-2.04c0,0-0.074-2.581-1.55-2.581
	c-1.475,0-1.475,2.581-1.475,2.581v1.918c0,0,0.109,4.818,4.597,4.818c4.743,0,4.815-4.941,4.815-4.941v-0.024v-2.839V41.37V28.583
	C95.287,27.84,97.145,25.628,97.145,22.875z M91.085,25.455c-1.425,0-2.582-1.155-2.582-2.581c0-1.414,1.157-2.569,2.582-2.569
	s2.581,1.155,2.581,2.569C93.666,24.3,92.51,25.455,91.085,25.455z"/>
</svg>
