<?xml version="1.0" encoding="utf-8"?>
<!-- Generator: Adobe Illustrator 16.2.1, SVG Export Plug-In . SVG Version: 6.00 Build 0)  -->
<!DOCTYPE svg PUBLIC "-//W3C//DTD SVG 1.1//EN" "http://www.w3.org/Graphics/SVG/1.1/DTD/svg11.dtd">
<svg version="1.1"
	 id="Layer_1" xmlns:dc="http://purl.org/dc/elements/1.1/" xmlns:cc="http://creativecommons.org/ns#" xmlns:rdf="http://www.w3.org/1999/02/22-rdf-syntax-ns#" xmlns:svg="http://www.w3.org/2000/svg" xmlns:sodipodi="http://sodipodi.sourceforge.net/DTD/sodipodi-0.dtd" xmlns:inkscape="http://www.inkscape.org/namespaces/inkscape" inkscape:version="0.48.2 r9819" sodipodi:docname="noun_project_3528.svg"
	 xmlns="http://www.w3.org/2000/svg" xmlns:xlink="http://www.w3.org/1999/xlink" x="0px" y="0px" width="100px" height="100px"
	 viewBox="0 0 100 100" enable-background="new 0 0 100 100" xml:space="preserve">
<sodipodi:namedview  guidetolerance="10" showgrid="false" inkscape:cy="50" id="namedview3252" pagecolor="#ffffff" inkscape:zoom="2.36" inkscape:cx="50" objecttolerance="10" gridtolerance="10" bordercolor="#666666" borderopacity="1" inkscape:window-maximized="0" inkscape:window-width="640" inkscape:pageopacity="0" inkscape:window-y="22" inkscape:current-layer="Layer_1" inkscape:pageshadow="2" inkscape:window-x="0" inkscape:window-height="480">
	</sodipodi:namedview>
<path id="path3250" d="M70.994,26.721C65.84,9.652,48.708,0.707,34.501,4.998C20.293,9.286,10.977,26.219,16.134,43.29
	c2.768,9.17,8.537,15.041,15.286,19.18c0.014,0.01,0.027,0.017,0.039,0.025l37.403-11.294c0.004-0.015,0.012-0.026,0.02-0.042
	C72.209,43.976,73.767,35.894,70.994,26.721z M67.393,53.72L34.076,63.781c4.241,1.601,8.503,1.259,13.839,5.791
	c4.061,3.445,8.687,26.013,8.687,26.013s1.584,1.154,5.494-0.104c3.91-1.257,4.136-2.804,4.136-2.804s-8.635-21.354-7.159-26.473
	C61.008,59.476,64.748,57.402,67.393,53.72z M77.316,64.681c-4.386,0.007-7.947,3.533-7.941,7.873
	c0.004,4.347,3.574,7.859,7.966,7.854c4.413-0.008,7.97-3.527,7.963-7.875C85.293,68.192,81.73,64.675,77.316,64.681z"/>
</svg>
