<?xml version="1.0" encoding="utf-8"?>
<!-- Generator: Adobe Illustrator 16.2.1, SVG Export Plug-In . SVG Version: 6.00 Build 0)  -->
<!DOCTYPE svg PUBLIC "-//W3C//DTD SVG 1.1//EN" "http://www.w3.org/Graphics/SVG/1.1/DTD/svg11.dtd">
<svg version="1.1"
	 id="Layer_1" xmlns:dc="http://purl.org/dc/elements/1.1/" xmlns:cc="http://creativecommons.org/ns#" xmlns:rdf="http://www.w3.org/1999/02/22-rdf-syntax-ns#" xmlns:svg="http://www.w3.org/2000/svg" xmlns:sodipodi="http://sodipodi.sourceforge.net/DTD/sodipodi-0.dtd" xmlns:inkscape="http://www.inkscape.org/namespaces/inkscape" inkscape:version="0.48.2 r9819" sodipodi:docname="noun_project_415.svg"
	 xmlns="http://www.w3.org/2000/svg" xmlns:xlink="http://www.w3.org/1999/xlink" x="0px" y="0px" width="100px" height="100px"
	 viewBox="0 0 100 100" enable-background="new 0 0 100 100" xml:space="preserve">
<sodipodi:namedview  guidetolerance="10" showgrid="false" inkscape:cy="50" id="namedview7" pagecolor="#ffffff" inkscape:zoom="2.36" inkscape:cx="50" objecttolerance="10" gridtolerance="10" bordercolor="#666666" borderopacity="1" inkscape:window-maximized="0" inkscape:window-width="640" inkscape:pageopacity="0" inkscape:window-y="22" inkscape:current-layer="Layer_1" inkscape:pageshadow="2" inkscape:window-x="0" inkscape:window-height="480">
	</sodipodi:namedview>
<path id="path5" d="M71.85,2.5h-43.7c-3.673,0-6.65,2.977-6.65,6.65v81.7c0,3.674,2.977,6.65,6.65,6.65h43.7
	c3.674,0,6.65-2.977,6.65-6.65V9.15C78.5,5.477,75.523,2.5,71.85,2.5z M50,88.95c-9.968,0-18.05-8.081-18.05-18.05
	c0-9.97,8.082-18.051,18.05-18.051c9.97,0,18.051,8.081,18.051,18.051C68.051,80.869,59.97,88.95,50,88.95z M72.801,43.35
	c0,0.524-0.427,0.95-0.951,0.95h-43.7c-0.524,0-0.95-0.426-0.95-0.95V9.15c0-0.524,0.426-0.95,0.95-0.95h43.7
	c0.524,0,0.951,0.426,0.951,0.95V43.35z M56.65,70.9c0,3.672-2.978,6.65-6.65,6.65s-6.65-2.979-6.65-6.65
	c0-3.674,2.977-6.65,6.65-6.65S56.65,67.227,56.65,70.9z"/>
</svg>
