<?xml version="1.0" encoding="utf-8"?>
<!-- Generator: Adobe Illustrator 15.0.2, SVG Export Plug-In . SVG Version: 6.00 Build 0)  -->
<!DOCTYPE svg PUBLIC "-//W3C//DTD SVG 1.1//EN" "http://www.w3.org/Graphics/SVG/1.1/DTD/svg11.dtd">
<svg version="1.1"
	 id="svg6584" xmlns:svg="http://www.w3.org/2000/svg" xmlns:rdf="http://www.w3.org/1999/02/22-rdf-syntax-ns#" xmlns:cc="http://creativecommons.org/ns#" xmlns:dc="http://purl.org/dc/elements/1.1/"
	 xmlns="http://www.w3.org/2000/svg" xmlns:xlink="http://www.w3.org/1999/xlink" x="0px" y="0px" width="100px" height="100px"
	 viewBox="0 0 100 100" enable-background="new 0 0 100 100" xml:space="preserve">
<path id="path10911-4-1-7-6-7" d="M50,2.5C23.829,2.5,2.5,23.829,2.5,50c0,26.172,21.329,47.5,47.5,47.5
	c26.172,0,47.5-21.328,47.5-47.5C97.5,23.829,76.172,2.5,50,2.5z M50,10.882c14.898,0,27.793,8.236,34.402,20.432
	c-6.236,4.138-11.969,6.3-12.05,10.303c-0.055,2.793,0,3.583,0,5.588c0,2.794,1.456,6.39,5.59,8.382l9.778,4.716
	c-1.119,4.141-2.919,7.884-5.238,11.352l-7.335-4.891c-4.191-2.795-8.383-4.657-11.178-2.795l-8.382,5.59
	c-3.875,2.583-3.47,5.588-2.793,8.383l2.62,10.826c-1.773,0.247-3.573,0.346-5.415,0.346c-3.874,0-7.647-0.53-11.177-1.571v-9.604
	c0-5.589-2.793-8.383-5.588-11.176c-2.794-2.795-5.588-5.589-11.177-5.589h-9.604c-1.04-3.526-1.572-7.3-1.572-11.174
	C10.882,28.33,28.33,10.881,50,10.882L50,10.882z M33.235,30.441l-2.794,11.177c-0.792,3.171-2.906,6.445,0,8.382l8.382,5.588
	c5.589,3.726,8.053,1.562,11.177,0l5.588-2.794c4.166-2.083,5.59-2.794,5.59-8.383V33.235c0-2.794,0.044-4.462-5.59-5.589
	l-13.97-2.794C35.765,23.682,34.664,24.725,33.235,30.441z"/>
</svg>
