<?xml version="1.0" encoding="utf-8"?>
<!-- Generator: Adobe Illustrator 16.2.1, SVG Export Plug-In . SVG Version: 6.00 Build 0)  -->
<!DOCTYPE svg PUBLIC "-//W3C//DTD SVG 1.1//EN" "http://www.w3.org/Graphics/SVG/1.1/DTD/svg11.dtd">
<svg version="1.1"
	 id="Layer_1" xmlns:rdf="http://www.w3.org/1999/02/22-rdf-syntax-ns#" xmlns:svg="http://www.w3.org/2000/svg" xmlns:dc="http://purl.org/dc/elements/1.1/" xmlns:cc="http://creativecommons.org/ns#" xmlns:sodipodi="http://sodipodi.sourceforge.net/DTD/sodipodi-0.dtd" xmlns:inkscape="http://www.inkscape.org/namespaces/inkscape" sodipodi:docname="noun_project_10322.svg" inkscape:version="0.48.2 r9819"
	 xmlns="http://www.w3.org/2000/svg" xmlns:xlink="http://www.w3.org/1999/xlink" x="0px" y="0px" width="100px" height="100px"
	 viewBox="0 0 100 100" enable-background="new 0 0 100 100" xml:space="preserve">
<sodipodi:namedview  objecttolerance="10" id="namedview3503" bordercolor="#666666" inkscape:cx="75.553484" inkscape:zoom="9.44" gridtolerance="10" pagecolor="#ffffff" borderopacity="1" inkscape:cy="54.052992" showgrid="false" guidetolerance="10" inkscape:pageopacity="0" inkscape:pageshadow="2" inkscape:window-width="1710" inkscape:window-height="1218" inkscape:window-x="378" inkscape:window-y="22" inkscape:window-maximized="0" inkscape:current-layer="Layer_1">
	</sodipodi:namedview>
<path id="path4" d="M52.515,1.562c-0.344-0.001-0.562,0.031-0.562,0.031c-3.62-0.22-8.688,4.531-8.688,4.531
	c-0.87,0.43-1.656,3.25-1.656,3.25c-1.521,0.51-1.375,1.531-1.375,1.531c1.16-1.01,2.031-0.562,2.031-0.562l-0.812,0.719
	c-0.58-0.58-2.25,0.719-2.25,0.719c-3.19,4.2-0.5,4.625-0.5,4.625c-0.221-2.02,0.375-2.75,0.375-2.75
	c-1.01,6.37,1.656,3.906,1.656,3.906c-0.65-1.01-0.938-1.5-0.938-1.5c0.37-1.545,0.854-1.947,1.156-2.031
	c-0.86,1.01-0.062,2.25-0.062,2.25c-0.51,1.59,0.938,1.219,0.938,1.219l0.219-1.375l-0.094-0.656l0.969-1.219l0.062,0.5
	c-1.192,1.26-0.837,2.634-0.812,2.719l1.094-2.062l-0.438,1.875l0.375-0.719c0,0-0.062,0.343-0.062,0.562
	c0.129-0.11,0.562-0.844,0.562-0.844l-0.062,0.625c1.245-1.567,1.379-0.939,1.375-0.531c-0.064,0.137-0.394,0.471-1.969,0.906
	c0,0-0.364,0.068-0.875,0.188c0.001,0.003,0,0.031,0,0.031c-1.695,0.396-5.585,1.418-8.25,3.188l-0.719,0.938
	c0,0-0.361,0.942,0.719,1.312c0,0,2.973,4.124,6.812,7.094c0,0,2.812,2.146,2.812,2.656c0,0,1.326,1.312,1.906,1.312
	c0,0,2.76,0.732,3.281,2.25l-0.906-4.406c2.199,9.182,1.094,10.906,1.094,10.906c-4.989,6.44-3.125,10-3.125,10l0.719,0.281
	c-0.15,0.87-1.062,2.844-1.062,2.844c-2.25,2.239-4,9.594-4,9.594c-1.01,2.25-1.938,2.844-1.938,2.844
	c-6.15-2.68-12.875-0.938-12.875-0.938l-9-0.438c-2.17-0.22-2.375-1.156-2.375-1.156l-2.469-0.438
	c-2.03-0.43-2.656,4.562-2.656,4.562c-0.07,2.1-0.656,3.406-0.656,3.406c-1.45,2.6-1.031,8.312-1.031,8.312
	c0.51,2.531,2.312,0.219,2.312,0.219c0.51-2.75,4.5-6.969,4.5-6.969c2.529-3.18,9.031-2.156,9.031-2.156
	c3.189,0.73,9.188,1.531,9.188,1.531c2.899,0.068,7.125,1.156,7.125,1.156c3.471,0.8,4.625-1.375,4.625-1.375
	c0.58-1.23,2.688-4.281,2.688-4.281c4.629-4.41,7.219-12.875,7.219-12.875c2.391,5.5,4.906,7.969,4.906,7.969
	c1.811,0.939,5.219,6.938,5.219,6.938c0.729,7.891,3.969,11.5,3.969,11.5c1.021,1.52,3.312,3.781,3.312,3.781l2.25,3.625
	c1.15,2.102,1.244,3.615,1.312,4.625c0.102,1.381,2.094,2.812,2.094,2.812c2.389,0.07,4.5-2.094,4.5-2.094
	c1.01-1.3,2.938-1.875,2.938-1.875c3.62-1.16,5.719-4.406,5.719-4.406c1.16-3.621-2.156-2.031-2.156-2.031
	c-2.609,2.02-9.5-0.219-9.5-0.219c-2.82-2.25-6.844-13.656-6.844-13.656c-0.609-0.97-0.688-1.562-0.688-1.562l-0.219-3.188
	c-0.109-2.21-1.094-3.656-1.094-3.656c-1.159-0.441-3.125-6.312-3.125-6.312c-2.131-8.391-5.281-11.156-5.281-11.156
	c-1.25-0.85-2.531-4.656-2.531-4.656l0.062-2.031c0.359-1.11-0.312-2.656-0.312-2.656c2.99-1.54,8.75-6.312,8.75-6.312
	c0.891-0.8,1.531-0.938,1.531-0.938c1.01-0.31,1.469-0.875,1.469-0.875c0.43-0.52,2.531-2.094,2.531-2.094
	c0.57-0.52,0.219-1.469,0.219-1.469c-0.129-0.49-0.75,0.25-0.75,0.25c0.061-0.42-0.406-0.594-0.406-0.594
	c0.52-0.74-0.375-0.906-0.375-0.906l0.375-0.438c0.26-0.85-0.531-0.594-0.531-0.594l-1.062,0.656c0.34-0.78-0.375-0.562-0.375-0.562
	c-0.23,0.39-0.541,0.336-0.781,0.406c-0.271,0.09-0.5,0.219-0.5,0.219c-0.29,0.36-1.031,1.094-1.031,1.094
	c-0.661,0.44-1.281,2.75-1.281,2.75c-4.191,3.84-7.688,4.719-7.688,4.719c0.148-0.73-0.281-4.062-0.281-4.062
	c2.32-4.28-4.188-9.469-4.188-9.469c0.139-0.51-0.531-1.156-0.531-1.156c-0.29-0.22-0.125-1.094-0.125-1.094l1.156-2.188
	c2.969,1.01,3.094-0.5,3.094-0.5c-0.141-0.21,0.312-0.781,0.312-0.781c1.01-0.22,0.5-0.75,0.5-0.75c0.29-0.14,0-1,0-1
	c1.66,0,1-0.812,1-0.812c-0.29-0.07-1.094-1.938-1.094-1.938c0.58-1.09-0.125-2.969-0.125-2.969c0.87-1.88-1.812-3.75-1.812-3.75
	C55.825,1.789,53.544,1.566,52.515,1.562z M43.858,21.906c0,0,0.964,3.764,2.344,3.844c0.619,2.086,1.102,3.915,1.5,5.531
	c-0.033,0.205-0.442,0.25-2.844-2c0,0-4.272-4.549-5.281-6.719L43.858,21.906z"/>
</svg>
