<?xml version="1.0" encoding="utf-8"?>
<!-- Generator: Adobe Illustrator 16.2.1, SVG Export Plug-In . SVG Version: 6.00 Build 0)  -->
<!DOCTYPE svg PUBLIC "-//W3C//DTD SVG 1.1//EN" "http://www.w3.org/Graphics/SVG/1.1/DTD/svg11.dtd">
<svg version="1.1"
	 id="Layer_1" xmlns:dc="http://purl.org/dc/elements/1.1/" xmlns:cc="http://creativecommons.org/ns#" xmlns:rdf="http://www.w3.org/1999/02/22-rdf-syntax-ns#" xmlns:svg="http://www.w3.org/2000/svg" xmlns:sodipodi="http://sodipodi.sourceforge.net/DTD/sodipodi-0.dtd" xmlns:inkscape="http://www.inkscape.org/namespaces/inkscape" inkscape:version="0.48.2 r9819" sodipodi:docname="noun_project_10123.svg"
	 xmlns="http://www.w3.org/2000/svg" xmlns:xlink="http://www.w3.org/1999/xlink" x="0px" y="0px" width="100px" height="100px"
	 viewBox="0 0 100 100" enable-background="new 0 0 100 100" xml:space="preserve">
<path id="path3490" d="M58.537,50.219l-0.995-37.002l0.003-0.021c0.002-0.026,0.052-0.725-0.632-1.47
	c-0.771-0.838-2.604-1.843-6.909-1.771c-0.156-0.002-0.301-0.003-0.441-0.003c-4.03,0-5.756,0.976-6.495,1.794
	c-0.666,0.738-0.614,1.444-0.613,1.45l0.002,0.021v0.021l-1.139,37.019v0.022c0.157,0.269,1.479,2.032,8.677,1.912
	c0.242,0.004,0.468,0.006,0.689,0.006c6.621,0,7.727-1.692,7.854-1.95L58.537,50.219z M66.839,58.467c0,0,0.499-5.679-7.688-8.08
	c-0.074,0.269-0.899,2.432-8.467,2.432c-0.002,0-0.002,0-0.002,0c-0.223,0-0.454-0.001-0.688-0.006
	c-0.229,0.005-0.462,0.006-0.689,0.006c-7.588,0-8.516-2.135-8.596-2.377l-0.003-0.012c-8.036,2.429-7.545,8.037-7.545,8.037v23.707
	c0,0-0.818,8.056,16.839,7.873c17.658,0.183,16.838-7.873,16.838-7.873V58.467z"/>
</svg>
