<?xml version="1.0" encoding="utf-8"?>
<!-- Generator: Adobe Illustrator 16.2.1, SVG Export Plug-In . SVG Version: 6.00 Build 0)  -->
<!DOCTYPE svg PUBLIC "-//W3C//DTD SVG 1.1//EN" "http://www.w3.org/Graphics/SVG/1.1/DTD/svg11.dtd">
<svg version="1.1" id="Layer_1" xmlns="http://www.w3.org/2000/svg" xmlns:xlink="http://www.w3.org/1999/xlink" x="0px" y="0px"
	 width="100px" height="100px" viewBox="0 0 100 100" enable-background="new 0 0 100 100" xml:space="preserve">
<path d="M84.091,2.5H16.388c-2.127,0-3.857,1.736-3.857,3.861v87.27c0,2.129,1.73,3.869,3.857,3.869h67.703
	c2.133,0,3.862-1.74,3.862-3.869V6.361C87.953,4.236,86.224,2.5,84.091,2.5z M25.556,86.951h-6.51V76.395h6.51V86.951z
	 M25.556,55.283v10.549h-6.51V55.283v-0.009h6.51V55.283z M25.556,44.709v0.012h-6.51v-0.012v-10.54h6.51V44.709z M25.556,23.599
	h-6.51v-10.55h6.51V23.599z M68.416,86.951H32.069V55.283h36.347V86.951z M68.416,44.709H32.069V13.049h36.347V44.709z
	 M81.436,86.951h-6.51V76.395h6.51V86.951z M81.436,55.283v10.549h-6.51V55.283v-0.009h6.51V55.283z M81.436,44.709v0.012h-6.51
	v-0.012v-10.54h6.51V44.709z M81.436,23.599h-6.51v-10.55h6.51V23.599z"/>
</svg>
