<?xml version="1.0" encoding="utf-8"?>
<!-- Generator: Adobe Illustrator 16.2.1, SVG Export Plug-In . SVG Version: 6.00 Build 0)  -->
<!DOCTYPE svg PUBLIC "-//W3C//DTD SVG 1.1//EN" "http://www.w3.org/Graphics/SVG/1.1/DTD/svg11.dtd">
<svg version="1.1"
	 id="Layer_1" xmlns:dc="http://purl.org/dc/elements/1.1/" xmlns:cc="http://creativecommons.org/ns#" xmlns:rdf="http://www.w3.org/1999/02/22-rdf-syntax-ns#" xmlns:svg="http://www.w3.org/2000/svg" xmlns:sodipodi="http://sodipodi.sourceforge.net/DTD/sodipodi-0.dtd" xmlns:inkscape="http://www.inkscape.org/namespaces/inkscape" inkscape:version="0.48.2 r9819" sodipodi:docname="noun_project_9229.svg"
	 xmlns="http://www.w3.org/2000/svg" xmlns:xlink="http://www.w3.org/1999/xlink" x="0px" y="0px" width="100px" height="100px"
	 viewBox="0 0 100 100" enable-background="new 0 0 100 100" xml:space="preserve">
<path id="path24" d="M91.041,67.355L62.332,17.76c-2.377-5.78-6.678-8.71-12.782-8.71c-5.494,0-10.359,3.137-12.642,8.07
	L6.275,71.186l-0.051,0.115C5.413,73.113,5,75.029,5,77c0,6.541,4.562,12.15,10.818,13.586l0.204,0.363H80.6l0.269-0.002
	c0.06,0.002,0.12,0.002,0.183,0.002c0.229,0,0.455-0.004,0.68-0.016l0.521-0.006l0.014-0.027C89.498,90.324,95,84.623,95,77.449
	C95,74.273,93.705,70.969,91.041,67.355z M81.051,88.25c-0.148,0-0.293-0.018-0.438-0.021L80.6,88.25h-63l-0.055-0.096
	C11.997,87.461,7.7,82.738,7.7,77c0-1.639,0.358-3.189,0.987-4.594L38.975,18.95l0.087,0.007c1.624-4.213,5.702-7.207,10.488-7.207
	c5.436,0,8.549,2.7,10.35,7.2l28.88,49.89c1.72,2.311,3.521,5.393,3.521,8.609C92.301,83.664,87.262,88.25,81.051,88.25z M91.4,77
	c0,5.717-4.634,10.35-10.35,10.35C75.334,87.35,70.7,82.717,70.7,77s4.634-10.35,10.351-10.35C86.767,66.65,91.4,71.283,91.4,77z
	 M70.7,77c0,5.717-4.634,10.35-10.351,10.35C54.634,87.35,50,82.717,50,77s4.634-10.35,10.35-10.35
	C66.066,66.65,70.7,71.283,70.7,77z M81.5,59c0,5.717-4.633,10.35-10.35,10.35S60.801,64.717,60.801,59s4.633-10.35,10.35-10.35
	S81.5,53.283,81.5,59z M60.801,59c0,5.717-4.635,10.35-10.351,10.35S40.1,64.717,40.1,59s4.634-10.35,10.35-10.35
	S60.801,53.283,60.801,59z M70.7,41c0,5.716-4.634,10.349-10.351,10.349C54.634,51.35,50,46.716,50,41s4.634-10.35,10.35-10.35
	C66.066,30.65,70.7,35.285,70.7,41z M59.9,23c0,5.716-4.634,10.35-10.35,10.35c-5.716,0-10.35-4.634-10.35-10.35
	s4.634-10.35,10.35-10.35C55.267,12.65,59.9,17.285,59.9,23z M50,41c0,5.716-4.634,10.349-10.35,10.349
	C33.934,51.35,29.3,46.716,29.3,41s4.634-10.35,10.35-10.35C45.366,30.65,50,35.285,50,41z M40.1,59
	c0,5.717-4.634,10.35-10.35,10.35c-5.716,0-10.35-4.633-10.35-10.35s4.634-10.35,10.35-10.35C35.466,48.65,40.1,53.283,40.1,59z
	 M50,77c0,5.717-4.634,10.35-10.35,10.35c-5.716,0-10.35-4.633-10.35-10.35s4.634-10.35,10.35-10.35C45.366,66.65,50,71.283,50,77z
	 M29.3,77c0,5.717-4.634,10.35-10.35,10.35S8.6,82.717,8.6,77s4.634-10.35,10.35-10.35S29.3,71.283,29.3,77z"/>
</svg>
