<?xml version="1.0" encoding="utf-8"?>
<!-- Generator: Adobe Illustrator 16.2.1, SVG Export Plug-In . SVG Version: 6.00 Build 0)  -->
<!DOCTYPE svg PUBLIC "-//W3C//DTD SVG 1.1//EN" "http://www.w3.org/Graphics/SVG/1.1/DTD/svg11.dtd">
<svg version="1.1" id="Layer_1" xmlns="http://www.w3.org/2000/svg" xmlns:xlink="http://www.w3.org/1999/xlink" x="0px" y="0px"
	 width="100px" height="100px" viewBox="0 0 100 100" enable-background="new 0 0 100 100" xml:space="preserve">
<path d="M60.775,35.886v-0.002c-1.385-0.467-2.642-1.218-3.705-2.173c-0.257-0.241-0.416-0.583-0.416-0.965
	c0-0.059,0.004-0.121,0.012-0.179c0.245-1.532,0.377-3.182,0.377-4.9c0-4.72-1.008-8.916-2.576-11.582
	c-0.52-1.071,0.322-2.074,0.322-2.074c0.033-0.034,0.047-0.071,0.047-0.107V7.369c0-0.107-0.141-0.205-0.404-0.295
	c-0.148-0.066-0.253-0.212-0.253-0.384c0-0.159,0.093-0.296,0.22-0.366c0.125-0.063,0.19-0.128,0.19-0.198V3.423
	c0-0.365-1.857-0.662-4.144-0.662c-2.287,0-4.139,0.296-4.139,0.662v2.704c0,0.069,0.066,0.135,0.192,0.198
	c0.126,0.069,0.215,0.207,0.215,0.366c0,0.173-0.104,0.318-0.249,0.384c-0.261,0.09-0.406,0.187-0.406,0.295v6.536
	c0,0.037,0.015,0.073,0.05,0.107c0,0,0.84,1.003,0.318,2.074c-1.568,2.666-2.577,6.862-2.577,11.582c0,1.718,0.135,3.368,0.38,4.9
	c0.008,0.058,0.012,0.119,0.012,0.179c0,0.382-0.158,0.723-0.415,0.965c-1.067,0.955-2.321,1.706-3.708,2.173l0.004,0.002
	c-1.784,0.624-3.065,2.319-3.065,4.314l1.381,54.007c0,1.5,5.377,2.713,12.014,2.713h-0.008c6.635,0,12.014-1.213,12.014-2.713
	L63.842,40.2C63.84,38.205,62.559,36.51,60.775,35.886z M52.486,8.707c0-0.32,0.262-0.581,0.584-0.581
	c0.318,0,0.578,0.261,0.578,0.581v3.602c0,0.318-0.26,0.578-0.578,0.578c-0.322,0-0.584-0.258-0.584-0.578V8.707z M45.456,25.673
	c0.046-0.903,0.139-1.775,0.273-2.6l0,0c0.031-0.159,0.164-0.279,0.333-0.279c0,0,0,0,0.004,0l0,0
	c1.338-0.01,6.113-0.01,7.813-0.006c0.184-0.004,0.326-0.149,0.332-0.33c-0.1-1.31-0.23-2.57-0.393-3.753
	c0-0.094,0.078-0.171,0.17-0.171c0.072,0,0.131,0.043,0.156,0.107c0.91,2.331,1.475,5.514,1.475,9.028
	c0,0.565-0.018,1.141-0.048,1.687c0,0.328-0.263,0.596-0.594,0.596c-0.33,0-0.599-0.268-0.599-0.596
	c0.014-0.547,0.021-1.129,0.021-1.687c0-0.443-0.007-0.88-0.013-1.315c-0.016-0.173-0.16-0.311-0.336-0.311
	c-1.734,0.015-6.835,0.011-8.247-0.017H45.8c-0.187,0-0.341-0.149-0.341-0.339C45.456,25.682,45.456,25.678,45.456,25.673z
	 M53.288,42.533c-1.081,0.356-2.258,0.439-3.302,0.286c-1.584-0.165-3.111-0.844-4.024-1.909c-1.166-1.375-0.887-2.954,0.537-3.868
	l0.007,0.002c0.05-0.044,0.13-0.075,0.227-0.075c0.158,0,0.287,0.079,0.287,0.177c0,0.042-0.026,0.077-0.064,0.111h0.003
	c-0.448,0.515-0.659,1.13-0.583,1.77c0.008,0.267,0.357,0.485,0.791,0.485c0.276,0,0.51-0.085,0.655-0.212l0.004,0.003
	c0.425-0.424,1.047-0.791,1.83-1.047c2.171-0.711,4.745-0.332,5.753,0.851C56.402,40.288,55.467,41.825,53.288,42.533z
	 M60.922,92.402c0,0.812-1.764,1.535-4.48,1.975v-0.002c-0.02,0.004-0.039,0.007-0.061,0.007c-0.178,0-0.322-0.144-0.322-0.323
	c0-0.125,0.072-0.233,0.18-0.288l0,0c2.01-0.915,3.256-2.003,3.256-2.386l0.615-23.934c-0.836,0.221-1.81,0.412-2.9,0.566
	l-0.004-0.006c-0.01,0.004-0.022,0.006-0.033,0.006c-0.188,0-0.338-0.152-0.338-0.338c0-0.013,0-0.02,0-0.03l0.363-18.894
	c0-0.014-0.004-0.025-0.004-0.04c0-0.187,0.154-0.34,0.338-0.34c0.004,0,0.012,0.004,0.012,0.004
	c1.15-0.075,2.183-0.164,3.058-0.271l0.196-7.729c0-0.683-0.166-1.326-0.465-1.891l0.009-0.004
	c-0.022-0.027-0.034-0.058-0.034-0.094c0-0.096,0.075-0.171,0.168-0.171c0.043,0,0.078,0.017,0.108,0.04
	c0.993,0.75,1.638,1.937,1.638,3.277L60.922,92.402z"/>
</svg>
