<?xml version="1.0" encoding="utf-8"?>
<!-- Generator: Adobe Illustrator 16.2.1, SVG Export Plug-In . SVG Version: 6.00 Build 0)  -->
<!DOCTYPE svg PUBLIC "-//W3C//DTD SVG 1.1//EN" "http://www.w3.org/Graphics/SVG/1.1/DTD/svg11.dtd">
<svg version="1.1" id="Layer_1" xmlns="http://www.w3.org/2000/svg" xmlns:xlink="http://www.w3.org/1999/xlink" x="0px" y="0px"
	 width="100px" height="100px" viewBox="0 0 100 100" enable-background="new 0 0 100 100" xml:space="preserve">
<path d="M97.5,85.826h-95V14.174h95V85.826L97.5,85.826z M13.742,79.197h72.516l-23.862-24.43l-4.519,4.549
	c-1.956,1.955-4.756,3.072-7.699,3.072c-0.016,0-0.033-0.002-0.05-0.002c-2.954-0.014-5.763-1.156-7.709-3.141l-4.593-4.65
	L13.742,79.197L13.742,79.197z M9.128,25.549v48.887l24.04-24.552L9.128,25.549L9.128,25.549z M67.066,50.065l23.807,24.369V26.098
	L67.066,50.065L67.066,50.065z M13.757,20.804l33.386,33.793c0.723,0.736,1.82,1.158,3.015,1.162c0.007,0,0.014,0,0.02,0
	c1.178,0,2.299-0.416,3.002-1.125l33.607-33.831H13.757L13.757,20.804z"/>
</svg>
