<?xml version="1.0" encoding="utf-8"?>
<!-- Generator: Adobe Illustrator 16.2.1, SVG Export Plug-In . SVG Version: 6.00 Build 0)  -->
<!DOCTYPE svg PUBLIC "-//W3C//DTD SVG 1.1//EN" "http://www.w3.org/Graphics/SVG/1.1/DTD/svg11.dtd">
<svg version="1.1"
	 id="Calque_1" xmlns:dc="http://purl.org/dc/elements/1.1/" xmlns:cc="http://creativecommons.org/ns#" xmlns:rdf="http://www.w3.org/1999/02/22-rdf-syntax-ns#" xmlns:svg="http://www.w3.org/2000/svg" xmlns:sodipodi="http://sodipodi.sourceforge.net/DTD/sodipodi-0.dtd" xmlns:inkscape="http://www.inkscape.org/namespaces/inkscape" sodipodi:docname="noun_project_4734.svg" inkscape:version="0.48.2 r9819"
	 xmlns="http://www.w3.org/2000/svg" xmlns:xlink="http://www.w3.org/1999/xlink" x="0px" y="0px" width="100px" height="100px"
	 viewBox="0 0 100 100" enable-background="new 0 0 100 100" xml:space="preserve">
<path id="path3186" d="M80.833,86.719H19.502c-2.152,0-3.902-1.75-3.902-3.9v-76c0-2.151,1.75-3.902,3.901-3.902h61.332
	c2.151,0,3.901,1.751,3.901,3.902v75.998C84.734,84.969,82.984,86.719,80.833,86.719L80.833,86.719z M20.833,84.248h60
	c0.789,0,1.431-0.643,1.431-1.432V6.819c0-0.79-0.642-1.432-1.431-1.432H19.501c-0.789,0-1.432,0.642-1.432,1.432v75.998
	c0,0.789,0.643,1.432,1.432,1.432H20.833L20.833,84.248z M79.5,97.385H20.833c-0.682,0-1.235-0.553-1.235-1.234V85.482
	c0-0.683,0.553-1.234,1.235-1.234s1.235,0.553,1.235,1.234v9.432h56.196v-9.43c0-0.684,0.555-1.236,1.235-1.236
	s1.235,0.554,1.235,1.236V96.15C80.734,96.832,80.182,97.385,79.5,97.385L79.5,97.385z M74.166,17.484
	c0-1.474-1.191-2.666-2.666-2.666H28.834c-1.473,0-2.665,1.192-2.665,2.666v32c0,1.475,1.192,2.667,2.665,2.667H71.5
	c1.475,0,2.666-1.192,2.666-2.667V17.484z M24.835,68.15h2.667v2.666h-2.667V68.15z M50.167,68.15h23.999v2.666H50.167V68.15z"/>
</svg>
