<?xml version="1.0" encoding="utf-8"?>
<!-- Generator: Adobe Illustrator 16.2.1, SVG Export Plug-In . SVG Version: 6.00 Build 0)  -->
<!DOCTYPE svg PUBLIC "-//W3C//DTD SVG 1.1//EN" "http://www.w3.org/Graphics/SVG/1.1/DTD/svg11.dtd">
<svg version="1.1"
	 id="Layer_1" xmlns:dc="http://purl.org/dc/elements/1.1/" xmlns:cc="http://creativecommons.org/ns#" xmlns:rdf="http://www.w3.org/1999/02/22-rdf-syntax-ns#" xmlns:svg="http://www.w3.org/2000/svg" xmlns:sodipodi="http://sodipodi.sourceforge.net/DTD/sodipodi-0.dtd" xmlns:inkscape="http://www.inkscape.org/namespaces/inkscape" inkscape:version="0.48.2 r9819" sodipodi:docname="noun_project_8434.svg"
	 xmlns="http://www.w3.org/2000/svg" xmlns:xlink="http://www.w3.org/1999/xlink" x="0px" y="0px" width="100px" height="100px"
	 viewBox="0 0 100 100" enable-background="new 0 0 100 100" xml:space="preserve">
<sodipodi:namedview  guidetolerance="10" showgrid="false" inkscape:cy="50" id="namedview3405" pagecolor="#ffffff" inkscape:zoom="2.36" inkscape:cx="50" objecttolerance="10" gridtolerance="10" bordercolor="#666666" borderopacity="1" inkscape:window-maximized="0" inkscape:window-width="640" inkscape:pageopacity="0" inkscape:window-y="22" inkscape:current-layer="Layer_1" inkscape:pageshadow="2" inkscape:window-x="0" inkscape:window-height="480">
	</sodipodi:namedview>
<path id="circle3403" d="M63.613,40.175c0,0.716-0.581,1.296-1.297,1.296c-0.717,0-1.297-0.58-1.297-1.296s0.58-1.297,1.297-1.297
	C63.032,38.878,63.613,39.458,63.613,40.175z M71.689,24.123c-9.082,0-17.051,4.691-21.664,11.771
	c-4.611-7.08-12.582-11.771-21.661-11.771c-14.274,0-25.848,11.573-25.848,25.851c0,14.272,11.573,25.896,25.848,25.896
	c4.446,0,8.618-1.168,12.268-3.068c-6.069,0-12.369,0-12.4,0c0,0,25.856-36.981,25.899-37.047c0.021-0.024,0.039-0.067,0.064-0.092
	c0.648-0.896,1.471-1.668,2.418-2.261c0.96-0.609,2.045-1.041,3.211-1.24c0.479-0.084,0.971-0.132,1.473-0.132
	c0.498,0,0.98,0.046,1.453,0.127c3.953,0.658,7.004,3.934,7.316,7.989l7.049,3.49l-7.164,3.475v4.663c0,0.02,0,0.043,0,0.062
	c0,8.768-5.377,16.256-13.044,19.346c4.173,2.91,9.269,4.641,14.746,4.641c14.276,0,25.866-11.577,25.866-25.848
	C97.52,35.694,85.967,24.123,71.689,24.123z"/>
</svg>
