<?xml version="1.0" encoding="utf-8"?>
<!-- Generator: Adobe Illustrator 16.2.1, SVG Export Plug-In . SVG Version: 6.00 Build 0)  -->
<!DOCTYPE svg PUBLIC "-//W3C//DTD SVG 1.1//EN" "http://www.w3.org/Graphics/SVG/1.1/DTD/svg11.dtd">
<svg version="1.1"
	 id="Layer_1" xmlns:dc="http://purl.org/dc/elements/1.1/" xmlns:cc="http://creativecommons.org/ns#" xmlns:rdf="http://www.w3.org/1999/02/22-rdf-syntax-ns#" xmlns:svg="http://www.w3.org/2000/svg" xmlns:sodipodi="http://sodipodi.sourceforge.net/DTD/sodipodi-0.dtd" xmlns:inkscape="http://www.inkscape.org/namespaces/inkscape" inkscape:version="0.48.2 r9819" sodipodi:docname="noun_project_7773.svg"
	 xmlns="http://www.w3.org/2000/svg" xmlns:xlink="http://www.w3.org/1999/xlink" x="0px" y="0px" width="100px" height="100px"
	 viewBox="0 0 100 100" enable-background="new 0 0 100 100" xml:space="preserve">
<path id="path9" d="M27.931,13.404c1.84,0.301,3.089,2.036,2.789,3.876c-0.302,1.842-2.036,3.089-3.878,2.792
	c-1.842-0.303-3.089-2.04-2.789-3.88C24.354,14.35,26.09,13.102,27.931,13.404z M53.035,63.781l-0.027-0.17l-17.69-50.44
	l-0.105-0.242c-2.21-4.204-9.053-10.956-19.128-6.424c-0.447,0.202-0.873,0.413-1.276,0.629C6,11.89,6.739,20.861,8.332,24.858
	l15.714,45.919c0.042,0.133,4.222,13.332,19.304,9.78l0.278-0.088c0.554-0.229,1.092-0.485,1.6-0.763
	C54.567,74.667,53.102,64.223,53.035,63.781z M19.244,45.63l-7.536-22.015c-0.147-0.376-3.605-9.596,5.852-13.825
	c9.044-4.069,13.82,3.677,14.409,4.712l8.222,23.441C32.41,48.461,22.294,46.526,19.244,45.63z M46.384,71.496
	c-0.165,0.395-0.454,0.699-0.805,0.889c-0.461,0.25-1.028,0.296-1.551,0.078c-0.916-0.383-1.349-1.436-0.967-2.352
	c0.334-0.807,1.102-3.275,0.658-4.98c-1.259-4.844-5.153-15.9-5.191-16.011c-0.331-0.939,0.165-1.966,1.098-2.297
	c0.938-0.329,1.966,0.163,2.297,1.1c0.163,0.459,3.984,11.311,5.281,16.303C48.03,67.407,46.554,71.086,46.384,71.496z
	 M79.131,16.729c-0.488-0.035-0.961-0.053-1.42-0.053c-10.011,0-13.621,8.245-14.119,12.519l-7.986,47.872
	c-0.025,0.137-2.617,13.737,12.34,17.779l0.287,0.053c0.594,0.061,1.188,0.094,1.769,0.094c10.614,0,14.286-9.887,14.437-10.309
	l0.057-0.16l8.396-52.791l0.021-0.263C92.963,26.718,90.15,17.527,79.131,16.729z M80.994,83.604
	c-0.446,1.105-3.45,7.785-10.995,7.785c-0.41,0-0.833-0.02-1.259-0.058c-11.491-3.19-9.69-13.129-9.598-13.608l3.495-20.95
	c2.755,2.132,7.481,4.854,13.734,4.854c2.549,0,5.351-0.457,8.372-1.586L80.994,83.604z M86.892,33.163
	c-1.141,1.478-3.259,1.75-4.739,0.614c-1.477-1.141-1.748-3.261-0.61-4.738c1.14-1.478,3.26-1.752,4.737-0.611
	C87.757,29.565,88.029,31.685,86.892,33.163z M73.788,88.712c-0.524,0-1.045-0.229-1.401-0.668
	c-0.623-0.771-0.507-1.901,0.266-2.529l0,0c0.678-0.552,2.525-2.358,2.943-4.069c1.193-4.859,3.019-16.441,3.038-16.557
	c0.156-0.982,1.078-1.65,2.058-1.497c0.984,0.155,1.652,1.075,1.498,2.057c-0.074,0.481-1.865,11.848-3.096,16.856
	c-0.783,3.19-3.83,5.727-4.178,6.006C74.587,88.58,74.185,88.712,73.788,88.712z"/>
</svg>
