<?xml version="1.0" encoding="utf-8"?>
<!-- Generator: Adobe Illustrator 16.2.1, SVG Export Plug-In . SVG Version: 6.00 Build 0)  -->
<!DOCTYPE svg PUBLIC "-//W3C//DTD SVG 1.1//EN" "http://www.w3.org/Graphics/SVG/1.1/DTD/svg11.dtd">
<svg version="1.1" id="Layer_1" xmlns="http://www.w3.org/2000/svg" xmlns:xlink="http://www.w3.org/1999/xlink" x="0px" y="0px"
	 width="100px" height="100px" viewBox="0 0 100 100" enable-background="new 0 0 100 100" xml:space="preserve">
<path d="M94.92,48.501l-6.962,3.653c-0.435,0-0.841,0.113-1.205,0.297c-0.364-0.184-0.769-0.297-1.205-0.297h-3.81
	c-1.296,0-2.381,0.924-2.627,2.15H67.273v-1.882c0-0.772-0.334-1.466-0.857-1.958v-2.671H81.42c1.48,0,2.679-1.201,2.679-2.681
	v-4.385c0-0.027-0.007-0.053-0.009-0.08c0.004-0.478-0.115-0.961-0.381-1.4L75.25,25.311c0.303-0.565,0.315-1.268-0.043-1.856
	l-1.381-2.276c-0.159-0.261-0.374-0.462-0.615-0.612c-0.019-0.285-0.099-0.568-0.256-0.829l-0.342-5.485
	c0,0-0.121-2.119-1.396-1.345l-13.437,8.155c-1.275,0.773,0.548,1.859,0.548,1.859l4.708,2.834c0.158,0.26,0.375,0.461,0.614,0.612
	c0.021,0.284,0.101,0.568,0.258,0.829l1.384,2.276c0.355,0.587,0.984,0.902,1.625,0.895l4.662,7.681h-5.464
	c-0.413-0.769-1.212-1.297-2.147-1.297H29.096c-1.35,0-2.444,1.095-2.444,2.445c0,0.039,0.009,0.074,0.011,0.112
	c-0.001,0.038-0.011,0.074-0.011,0.112v3.6l-5.434-1.18c-1.445-0.322-2.878,0.589-3.2,2.034l-0.45,2.021l-7.785-1.733
	c-1.445-0.321-2.877,0.59-3.199,2.035L2.932,62.605c-0.322,1.445,0.589,2.878,2.034,3.199l6.017,1.34v8.074
	c0,1.48,1.201,2.682,2.681,2.682H64.59c1.48,0,2.682-1.203,2.682-2.682v-8.627h11.842c0.246,1.228,1.328,2.152,2.627,2.152h3.809
	c0.436,0,0.842-0.115,1.205-0.297c0.365,0.182,0.77,0.297,1.206,0.297l6.96,3.654c0,0,2.68,1.422,2.68-0.709V49.212
	C97.6,47.077,94.92,48.501,94.92,48.501z M31.54,41.641h27.579v3.473c0,1.386,1.057,2.514,2.406,2.653v1.974h-3.951L31.54,44.083
	V41.641z"/>
</svg>
