<?xml version="1.0" encoding="utf-8"?>
<!-- Generator: Adobe Illustrator 15.0.2, SVG Export Plug-In . SVG Version: 6.00 Build 0)  -->
<!DOCTYPE svg PUBLIC "-//W3C//DTD SVG 1.1//EN" "http://www.w3.org/Graphics/SVG/1.1/DTD/svg11.dtd">
<svg version="1.1" id="Layer_1" xmlns="http://www.w3.org/2000/svg" xmlns:xlink="http://www.w3.org/1999/xlink" x="0px" y="0px"
	 width="100px" height="100px" viewBox="0 0 100 100" enable-background="new 0 0 100 100" xml:space="preserve">
<path d="M8.945,68.1c2.604,2.533,5.957,4.812,9.965,6.775c4.158,2.035,8.83,3.635,13.891,4.75c5.46,1.203,11.247,1.814,17.198,1.814
	c5.95,0,11.736-0.611,17.198-1.814c5.061-1.115,9.734-2.717,13.89-4.75c4.008-1.963,7.36-4.242,9.967-6.775
	c2.781-2.709,4.556-5.553,5.272-8.455c1.406-5.709,1.551-11.575,0.424-17.437c-1.271-6.623-6.743-12.668-15.41-17.027
	c-4.151-2.088-8.892-3.718-14.086-4.845C61.825,19.159,56.019,18.56,50,18.56c-6.02,0-11.824,0.599-17.254,1.776
	c-5.194,1.127-9.934,2.755-14.089,4.845C9.993,29.54,4.52,35.585,3.25,42.208C2.124,48.07,2.266,53.936,3.675,59.645
	C4.389,62.547,6.162,65.391,8.945,68.1z M71.028,42.417c0.086-0.946,0.92-1.643,1.866-1.559l4.959,0.446
	c0.946,0.085,1.644,0.921,1.56,1.866c-0.081,0.895-0.832,1.567-1.712,1.567c-0.053,0-0.104-0.003-0.155-0.008l-4.958-0.446
	C71.642,44.199,70.943,43.363,71.028,42.417z M69.935,36.973c-0.178-0.935,0.437-1.833,1.369-2.011l4.726-0.894
	c0.935-0.174,1.832,0.438,2.011,1.371c0.175,0.934-0.438,1.833-1.371,2.011l-4.727,0.893c-0.107,0.022-0.215,0.03-0.32,0.03
	C70.812,38.374,70.091,37.799,69.935,36.973z M79.365,30.956c-0.291,0.622-0.913,0.986-1.559,0.986c-0.243,0-0.495-0.052-0.73-0.163
	l-3.821-1.799c-0.86-0.405-1.229-1.43-0.824-2.29c0.404-0.86,1.43-1.229,2.29-0.824l3.821,1.798
	C79.4,29.071,79.771,30.095,79.365,30.956z M64.723,26.003l-3.312,1.339c-0.214,0.085-0.431,0.125-0.646,0.125
	c-0.679,0-1.323-0.406-1.595-1.076c-0.356-0.88,0.07-1.883,0.949-2.239l2.122-0.856l1.192-0.482c0.881-0.356,1.882,0.07,2.238,0.951
	c0.021,0.052,0.04,0.105,0.055,0.157C65.977,24.762,65.552,25.67,64.723,26.003z M49.999,40.506L49.999,40.506L49.999,40.506
	c-4.446,0-8.771-0.888-11.867-2.436c-1.717-0.86-2.875-2.178-3.261-3.71c-0.33-1.307-0.052-2.674,0.777-3.848
	c0.305-0.432,0.901-0.535,1.333-0.23s0.535,0.899,0.23,1.332c-0.512,0.722-0.678,1.513-0.486,2.279
	c0.248,0.986,1.052,1.862,2.265,2.468c0.207,0.104,0.42,0.202,0.637,0.3c-0.047-0.158-0.072-0.354-0.072-0.543
	c0-1.798,4.676-3.256,10.445-3.256c5.769,0,10.445,1.457,10.445,3.256c0,0.189-0.024,0.385-0.073,0.543
	c0.22-0.098,0.433-0.196,0.64-0.3c1.212-0.606,2.016-1.482,2.262-2.468c0.193-0.767,0.025-1.557-0.484-2.279
	c-0.305-0.433-0.201-1.027,0.229-1.332c0.433-0.305,1.028-0.202,1.333,0.23c0.83,1.173,1.106,2.541,0.779,3.848
	c-0.388,1.533-1.547,2.851-3.263,3.71C58.768,39.619,54.445,40.506,49.999,40.506z M52.698,47.883
	c-0.134,0.846-0.864,1.453-1.698,1.453c-0.087,0-0.178-0.006-0.269-0.022l-4.46-0.699c-0.938-0.149-1.58-1.028-1.432-1.968
	c0.147-0.938,1.028-1.579,1.967-1.432l4.46,0.702C52.204,46.063,52.846,46.945,52.698,47.883z M33.547,26.721
	c0.576,0.756,0.433,1.835-0.323,2.412c-0.312,0.239-0.679,0.354-1.042,0.354c-0.518,0-1.029-0.232-1.369-0.674l-2.292-3
	c-0.089-0.116-0.159-0.241-0.215-0.37c-0.302-0.707-0.103-1.555,0.536-2.042c0.755-0.577,1.834-0.434,2.411,0.321l0.572,0.749
	L33.547,26.721z M18.936,31.448l3.833-0.899c0.924-0.216,1.849,0.357,2.067,1.282c0.216,0.925-0.358,1.85-1.283,2.066l-3.832,0.899
	c-0.131,0.03-0.264,0.046-0.394,0.046c-0.78,0-1.488-0.536-1.672-1.328C17.438,32.589,18.012,31.664,18.936,31.448z M22.548,41.375
	c0.782-0.538,1.854-0.339,2.391,0.445l2.205,3.21c0.538,0.784,0.34,1.855-0.443,2.392c-0.299,0.204-0.637,0.303-0.972,0.303
	c-0.548,0-1.086-0.26-1.419-0.747l-2.207-3.211C21.564,42.983,21.764,41.912,22.548,41.375z M26.507,39.209
	c-0.905-0.286-1.407-1.252-1.12-2.16c0.286-0.905,1.252-1.407,2.159-1.12l5.033,1.594c0.906,0.287,1.407,1.254,1.121,2.161
	c-0.232,0.732-0.91,1.201-1.639,1.201c-0.174,0-0.348-0.026-0.521-0.083L26.507,39.209z M54.568,22.506
	c0.096,0.067,0.188,0.144,0.271,0.231c0.651,0.689,0.625,1.779-0.065,2.431l-2.247,2.136c-0.331,0.314-0.758,0.472-1.184,0.472
	c-0.455,0-0.909-0.179-1.248-0.535c-0.653-0.689-0.626-1.78,0.064-2.432l2.249-2.135c0.103-0.097,0.213-0.179,0.333-0.246
	C53.31,22.104,54.025,22.13,54.568,22.506z M39.262,21.464c0.638-0.704,1.726-0.757,2.43-0.119l1.451,1.316l1.286,1.169
	c0.705,0.637,0.757,1.724,0.12,2.428c-0.34,0.376-0.806,0.564-1.275,0.564c-0.412,0-0.826-0.146-1.156-0.446l-2.739-2.484
	c-0.236-0.214-0.397-0.481-0.486-0.764C38.721,22.568,38.838,21.932,39.262,21.464z M40.617,50.562
	c-0.319,0.262-0.704,0.387-1.087,0.387c-0.498,0-0.993-0.215-1.333-0.631l-3.122-3.822c-0.601-0.736-0.493-1.819,0.245-2.42
	c0.735-0.601,1.818-0.492,2.419,0.246l3.122,3.82C41.461,48.878,41.352,49.96,40.617,50.562z M57.631,43.412
	c0.542-0.782,1.612-0.978,2.395-0.436l4.969,3.44c0.781,0.542,0.977,1.614,0.437,2.395c-0.335,0.482-0.872,0.74-1.418,0.74
	c-0.337,0-0.678-0.099-0.978-0.306l-4.968-3.44C57.286,45.265,57.091,44.193,57.631,43.412z M7.001,42.927
	c0.547-2.841,2.136-5.61,4.609-8.145c-0.27,1.016-0.409,2.179-0.409,3.591c0,10.24,17.37,18.54,38.798,18.54
	c21.428,0,38.797-8.3,38.797-18.54c0-1.269-0.124-2.591-0.365-3.543c2.448,2.521,4.021,5.273,4.564,8.098
	c0.963,5.002,0.963,10.353-0.381,15.802c-2.149,8.717-18.868,18.889-42.616,18.889c-23.747,0-40.465-10.172-42.614-18.889
	C6.042,53.281,6.042,47.93,7.001,42.927z"/>
</svg>
